<svg xmlns="http://www.w3.org/2000/svg" width="1473" height="412" viewBox="0 0 1473 412" fill="none"><path d="M1438.12 40.6401L1430.76 52.8172L1425.6 42.6436L1438.12 40.6401Z" fill="url(#paint0_linear_1409_8849)"></path><path d="M1387.07 0.865234L1402.82 49.3986C1403.12 50.3278 1403.8 51.0972 1404.68 51.5247C1405.57 51.9559 1406.59 52.0079 1407.51 51.6734L1456.11 34.1662C1456.67 33.9654 1457.04 33.4525 1457.07 32.8652C1457.09 32.2779 1456.75 31.7389 1456.21 31.501L1387.07 0.865234V0.865234Z" fill="url(#paint1_linear_1409_8849)"></path><path d="M1438.11 40.6412L1387.07 0.865234L1430.28 43.4922L1428.38 46.9528L1438.11 40.6412Z" fill="url(#paint2_linear_1409_8849)"></path><path d="M1425.62 45.1472L1430.76 52.8192L1430.28 43.4932L1425.62 45.1472Z" fill="url(#paint3_linear_1409_8849)"></path><path opacity="0.3" d="M104.068 328.572C84.8982 335.812 -26.4149 315.681 8.85849 276.014C70.0681 207.181 106.587 410 314.568 410C600.568 410 621.148 270.602 829.068 310.089C1036.99 349.576 1398.65 476.416 1469.57 179.706C1479.01 114.947 1442.45 69.9717 1435.57 56.3159" stroke="#FE7146" stroke-width="3" stroke-dasharray="6 6"></path><defs><linearGradient id="paint0_linear_1409_8849" x1="1432.07" y1="46.8241" x2="1416.67" y2="23.436" gradientUnits="userSpaceOnUse"><stop stop-color="#CD4538"></stop><stop offset="1" stop-color="#FF928E"></stop></linearGradient><linearGradient id="paint1_linear_1409_8849" x1="1424.34" y1="44.4949" x2="1423.25" y2="6.99514" gradientUnits="userSpaceOnUse"><stop stop-color="#FE7062"></stop><stop offset="1" stop-color="#FF928E"></stop></linearGradient><linearGradient id="paint2_linear_1409_8849" x1="1435.07" y1="44.8259" x2="1392.13" y2="1.3198" gradientUnits="userSpaceOnUse"><stop stop-color="#CD4538"></stop><stop offset="1" stop-color="#FF928E"></stop></linearGradient><linearGradient id="paint3_linear_1409_8849" x1="1428.35" y1="51.4674" x2="1427.86" y2="44.6433" gradientUnits="userSpaceOnUse"><stop stop-color="#FE7062"></stop><stop offset="1" stop-color="#FF928E"></stop></linearGradient></defs></svg>