<svg xmlns="http://www.w3.org/2000/svg" width="1400" height="463" viewBox="0 0 1400 463" fill="none"><path d="M0 0H1400V463H0V0Z" fill="#5959CD"></path><mask id="mask0_1366_5624" style="mask-type:alpha" maskUnits="userSpaceOnUse" x="0" y="0" width="1400" height="463"><path d="M0 0H1400V463H0V0Z" fill="#9AA0F0"></path></mask><g mask="url(#mask0_1366_5624)"><path opacity="0.2" d="M604.07 625C607.135 587.298 594.922 547.902 580.627 511.801C561.69 464.01 538.75 415.212 542.684 364.24C544.628 339.098 553.319 314.436 567.682 293.274C594.281 254.062 637.965 228.988 680.139 205.286C771.944 153.674 863.749 102.039 955.554 50.4275C1012.32 18.5131 1070.64 -14.7281 1109.89 -65.242C1134.41 -96.8132 1138.52 -145.268 1137.95 -184H69V625H604.093H604.07Z" fill="#6D66FF"></path><path d="M931.398 -76.9801C907.269 -20.486 860.078 27.4567 806.177 63.3841C739.845 107.605 663.18 136.288 588.238 166.613C513.295 196.939 438.035 230.036 377.741 281.086C338.428 314.381 304.461 361.354 314.398 409.732C321.603 444.848 350.305 472.501 378.849 496.65C407.393 520.82 438.214 545.147 452.268 578.462C458.107 592.298 459.73 608.174 457.098 623H-3.94067V-76.9801H931.398Z" fill="url(#paint0_linear_1366_5624)"></path><path opacity="0.2" d="M-3.94122 259.193C35.0148 309.096 101.862 340.569 164.848 335.086C194.303 332.533 225.717 320.913 239.93 294.943C250.559 275.544 249.57 252.008 255.943 230.808C267.662 191.733 303.629 164.119 341.852 150.085C380.076 136.05 421.289 133.081 461.511 126.866C501.754 120.65 542.986 110.317 574.519 84.5249C603.697 60.6525 621.947 25.2596 630.419 -11.519C635.368 -32.9764 637.209 -54.9287 637.189 -76.98H-3.92139V259.193H-3.94122Z" fill="url(#paint1_linear_1366_5624)"></path><path opacity="0.1" d="M962.021 -76.9806C959.369 -35.0159 938.466 7.00824 903.944 33.0977C844.876 77.7545 761.759 75.3198 687.231 65.6798C612.704 56.0398 534.119 41.8073 464.442 68.9656C429.643 82.525 399.832 105.586 366.518 122.213C294.287 158.279 205.409 162.06 130.129 132.269C73.675 109.921 26.9002 70.9649 -3.99933 20.4884V-77.0004H962.021V-76.9806Z" fill="#6D66FF"></path><path opacity="0.2" d="M608 522.191C610.652 480.226 631.556 438.202 666.078 412.112C725.145 367.455 808.263 369.89 882.79 379.53C957.317 389.17 1035.9 403.403 1105.58 376.244C1140.38 362.685 1170.19 339.624 1203.5 322.997C1275.73 286.931 1364.61 283.15 1439.89 312.941C1496.35 335.289 1543.12 374.245 1574.02 424.722L1574.02 522.211L608 522.21L608 522.191Z" fill="#6D66FF"></path><path d="M791 606.98C815.13 550.486 862.32 502.543 916.221 466.616C982.553 422.395 1059.22 393.712 1134.16 363.387C1209.1 333.061 1284.36 299.964 1344.66 248.914C1383.97 215.619 1417.94 168.646 1408 120.268C1400.8 85.1523 1372.09 57.4991 1343.55 33.3496C1315.01 9.18024 1284.18 -15.1475 1270.13 -48.4619C1264.29 -62.2984 1262.67 -78.1738 1265.3 -93H1726.34V606.98H791Z" fill="url(#paint2_linear_1366_5624)"></path><path opacity="0.2" d="M384.312 623C386.786 595.703 373.702 574.543 352.007 555.718C328.669 535.468 296.443 527.174 267.543 514.466C199.073 484.378 146.063 425.686 126.248 358.068C119.181 333.978 116.074 308.7 105.167 285.857C86.916 247.613 40.4975 220.574 -3.94159 214.22V623H384.312Z" fill="url(#paint3_linear_1366_5624)"></path><path opacity="0.1" d="M485.008 623C499.379 603.562 506.921 579.768 505.555 556.232C503.773 525.076 486.453 494.968 459.532 476.163C443.38 464.88 424.159 457.576 408.858 445.323C358.065 404.645 362.875 321.349 305.628 288.806C272.255 269.823 228.805 275.722 192.244 288.747C155.684 301.772 121.518 321.269 83.1756 328.772C54.4139 334.393 19.2981 329.445 -3.96069 314.341V623H484.988H485.008Z" fill="#6D66FF"></path><path opacity="0.35" d="M97.9744 -30.0739C81.7253 -13.8248 81.7253 12.5201 97.9744 28.7692C114.224 45.0184 140.569 45.0184 156.818 28.7693C173.067 12.5202 173.067 -13.8249 156.818 -30.074C140.569 -46.3231 114.224 -46.3231 97.9744 -30.0739Z" fill="#6D66FF"></path><path opacity="0.45" d="M539.398 84.2565C528.772 88.6256 523.699 100.782 528.068 111.409C532.437 122.036 544.594 127.108 555.221 122.739C565.847 118.37 570.92 106.213 566.551 95.5867C562.182 84.96 550.025 79.8873 539.398 84.2565Z" fill="#6D66FF"></path><path opacity="0.45" d="M294.148 2.23832C294.148 -4.37311 299.492 -9.71769 306.104 -9.71769C312.715 -9.71769 318.06 -4.37311 318.06 2.23832C318.06 8.84975 312.715 14.1943 306.104 14.1943C299.492 14.1943 294.148 8.84975 294.148 2.23832Z" fill="#6D66FF"></path><path opacity="0.35" d="M190.324 447.187C175.806 447.187 164.037 458.956 164.037 473.474C164.037 487.992 175.806 499.762 190.324 499.762C204.842 499.762 216.611 487.992 216.611 473.474C216.611 458.956 204.842 447.187 190.324 447.187Z" fill="#6D66FF"></path><path d="M37.9825 239.597C42.3176 239.597 45.8213 243.12 45.8213 247.436C45.8213 251.751 42.2978 255.274 37.9825 255.274C33.6673 255.274 30.1439 251.751 30.1439 247.436C30.1439 243.12 33.6673 239.597 37.9825 239.597ZM37.9825 252.701C40.8726 252.701 43.2282 250.346 43.2282 247.456C43.2282 244.565 40.8726 242.21 37.9825 242.21C35.0925 242.21 32.737 244.565 32.737 247.456C32.737 250.346 35.0925 252.701 37.9825 252.701Z" fill="white" fill-opacity="0.2"></path><path d="M315.287 427.105H320.532V432.351C320.532 433.064 321.106 433.638 321.819 433.638C322.531 433.638 323.105 433.064 323.105 432.351V427.105H328.351C329.064 427.105 329.638 426.531 329.638 425.819C329.638 425.106 329.064 424.532 328.351 424.532H323.105V419.287C323.105 418.574 322.531 418 321.819 418C321.106 418 320.532 418.574 320.532 419.287V424.532H315.287C314.574 424.532 314 425.106 314 425.819C314 426.531 314.574 427.105 315.287 427.105Z" fill="white" fill-opacity="0.4"></path><path opacity="0.2" d="M217.225 81.1992H222.471V86.4448C222.471 87.1574 223.045 87.7314 223.757 87.7314C224.47 87.7314 225.044 87.1574 225.044 86.4448V81.1992H230.29C231.002 81.1992 231.576 80.6252 231.576 79.9126C231.576 79.2 231.002 78.6259 230.29 78.6259H225.044V73.3803C225.044 72.6677 224.47 72.0936 223.757 72.0936C223.045 72.0936 222.471 72.6677 222.471 73.3803V78.6259H217.225C216.512 78.6259 215.938 79.2 215.938 79.9126C215.938 80.6252 216.512 81.1992 217.225 81.1992Z" fill="white"></path><path opacity="0.4" d="M603.816 83.9707H609.061V89.2163C609.061 89.9289 609.636 90.5029 610.348 90.5029C611.061 90.5029 611.635 89.9289 611.635 89.2163V83.9707H616.88C617.593 83.9707 618.167 83.3967 618.167 82.6841C618.167 81.9715 617.593 81.3974 616.88 81.3974H611.635V76.1518C611.635 75.4392 611.061 74.8651 610.348 74.8651C609.636 74.8651 609.061 75.4392 609.061 76.1518V81.3974H603.816C603.103 81.3974 602.529 81.9715 602.529 82.6841C602.529 83.3967 603.103 83.9707 603.816 83.9707Z" fill="white"></path><path opacity="0.4" d="M367.17 20.0004C370.041 20.0004 371.466 22.1185 372.614 23.8208C373.722 25.4836 374.475 26.4931 375.9 26.4931C377.325 26.4931 378.077 25.4836 379.186 23.8208C380.334 22.1185 381.759 20.0004 384.609 20.0004C387.46 20.0004 388.905 22.1185 390.053 23.8208C391.162 25.4836 391.914 26.4931 393.339 26.4931C394.764 26.4931 395.516 25.4836 396.625 23.8208C397.773 22.1185 399.198 20.0004 402.049 20.0004C404.899 20.0004 406.344 22.1185 407.472 23.8208C408.581 25.4836 409.333 26.4931 410.758 26.4931C411.471 26.4931 412.045 27.0672 412.045 27.7798C412.045 28.4924 411.471 29.0664 410.758 29.0664C407.888 29.0664 406.463 26.9484 405.335 25.246C404.226 23.5833 403.474 22.5737 402.049 22.5737C400.623 22.5737 399.871 23.5833 398.763 25.246C397.615 26.9484 396.189 29.0664 393.339 29.0664C390.489 29.0664 389.043 26.9484 387.915 25.246C386.807 23.5833 386.055 22.5737 384.629 22.5737C383.204 22.5737 382.452 23.5833 381.343 25.246C380.195 26.9484 378.77 29.0664 375.92 29.0664C373.069 29.0664 371.624 26.9484 370.476 25.246C369.368 23.5833 368.615 22.5737 367.19 22.5737C365.765 22.5737 365.013 23.5833 363.904 25.246C362.756 26.9484 361.331 29.0664 358.461 29.0664C357.748 29.0664 357.174 28.4924 357.174 27.7798C357.174 27.0672 357.748 26.4931 358.461 26.4931C359.886 26.4931 360.638 25.4836 361.747 23.8208C362.895 22.1185 364.32 20.0004 367.19 20.0004H367.17Z" fill="white"></path><path opacity="0.3" d="M75.2973 432.654C78.1676 432.654 79.5928 434.772 80.7409 436.474C81.8494 438.137 82.6015 439.146 84.0267 439.146C85.452 439.146 86.2041 438.137 87.3126 436.474C88.4607 434.772 89.886 432.654 92.7365 432.654C95.5869 432.654 97.0319 434.772 98.18 436.474C99.2885 438.137 100.041 439.146 101.466 439.146C102.891 439.146 103.643 438.137 104.752 436.474C105.9 434.772 107.325 432.654 110.176 432.654C113.026 432.654 114.471 434.772 115.599 436.474C116.708 438.137 117.46 439.146 118.885 439.146C119.598 439.146 120.172 439.72 120.172 440.433C120.172 441.146 119.598 441.72 118.885 441.72C116.015 441.72 114.59 439.602 113.461 437.899C112.353 436.237 111.601 435.227 110.176 435.227C108.75 435.227 107.998 436.237 106.89 437.899C105.741 439.602 104.316 441.72 101.466 441.72C98.6154 441.72 97.1704 439.602 96.0223 437.899C94.9138 436.237 94.1617 435.227 92.7365 435.227C91.3112 435.227 90.559 436.237 89.4505 437.899C88.3024 439.602 86.8772 441.72 84.0267 441.72C81.1763 441.72 79.7313 439.602 78.5832 437.899C77.4747 436.237 76.7225 435.227 75.2973 435.227C73.8721 435.227 73.1198 436.237 72.0113 437.899C70.8633 439.602 69.438 441.72 66.5678 441.72C65.8552 441.72 65.2812 441.146 65.2812 440.433C65.2812 439.72 65.8552 439.146 66.5678 439.146C67.993 439.146 68.7453 438.137 69.8538 436.474C71.0019 434.772 72.4271 432.654 75.2973 432.654Z" fill="white"></path><path opacity="0.1" d="M906.972 -76.9801H909.169C880.962 -10.9846 825.081 36.3842 783.354 64.1957C723.93 103.805 655.322 131.339 588.99 157.963C581.052 161.15 573.134 164.317 565.236 167.524C492.352 196.998 416.103 230.115 354.997 281.838C333.361 300.168 316.1 320.359 305.074 340.233C291.832 364.105 287.437 387.443 291.97 409.534C298.978 443.68 326.928 471.214 356.105 495.918C358.124 497.62 360.143 499.323 362.162 501.025C388.945 523.571 416.637 546.909 429.781 578.086C435.64 591.982 437.402 607.817 434.69 623H432.711C435.363 608.194 433.7 592.397 427.98 578.838C415.014 548.077 387.499 524.917 360.895 502.51C358.876 500.807 356.837 499.105 354.838 497.403C341.754 486.318 326.71 472.976 314.477 457.932C301.353 441.799 293.376 426.102 290.05 409.95C285.418 387.364 289.892 363.61 303.352 339.302C314.477 319.231 331.896 298.842 353.71 280.374C415.034 228.452 491.441 195.276 564.464 165.742C572.362 162.536 580.3 159.369 588.218 156.182C654.471 129.597 722.98 102.103 782.226 62.6121C823.715 34.9589 878.903 -11.4003 906.912 -76.9603L906.972 -76.9801Z" fill="white"></path></g><defs><linearGradient id="paint0_linear_1366_5624" x1="931.398" y1="273.01" x2="-3.94067" y2="273.01" gradientUnits="userSpaceOnUse"><stop stop-color="#6D66FF"></stop><stop offset="1" stop-color="#2C2A89"></stop></linearGradient><linearGradient id="paint1_linear_1366_5624" x1="637.17" y1="129.36" x2="-3.94123" y2="129.36" gradientUnits="userSpaceOnUse"><stop stop-color="#6D66FF"></stop><stop offset="1" stop-color="#2C2A89"></stop></linearGradient><linearGradient id="paint2_linear_1366_5624" x1="791" y1="256.99" x2="1726.34" y2="256.99" gradientUnits="userSpaceOnUse"><stop stop-color="#6D66FF"></stop><stop offset="1" stop-color="#2C2A89"></stop></linearGradient><linearGradient id="paint3_linear_1366_5624" x1="384.609" y1="418.6" x2="1238.43" y2="418.6" gradientUnits="userSpaceOnUse"><stop stop-color="#6D66FF"></stop><stop offset="1" stop-color="#2C2A89"></stop></linearGradient></defs></svg>