<svg xmlns="http://www.w3.org/2000/svg" width="1920" height="767" viewBox="0 0 1920 767" fill="none"><rect width="1920" height="120" fill="#F5F5FD"></rect><path d="M0 120V716.553C0 716.553 291.574 762.682 480 766.553C667.778 770.411 874.5 736.553 960 736.553C1045.5 736.553 1252.22 770.411 1440 766.553C1628.43 762.682 1920 716.553 1920 716.553V120C1920 120 1684.99 87.0005 1471.43 87.0005C1257.88 87.0005 1131.14 120.5 971.476 120.5C811.809 120.5 701.538 87.0005 430.603 87.0005C159.667 87.0005 0 120 0 120Z" fill="url(#paint0_linear_1530_7195)"></path><path opacity="0.1" d="M335.964 494.071L336.324 495.189L337.475 495.42L364.445 500.831V535.401L337.361 540.752L336.21 540.979L335.847 542.095C334.405 546.527 332.614 550.761 330.474 554.798L329.866 555.944L330.665 556.966L348.61 579.92L325.97 606.108L296.065 589.271L295.164 588.763L294.228 589.206C290.462 590.988 286.494 592.463 282.403 593.629L281.231 593.963L280.99 595.157L274.569 627H239.891L233.028 592.574L232.813 591.498L231.791 591.1C228.777 589.929 225.83 588.612 223.056 587.074L222.079 586.533L221.106 587.08L190.961 604.038L168.32 577.849L188.581 551.909L189.314 550.969L188.837 549.877C187.51 546.841 186.341 543.69 185.367 540.464L185.02 539.314L183.842 539.08L155 533.348V498.759L185.404 492.632L186.515 492.408L186.894 491.341C187.556 489.475 188.293 487.619 189.102 485.85L189.608 484.744L188.86 483.786L169.557 459.08L192.198 432.892L221.066 449.132L222.031 449.675L223.003 449.145C227.203 446.856 231.642 444.952 236.242 443.435L237.346 443.072L237.576 441.933L243.638 412H278.317L284.302 441.968L284.53 443.11L285.637 443.475C290.47 445.069 295.101 447.089 299.453 449.532L300.433 450.081L301.412 449.531L327.247 435.002L349.888 461.191L332.701 483.189L331.946 484.155L332.464 485.266C333.794 488.115 334.998 491.061 335.964 494.071ZM217.692 518.067C217.692 541.913 237.072 561.199 260.92 561.199C284.809 561.199 304.148 541.912 304.148 518.067C304.148 494.221 284.809 474.934 260.92 474.934C237.03 474.934 217.692 494.221 217.692 518.067Z" stroke="#F5F5F5" stroke-width="4"></path><g opacity="0.2"><g clip-path="url(#clip0_1530_7195)"><path d="M1641.46 270.198L1655.6 257.77C1663.68 250.67 1675.79 250.67 1683.87 257.77C1691.96 264.88 1704.07 264.88 1712.15 257.77C1720.23 250.67 1732.34 250.67 1740.43 257.77C1748.51 264.88 1760.62 264.88 1768.7 257.77C1776.78 250.67 1788.89 250.67 1796.98 257.77C1805.06 264.88 1817.17 264.88 1825.25 257.77C1833.34 250.67 1845.45 250.67 1853.53 257.77C1861.61 264.88 1873.72 264.88 1881.8 257.77C1889.89 250.67 1902 250.67 1910.08 257.77C1918.16 264.88 1930.27 264.88 1938.36 257.77C1946.44 250.67 1958.55 250.67 1966.63 257.77C1974.72 264.88 1986.83 264.88 1994.91 257.77C2002.99 250.67 2015.1 250.67 2023.18 257.77C2031.27 264.88 2043.38 264.88 2051.46 257.77C2059.54 250.67 2071.65 250.67 2079.74 257.77C2087.82 264.88 2099.93 264.88 2108.01 257.77C2116.09 250.67 2128.21 250.67 2136.29 257.77C2144.37 264.88 2156.48 264.88 2164.56 257.77C2172.65 250.67 2184.76 250.67 2192.84 257.77C2200.92 264.88 2213.03 264.88 2221.12 257.77C2229.2 250.67 2241.31 250.67 2249.39 257.77C2257.47 264.88 2269.58 264.88 2277.67 257.77C2285.75 250.67 2297.86 250.67 2305.94 257.77" stroke="#DFDDDD" stroke-width="4" stroke-miterlimit="10"></path><path d="M1641.46 287.944L1655.6 275.525C1663.68 268.425 1675.79 268.425 1683.87 275.525C1691.96 282.626 1704.07 282.626 1712.15 275.525C1720.23 268.425 1732.34 268.425 1740.43 275.525C1748.51 282.626 1760.62 282.626 1768.7 275.525C1776.78 268.425 1788.89 268.425 1796.98 275.525C1805.06 282.626 1817.17 282.626 1825.25 275.525C1833.34 268.425 1845.45 268.425 1853.53 275.525C1861.61 282.626 1873.72 282.626 1881.8 275.525C1889.89 268.425 1902 268.425 1910.08 275.525C1918.16 282.626 1930.27 282.626 1938.36 275.525C1946.44 268.425 1958.55 268.425 1966.63 275.525C1974.72 282.626 1986.83 282.626 1994.91 275.525C2002.99 268.425 2015.1 268.425 2023.18 275.525C2031.27 282.626 2043.38 282.626 2051.46 275.525C2059.54 268.425 2071.65 268.425 2079.74 275.525C2087.82 282.626 2099.93 282.626 2108.01 275.525C2116.09 268.425 2128.21 268.425 2136.29 275.525C2144.37 282.626 2156.48 282.626 2164.56 275.525C2172.65 268.425 2184.76 268.425 2192.84 275.525C2200.92 282.626 2213.03 282.626 2221.12 275.525C2229.2 268.425 2241.31 268.425 2249.39 275.525C2257.47 282.626 2269.58 282.626 2277.67 275.525C2285.75 268.425 2297.86 268.425 2305.94 275.525" stroke="#DFDDDD" stroke-width="4" stroke-miterlimit="10"></path><path d="M1641.46 305.699L1655.6 293.271C1663.68 286.171 1675.79 286.171 1683.87 293.271C1691.96 300.372 1704.07 300.372 1712.15 293.271C1720.23 286.171 1732.34 286.171 1740.43 293.271C1748.51 300.372 1760.62 300.372 1768.7 293.271C1776.78 286.171 1788.89 286.171 1796.98 293.271C1805.06 300.372 1817.17 300.372 1825.25 293.271C1833.34 286.171 1845.45 286.171 1853.53 293.271C1861.61 300.372 1873.72 300.372 1881.8 293.271C1889.89 286.171 1902 286.171 1910.08 293.271C1918.16 300.372 1930.27 300.372 1938.36 293.271C1946.44 286.171 1958.55 286.171 1966.63 293.271C1974.72 300.372 1986.83 300.372 1994.91 293.271C2002.99 286.171 2015.1 286.171 2023.18 293.271C2031.27 300.372 2043.38 300.372 2051.46 293.271C2059.54 286.171 2071.65 286.171 2079.74 293.271C2087.82 300.372 2099.93 300.372 2108.01 293.271C2116.09 286.171 2128.21 286.171 2136.29 293.271C2144.37 300.372 2156.48 300.372 2164.56 293.271C2172.65 286.171 2184.76 286.171 2192.84 293.271C2200.92 300.372 2213.03 300.372 2221.12 293.271C2229.2 286.171 2241.31 286.171 2249.39 293.271C2257.47 300.372 2269.58 300.372 2277.67 293.271C2285.75 286.171 2297.86 286.171 2305.94 293.271" stroke="#DFDDDD" stroke-width="4" stroke-miterlimit="10"></path><path d="M1641.46 323.445L1655.6 311.027C1663.68 303.917 1675.79 303.917 1683.87 311.027C1691.96 318.127 1704.07 318.127 1712.15 311.027C1720.23 303.917 1732.34 303.917 1740.43 311.027C1748.51 318.127 1760.62 318.127 1768.7 311.027C1776.78 303.917 1788.89 303.917 1796.98 311.027C1805.06 318.127 1817.17 318.127 1825.25 311.027C1833.34 303.917 1845.45 303.917 1853.53 311.027C1861.61 318.127 1873.72 318.127 1881.8 311.027C1889.89 303.917 1902 303.917 1910.08 311.027C1918.16 318.127 1930.27 318.127 1938.36 311.027C1946.44 303.917 1958.55 303.917 1966.63 311.027C1974.72 318.127 1986.83 318.127 1994.91 311.027C2002.99 303.917 2015.1 303.917 2023.18 311.027C2031.27 318.127 2043.38 318.127 2051.46 311.027C2059.54 303.917 2071.65 303.917 2079.74 311.027C2087.82 318.127 2099.93 318.127 2108.01 311.027C2116.09 303.917 2128.21 303.917 2136.29 311.027C2144.37 318.127 2156.48 318.127 2164.56 311.027C2172.65 303.917 2184.76 303.917 2192.84 311.027C2200.92 318.127 2213.03 318.127 2221.12 311.027C2229.2 303.917 2241.31 303.917 2249.39 311.027C2257.47 318.127 2269.58 318.127 2277.67 311.027C2285.75 303.917 2297.86 303.917 2305.94 311.027" stroke="#DFDDDD" stroke-width="4" stroke-miterlimit="10"></path><path d="M1641.46 341.2L1655.6 328.782C1663.68 321.681 1675.79 321.681 1683.87 328.782C1691.96 335.891 1704.07 335.891 1712.15 328.782C1720.23 321.681 1732.34 321.681 1740.43 328.782C1748.51 335.891 1760.62 335.891 1768.7 328.782C1776.78 321.681 1788.89 321.681 1796.98 328.782C1805.06 335.891 1817.17 335.891 1825.25 328.782C1833.34 321.681 1845.45 321.681 1853.53 328.782C1861.61 335.891 1873.72 335.891 1881.8 328.782C1889.89 321.681 1902 321.681 1910.08 328.782C1918.16 335.891 1930.27 335.891 1938.36 328.782C1946.44 321.681 1958.55 321.681 1966.63 328.782C1974.72 335.891 1986.83 335.891 1994.91 328.782C2002.99 321.681 2015.1 321.681 2023.18 328.782C2031.27 335.891 2043.38 335.891 2051.46 328.782C2059.54 321.681 2071.65 321.681 2079.74 328.782C2087.82 335.891 2099.93 335.891 2108.01 328.782C2116.09 321.681 2128.21 321.681 2136.29 328.782C2144.37 335.891 2156.48 335.891 2164.56 328.782C2172.65 321.681 2184.76 321.681 2192.84 328.782C2200.92 335.891 2213.03 335.891 2221.12 328.782C2229.2 321.681 2241.31 321.681 2249.39 328.782C2257.47 335.891 2269.58 335.891 2277.67 328.782C2285.75 321.681 2297.86 321.681 2305.94 328.782" stroke="#DFDDDD" stroke-width="4" stroke-miterlimit="10"></path><path d="M1641.46 358.946L1655.6 346.528C1663.68 339.428 1675.79 339.428 1683.87 346.528C1691.96 353.628 1704.07 353.628 1712.15 346.528C1720.23 339.428 1732.34 339.428 1740.43 346.528C1748.51 353.628 1760.62 353.628 1768.7 346.528C1776.78 339.428 1788.89 339.428 1796.98 346.528C1805.06 353.628 1817.17 353.628 1825.25 346.528C1833.34 339.428 1845.45 339.428 1853.53 346.528C1861.61 353.628 1873.72 353.628 1881.8 346.528C1889.89 339.428 1902 339.428 1910.08 346.528C1918.16 353.628 1930.27 353.628 1938.36 346.528C1946.44 339.428 1958.55 339.428 1966.63 346.528C1974.72 353.628 1986.83 353.628 1994.91 346.528C2002.99 339.428 2015.1 339.428 2023.18 346.528C2031.27 353.628 2043.38 353.628 2051.46 346.528C2059.54 339.428 2071.65 339.428 2079.74 346.528C2087.82 353.628 2099.93 353.628 2108.01 346.528C2116.09 339.428 2128.21 339.428 2136.29 346.528C2144.37 353.628 2156.48 353.628 2164.56 346.528C2172.65 339.428 2184.76 339.428 2192.84 346.528C2200.92 353.628 2213.03 353.628 2221.12 346.528C2229.2 339.428 2241.31 339.428 2249.39 346.528C2257.47 353.628 2269.58 353.628 2277.67 346.528C2285.75 339.428 2297.86 339.428 2305.94 346.528" stroke="#DFDDDD" stroke-width="4" stroke-miterlimit="10"></path><path d="M1641.46 376.702L1655.6 364.283C1663.68 357.183 1675.79 357.183 1683.87 364.283C1691.96 371.383 1704.07 371.383 1712.15 364.283C1720.23 357.183 1732.34 357.183 1740.43 364.283C1748.51 371.383 1760.62 371.383 1768.7 364.283C1776.78 357.183 1788.89 357.183 1796.98 364.283C1805.06 371.383 1817.17 371.383 1825.25 364.283C1833.34 357.183 1845.45 357.183 1853.53 364.283C1861.61 371.383 1873.72 371.383 1881.8 364.283C1889.89 357.183 1902 357.183 1910.08 364.283C1918.16 371.383 1930.27 371.383 1938.36 364.283C1946.44 357.183 1958.55 357.183 1966.63 364.283C1974.72 371.383 1986.83 371.383 1994.91 364.283C2002.99 357.183 2015.1 357.183 2023.18 364.283C2031.27 371.383 2043.38 371.383 2051.46 364.283C2059.54 357.183 2071.65 357.183 2079.74 364.283C2087.82 371.383 2099.93 371.383 2108.01 364.283C2116.09 357.183 2128.21 357.183 2136.29 364.283C2144.37 371.383 2156.48 371.383 2164.56 364.283C2172.65 357.183 2184.76 357.183 2192.84 364.283C2200.92 371.383 2213.03 371.383 2221.12 364.283C2229.2 357.183 2241.31 357.183 2249.39 364.283C2257.47 371.383 2269.58 371.383 2277.67 364.283C2285.75 357.183 2297.86 357.183 2305.94 364.283" stroke="#DFDDDD" stroke-width="4" stroke-miterlimit="10"></path><path d="M1641.46 394.457L1655.6 382.038C1663.68 374.929 1675.79 374.929 1683.87 382.038C1691.96 389.139 1704.07 389.139 1712.15 382.038C1720.23 374.929 1732.34 374.929 1740.43 382.038C1748.51 389.139 1760.62 389.139 1768.7 382.038C1776.78 374.929 1788.89 374.929 1796.98 382.038C1805.06 389.139 1817.17 389.139 1825.25 382.038C1833.34 374.929 1845.45 374.929 1853.53 382.038C1861.61 389.139 1873.72 389.139 1881.8 382.038C1889.89 374.929 1902 374.929 1910.08 382.038C1918.16 389.139 1930.27 389.139 1938.36 382.038C1946.44 374.929 1958.55 374.929 1966.63 382.038C1974.72 389.139 1986.83 389.139 1994.91 382.038C2002.99 374.929 2015.1 374.929 2023.18 382.038C2031.27 389.139 2043.38 389.139 2051.46 382.038C2059.54 374.929 2071.65 374.929 2079.74 382.038C2087.82 389.139 2099.93 389.139 2108.01 382.038C2116.09 374.929 2128.21 374.929 2136.29 382.038C2144.37 389.139 2156.48 389.139 2164.56 382.038C2172.65 374.929 2184.76 374.929 2192.84 382.038C2200.92 389.139 2213.03 389.139 2221.12 382.038C2229.2 374.929 2241.31 374.929 2249.39 382.038C2257.47 389.139 2269.58 389.139 2277.67 382.038C2285.75 374.929 2297.86 374.929 2305.94 382.038" stroke="#DFDDDD" stroke-width="4" stroke-miterlimit="10"></path><path d="M1641.46 412.203L1655.6 399.784C1663.68 392.684 1675.79 392.684 1683.87 399.784C1691.96 406.894 1704.07 406.894 1712.15 399.784C1720.23 392.684 1732.34 392.684 1740.43 399.784C1748.51 406.894 1760.62 406.894 1768.7 399.784C1776.78 392.684 1788.89 392.684 1796.98 399.784C1805.06 406.894 1817.17 406.894 1825.25 399.784C1833.34 392.684 1845.45 392.684 1853.53 399.784C1861.61 406.894 1873.72 406.894 1881.8 399.784C1889.89 392.684 1902 392.684 1910.08 399.784C1918.16 406.894 1930.27 406.894 1938.36 399.784C1946.44 392.684 1958.55 392.684 1966.63 399.784C1974.72 406.894 1986.83 406.894 1994.91 399.784C2002.99 392.684 2015.1 392.684 2023.18 399.784C2031.27 406.894 2043.38 406.894 2051.46 399.784C2059.54 392.684 2071.65 392.684 2079.74 399.784C2087.82 406.894 2099.93 406.894 2108.01 399.784C2116.09 392.684 2128.21 392.684 2136.29 399.784C2144.37 406.894 2156.48 406.894 2164.56 399.784C2172.65 392.684 2184.76 392.684 2192.84 399.784C2200.92 406.894 2213.03 406.894 2221.12 399.784C2229.2 392.684 2241.31 392.684 2249.39 399.784C2257.47 406.894 2269.58 406.894 2277.67 399.784C2285.75 392.684 2297.86 392.684 2305.94 399.784" stroke="#DFDDDD" stroke-width="4" stroke-miterlimit="10"></path><path d="M1641.46 429.958L1655.6 417.54C1663.68 410.439 1675.79 410.439 1683.87 417.54C1691.96 424.64 1704.07 424.64 1712.15 417.54C1720.23 410.439 1732.34 410.439 1740.43 417.54C1748.51 424.64 1760.62 424.64 1768.7 417.54C1776.78 410.439 1788.89 410.439 1796.98 417.54C1805.06 424.64 1817.17 424.64 1825.25 417.54C1833.34 410.439 1845.45 410.439 1853.53 417.54C1861.61 424.64 1873.72 424.64 1881.8 417.54C1889.89 410.439 1902 410.439 1910.08 417.54C1918.16 424.64 1930.27 424.64 1938.36 417.54C1946.44 410.439 1958.55 410.439 1966.63 417.54C1974.72 424.64 1986.83 424.64 1994.91 417.54C2002.99 410.439 2015.1 410.439 2023.18 417.54C2031.27 424.64 2043.38 424.64 2051.46 417.54C2059.54 410.439 2071.65 410.439 2079.74 417.54C2087.82 424.64 2099.93 424.64 2108.01 417.54C2116.09 410.439 2128.21 410.439 2136.29 417.54C2144.37 424.64 2156.48 424.64 2164.56 417.54C2172.65 410.439 2184.76 410.439 2192.84 417.54C2200.92 424.64 2213.03 424.64 2221.12 417.54C2229.2 410.439 2241.31 410.439 2249.39 417.54C2257.47 424.64 2269.58 424.64 2277.67 417.54C2285.75 410.439 2297.86 410.439 2305.94 417.54" stroke="#DFDDDD" stroke-width="4" stroke-miterlimit="10"></path><path d="M1641.46 447.704L1655.6 435.286C1663.68 428.185 1675.79 428.185 1683.87 435.286C1691.96 442.386 1704.07 442.386 1712.15 435.286C1720.23 428.185 1732.34 428.185 1740.43 435.286C1748.51 442.386 1760.62 442.386 1768.7 435.286C1776.78 428.185 1788.89 428.185 1796.98 435.286C1805.06 442.386 1817.17 442.386 1825.25 435.286C1833.34 428.185 1845.45 428.185 1853.53 435.286C1861.61 442.386 1873.72 442.386 1881.8 435.286C1889.89 428.185 1902 428.185 1910.08 435.286C1918.16 442.386 1930.27 442.386 1938.36 435.286C1946.44 428.185 1958.55 428.185 1966.63 435.286C1974.72 442.386 1986.83 442.386 1994.91 435.286C2002.99 428.185 2015.1 428.185 2023.18 435.286C2031.27 442.386 2043.38 442.386 2051.46 435.286C2059.54 428.185 2071.65 428.185 2079.74 435.286C2087.82 442.386 2099.93 442.386 2108.01 435.286C2116.09 428.185 2128.21 428.185 2136.29 435.286C2144.37 442.386 2156.48 442.386 2164.56 435.286C2172.65 428.185 2184.76 428.185 2192.84 435.286C2200.92 442.386 2213.03 442.386 2221.12 435.286C2229.2 428.185 2241.31 428.185 2249.39 435.286C2257.47 442.386 2269.58 442.386 2277.67 435.286C2285.75 428.185 2297.86 428.185 2305.94 435.286" stroke="#DFDDDD" stroke-width="4" stroke-miterlimit="10"></path><path d="M1641.46 465.459L1655.6 453.041C1663.68 445.931 1675.79 445.931 1683.87 453.041C1691.96 460.141 1704.07 460.141 1712.15 453.041C1720.23 445.931 1732.34 445.931 1740.43 453.041C1748.51 460.141 1760.62 460.141 1768.7 453.041C1776.78 445.931 1788.89 445.931 1796.98 453.041C1805.06 460.141 1817.17 460.141 1825.25 453.041C1833.34 445.931 1845.45 445.931 1853.53 453.041C1861.61 460.141 1873.72 460.141 1881.8 453.041C1889.89 445.931 1902 445.931 1910.08 453.041C1918.16 460.141 1930.27 460.141 1938.36 453.041C1946.44 445.931 1958.55 445.931 1966.63 453.041C1974.72 460.141 1986.83 460.141 1994.91 453.041C2002.99 445.931 2015.1 445.931 2023.18 453.041C2031.27 460.141 2043.38 460.141 2051.46 453.041C2059.54 445.931 2071.65 445.931 2079.74 453.041C2087.82 460.141 2099.93 460.141 2108.01 453.041C2116.09 445.931 2128.21 445.931 2136.29 453.041C2144.37 460.141 2156.48 460.141 2164.56 453.041C2172.65 445.931 2184.76 445.931 2192.84 453.041C2200.92 460.141 2213.03 460.141 2221.12 453.041C2229.2 445.931 2241.31 445.931 2249.39 453.041C2257.47 460.141 2269.58 460.141 2277.67 453.041C2285.75 445.931 2297.86 445.931 2305.94 453.041" stroke="#DFDDDD" stroke-width="4" stroke-miterlimit="10"></path><path d="M1641.46 483.214L1655.6 470.796C1663.68 463.686 1675.79 463.686 1683.87 470.796C1691.96 477.906 1704.07 477.906 1712.15 470.796C1720.23 463.686 1732.34 463.686 1740.43 470.796C1748.51 477.906 1760.62 477.906 1768.7 470.796C1776.78 463.686 1788.89 463.686 1796.98 470.796C1805.06 477.906 1817.17 477.906 1825.25 470.796C1833.34 463.686 1845.45 463.686 1853.53 470.796C1861.61 477.906 1873.72 477.906 1881.8 470.796C1889.89 463.686 1902 463.686 1910.08 470.796C1918.16 477.906 1930.27 477.906 1938.36 470.796C1946.44 463.686 1958.55 463.686 1966.63 470.796C1974.72 477.906 1986.83 477.906 1994.91 470.796C2002.99 463.686 2015.1 463.686 2023.18 470.796C2031.27 477.906 2043.38 477.906 2051.46 470.796C2059.54 463.686 2071.65 463.686 2079.74 470.796C2087.82 477.906 2099.93 477.906 2108.01 470.796C2116.09 463.686 2128.21 463.686 2136.29 470.796C2144.37 477.906 2156.48 477.906 2164.56 470.796C2172.65 463.686 2184.76 463.686 2192.84 470.796C2200.92 477.906 2213.03 477.906 2221.12 470.796C2229.2 463.686 2241.31 463.686 2249.39 470.796C2257.47 477.906 2269.58 477.906 2277.67 470.796C2285.75 463.686 2297.86 463.686 2305.94 470.796" stroke="#DFDDDD" stroke-width="4" stroke-miterlimit="10"></path><path d="M1641.46 500.96L1655.6 488.542C1663.68 481.442 1675.79 481.442 1683.87 488.542C1691.96 495.642 1704.07 495.642 1712.15 488.542C1720.23 481.442 1732.34 481.442 1740.43 488.542C1748.51 495.642 1760.62 495.642 1768.7 488.542C1776.78 481.442 1788.89 481.442 1796.98 488.542C1805.06 495.642 1817.17 495.642 1825.25 488.542C1833.34 481.442 1845.45 481.442 1853.53 488.542C1861.61 495.642 1873.72 495.642 1881.8 488.542C1889.89 481.442 1902 481.442 1910.08 488.542C1918.16 495.642 1930.27 495.642 1938.36 488.542C1946.44 481.442 1958.55 481.442 1966.63 488.542C1974.72 495.642 1986.83 495.642 1994.91 488.542C2002.99 481.442 2015.1 481.442 2023.18 488.542C2031.27 495.642 2043.38 495.642 2051.46 488.542C2059.54 481.442 2071.65 481.442 2079.74 488.542C2087.82 495.642 2099.93 495.642 2108.01 488.542C2116.09 481.442 2128.21 481.442 2136.29 488.542C2144.37 495.642 2156.48 495.642 2164.56 488.542C2172.65 481.442 2184.76 481.442 2192.84 488.542C2200.92 495.642 2213.03 495.642 2221.12 488.542C2229.2 481.442 2241.31 481.442 2249.39 488.542C2257.47 495.642 2269.58 495.642 2277.67 488.542C2285.75 481.442 2297.86 481.442 2305.94 488.542" stroke="#DFDDDD" stroke-width="4" stroke-miterlimit="10"></path><path d="M1641.46 518.716L1655.6 506.297C1663.68 499.197 1675.79 499.197 1683.87 506.297C1691.96 513.398 1704.07 513.398 1712.15 506.297C1720.23 499.197 1732.34 499.197 1740.43 506.297C1748.51 513.398 1760.62 513.398 1768.7 506.297C1776.78 499.197 1788.89 499.197 1796.98 506.297C1805.06 513.398 1817.17 513.398 1825.25 506.297C1833.34 499.197 1845.45 499.197 1853.53 506.297C1861.61 513.398 1873.72 513.398 1881.8 506.297C1889.89 499.197 1902 499.197 1910.08 506.297C1918.16 513.398 1930.27 513.398 1938.36 506.297C1946.44 499.197 1958.55 499.197 1966.63 506.297C1974.72 513.398 1986.83 513.398 1994.91 506.297C2002.99 499.197 2015.1 499.197 2023.18 506.297C2031.27 513.398 2043.38 513.398 2051.46 506.297C2059.54 499.197 2071.65 499.197 2079.74 506.297C2087.82 513.398 2099.93 513.398 2108.01 506.297C2116.09 499.197 2128.21 499.197 2136.29 506.297C2144.37 513.398 2156.48 513.398 2164.56 506.297C2172.65 499.197 2184.76 499.197 2192.84 506.297C2200.92 513.398 2213.03 513.398 2221.12 506.297C2229.2 499.197 2241.31 499.197 2249.39 506.297C2257.47 513.398 2269.58 513.398 2277.67 506.297C2285.75 499.197 2297.86 499.197 2305.94 506.297" stroke="#DFDDDD" stroke-width="4" stroke-miterlimit="10"></path><path d="M1641.46 536.462L1655.6 524.044C1663.68 516.934 1675.79 516.934 1683.87 524.044C1691.96 531.144 1704.07 531.144 1712.15 524.044C1720.23 516.934 1732.34 516.934 1740.43 524.044C1748.51 531.144 1760.62 531.144 1768.7 524.044C1776.78 516.934 1788.89 516.934 1796.98 524.044C1805.06 531.144 1817.17 531.144 1825.25 524.044C1833.34 516.934 1845.45 516.934 1853.53 524.044C1861.61 531.144 1873.72 531.144 1881.8 524.044C1889.89 516.934 1902 516.934 1910.08 524.044C1918.16 531.144 1930.27 531.144 1938.36 524.044C1946.44 516.934 1958.55 516.934 1966.63 524.044C1974.72 531.144 1986.83 531.144 1994.91 524.044C2002.99 516.934 2015.1 516.934 2023.18 524.044C2031.27 531.144 2043.38 531.144 2051.46 524.044C2059.54 516.934 2071.65 516.934 2079.74 524.044C2087.82 531.144 2099.93 531.144 2108.01 524.044C2116.09 516.934 2128.21 516.934 2136.29 524.044C2144.37 531.144 2156.48 531.144 2164.56 524.044C2172.65 516.934 2184.76 516.934 2192.84 524.044C2200.92 531.144 2213.03 531.144 2221.12 524.044C2229.2 516.934 2241.31 516.934 2249.39 524.044C2257.47 531.144 2269.58 531.144 2277.67 524.044C2285.75 516.934 2297.86 516.934 2305.94 524.044" stroke="#DFDDDD" stroke-width="4" stroke-miterlimit="10"></path><path d="M1641.46 554.217L1655.6 541.799C1663.68 534.699 1675.79 534.699 1683.87 541.799C1691.96 548.908 1704.07 548.908 1712.15 541.799C1720.23 534.699 1732.34 534.699 1740.43 541.799C1748.51 548.908 1760.62 548.908 1768.7 541.799C1776.78 534.699 1788.89 534.699 1796.98 541.799C1805.06 548.908 1817.17 548.908 1825.25 541.799C1833.34 534.699 1845.45 534.699 1853.53 541.799C1861.61 548.908 1873.72 548.908 1881.8 541.799C1889.89 534.699 1902 534.699 1910.08 541.799C1918.16 548.908 1930.27 548.908 1938.36 541.799C1946.44 534.699 1958.55 534.699 1966.63 541.799C1974.72 548.908 1986.83 548.908 1994.91 541.799C2002.99 534.699 2015.1 534.699 2023.18 541.799C2031.27 548.908 2043.38 548.908 2051.46 541.799C2059.54 534.699 2071.65 534.699 2079.74 541.799C2087.82 548.908 2099.93 548.908 2108.01 541.799C2116.09 534.699 2128.21 534.699 2136.29 541.799C2144.37 548.908 2156.48 548.908 2164.56 541.799C2172.65 534.699 2184.76 534.699 2192.84 541.799C2200.92 548.908 2213.03 548.908 2221.12 541.799C2229.2 534.699 2241.31 534.699 2249.39 541.799C2257.47 548.908 2269.58 548.908 2277.67 541.799C2285.75 534.699 2297.86 534.699 2305.94 541.799" stroke="#DFDDDD" stroke-width="4" stroke-miterlimit="10"></path><path d="M1641.46 571.963L1655.6 559.545C1663.68 552.435 1675.79 552.435 1683.87 559.545C1691.96 566.645 1704.07 566.645 1712.15 559.545C1720.23 552.435 1732.34 552.435 1740.43 559.545C1748.51 566.645 1760.62 566.645 1768.7 559.545C1776.78 552.435 1788.89 552.435 1796.98 559.545C1805.06 566.645 1817.17 566.645 1825.25 559.545C1833.34 552.435 1845.45 552.435 1853.53 559.545C1861.61 566.645 1873.72 566.645 1881.8 559.545C1889.89 552.435 1902 552.435 1910.08 559.545C1918.16 566.645 1930.27 566.645 1938.36 559.545C1946.44 552.435 1958.55 552.435 1966.63 559.545C1974.72 566.645 1986.83 566.645 1994.91 559.545C2002.99 552.435 2015.1 552.435 2023.18 559.545C2031.27 566.645 2043.38 566.645 2051.46 559.545C2059.54 552.435 2071.65 552.435 2079.74 559.545C2087.82 566.645 2099.93 566.645 2108.01 559.545C2116.09 552.435 2128.21 552.435 2136.29 559.545C2144.37 566.645 2156.48 566.645 2164.56 559.545C2172.65 552.435 2184.76 552.435 2192.84 559.545C2200.92 566.645 2213.03 566.645 2221.12 559.545C2229.2 552.435 2241.31 552.435 2249.39 559.545C2257.47 566.645 2269.58 566.645 2277.67 559.545C2285.75 552.435 2297.86 552.435 2305.94 559.545" stroke="#DFDDDD" stroke-width="4" stroke-miterlimit="10"></path><path d="M1641.46 589.718L1655.6 577.3C1663.68 570.19 1675.79 570.19 1683.87 577.3C1691.96 584.4 1704.07 584.4 1712.15 577.3C1720.23 570.19 1732.34 570.19 1740.43 577.3C1748.51 584.4 1760.62 584.4 1768.7 577.3C1776.78 570.19 1788.89 570.19 1796.98 577.3C1805.06 584.4 1817.17 584.4 1825.25 577.3C1833.34 570.19 1845.45 570.19 1853.53 577.3C1861.61 584.4 1873.72 584.4 1881.8 577.3C1889.89 570.19 1902 570.19 1910.08 577.3C1918.16 584.4 1930.27 584.4 1938.36 577.3C1946.44 570.19 1958.55 570.19 1966.63 577.3C1974.72 584.4 1986.83 584.4 1994.91 577.3C2002.99 570.19 2015.1 570.19 2023.18 577.3C2031.27 584.4 2043.38 584.4 2051.46 577.3C2059.54 570.19 2071.65 570.19 2079.74 577.3C2087.82 584.4 2099.93 584.4 2108.01 577.3C2116.09 570.19 2128.21 570.19 2136.29 577.3C2144.37 584.4 2156.48 584.4 2164.56 577.3C2172.65 570.19 2184.76 570.19 2192.84 577.3C2200.92 584.4 2213.03 584.4 2221.12 577.3C2229.2 570.19 2241.31 570.19 2249.39 577.3C2257.47 584.4 2269.58 584.4 2277.67 577.3C2285.75 570.19 2297.86 570.19 2305.94 577.3" stroke="#DFDDDD" stroke-width="4" stroke-miterlimit="10"></path><path d="M1641.46 607.474L1655.6 595.055C1663.68 587.946 1675.79 587.946 1683.87 595.055C1691.96 602.156 1704.07 602.156 1712.15 595.055C1720.23 587.946 1732.34 587.946 1740.43 595.055C1748.51 602.156 1760.62 602.156 1768.7 595.055C1776.78 587.946 1788.89 587.946 1796.98 595.055C1805.06 602.156 1817.17 602.156 1825.25 595.055C1833.34 587.946 1845.45 587.946 1853.53 595.055C1861.61 602.156 1873.72 602.156 1881.8 595.055C1889.89 587.946 1902 587.946 1910.08 595.055C1918.16 602.156 1930.27 602.156 1938.36 595.055C1946.44 587.946 1958.55 587.946 1966.63 595.055C1974.72 602.156 1986.83 602.156 1994.91 595.055C2002.99 587.946 2015.1 587.946 2023.18 595.055C2031.27 602.156 2043.38 602.156 2051.46 595.055C2059.54 587.946 2071.65 587.946 2079.74 595.055C2087.82 602.156 2099.93 602.156 2108.01 595.055C2116.09 587.946 2128.21 587.946 2136.29 595.055C2144.37 602.156 2156.48 602.156 2164.56 595.055C2172.65 587.946 2184.76 587.946 2192.84 595.055C2200.92 602.156 2213.03 602.156 2221.12 595.055C2229.2 587.946 2241.31 587.946 2249.39 595.055C2257.47 602.156 2269.58 602.156 2277.67 595.055C2285.75 587.946 2297.86 587.946 2305.94 595.055" stroke="#DFDDDD" stroke-width="4" stroke-miterlimit="10"></path><path d="M1641.46 625.22L1655.6 612.801C1663.68 605.701 1675.79 605.701 1683.87 612.801C1691.96 619.911 1704.07 619.911 1712.15 612.801C1720.23 605.701 1732.34 605.701 1740.43 612.801C1748.51 619.911 1760.62 619.911 1768.7 612.801C1776.78 605.701 1788.89 605.701 1796.98 612.801C1805.06 619.911 1817.17 619.911 1825.25 612.801C1833.34 605.701 1845.45 605.701 1853.53 612.801C1861.61 619.911 1873.72 619.911 1881.8 612.801C1889.89 605.701 1902 605.701 1910.08 612.801C1918.16 619.911 1930.27 619.911 1938.36 612.801C1946.44 605.701 1958.55 605.701 1966.63 612.801C1974.72 619.911 1986.83 619.911 1994.91 612.801C2002.99 605.701 2015.1 605.701 2023.18 612.801C2031.27 619.911 2043.38 619.911 2051.46 612.801C2059.54 605.701 2071.65 605.701 2079.74 612.801C2087.82 619.911 2099.93 619.911 2108.01 612.801C2116.09 605.701 2128.21 605.701 2136.29 612.801C2144.37 619.911 2156.48 619.911 2164.56 612.801C2172.65 605.701 2184.76 605.701 2192.84 612.801C2200.92 619.911 2213.03 619.911 2221.12 612.801C2229.2 605.701 2241.31 605.701 2249.39 612.801C2257.47 619.911 2269.58 619.911 2277.67 612.801C2285.75 605.701 2297.86 605.701 2305.94 612.801" stroke="#DFDDDD" stroke-width="4" stroke-miterlimit="10"></path><path d="M1641.46 642.975L1655.6 630.557C1663.68 623.456 1675.79 623.456 1683.87 630.557C1691.96 637.657 1704.07 637.657 1712.15 630.557C1720.23 623.456 1732.34 623.456 1740.43 630.557C1748.51 637.657 1760.62 637.657 1768.7 630.557C1776.78 623.456 1788.89 623.456 1796.98 630.557C1805.06 637.657 1817.17 637.657 1825.25 630.557C1833.34 623.456 1845.45 623.456 1853.53 630.557C1861.61 637.657 1873.72 637.657 1881.8 630.557C1889.89 623.456 1902 623.456 1910.08 630.557C1918.16 637.657 1930.27 637.657 1938.36 630.557C1946.44 623.456 1958.55 623.456 1966.63 630.557C1974.72 637.657 1986.83 637.657 1994.91 630.557C2002.99 623.456 2015.1 623.456 2023.18 630.557C2031.27 637.657 2043.38 637.657 2051.46 630.557C2059.54 623.456 2071.65 623.456 2079.74 630.557C2087.82 637.657 2099.93 637.657 2108.01 630.557C2116.09 623.456 2128.21 623.456 2136.29 630.557C2144.37 637.657 2156.48 637.657 2164.56 630.557C2172.65 623.456 2184.76 623.456 2192.84 630.557C2200.92 637.657 2213.03 637.657 2221.12 630.557C2229.2 623.456 2241.31 623.456 2249.39 630.557C2257.47 637.657 2269.58 637.657 2277.67 630.557C2285.75 623.456 2297.86 623.456 2305.94 630.557" stroke="#DFDDDD" stroke-width="4" stroke-miterlimit="10"></path></g></g><path opacity="0.4" d="M0.5 281.27C34.3333 223.27 137.6 131.991 306 119.191C516.5 103.191 626.5 191.691 966 143.191C1305.5 94.6914 1511.5 0.268967 1697 82.269C1845.4 147.869 1900.5 237.768 1919.5 299.268" stroke="#E9E9E9" stroke-width="3" stroke-dasharray="6 6"></path><defs><linearGradient id="paint0_linear_1530_7195" x1="4324.06" y1="576.797" x2="622.032" y2="2257.34" gradientUnits="userSpaceOnUse"><stop stop-color="#B4F759"></stop><stop offset="0.05" stop-color="#90ED6E"></stop><stop offset="0.15" stop-color="#35D5A4"></stop><stop offset="0.2" stop-color="#00C7C5"></stop><stop offset="0.41" stop-color="#2D9BE0"></stop><stop offset="0.6" stop-color="#5277F7"></stop><stop offset="0.66" stop-color="#5A76F6"></stop><stop offset="0.77" stop-color="#7273F5"></stop><stop offset="0.9" stop-color="#9970F4"></stop><stop offset="1" stop-color="#BB6DF3"></stop></linearGradient><clipPath id="clip0_1530_7195"><rect x="1771" y="245" width="405" height="405" rx="202.5" fill="white"></rect></clipPath></defs></svg>