<svg xmlns="http://www.w3.org/2000/svg" width="1920" height="2029" viewBox="0 0 1920 2029" fill="none"><mask id="mask0_1527_7190" style="mask-type:alpha" maskUnits="userSpaceOnUse" x="0" y="-1" width="238" height="436"><rect y="-0.000976562" width="238" height="435" fill="#C4C4C4"></rect></mask><g mask="url(#mask0_1527_7190)"><path d="M-466.972 -196.253C-469.366 -192.018 -471.691 -187.744 -473.952 -183.397C-546.386 -43.561 -511.415 131.614 -415.129 262.892C-247.856 491.015 110.034 461.38 194.733 280.335C247.724 167.062 103.937 170.974 59.7139 98.3723C-31.9713 -3.98191 -11.0953 -70.6427 -22.4601 -177.351C-30.0729 -248.888 -50.9029 -306.653 -103.074 -337.949C-152.343 -367.479 -209.619 -369.259 -262.238 -354.261C-342.759 -331.328 -418.523 -281.376 -466.972 -196.253Z" fill="white"></path></g><path d="M1030 1186C630.633 1145.62 405 1152.28 237.176 1236.62C180.435 1265.14 53.5626 1348.58 0 1454.24V2029H1920V691.315V132C1836.06 180.027 1736.13 294.091 1804.08 586.256C1858.44 819.987 1761.44 1007.83 1706.15 1072.53C1631.4 1160 1429.37 1226.38 1030 1186Z" fill="white"></path><mask id="mask1_1527_7190" style="mask-type:alpha" maskUnits="userSpaceOnUse" x="1528" y="149" width="392" height="1017"><rect x="1528" y="149" width="392" height="1017" fill="#F5F5FD"></rect></mask><g mask="url(#mask1_1527_7190)"></g></svg>