<svg width="642" height="640" viewBox="0 0 642 640" fill="none" xmlns="http://www.w3.org/2000/svg">
<path d="M16.8012 499.812C34.2448 550.712 77.8538 634.544 138.57 639.754C214.961 646.295 224.642 520.823 354.123 449.422C470.559 385.228 559.26 433.522 614.531 347.708C618.768 341.125 644.709 298.989 641.768 248.429C633.881 112.509 409.32 -57.5341 218.661 19.063C44.2499 89.0481 -37.9718 339.822 16.8012 499.812Z" fill="white"/>
<g clip-path="url(#clip0_1496_7203)">
<path opacity="0.95" d="M126.283 345.655H91.0515V243.204H126.283V345.655ZM177.96 209.172H142.729V345.655H177.96V209.172ZM229.638 220.702H194.406V345.655H229.638V220.702ZM281.315 178.078H246.083V345.655H281.315V178.078ZM332.992 117.031H297.761V345.655H332.992V117.051V117.031ZM323.506 50L295.317 65.9399L306.626 72.6057L211.68 188.595L159.713 154.21L106.275 218.756L110.997 222.669L160.935 162.366L212.343 196.378L311.928 75.7109L323.237 82.3767L323.506 50.0207V50ZM360.561 355.115H63.504V358.013H360.561V355.115Z" fill="url(#paint0_linear_1496_7203)"/>
<path d="M480.092 178.886V185.013C480.092 186.877 481.397 188.491 483.219 188.905L484.441 189.174C485.788 189.485 486.906 190.458 487.341 191.762C487.776 193.066 488.315 194.35 488.915 195.571C489.537 196.813 489.454 198.283 488.708 199.463L488.045 200.519C487.051 202.092 487.279 204.162 488.584 205.487L492.913 209.814C494.238 211.138 496.289 211.366 497.884 210.352L498.878 209.731C500.059 208.985 501.55 208.903 502.793 209.524C504.035 210.145 505.34 210.704 506.686 211.159C507.991 211.594 508.965 212.712 509.276 214.057L509.524 215.175C509.938 216.997 511.554 218.301 513.418 218.301H519.549C521.413 218.301 523.028 216.997 523.443 215.175L523.671 214.161C523.981 212.795 524.955 211.697 526.28 211.263C527.668 210.807 529.014 210.248 530.299 209.607C531.541 208.985 533.012 209.089 534.192 209.814L535.062 210.352C536.636 211.345 538.708 211.118 540.033 209.814L544.362 205.487C545.688 204.162 545.916 202.113 544.901 200.519L544.404 199.732C543.658 198.552 543.575 197.062 544.217 195.799C544.88 194.495 545.439 193.149 545.916 191.741C546.351 190.417 547.469 189.423 548.836 189.112L549.747 188.905C551.57 188.491 552.875 186.877 552.875 185.013V178.886C552.875 177.023 551.57 175.408 549.747 174.994L548.836 174.787C547.469 174.477 546.371 173.483 545.916 172.158C545.439 170.771 544.88 169.405 544.217 168.101C543.575 166.838 543.658 165.347 544.404 164.167L544.901 163.381C545.895 161.807 545.667 159.737 544.362 158.412L540.033 154.086C538.708 152.761 536.657 152.533 535.062 153.548L534.192 154.086C533.033 154.831 531.541 154.914 530.299 154.293C529.014 153.651 527.668 153.092 526.28 152.637C524.955 152.202 523.961 151.084 523.671 149.739L523.443 148.724C523.028 146.903 521.413 145.598 519.549 145.598H513.418C511.554 145.598 509.938 146.903 509.524 148.724L509.276 149.842C508.986 151.188 508.012 152.285 506.686 152.74C505.34 153.196 504.056 153.734 502.793 154.376C501.55 154.997 500.059 154.914 498.878 154.169L497.884 153.548C496.31 152.554 494.238 152.782 492.913 154.086L488.584 158.412C487.258 159.737 487.03 161.787 488.045 163.381L488.708 164.436C489.454 165.616 489.537 167.086 488.915 168.328C488.315 169.55 487.776 170.812 487.341 172.137C486.906 173.442 485.788 174.435 484.441 174.725L483.219 174.994C481.397 175.408 480.092 177.023 480.092 178.886ZM498.588 181.95C498.588 172.013 506.645 163.96 516.587 163.96C526.529 163.96 534.586 172.013 534.586 181.95C534.586 191.886 526.529 199.939 516.587 199.939C506.645 199.939 498.588 191.886 498.588 181.95Z" fill="url(#paint1_linear_1496_7203)"/>
<path d="M460.767 125.29V129.224C460.767 130.424 461.596 131.459 462.776 131.728L463.563 131.894C464.433 132.08 465.137 132.722 465.427 133.571C465.717 134.42 466.049 135.227 466.442 136.014C466.836 136.821 466.774 137.753 466.297 138.518L465.862 139.202C465.22 140.216 465.365 141.541 466.214 142.39L468.99 145.164C469.839 146.012 471.165 146.157 472.18 145.515L472.822 145.122C473.588 144.646 474.541 144.584 475.328 144.998C476.136 145.391 476.964 145.743 477.834 146.054C478.683 146.344 479.305 147.047 479.491 147.917L479.657 148.641C479.926 149.821 480.962 150.649 482.163 150.649H486.098C487.3 150.649 488.335 149.821 488.604 148.641L488.749 148C488.936 147.13 489.578 146.406 490.427 146.137C491.318 145.847 492.188 145.495 493.016 145.081C493.824 144.687 494.756 144.75 495.522 145.226L496.082 145.578C497.097 146.219 498.422 146.074 499.271 145.226L502.047 142.452C502.896 141.603 503.041 140.278 502.399 139.264L502.067 138.746C501.591 137.98 501.529 137.028 501.943 136.221C502.357 135.393 502.73 134.523 503.02 133.612C503.31 132.764 504.014 132.122 504.884 131.936L505.464 131.811C506.645 131.542 507.473 130.507 507.473 129.306V125.373C507.473 124.173 506.645 123.137 505.464 122.868L504.884 122.744C504.014 122.558 503.29 121.916 503.02 121.067C502.71 120.177 502.357 119.308 501.943 118.459C501.529 117.652 501.591 116.699 502.067 115.933L502.399 115.416C503.041 114.402 502.896 113.077 502.047 112.228L499.271 109.454C498.422 108.605 497.097 108.46 496.082 109.102L495.522 109.454C494.777 109.93 493.824 109.992 493.016 109.599C492.188 109.185 491.318 108.833 490.427 108.543C489.578 108.253 488.936 107.549 488.749 106.68L488.604 106.038C488.335 104.858 487.3 104.03 486.098 104.03H482.163C480.962 104.03 479.926 104.858 479.657 106.038L479.491 106.763C479.305 107.632 478.663 108.336 477.834 108.626C476.964 108.916 476.136 109.268 475.328 109.682C474.52 110.075 473.567 110.034 472.822 109.557L472.18 109.164C471.165 108.522 469.839 108.667 468.99 109.516L466.214 112.29C465.365 113.139 465.22 114.464 465.862 115.478L466.297 116.161C466.774 116.906 466.836 117.859 466.442 118.666C466.049 119.453 465.717 120.26 465.427 121.109C465.137 121.958 464.433 122.579 463.563 122.786L462.776 122.951C461.596 123.22 460.767 124.255 460.767 125.456V125.29ZM472.656 127.257C472.656 120.881 477.834 115.706 484.213 115.706C490.593 115.706 495.771 120.881 495.771 127.257C495.771 133.633 490.593 138.808 484.213 138.808C477.834 138.808 472.656 133.633 472.656 127.257Z" fill="url(#paint2_linear_1496_7203)"/>
<path d="M103.79 354.929V362.588C103.79 364.927 105.405 366.956 107.704 367.453L109.216 367.784C110.915 368.157 112.302 369.399 112.841 371.034C113.4 372.67 114.063 374.264 114.809 375.796C115.575 377.348 115.471 379.191 114.539 380.66L113.711 381.965C112.447 383.931 112.737 386.519 114.394 388.175L119.821 393.599C121.478 395.255 124.067 395.545 126.035 394.282L127.277 393.495C128.748 392.564 130.612 392.46 132.165 393.247C133.74 394.033 135.355 394.717 137.033 395.275C138.669 395.834 139.891 397.221 140.264 398.898L140.575 400.285C141.093 402.562 143.102 404.198 145.442 404.198H153.106C155.446 404.198 157.476 402.583 157.973 400.285L158.263 399.022C158.636 397.325 159.879 395.938 161.536 395.379C163.275 394.799 164.953 394.116 166.569 393.309C168.122 392.543 169.966 392.646 171.436 393.578L172.513 394.261C174.481 395.524 177.07 395.234 178.727 393.578L184.153 388.154C185.81 386.498 186.1 383.911 184.837 381.944L184.195 380.95C183.242 379.46 183.159 377.597 183.946 376.023C184.775 374.388 185.479 372.711 186.059 370.952C186.618 369.295 188.006 368.053 189.704 367.66L190.844 367.412C193.122 366.894 194.758 364.886 194.758 362.547V354.887C194.758 352.548 193.143 350.519 190.844 350.023L189.704 349.774C188.006 349.402 186.618 348.139 186.059 346.483C185.479 344.723 184.775 343.046 183.946 341.411C183.159 339.838 183.242 337.975 184.195 336.484L184.837 335.49C186.1 333.524 185.81 330.936 184.153 329.28L178.727 323.856C177.07 322.2 174.481 321.91 172.513 323.173L171.436 323.856C169.966 324.788 168.122 324.891 166.569 324.125C164.953 323.318 163.275 322.635 161.536 322.055C159.879 321.517 158.636 320.109 158.263 318.412L157.973 317.149C157.455 314.872 155.446 313.237 153.106 313.237H145.442C143.102 313.237 141.072 314.851 140.575 317.149L140.264 318.536C139.891 320.234 138.669 321.6 137.033 322.159C135.355 322.738 133.74 323.422 132.165 324.187C130.612 324.974 128.748 324.871 127.277 323.939L126.035 323.152C124.067 321.89 121.478 322.179 119.821 323.836L114.394 329.259C112.737 330.915 112.447 333.503 113.711 335.47L114.539 336.774C115.471 338.244 115.575 340.086 114.809 341.639C114.042 343.171 113.379 344.764 112.841 346.4C112.282 348.035 110.894 349.277 109.216 349.65L107.704 349.981C105.426 350.499 103.79 352.507 103.79 354.846V354.929ZM126.946 358.759C126.946 346.317 137.033 336.236 149.481 336.236C161.929 336.236 172.016 346.317 172.016 358.759C172.016 371.2 161.929 381.281 149.481 381.281C137.033 381.281 126.946 371.2 126.946 358.759Z" fill="url(#paint3_linear_1496_7203)"/>
<path d="M162.82 287.795V292.722C162.82 294.233 163.855 295.516 165.326 295.848L166.299 296.075C167.397 296.324 168.288 297.11 168.64 298.166C168.992 299.222 169.427 300.236 169.903 301.23C170.4 302.224 170.338 303.424 169.738 304.356L169.199 305.205C168.391 306.467 168.578 308.123 169.634 309.2L173.114 312.678C174.17 313.733 175.827 313.92 177.111 313.112L177.898 312.616C178.851 312.015 180.032 311.953 181.047 312.45C182.061 312.947 183.097 313.402 184.174 313.754C185.23 314.106 186.018 314.996 186.245 316.093L186.452 316.984C186.784 318.453 188.089 319.488 189.58 319.488H194.51C196.022 319.488 197.306 318.453 197.637 316.984L197.824 316.176C198.072 315.079 198.859 314.189 199.936 313.837C201.055 313.464 202.132 313.03 203.167 312.512C204.162 312.015 205.363 312.098 206.295 312.678L206.978 313.112C208.242 313.92 209.899 313.733 210.976 312.678L214.456 309.2C215.512 308.144 215.698 306.488 214.891 305.205L214.476 304.563C213.876 303.611 213.814 302.41 214.331 301.396C214.849 300.34 215.305 299.263 215.698 298.145C216.05 297.069 216.941 296.282 218.039 296.034L218.764 295.868C220.234 295.537 221.27 294.233 221.27 292.742V287.816C221.27 286.304 220.234 285.021 218.764 284.69L218.039 284.524C216.941 284.276 216.05 283.468 215.698 282.413C215.326 281.295 214.87 280.197 214.331 279.162C213.814 278.148 213.876 276.947 214.476 275.995L214.891 275.353C215.698 274.091 215.512 272.435 214.456 271.358L210.976 267.88C209.92 266.825 208.263 266.638 206.978 267.446L206.295 267.88C205.363 268.481 204.162 268.543 203.167 268.046C202.132 267.528 201.055 267.094 199.936 266.721C198.88 266.369 198.072 265.479 197.824 264.382L197.637 263.574C197.306 262.105 196.001 261.07 194.51 261.07H189.58C188.068 261.07 186.784 262.105 186.452 263.574L186.245 264.465C185.997 265.541 185.23 266.431 184.174 266.804C183.097 267.176 182.061 267.611 181.047 268.108C180.052 268.605 178.851 268.543 177.898 267.942L177.111 267.446C175.848 266.638 174.191 266.825 173.114 267.88L169.634 271.358C168.578 272.414 168.391 274.07 169.199 275.353L169.738 276.202C170.338 277.134 170.4 278.334 169.903 279.328C169.406 280.322 168.992 281.336 168.64 282.392C168.288 283.448 167.397 284.234 166.299 284.483L165.326 284.71C163.855 285.042 162.82 286.346 162.82 287.836V287.795ZM177.691 290.258C177.691 282.268 184.174 275.788 192.169 275.788C200.164 275.788 206.647 282.268 206.647 290.258C206.647 298.249 200.164 304.728 192.169 304.728C184.174 304.728 177.691 298.249 177.691 290.258Z" fill="url(#paint4_linear_1496_7203)"/>
<g style="mix-blend-mode:multiply" opacity="0.8">
<path d="M297.305 569.021C396.219 569.021 476.405 520.705 476.405 461.105C476.405 401.505 396.219 353.19 297.305 353.19C198.391 353.19 118.205 401.505 118.205 461.105C118.205 520.705 198.391 569.021 297.305 569.021Z" fill="#D4E1EF"/>
</g>
<g style="mix-blend-mode:multiply" opacity="0.8">
<path d="M423.94 547.615C506.313 547.615 573.09 527.837 573.09 503.439C573.09 479.041 506.313 459.263 423.94 459.263C341.567 459.263 274.791 479.041 274.791 503.439C274.791 527.837 341.567 547.615 423.94 547.615Z" fill="#D4E1EF"/>
</g>
<path d="M290.636 263.098V460.008L338.316 503.294V306.384L290.636 263.098Z" fill="#255AA8"/>
<path d="M290.636 263.098L338.316 306.405L419.612 343.398C450.307 334.869 469.922 321.848 469.922 307.275C469.922 281.564 408.945 260.718 333.759 260.718C318.68 260.718 304.182 261.566 290.656 263.119L290.636 263.098Z" fill="#3568BE"/>
<path d="M338.315 306.384V503.294L419.611 540.287V343.377L338.315 306.384Z" fill="#2563AF"/>
<path d="M422.656 342.487C423.65 342.197 424.665 341.908 425.639 341.597C426.509 341.328 427.337 341.038 428.186 340.769C429.139 340.458 430.092 340.148 431.003 339.837C432.329 339.382 433.613 338.906 434.876 338.43C435.146 338.326 435.436 338.223 435.705 338.119C437.238 337.519 438.729 336.919 440.179 336.298C440.614 336.111 441.007 335.925 441.422 335.739C442.436 335.304 443.431 334.848 444.383 334.393C444.881 334.145 445.378 333.917 445.875 333.668C446.703 333.254 447.532 332.84 448.339 332.406C448.837 332.137 449.313 331.867 449.81 331.598C450.556 331.184 451.301 330.75 452.006 330.336C452.461 330.066 452.917 329.797 453.352 329.508C454.056 329.052 454.76 328.597 455.423 328.141C455.817 327.872 456.21 327.624 456.583 327.355C457.329 326.837 458.012 326.299 458.696 325.761C458.944 325.554 459.234 325.367 459.483 325.16C460.394 324.415 461.243 323.67 462.03 322.904C462.196 322.738 462.341 322.593 462.486 322.428C463.107 321.827 463.687 321.206 464.226 320.585C464.474 320.316 464.682 320.026 464.909 319.757C465.324 319.24 465.717 318.743 466.09 318.225C466.318 317.915 466.504 317.604 466.711 317.294C467.022 316.797 467.333 316.3 467.602 315.803C467.768 315.472 467.933 315.162 468.099 314.83C468.348 314.313 468.555 313.795 468.741 313.298C468.865 312.988 468.99 312.657 469.093 312.346C469.28 311.787 469.404 311.208 469.528 310.649C469.59 310.38 469.673 310.11 469.715 309.821C469.839 308.972 469.922 308.123 469.922 307.274V504.184C469.922 505.033 469.839 505.882 469.715 506.731C469.673 507 469.59 507.269 469.528 507.559C469.404 508.118 469.28 508.697 469.093 509.256C468.99 509.567 468.865 509.898 468.741 510.208C468.555 510.726 468.327 511.243 468.099 511.74C467.954 512.071 467.768 512.382 467.602 512.713C467.333 513.21 467.022 513.707 466.711 514.204C466.504 514.514 466.318 514.825 466.09 515.135C465.717 515.653 465.324 516.17 464.909 516.667C464.682 516.936 464.474 517.226 464.226 517.495C463.687 518.116 463.107 518.717 462.486 519.317C462.32 519.483 462.175 519.648 462.01 519.814C461.223 520.58 460.373 521.325 459.462 522.07C459.213 522.277 458.923 522.484 458.675 522.691C457.991 523.229 457.308 523.747 456.562 524.285C456.189 524.554 455.796 524.803 455.402 525.072C454.74 525.527 454.056 525.983 453.331 526.417C452.896 526.687 452.441 526.976 451.985 527.245C451.281 527.68 450.535 528.094 449.789 528.508C449.313 528.777 448.816 529.046 448.319 529.316C447.532 529.73 446.703 530.164 445.854 530.578C445.357 530.827 444.881 531.075 444.363 531.303C443.41 531.758 442.416 532.214 441.401 532.648C440.987 532.835 440.593 533.021 440.158 533.207C438.708 533.828 437.217 534.429 435.684 535.029C435.415 535.133 435.125 535.236 434.856 535.34C433.737 535.774 432.598 536.188 431.417 536.602C431.272 536.644 431.107 536.706 430.962 536.747C430.05 537.079 429.077 537.368 428.145 537.679C427.296 537.948 426.467 538.238 425.597 538.507C424.624 538.817 423.63 539.107 422.635 539.397C421.869 539.625 421.144 539.853 420.357 540.08C420.088 540.163 419.819 540.225 419.549 540.308V343.398C420.585 343.108 421.6 342.798 422.615 342.508L422.656 342.487Z" fill="#3A79C7"/>
<path d="M189.394 331.474V489.445L313.502 498.14V340.19L189.394 331.474Z" fill="#5286D6"/>
<path d="M189.394 331.474L313.481 340.169L268.826 299.615C229.534 305.267 199.688 317.046 189.394 331.454V331.474Z" fill="#3578CD"/>
<path d="M326.654 397.366L201.386 388.589C200.206 391.073 199.543 393.599 199.543 396.186C199.543 410.76 219.137 423.76 249.77 432.289L326.675 397.345L326.654 397.366Z" fill="#73A5FF"/>
<path d="M199.626 397.325C199.667 398.049 199.771 398.774 199.916 399.498C199.998 399.871 200.102 400.244 200.206 400.616C200.371 401.217 200.578 401.817 200.806 402.417C200.951 402.79 201.117 403.183 201.283 403.556C201.552 404.115 201.842 404.674 202.173 405.233C202.38 405.605 202.587 405.978 202.836 406.33C203.209 406.909 203.623 407.468 204.058 408.027C204.307 408.359 204.555 408.69 204.824 409.021C205.384 409.683 206.005 410.346 206.647 411.008C206.854 411.236 207.041 411.443 207.268 411.671C208.18 412.561 209.174 413.41 210.23 414.279C210.479 414.486 210.748 414.672 211.017 414.859C211.887 415.542 212.799 416.225 213.772 416.887C214.186 417.177 214.621 417.446 215.036 417.715C216.009 418.337 217.003 418.978 218.06 419.579C218.515 419.848 218.971 420.117 219.447 420.386C221.084 421.317 222.803 422.208 224.625 423.098C225.951 423.74 227.318 424.361 228.726 424.961C229.161 425.147 229.617 425.334 230.052 425.52C231.005 425.934 231.978 426.327 232.993 426.72C233.925 427.093 234.899 427.445 235.872 427.818C236.639 428.107 237.384 428.377 238.171 428.646C239.186 428.998 240.243 429.35 241.299 429.701C242.065 429.95 242.832 430.219 243.619 430.467C245.628 431.088 247.678 431.709 249.791 432.31V547.719C247.678 547.139 245.628 546.518 243.619 545.877C243.453 545.835 243.287 545.773 243.142 545.732C242.521 545.525 241.92 545.318 241.299 545.111C240.243 544.759 239.186 544.407 238.171 544.055C237.384 543.786 236.639 543.496 235.872 543.227C234.899 542.875 233.925 542.502 232.993 542.13C232.745 542.026 232.475 541.943 232.227 541.84C231.481 541.55 230.777 541.24 230.031 540.929C229.596 540.743 229.141 540.556 228.726 540.37C227.339 539.77 225.972 539.149 224.667 538.528H224.625C222.803 537.638 221.104 536.727 219.447 535.795C219.261 535.692 219.033 535.588 218.826 535.485C218.557 535.319 218.308 535.153 218.039 534.988C217.003 534.367 215.988 533.746 215.036 533.125C214.766 532.938 214.456 532.773 214.186 532.586C214.041 532.483 213.917 532.379 213.772 532.276C212.799 531.614 211.887 530.93 211.017 530.247C210.81 530.082 210.562 529.937 210.355 529.771C210.313 529.73 210.292 529.709 210.251 529.668C209.195 528.819 208.2 527.949 207.289 527.059C207.268 527.039 207.227 527.018 207.206 526.976C207.02 526.79 206.854 526.583 206.668 526.397C206.026 525.734 205.404 525.072 204.824 524.41C204.762 524.327 204.679 524.265 204.617 524.182C204.41 523.933 204.265 523.664 204.058 523.416C203.623 522.857 203.209 522.298 202.836 521.718C202.753 521.594 202.65 521.47 202.567 521.346C202.422 521.097 202.318 520.849 202.173 520.621C201.863 520.062 201.552 519.503 201.283 518.944C201.2 518.779 201.075 518.592 201.013 518.427C200.93 518.22 200.889 518.013 200.806 517.806C200.578 517.205 200.371 516.605 200.206 516.005C200.143 515.777 200.04 515.549 199.978 515.322C199.936 515.177 199.957 515.032 199.916 514.887C199.771 514.162 199.688 513.438 199.626 512.713C199.626 512.486 199.543 512.258 199.543 512.03C199.543 511.885 199.543 511.72 199.543 511.575V396.166C199.543 396.538 199.605 396.931 199.646 397.304L199.626 397.325Z" fill="#A3B9FF"/>
<path d="M249.75 432.289V547.698L326.654 512.775V397.366L249.75 432.289Z" fill="#5C86DA"/>
<path d="M260.147 479.281C263.461 480.067 266.899 480.792 270.4 481.475C271.746 481.744 273.113 481.972 274.48 482.22C276.261 482.552 278.043 482.862 279.865 483.173C281.087 483.38 282.33 483.545 283.573 483.732C286.348 484.146 289.165 484.539 292.044 484.912C293.266 485.056 294.467 485.222 295.689 485.367C299.314 485.781 302.98 486.154 306.729 486.485C307.123 486.526 307.516 486.568 307.91 486.588C311.845 486.92 315.843 487.168 319.902 487.375C321.683 487.458 323.485 487.52 325.267 487.582C327.048 487.644 328.829 487.727 330.631 487.768C333.987 487.851 337.363 487.913 340.78 487.913C344.405 487.913 347.988 487.872 351.551 487.768C352.317 487.768 353.063 487.706 353.829 487.686C356.46 487.603 359.069 487.499 361.658 487.375C362.797 487.313 363.937 487.251 365.076 487.168C367.271 487.044 369.446 486.899 371.58 486.733C372.76 486.65 373.961 486.547 375.142 486.443C377.275 486.257 379.367 486.05 381.459 485.843C382.557 485.74 383.655 485.615 384.732 485.512C387.072 485.243 389.351 484.953 391.629 484.663C392.437 484.56 393.265 484.456 394.052 484.353C397.139 483.918 400.183 483.462 403.145 482.966C403.932 482.841 404.678 482.676 405.465 482.552C407.702 482.158 409.939 481.765 412.114 481.33C414.019 480.958 415.842 480.523 417.685 480.13C418.887 479.86 420.129 479.612 421.31 479.343V555.337C421.165 555.378 421.02 555.399 420.875 555.441C419.839 555.689 418.742 555.896 417.685 556.124C415.842 556.538 414.019 556.952 412.114 557.324C411.989 557.345 411.865 557.387 411.741 557.407C409.69 557.821 407.578 558.194 405.465 558.566C404.678 558.711 403.932 558.856 403.145 558.98H403.021C400.245 559.477 397.408 559.912 394.508 560.305C394.363 560.326 394.197 560.347 394.032 560.367C393.245 560.471 392.416 560.574 391.608 560.678C389.765 560.926 387.942 561.175 386.057 561.382C385.622 561.423 385.146 561.465 384.711 561.527C383.634 561.651 382.536 561.754 381.439 561.858C380.154 561.982 378.891 562.148 377.586 562.251C376.758 562.334 375.929 562.375 375.101 562.458C373.92 562.562 372.739 562.645 371.559 562.748C370.71 562.81 369.86 562.893 368.99 562.955C367.686 563.038 366.36 563.1 365.034 563.183C363.895 563.245 362.777 563.328 361.617 563.39C361.14 563.411 360.664 563.452 360.188 563.473C358.075 563.576 355.921 563.638 353.788 563.7C353.021 563.721 352.276 563.762 351.509 563.783C351.364 563.783 351.24 563.783 351.095 563.783C347.967 563.866 344.798 563.907 341.609 563.907C341.319 563.907 341.029 563.907 340.739 563.907C337.673 563.907 334.608 563.866 331.605 563.804C331.273 563.804 330.942 563.783 330.59 563.762C328.788 563.721 327.027 563.638 325.246 563.576C323.734 563.514 322.222 563.493 320.731 563.411C320.441 563.411 320.151 563.369 319.84 563.348C315.78 563.141 311.783 562.893 307.848 562.562C307.785 562.562 307.723 562.562 307.661 562.562C307.33 562.541 306.998 562.5 306.667 562.458C302.918 562.148 299.252 561.775 295.627 561.34C294.405 561.196 293.183 561.051 291.982 560.885C289.103 560.533 286.286 560.14 283.511 559.705C282.786 559.602 282.019 559.519 281.315 559.395C280.797 559.312 280.321 559.208 279.824 559.125C278.001 558.836 276.22 558.504 274.439 558.173C273.424 557.987 272.388 557.821 271.394 557.635C271.042 557.573 270.71 557.49 270.379 557.407C266.879 556.724 263.44 556 260.126 555.213V479.219L260.147 479.281Z" fill="#A6D2F9"/>
<path d="M421.289 479.322L340.78 442.66L260.147 479.281C283.034 484.725 310.809 487.913 340.78 487.913C370.751 487.913 398.443 484.725 421.289 479.302V479.322Z" fill="#B7E1FF"/>
<g style="mix-blend-mode:multiply" opacity="0.8">
<path d="M105.695 525.672C130.77 525.672 151.097 508.767 151.097 487.913C151.097 467.06 130.77 450.154 105.695 450.154C80.6206 450.154 60.2937 467.06 60.2937 487.913C60.2937 508.767 80.6206 525.672 105.695 525.672Z" fill="#D4E1EF"/>
</g>
<path d="M179.97 486.05H179.41C179.286 485.491 179.141 484.932 178.975 484.373C174.522 469.634 155.57 459.739 135.894 459.739C116.217 459.739 97.2859 469.634 92.8121 484.373C92.6464 484.932 92.5014 485.491 92.3771 486.05H91.8179V491.308C92.0043 507.435 109.548 522.029 135.894 522.029C162.24 522.029 179.783 507.414 179.97 491.308V486.05Z" fill="#E0AC45"/>
<path d="M135.894 454.895C116.217 454.895 97.2859 464.79 92.812 479.529C87.1783 498.14 105.799 517.206 135.894 517.206C165.989 517.206 184.588 498.14 178.975 479.529C174.522 464.79 155.57 454.895 135.894 454.895Z" fill="#F8C245"/>
<g style="mix-blend-mode:screen" opacity="0.5">
<path d="M135.894 456.489C117.48 456.489 99.9578 465.805 96.1467 479.529C91.4036 496.525 108.698 513.604 135.894 513.604C163.089 513.604 180.384 496.525 175.641 479.529C171.809 465.805 154.286 456.489 135.894 456.489ZM135.894 511.099C110.687 511.099 94.3654 495.387 98.5286 479.529C101.925 466.55 118.433 457.648 135.894 457.648C153.354 457.648 169.862 466.55 173.259 479.529C177.422 495.387 161.101 511.099 135.894 511.099Z" fill="#F8C245"/>
</g>
<g style="mix-blend-mode:screen" opacity="0.5">
<path d="M131.544 473.485C132.083 473.112 132.911 472.822 134.05 472.657L133.988 476.921C132.89 476.693 132.062 476.424 131.503 476.093C130.943 475.762 130.674 475.348 130.695 474.851C130.695 474.333 131.006 473.878 131.544 473.505V473.485ZM141.217 483.38C141.817 483.732 142.128 484.208 142.149 484.788C142.17 485.367 141.9 485.864 141.341 486.278C140.782 486.692 139.912 487.003 138.731 487.189L138.648 482.428C139.767 482.697 140.616 483.007 141.217 483.359V483.38ZM135.914 459.76C120.09 459.76 105.384 467.895 102.65 479.571C99.3985 493.523 114.001 507 135.914 507C157.828 507 172.43 493.523 169.178 479.571C166.465 467.916 151.739 459.76 135.914 459.76ZM147.368 489.363C145.484 490.812 142.625 491.722 138.856 492.074L138.938 496.442H133.74L133.802 492.178C131.316 492.074 128.955 491.743 126.739 491.205C124.543 490.667 122.803 489.984 121.519 489.197L124.585 484.87C125.765 485.512 127.153 486.071 128.789 486.506C130.426 486.961 132.124 487.23 133.885 487.354L133.967 481.62C131.751 481.248 129.887 480.834 128.375 480.378C126.884 479.923 125.662 479.26 124.709 478.412C123.777 477.563 123.363 476.466 123.487 475.099C123.632 473.464 124.647 472.077 126.511 470.938C128.334 469.821 130.861 469.158 134.133 468.91L134.175 465.929H138.379L138.441 468.848C141.962 469.034 144.904 469.593 147.285 470.545L145.359 474.106C143.081 473.257 140.803 472.76 138.503 472.574L138.607 477.687C140.761 478.018 142.584 478.412 144.096 478.846C145.608 479.281 146.933 479.943 148.031 480.813C149.15 481.703 149.771 482.883 149.916 484.374C150.102 486.278 149.274 487.934 147.41 489.363H147.368Z" fill="#F8C245"/>
</g>
<path d="M172.907 469.406H172.348C172.223 468.848 172.078 468.289 171.913 467.73C167.459 452.99 148.508 443.095 128.831 443.095C109.154 443.095 90.2231 452.99 85.7492 467.73C85.5835 468.289 85.4385 468.848 85.3142 469.406H84.755V474.665C84.9414 490.791 102.485 505.385 128.831 505.385C155.177 505.385 172.72 490.77 172.907 474.665V469.406Z" fill="#E0AC45"/>
<path d="M128.831 438.251C109.154 438.251 90.223 448.146 85.7492 462.886C80.1154 481.496 98.7358 500.562 128.831 500.562C158.926 500.562 177.526 481.496 171.913 462.886C167.459 448.146 148.508 438.251 128.831 438.251Z" fill="#F8C245"/>
<g style="mix-blend-mode:screen" opacity="0.5">
<path d="M128.831 439.845C110.418 439.845 92.8949 449.161 89.0838 462.886C84.3407 479.881 101.636 496.96 128.831 496.96C156.026 496.96 173.321 479.881 168.578 462.886C164.746 449.161 147.223 439.845 128.831 439.845ZM128.831 494.455C103.624 494.455 87.3026 478.743 91.4658 462.886C94.8626 449.906 111.37 441.004 128.831 441.004C146.291 441.004 162.799 449.906 166.196 462.886C170.359 478.743 154.038 494.455 128.831 494.455Z" fill="#F8C245"/>
</g>
<g style="mix-blend-mode:screen" opacity="0.5">
<path d="M124.481 456.82C125.02 456.448 125.848 456.158 126.987 455.992L126.925 460.257C125.828 460.029 124.999 459.76 124.44 459.428C123.881 459.097 123.611 458.683 123.632 458.186C123.632 457.669 123.943 457.213 124.481 456.841V456.82ZM134.154 466.715C134.755 467.067 135.065 467.543 135.086 468.123C135.107 468.703 134.837 469.199 134.278 469.613C133.719 470.028 132.849 470.338 131.668 470.524L131.586 465.763C132.704 466.032 133.553 466.343 134.154 466.695V466.715ZM128.852 443.095C113.027 443.095 98.3215 451.231 95.5875 462.906C92.3357 476.859 106.938 490.335 128.852 490.335C150.765 490.335 165.367 476.859 162.116 462.906C159.402 451.252 144.676 443.095 128.852 443.095ZM140.305 472.698C138.421 474.147 135.562 475.058 131.793 475.41L131.876 479.778H126.677L126.739 475.513C124.253 475.41 121.892 475.079 119.676 474.54C117.48 474.002 115.741 473.319 114.456 472.532L117.522 468.206C118.702 468.848 120.09 469.406 121.726 469.841C123.363 470.297 125.061 470.566 126.822 470.69L126.905 464.956C124.688 464.583 122.824 464.169 121.312 463.714C119.821 463.258 118.599 462.596 117.646 461.747C116.714 460.898 116.3 459.801 116.424 458.435C116.569 456.799 117.584 455.412 119.448 454.274C121.271 453.156 123.798 452.494 127.07 452.245L127.112 449.264H131.316L131.378 452.183C134.9 452.369 137.841 452.928 140.223 453.881L138.296 457.441C136.018 456.592 133.74 456.096 131.441 455.909L131.544 461.022C133.698 461.354 135.521 461.747 137.033 462.182C138.545 462.616 139.871 463.279 140.948 464.148C142.066 465.039 142.687 466.218 142.832 467.709C143.019 469.613 142.19 471.27 140.326 472.698H140.305Z" fill="#F8C245"/>
</g>
<path d="M166.072 452.494H165.512C165.388 451.935 165.243 451.376 165.078 450.817C160.624 436.078 141.673 426.182 121.996 426.182C102.319 426.182 83.388 436.078 78.9141 450.817C78.7484 451.376 78.6034 451.935 78.4792 452.494H77.9199V457.752C78.1063 473.878 95.6497 488.472 121.996 488.472C148.342 488.472 165.885 473.857 166.072 457.752V452.494Z" fill="#E0AC45"/>
<path d="M121.996 421.338C102.319 421.338 83.3879 431.234 78.9141 445.973C73.2803 464.583 91.9007 483.649 121.996 483.649C152.091 483.649 170.691 464.583 165.077 445.973C160.624 431.234 141.673 421.338 121.996 421.338Z" fill="#F8C245"/>
<g style="mix-blend-mode:screen" opacity="0.5">
<path d="M121.996 422.932C103.582 422.932 86.0598 432.248 82.2488 445.973C77.5056 462.969 94.8005 480.047 121.996 480.047C149.191 480.047 166.486 462.969 161.743 445.973C157.911 432.248 140.388 422.932 121.996 422.932ZM121.996 477.542C96.7888 477.542 80.4675 461.83 84.6307 445.973C88.0275 432.993 104.535 424.092 121.996 424.092C139.456 424.092 155.964 432.993 159.361 445.973C163.524 461.83 147.203 477.542 121.996 477.542Z" fill="#F8C245"/>
</g>
<g style="mix-blend-mode:screen" opacity="0.5">
<path d="M117.646 439.907C118.185 439.535 119.013 439.245 120.152 439.079L120.09 443.344C118.992 443.116 118.164 442.847 117.605 442.516C117.045 442.184 116.776 441.77 116.797 441.274C116.797 440.756 117.108 440.301 117.646 439.928V439.907ZM127.319 449.802C127.919 450.154 128.23 450.63 128.251 451.21C128.272 451.79 128.002 452.287 127.443 452.701C126.884 453.115 126.014 453.425 124.833 453.611L124.75 448.85C125.869 449.119 126.718 449.43 127.319 449.782V449.802ZM122.016 426.182C106.192 426.182 91.4865 434.318 88.7524 445.993C85.5006 459.946 100.103 473.422 122.016 473.422C143.93 473.422 158.532 459.946 155.28 445.993C152.567 434.339 137.841 426.182 122.016 426.182ZM133.47 455.785C131.586 457.234 128.727 458.145 124.958 458.497L125.04 462.865H119.842L119.904 458.6C117.418 458.497 115.057 458.166 112.841 457.627C110.645 457.089 108.906 456.406 107.621 455.619L110.687 451.293C111.867 451.935 113.255 452.494 114.891 452.928C116.528 453.384 118.226 453.653 119.987 453.777L120.07 448.043C117.853 447.67 115.989 447.256 114.477 446.801C112.986 446.345 111.764 445.683 110.811 444.834C109.879 443.985 109.465 442.888 109.589 441.522C109.734 439.887 110.749 438.5 112.613 437.361C114.436 436.243 116.963 435.581 120.235 435.332L120.277 432.351H124.481L124.543 435.27C128.064 435.457 131.006 436.015 133.388 436.968L131.461 440.528C129.183 439.68 126.905 439.183 124.606 438.996L124.709 444.11C126.863 444.441 128.686 444.834 130.198 445.269C131.71 445.704 133.035 446.366 134.133 447.235C135.252 448.126 135.873 449.306 136.018 450.796C136.204 452.701 135.376 454.357 133.512 455.785H133.47Z" fill="#F8C245"/>
</g>
<path d="M172.907 439.266H172.348C172.223 438.707 172.078 438.148 171.913 437.589C167.459 422.85 148.508 412.954 128.831 412.954C109.154 412.954 90.2231 422.85 85.7492 437.589C85.5835 438.148 85.4385 438.707 85.3142 439.266H84.755V444.524C84.9414 460.65 102.485 475.244 128.831 475.244C155.177 475.244 172.72 460.629 172.907 444.524V439.266Z" fill="#E0AC45"/>
<path d="M128.831 408.11C109.154 408.11 90.223 418.006 85.7492 432.745C80.1154 451.355 98.7358 470.421 128.831 470.421C158.926 470.421 177.526 451.355 171.913 432.745C167.459 418.006 148.508 408.11 128.831 408.11Z" fill="#F8C245"/>
<g style="mix-blend-mode:screen" opacity="0.5">
<path d="M128.831 409.704C110.418 409.704 92.8949 419.02 89.0838 432.745C84.3407 449.74 101.636 466.819 128.831 466.819C156.026 466.819 173.321 449.74 168.578 432.745C164.746 419.02 147.223 409.704 128.831 409.704ZM128.831 464.314C103.624 464.314 87.3026 448.602 91.4658 432.745C94.8626 419.765 111.37 410.864 128.831 410.864C146.291 410.864 162.799 419.765 166.196 432.745C170.359 448.602 154.038 464.314 128.831 464.314Z" fill="#F8C245"/>
</g>
<g style="mix-blend-mode:screen" opacity="0.5">
<path d="M124.481 426.679C125.02 426.307 125.848 426.017 126.987 425.851L126.925 430.116C125.828 429.888 124.999 429.619 124.44 429.288C123.881 428.956 123.611 428.542 123.632 428.046C123.632 427.528 123.943 427.073 124.481 426.7V426.679ZM134.154 436.574C134.755 436.926 135.065 437.402 135.086 437.982C135.107 438.562 134.837 439.059 134.278 439.473C133.719 439.887 132.849 440.197 131.668 440.383L131.586 435.622C132.704 435.891 133.553 436.202 134.154 436.554V436.574ZM128.852 412.954C113.027 412.954 98.3215 421.09 95.5875 432.765C92.3357 446.718 106.938 460.194 128.852 460.194C150.765 460.194 165.367 446.718 162.116 432.765C159.402 421.111 144.676 412.954 128.852 412.954ZM140.305 442.557C138.421 444.006 135.562 444.917 131.793 445.269L131.876 449.637H126.677L126.739 445.372C124.253 445.269 121.892 444.938 119.676 444.399C117.48 443.861 115.741 443.178 114.456 442.391L117.522 438.065C118.702 438.707 120.09 439.266 121.726 439.7C123.363 440.156 125.061 440.425 126.822 440.549L126.905 434.815C124.688 434.442 122.824 434.028 121.312 433.573C119.821 433.117 118.599 432.455 117.646 431.606C116.714 430.757 116.3 429.66 116.424 428.294C116.569 426.659 117.584 425.272 119.448 424.133C121.271 423.015 123.798 422.353 127.07 422.104L127.112 419.123H131.316L131.378 422.042C134.9 422.228 137.841 422.787 140.223 423.74L138.296 427.3C136.018 426.452 133.74 425.955 131.441 425.768L131.544 430.882C133.698 431.213 135.521 431.606 137.033 432.041C138.545 432.476 139.871 433.138 140.948 434.007C142.066 434.898 142.687 436.078 142.832 437.568C143.019 439.473 142.19 441.129 140.326 442.557H140.305Z" fill="#F8C245"/>
</g>
<path d="M176.449 422.352H175.889C175.765 421.794 175.62 421.235 175.454 420.676C171.001 405.936 152.049 396.041 132.373 396.041C112.696 396.041 93.7648 405.936 89.2909 420.676C89.1252 421.235 88.9803 421.794 88.856 422.352H88.2968V427.611C88.4832 443.737 106.027 458.331 132.373 458.331C158.719 458.331 176.262 443.716 176.449 427.611V422.352Z" fill="#E0AC45"/>
<path d="M132.373 391.197C112.696 391.197 93.7648 401.092 89.2909 415.832C83.6571 434.442 102.278 453.508 132.373 453.508C162.468 453.508 181.067 434.442 175.454 415.832C171.001 401.092 152.049 391.197 132.373 391.197Z" fill="#F8C245"/>
<g style="mix-blend-mode:screen" opacity="0.5">
<path d="M132.373 392.791C113.959 392.791 96.4367 402.107 92.6256 415.832C87.8825 432.827 105.177 449.906 132.373 449.906C159.568 449.906 176.863 432.827 172.12 415.832C168.288 402.107 150.765 392.791 132.373 392.791ZM132.373 447.401C107.166 447.401 90.8443 431.689 95.0075 415.832C98.4043 402.852 114.912 393.951 132.373 393.951C149.833 393.951 166.341 402.852 169.738 415.832C173.901 431.689 157.58 447.401 132.373 447.401Z" fill="#F8C245"/>
</g>
<g style="mix-blend-mode:screen" opacity="0.5">
<path d="M128.023 409.766C128.562 409.394 129.39 409.104 130.529 408.938L130.467 413.203C129.369 412.975 128.541 412.706 127.982 412.375C127.422 412.043 127.153 411.629 127.174 411.132C127.174 410.615 127.484 410.159 128.023 409.787V409.766ZM137.696 419.661C138.296 420.013 138.607 420.489 138.628 421.069C138.648 421.649 138.379 422.145 137.82 422.56C137.261 422.974 136.391 423.284 135.21 423.47L135.127 418.709C136.246 418.978 137.095 419.289 137.696 419.641V419.661ZM132.393 396.041C116.569 396.041 101.863 404.177 99.1293 415.852C95.8774 429.805 110.48 443.281 132.393 443.281C154.307 443.281 168.909 429.805 165.657 415.852C162.944 404.198 148.218 396.041 132.393 396.041ZM143.847 425.644C141.962 427.093 139.104 428.004 135.334 428.356L135.417 432.724H130.219L130.281 428.459C127.795 428.356 125.434 428.025 123.218 427.486C121.022 426.948 119.282 426.265 117.998 425.478L121.064 421.152C122.244 421.794 123.632 422.352 125.268 422.787C126.905 423.243 128.603 423.512 130.363 423.636L130.446 417.902C128.23 417.529 126.366 417.115 124.854 416.66C123.363 416.204 122.141 415.542 121.188 414.693C120.256 413.844 119.842 412.747 119.966 411.381C120.111 409.745 121.126 408.358 122.99 407.22C124.813 406.102 127.339 405.44 130.612 405.191L130.653 402.21H134.858L134.92 405.129C138.441 405.315 141.382 405.874 143.764 406.827L141.838 410.387C139.56 409.538 137.281 409.042 134.982 408.855L135.086 413.969C137.24 414.3 139.063 414.693 140.575 415.128C142.087 415.563 143.412 416.225 144.51 417.094C145.628 417.985 146.25 419.165 146.395 420.655C146.581 422.56 145.753 424.216 143.889 425.644H143.847Z" fill="#F8C245"/>
</g>
<g style="mix-blend-mode:multiply" opacity="0.8">
<path d="M169.365 546.746C192.929 546.746 212.032 532.937 212.032 515.901C212.032 498.866 192.929 485.057 169.365 485.057C145.8 485.057 126.697 498.866 126.697 515.901C126.697 532.937 145.8 546.746 169.365 546.746Z" fill="#D4E1EF"/>
</g>
<path d="M187.136 546.104C212.92 546.104 233.822 525.214 233.822 499.444C233.822 473.674 212.92 452.783 187.136 452.783C161.352 452.783 140.45 473.674 140.45 499.444C140.45 525.214 161.352 546.104 187.136 546.104Z" fill="#F8C245"/>
<g style="mix-blend-mode:screen" opacity="0.5">
<path d="M187.136 456.385C163.338 456.385 144.054 475.658 144.054 499.444C144.054 523.23 163.338 542.503 187.136 542.503C210.935 542.503 230.218 523.23 230.218 499.444C230.218 475.658 210.935 456.385 187.136 456.385ZM187.136 539.915C164.767 539.915 146.643 521.801 146.643 499.444C146.643 477.087 164.767 458.973 187.136 458.973C209.505 458.973 227.629 477.087 227.629 499.444C227.629 521.801 209.505 539.915 187.136 539.915Z" fill="#F8C245"/>
</g>
<g style="mix-blend-mode:screen" opacity="0.5">
<path d="M182.207 489.528C182.807 488.866 183.739 488.389 185.023 488.1V495.242C183.822 494.869 182.89 494.414 182.248 493.875C181.606 493.337 181.295 492.654 181.295 491.826C181.295 490.998 181.606 490.19 182.207 489.549V489.528ZM192.728 505.282C193.35 505.82 193.661 506.503 193.661 507.352C193.661 508.201 193.371 508.904 192.749 509.505C192.149 510.105 191.237 510.54 190.036 510.809V503.874C191.196 504.267 192.107 504.743 192.728 505.282ZM187.115 463.424C167.211 463.424 151.076 479.55 151.076 499.444C151.076 519.338 167.211 535.464 187.115 535.464C207.02 535.464 223.155 519.338 223.155 499.444C223.155 479.55 207.02 463.424 187.115 463.424ZM198.735 513.79C196.726 515.756 193.826 516.957 190.036 517.433V523.064H185.003V517.578C182.517 517.454 180.156 517.019 177.919 516.274C175.682 515.529 173.86 514.639 172.492 513.562L175.268 507.435C176.531 508.366 178.043 509.153 179.742 509.795C181.44 510.436 183.201 510.83 185.023 510.995V502.611C182.642 502.032 180.632 501.411 178.996 500.707C177.36 500.003 175.972 498.968 174.874 497.622C173.756 496.277 173.217 494.476 173.217 492.219C173.217 489.445 174.232 487.044 176.262 485.057C178.292 483.069 181.212 481.848 185.044 481.413V475.845H190.077V481.31C194.199 481.641 197.596 482.676 200.288 484.373L197.782 490.542C195.276 489.093 192.708 488.224 190.098 487.934V496.484C192.438 497.022 194.427 497.643 196.063 498.326C197.679 499.009 199.046 500.044 200.164 501.39C201.283 502.735 201.821 504.536 201.821 506.731C201.821 509.484 200.806 511.823 198.797 513.79H198.735Z" fill="#F8C245"/>
</g>
<path d="M36.0809 355.136C16.1556 355.136 0 371.283 0 391.197C0 411.112 16.1556 427.259 36.0809 427.259C56.0062 427.259 72.1618 411.112 72.1618 391.197C72.1618 371.283 56.0062 355.136 36.0809 355.136ZM36.0809 424.464C17.6883 424.464 2.77545 409.559 2.77545 391.177C2.77545 372.794 17.6883 357.889 36.0809 357.889C54.4735 357.889 69.3864 372.794 69.3864 391.177C69.3864 409.559 54.4735 424.464 36.0809 424.464Z" fill="url(#paint5_linear_1496_7203)"/>
<path d="M36.0809 359.918C18.8068 359.918 4.78455 373.912 4.78455 391.197C4.78455 408.483 18.7861 422.477 36.0809 422.477C53.3757 422.477 67.3773 408.483 67.3773 391.197C67.3773 373.912 53.3757 359.918 36.0809 359.918ZM36.0809 419.04C20.6916 419.04 8.2228 406.578 8.2228 391.197C8.2228 375.816 20.6916 363.354 36.0809 363.354C51.4702 363.354 63.939 375.816 63.939 391.197C63.939 406.578 51.4702 419.04 36.0809 419.04Z" fill="url(#paint6_linear_1496_7203)"/>
<path d="M42.9367 390.328C41.6733 389.79 40.1405 389.334 38.3386 388.92V382.316C40.3684 382.544 42.336 383.227 44.283 384.345L46.23 379.563C44.1587 378.238 41.5283 377.452 38.3386 377.183V372.959H34.4446V377.265C31.4828 377.597 29.2251 378.549 27.6717 380.081C26.0976 381.613 25.3105 383.476 25.3105 385.608C25.3105 387.347 25.7455 388.734 26.5947 389.79C27.4439 390.845 28.5209 391.632 29.7844 392.17C31.0478 392.708 32.6012 393.205 34.4446 393.64V400.119C33.0362 399.995 31.6899 399.685 30.3643 399.188C29.0387 398.691 27.8788 398.091 26.9053 397.366L24.772 402.107C25.8283 402.935 27.2367 403.639 28.9766 404.198C30.7164 404.777 32.5391 405.108 34.4654 405.212V409.435H38.3593V405.088C41.2797 404.715 43.5167 403.784 45.0701 402.272C46.6235 400.761 47.4106 398.94 47.4106 396.807C47.4106 395.089 46.9756 393.723 46.1264 392.667C45.2772 391.611 44.2209 390.825 42.9574 390.286L42.9367 390.328ZM34.4446 387.947C33.5126 387.657 32.7877 387.305 32.3113 386.891C31.8142 386.477 31.5656 385.939 31.5656 385.297C31.5656 384.656 31.7935 384.035 32.2698 383.538C32.7255 383.041 33.4504 382.668 34.4446 382.42V387.926V387.947ZM40.4305 398.981C39.9748 399.457 39.2706 399.788 38.3386 399.995V394.634C39.2499 394.944 39.9334 395.317 40.4098 395.731C40.8862 396.145 41.1347 396.683 41.1347 397.325C41.1347 397.967 40.9069 398.525 40.4305 399.002V398.981Z" fill="url(#paint7_linear_1496_7203)"/>
<path d="M92.0042 278.438C80.2811 278.438 70.7948 287.94 70.7948 299.636C70.7948 311.332 80.3018 320.834 92.0042 320.834C103.707 320.834 113.214 311.332 113.214 299.636C113.214 287.94 103.707 278.438 92.0042 278.438ZM92.0042 319.219C81.1924 319.219 72.4311 310.462 72.4311 299.656C72.4311 288.85 81.1924 280.094 92.0042 280.094C102.816 280.094 111.577 288.85 111.577 299.656C111.577 310.462 102.816 319.219 92.0042 319.219Z" fill="url(#paint8_linear_1496_7203)"/>
<path d="M92.0042 281.232C81.8345 281.232 73.5909 289.472 73.5909 299.636C73.5909 309.8 81.8345 318.039 92.0042 318.039C102.174 318.039 110.418 309.8 110.418 299.636C110.418 289.472 102.174 281.232 92.0042 281.232ZM92.0042 315.99C82.9529 315.99 75.6208 308.662 75.6208 299.615C75.6208 290.569 82.9529 283.24 92.0042 283.24C101.056 283.24 108.388 290.569 108.388 299.615C108.388 308.662 101.056 315.99 92.0042 315.99Z" fill="url(#paint9_linear_1496_7203)"/>
<path d="M96.0431 299.118C95.2975 298.808 94.4068 298.539 93.3298 298.29V294.398C94.5104 294.543 95.691 294.937 96.8302 295.578L97.9694 292.763C96.7473 291.976 95.1939 291.521 93.3298 291.376V288.892H91.0514V291.417C89.3116 291.624 87.986 292.163 87.0747 293.073C86.1426 293.984 85.6869 295.061 85.6869 296.324C85.6869 297.338 85.9355 298.166 86.4326 298.787C86.9297 299.408 87.5511 299.863 88.2967 300.195C89.0424 300.526 89.9537 300.795 91.0307 301.064V304.873C90.2022 304.79 89.4152 304.604 88.6281 304.335C87.841 304.045 87.1782 303.693 86.5983 303.258L85.3348 306.053C85.9562 306.55 86.7847 306.943 87.7996 307.295C88.8145 307.626 89.8916 307.833 91.0307 307.896V310.38H93.3091V307.813C95.0282 307.606 96.3538 307.047 97.2651 306.157C98.1765 305.266 98.6322 304.19 98.6322 302.948C98.6322 301.934 98.3836 301.126 97.8865 300.526C97.3894 299.905 96.7681 299.449 96.0224 299.139L96.0431 299.118ZM91.0514 297.711C90.5129 297.545 90.078 297.338 89.788 297.09C89.498 296.841 89.353 296.531 89.353 296.158C89.353 295.785 89.498 295.413 89.7673 295.123C90.0365 294.833 90.4715 294.605 91.0514 294.481V297.731V297.711ZM94.5725 304.19C94.3033 304.459 93.889 304.666 93.3298 304.79V301.644C93.8683 301.83 94.2619 302.037 94.5518 302.286C94.8418 302.534 94.9661 302.844 94.9661 303.217C94.9661 303.59 94.8211 303.921 94.5518 304.19H94.5725Z" fill="url(#paint10_linear_1496_7203)"/>
<path d="M554.863 243.267C543.14 243.267 533.654 252.768 533.654 264.465C533.654 276.161 543.161 285.663 554.863 285.663C566.566 285.663 576.073 276.161 576.073 264.465C576.073 252.768 566.566 243.267 554.863 243.267ZM554.863 284.048C544.051 284.048 535.29 275.291 535.29 264.485C535.29 253.679 544.051 244.923 554.863 244.923C565.675 244.923 574.436 253.679 574.436 264.485C574.436 275.291 565.675 284.048 554.863 284.048Z" fill="url(#paint11_linear_1496_7203)"/>
<path d="M554.863 246.082C544.694 246.082 536.45 254.321 536.45 264.485C536.45 274.65 544.694 282.889 554.863 282.889C565.033 282.889 573.277 274.65 573.277 264.485C573.277 254.321 565.033 246.082 554.863 246.082ZM554.863 280.839C545.812 280.839 538.48 273.511 538.48 264.465C538.48 255.418 545.812 248.09 554.863 248.09C563.915 248.09 571.247 255.418 571.247 264.465C571.247 273.511 563.915 280.839 554.863 280.839Z" fill="url(#paint12_linear_1496_7203)"/>
<path d="M558.902 263.968C558.157 263.657 557.266 263.388 556.189 263.14V259.248C557.37 259.393 558.55 259.786 559.689 260.428L560.829 257.613C559.607 256.826 558.053 256.371 556.189 256.226V253.741H553.911V256.267C552.171 256.474 550.845 257.012 549.934 257.923C549.002 258.834 548.546 259.91 548.546 261.173C548.546 262.188 548.795 263.016 549.292 263.637C549.789 264.258 550.41 264.713 551.156 265.044C551.902 265.376 552.813 265.645 553.89 265.914V269.723C553.061 269.64 552.274 269.454 551.487 269.185C550.7 268.895 550.037 268.543 549.458 268.108L548.194 270.903C548.815 271.4 549.644 271.793 550.659 272.145C551.674 272.476 552.751 272.683 553.89 272.745V275.229H556.168V272.662C557.887 272.455 559.213 271.896 560.124 271.006C561.036 270.116 561.491 269.04 561.491 267.798C561.491 266.783 561.243 265.976 560.746 265.376C560.249 264.754 559.627 264.299 558.882 263.989L558.902 263.968ZM553.911 262.56C553.372 262.395 552.937 262.188 552.647 261.939C552.357 261.691 552.212 261.38 552.212 261.008C552.212 260.635 552.357 260.262 552.626 259.973C552.896 259.683 553.331 259.455 553.911 259.331V262.581V262.56ZM557.432 269.04C557.162 269.309 556.748 269.516 556.189 269.64V266.493C556.728 266.68 557.121 266.887 557.411 267.135C557.701 267.384 557.825 267.694 557.825 268.067C557.825 268.439 557.68 268.771 557.411 269.04H557.432Z" fill="url(#paint13_linear_1496_7203)"/>
<path d="M552.668 351.782C535.311 351.782 521.247 365.838 521.247 383.186C521.247 400.534 535.311 414.59 552.668 414.59C570.025 414.59 584.088 400.534 584.088 383.186C584.088 365.838 570.025 351.782 552.668 351.782ZM552.668 412.168C536.657 412.168 523.67 399.188 523.67 383.186C523.67 367.184 536.657 354.204 552.668 354.204C568.678 354.204 581.665 367.184 581.665 383.186C581.665 399.188 568.678 412.168 552.668 412.168Z" fill="url(#paint14_linear_1496_7203)"/>
<path d="M552.668 355.964C537.61 355.964 525.41 368.157 525.41 383.207C525.41 398.256 537.61 410.449 552.668 410.449C567.725 410.449 579.925 398.256 579.925 383.207C579.925 368.157 567.725 355.964 552.668 355.964ZM552.668 407.448C539.267 407.448 528.413 396.6 528.413 383.207C528.413 369.813 539.267 358.966 552.668 358.966C566.068 358.966 576.922 369.813 576.922 383.207C576.922 396.6 566.068 407.448 552.668 407.448Z" fill="url(#paint15_linear_1496_7203)"/>
<path d="M558.633 382.441C557.535 381.985 556.209 381.571 554.615 381.199V375.444C556.375 375.651 558.094 376.23 559.793 377.203L561.491 373.042C559.689 371.883 557.39 371.2 554.615 370.972V367.287H551.239V371.034C548.67 371.324 546.703 372.152 545.335 373.477C543.968 374.823 543.285 376.417 543.285 378.3C543.285 379.812 543.658 381.033 544.403 381.944C545.149 382.855 546.081 383.558 547.179 384.035C548.277 384.511 549.644 384.945 551.239 385.318V390.97C550.016 390.866 548.836 390.576 547.676 390.162C546.516 389.727 545.522 389.21 544.673 388.568L542.809 392.688C543.741 393.412 544.942 394.013 546.454 394.509C547.966 395.006 549.561 395.296 551.218 395.379V399.064H554.594V395.275C557.142 394.965 559.088 394.137 560.455 392.833C561.802 391.508 562.485 389.934 562.485 388.071C562.485 386.581 562.112 385.38 561.367 384.469C560.621 383.558 559.71 382.875 558.612 382.399L558.633 382.441ZM551.239 380.37C550.431 380.122 549.809 379.812 549.374 379.46C548.939 379.108 548.732 378.632 548.732 378.073C548.732 377.514 548.939 376.976 549.354 376.541C549.768 376.106 550.389 375.775 551.239 375.568V380.37ZM556.458 389.976C556.044 390.39 555.443 390.68 554.635 390.845V386.167C555.422 386.436 556.023 386.746 556.437 387.119C556.852 387.471 557.059 387.947 557.059 388.506C557.059 389.065 556.852 389.562 556.458 389.955V389.976Z" fill="url(#paint16_linear_1496_7203)"/>
<path d="M53.2722 210.786C37.7793 210.786 25.2277 223.331 25.2277 238.816C25.2277 254.3 37.7793 266.845 53.2722 266.845C68.765 266.845 81.3167 254.3 81.3167 238.816C81.3167 223.331 68.765 210.786 53.2722 210.786ZM53.2722 264.672C38.9807 264.672 27.4025 253.1 27.4025 238.816C27.4025 224.532 38.9807 212.96 53.2722 212.96C67.5637 212.96 79.1419 224.532 79.1419 238.816C79.1419 253.1 67.5637 264.672 53.2722 264.672Z" fill="url(#paint17_linear_1496_7203)"/>
<path d="M53.2722 214.513C39.8506 214.513 28.9559 225.402 28.9559 238.816C28.9559 252.23 39.8506 263.119 53.2722 263.119C66.6938 263.119 77.5885 252.23 77.5885 238.816C77.5885 225.402 66.6938 214.513 53.2722 214.513ZM53.2722 260.449C41.3212 260.449 31.6278 250.761 31.6278 238.816C31.6278 226.871 41.3212 217.183 53.2722 217.183C65.2233 217.183 74.9166 226.871 74.9166 238.816C74.9166 250.761 65.2233 260.449 53.2722 260.449Z" fill="url(#paint18_linear_1496_7203)"/>
<path d="M58.5953 238.133C57.6218 237.719 56.4205 237.346 55.0121 237.036V231.902C56.5862 232.088 58.1189 232.605 59.6309 233.475L61.1429 229.769C59.5274 228.734 57.4975 228.134 55.0121 227.927V224.635H51.9881V227.989C49.689 228.258 47.9284 228.983 46.7271 230.183C45.5051 231.384 44.9044 232.812 44.9044 234.489C44.9044 235.835 45.2358 236.911 45.8986 237.739C46.5614 238.547 47.3899 239.168 48.3634 239.602C49.3576 240.016 50.5589 240.41 51.9881 240.741V245.771C50.8903 245.668 49.834 245.42 48.8191 245.047C47.7835 244.674 46.8928 244.198 46.1265 243.619L44.4695 247.303C45.298 247.945 46.375 248.483 47.7213 248.939C49.0676 249.373 50.4968 249.643 51.9881 249.725V253.017H55.0121V249.643C57.2904 249.353 59.0303 248.628 60.2316 247.448C61.4329 246.268 62.0543 244.861 62.0543 243.204C62.0543 241.88 61.7229 240.803 61.0601 239.996C60.3973 239.188 59.5688 238.567 58.5953 238.153V238.133ZM51.9881 236.27C51.2631 236.042 50.7039 235.773 50.3311 235.462C49.9375 235.152 49.7511 234.738 49.7511 234.22C49.7511 233.703 49.9375 233.247 50.2897 232.854C50.6418 232.461 51.2217 232.171 51.9881 231.984V236.27ZM56.6276 244.84C56.2755 245.192 55.7163 245.461 54.9914 245.627V241.466C55.6956 241.714 56.2341 241.983 56.6069 242.314C56.9797 242.646 57.1662 243.039 57.1662 243.556C57.1662 244.074 56.9797 244.488 56.6276 244.861V244.84Z" fill="url(#paint19_linear_1496_7203)"/>
<path d="M616.959 288.25C603.144 288.25 591.917 299.45 591.917 313.278C591.917 327.106 603.123 338.306 616.959 338.306C630.795 338.306 642 327.106 642 313.278C642 299.45 630.795 288.25 616.959 288.25ZM616.959 336.36C604.2 336.36 593.864 326.03 593.864 313.278C593.864 300.526 604.2 290.196 616.959 290.196C629.718 290.196 640.053 300.526 640.053 313.278C640.053 326.03 629.718 336.36 616.959 336.36Z" fill="url(#paint20_linear_1496_7203)"/>
<path d="M616.959 291.583C604.966 291.583 595.252 301.292 595.252 313.278C595.252 325.264 604.966 334.973 616.959 334.973C628.951 334.973 638.665 325.264 638.665 313.278C638.665 301.292 628.951 291.583 616.959 291.583ZM616.959 332.592C606.292 332.592 597.634 323.939 597.634 313.278C597.634 302.617 606.292 293.964 616.959 293.964C627.625 293.964 636.283 302.617 636.283 313.278C636.283 323.939 627.625 332.592 616.959 332.592Z" fill="url(#paint21_linear_1496_7203)"/>
<path d="M621.723 312.678C620.853 312.305 619.776 311.974 618.533 311.684V307.109C619.941 307.275 621.308 307.73 622.655 308.517L624.001 305.205C622.572 304.294 620.728 303.735 618.533 303.569V300.63H615.84V303.611C613.79 303.838 612.216 304.501 611.138 305.557C610.041 306.633 609.502 307.916 609.502 309.386C609.502 310.587 609.792 311.56 610.393 312.284C610.994 313.009 611.718 313.568 612.609 313.941C613.479 314.313 614.577 314.665 615.84 314.955V319.447C614.867 319.364 613.935 319.137 613.003 318.805C612.091 318.474 611.283 318.039 610.6 317.543L609.109 320.834C609.854 321.414 610.807 321.89 612.029 322.283C613.23 322.676 614.494 322.904 615.84 322.987V325.927H618.533V322.904C620.563 322.656 622.116 321.993 623.193 320.958C624.27 319.902 624.809 318.64 624.809 317.17C624.809 315.99 624.519 315.038 623.918 314.292C623.317 313.568 622.592 313.009 621.723 312.657V312.678ZM615.84 311.022C615.198 310.815 614.701 310.587 614.349 310.297C613.997 310.007 613.831 309.635 613.831 309.2C613.831 308.765 613.997 308.33 614.328 307.979C614.66 307.627 615.157 307.378 615.84 307.213V311.042V311.022ZM619.983 318.681C619.651 319.012 619.175 319.24 618.533 319.385V315.659C619.154 315.866 619.631 316.135 619.983 316.404C620.314 316.694 620.48 317.066 620.48 317.501C620.48 317.936 620.314 318.329 620.003 318.66L619.983 318.681Z" fill="url(#paint22_linear_1496_7203)"/>
<path d="M214.911 76.394C203.644 76.394 194.53 85.5233 194.53 96.764C194.53 108.005 203.665 117.134 214.911 117.134C226.158 117.134 235.292 108.005 235.292 96.764C235.292 85.5233 226.158 76.394 214.911 76.394ZM214.911 115.581C204.514 115.581 196.084 107.156 196.084 96.764C196.084 86.372 204.514 77.9466 214.911 77.9466C225.309 77.9466 233.718 86.372 233.718 96.764C233.718 107.156 225.288 115.581 214.911 115.581Z" fill="url(#paint23_linear_1496_7203)"/>
<path d="M214.911 79.106C205.135 79.106 197.223 87.0138 197.223 96.7848C197.223 106.556 205.135 114.464 214.911 114.464C224.688 114.464 232.6 106.556 232.6 96.7848C232.6 87.0138 224.688 79.106 214.911 79.106ZM214.911 112.518C206.212 112.518 199.17 105.479 199.17 96.7848C199.17 88.0903 206.212 81.0519 214.911 81.0519C223.611 81.0519 230.653 88.0903 230.653 96.7848C230.653 105.479 223.611 112.518 214.911 112.518Z" fill="url(#paint24_linear_1496_7203)"/>
<path d="M218.785 96.2879C218.08 95.9981 217.21 95.729 216.175 95.4806V91.7543C217.314 91.8785 218.432 92.2719 219.53 92.8929L220.628 90.2018C219.447 89.4565 217.977 89.0011 216.175 88.8562V86.4548H213.979V88.8976C212.302 89.0839 211.038 89.6221 210.148 90.4916C209.257 91.361 208.822 92.3961 208.822 93.6175C208.822 94.5904 209.07 95.3771 209.547 95.9774C210.023 96.5777 210.624 97.0125 211.349 97.323C212.074 97.6335 212.944 97.9026 213.979 98.151V101.815C213.192 101.732 212.426 101.567 211.68 101.298C210.935 101.028 210.272 100.677 209.733 100.263L208.532 102.933C209.133 103.409 209.92 103.802 210.893 104.113C211.867 104.444 212.902 104.63 214 104.693V107.094H216.196V104.63C217.853 104.423 219.116 103.885 219.986 103.037C220.856 102.188 221.312 101.153 221.312 99.952C221.312 98.9791 221.063 98.2131 220.587 97.6128C220.11 97.0124 219.51 96.5777 218.805 96.2672L218.785 96.2879ZM213.979 94.9423C213.462 94.7767 213.047 94.5904 212.778 94.342C212.509 94.1143 212.364 93.8038 212.364 93.4518C212.364 93.0999 212.488 92.748 212.757 92.4582C213.027 92.1684 213.42 91.9614 213.979 91.8371V94.963V94.9423ZM217.355 101.173C217.086 101.443 216.693 101.629 216.175 101.753V98.7307C216.693 98.8963 217.086 99.1033 217.355 99.3517C217.625 99.5794 217.77 99.8899 217.77 100.242C217.77 100.594 217.645 100.925 217.376 101.194L217.355 101.173Z" fill="url(#paint25_linear_1496_7203)"/>
<g style="mix-blend-mode:multiply" opacity="0.5">
<path d="M374.314 276.803C374.314 276.803 331.066 272.745 326.655 282.268C322.243 291.79 376.281 304.915 384.525 307.254C392.768 309.593 440.2 336.277 440.2 336.277C440.2 336.277 433.8 381.716 432.412 390.266C431.024 398.815 428.249 433.2 435.104 450.154C441.96 467.109 458.137 474.665 460.518 470.421C462.9 466.198 459.048 366.956 460.518 363.313C461.989 359.669 468.886 325.989 468.886 325.989L374.314 276.823V276.803Z" fill="#6D99BF"/>
</g>
<path d="M524.188 450.134C524.188 450.134 527.047 466.405 535.704 464.128C544.383 461.851 578.537 441.853 579.614 439.017C580.692 436.181 572.096 433.283 567.933 435.291C563.77 437.299 546.64 443.261 545.066 443.737C543.492 444.213 524.188 450.134 524.188 450.134Z" fill="#1E3B5B"/>
<path d="M447.904 406.93C447.904 406.93 437.673 409.725 441.111 422.849C444.549 435.974 469.404 460.65 473.981 458.849C478.579 457.048 469.694 421.752 463.377 417.281C457.059 412.83 447.884 406.93 447.884 406.93H447.904Z" fill="#1E3B5B"/>
<path d="M486.575 252.209C486.575 252.209 543.948 289.347 533.281 312.222C522.614 335.118 461.533 427.859 461.533 427.859C461.533 427.859 447.283 412.085 448.92 406.206C450.576 400.327 488.314 307.751 481.666 302.286C475.017 296.821 423.92 263.699 423.92 263.699C423.92 263.699 466.919 237.553 486.554 252.189L486.575 252.209Z" fill="#3C4371"/>
<g style="mix-blend-mode:multiply" opacity="0.2">
<path d="M527.523 313.03C525.679 300.402 517.995 289.513 515.137 277.113C514.93 276.181 514.785 275.271 514.702 274.38C501.487 261.877 486.575 252.209 486.575 252.209C466.919 237.553 423.94 263.719 423.94 263.719C423.94 263.719 475.038 296.841 481.686 302.306C488.335 307.771 450.577 400.347 448.94 406.226C448.567 407.572 449.044 409.456 449.976 411.547C457.204 404.425 477.565 356.647 497.117 355.198C497.179 355.198 494.217 358.075 494.3 358.075C508.219 343.916 520.998 330.087 528.206 320.275C528.082 317.832 527.875 315.431 527.523 313.03Z" fill="#3C4371"/>
</g>
<path d="M392.706 296.013C392.706 296.013 411.057 319.716 473.339 333.813C501.57 379.356 524.168 450.154 524.168 450.154L545.046 443.758C545.046 443.758 530.195 334.538 511.802 312.408C501.384 299.884 453.393 259.31 435.767 254.569C418.162 249.829 398.961 278.5 392.686 296.013H392.706Z" fill="#3C4371"/>
<path d="M390.324 119.742C390.324 119.742 385.83 145.66 384.587 150.318C383.344 154.976 398.92 167.479 407.433 164.995C415.945 162.511 419.322 151.747 419.322 151.747L417.478 128.644C417.478 128.644 392.706 122.558 390.324 119.742Z" fill="#EFE3CB"/>
<g style="mix-blend-mode:multiply" opacity="0.8">
<path d="M390.324 119.742C390.324 119.742 385.83 145.66 384.587 150.318C383.344 154.976 398.92 167.479 407.433 164.995C415.945 162.511 419.322 151.747 419.322 151.747L417.478 128.644C417.478 128.644 392.706 122.558 390.324 119.742Z" fill="#EFE3CB"/>
</g>
<path d="M382.164 137.235L410.105 168.059L418.472 139.595C418.472 139.595 461.264 151.705 466.359 157.439C471.455 163.173 439.412 255.873 435.767 257.364C432.122 258.854 315.594 150.008 382.184 137.256L382.164 137.235Z" fill="#A9D9FF"/>
<path d="M527.398 228.258C525.866 226.685 471.434 163.174 466.338 157.439C461.243 151.705 418.451 139.595 418.451 139.595L430.071 243.494L382.163 137.256C315.573 150.008 351.799 225.505 359.836 231.322C365.449 235.4 375.846 272.435 381.604 294.357C381.977 294.875 382.329 295.413 382.661 295.951C383.075 296.655 383.51 297.338 383.945 298.021C384.131 298.228 384.338 298.477 384.628 298.829C385.498 299.636 386.306 300.464 387.155 301.292C387.3 301.333 388.729 302.41 389.392 302.948C389.516 302.969 389.641 303.01 389.806 303.052C390.49 303.217 391.173 303.424 391.857 303.631C404.595 289.575 432.95 258.523 435.767 257.364C439.412 255.874 481.251 264.982 481.251 264.982C481.251 264.982 481.5 252.272 474.789 243.06C473.878 241.817 465.903 225.422 470.357 224.201C476.156 222.607 490.717 244.095 501.052 245.192C516.732 246.869 528.123 228.962 527.419 228.237L527.398 228.258Z" fill="#3C4371"/>
<g style="mix-blend-mode:multiply" opacity="0.2">
<path d="M435.746 257.364C436.596 257.012 440.22 257.385 445.253 258.171C445.129 241.134 467.229 244.281 468.638 229.148C468.803 227.306 472.697 218.177 472.863 220.309C473.091 218.88 473.339 217.431 473.609 216.024C474.955 209.006 479.76 204.928 485.497 203.354C485.207 202.589 484.959 201.802 484.773 200.995C479.719 199.111 474.996 196.44 470.812 192.548C467.809 189.754 465.158 186.504 462.838 182.943C461.409 195.426 459.628 207.785 454.677 219.708C450.763 229.19 441.981 235.69 431.335 232.874C432.432 242.149 433.178 249.456 433.24 252.934C395.689 306.177 388.75 272.269 385.912 260.635C406.832 258.896 430.693 246.04 430.693 246.04L423.195 230.411C411.472 230.287 399.873 220.806 404.823 206.625C405.879 203.582 406.708 200.518 407.37 197.413L382.122 137.214C375.888 138.415 367.354 142.659 362.88 144.853C363.667 147.689 369.943 153.175 372.242 168.576C377.358 168.804 383.282 169.197 386.14 168.721C385.105 173.089 382.495 178.679 382.806 182.777C388.626 191.493 394.839 196.647 398.05 201.409C395.875 206.149 391.96 210.124 388.046 211.594C385.56 212.546 382.992 204.41 377.669 188.429C356.17 208.24 353.788 226.933 359.794 231.301C365.407 235.379 375.805 272.414 381.563 294.336C381.936 294.854 382.288 295.392 382.619 295.93C383.033 296.634 383.468 297.317 383.903 298C384.09 298.207 384.297 298.456 384.587 298.808C385.457 299.615 386.265 300.443 387.114 301.271C387.259 301.313 388.688 302.389 389.351 302.927C389.475 302.948 389.599 302.989 389.765 303.031C390.448 303.196 391.132 303.403 391.815 303.61C404.554 289.554 432.909 258.502 435.726 257.343L435.746 257.364Z" fill="#3C4371"/>
</g>
<path d="M446.703 83.5359C446.703 83.5359 438.833 113.491 435.001 121.895C425.018 143.776 416.132 138.518 410.622 137.897C405.072 137.276 391.526 126.512 389.123 121.75C385.043 113.718 380.155 97.1159 384.463 88.0695C388.771 79.0437 429.844 54.5749 446.683 83.5152L446.703 83.5359Z" fill="#EFE3CB"/>
<path d="M382.164 137.235C382.164 137.235 432.971 236.414 432.412 250.222C432.412 250.222 389.309 180.149 386.223 178.72L388.75 165.72L375.018 166.113C375.018 166.113 366.339 146.985 362.922 144.874C359.504 142.741 379.181 137.214 382.164 137.235Z" fill="#3C4F84"/>
<path d="M418.452 139.595C418.452 139.595 419.715 222.42 432.474 246.102C432.474 246.102 433.903 177.768 433.634 172.592L425.95 167.645L433.903 166.382C433.903 166.382 437.01 153.465 437.548 144.563C431.128 141.458 422.035 142.514 418.472 139.615L418.452 139.595Z" fill="#3C4F84"/>
<path d="M382.164 137.235L387.942 133.177L405.838 161.083L397.801 173.317L382.164 137.235Z" fill="#FDFDFD"/>
<path d="M405.838 161.083L418.41 142.307L419.777 171.061L405.838 161.083Z" fill="#FDFDFD"/>
<path d="M400.763 168.784L405.61 174.89L412.693 173.545L414.951 167.604L405.838 161.083L400.763 168.784Z" fill="#FE7146"/>
<path d="M351.137 154.148C351.137 154.148 333.759 188.988 346.683 219.812C355.735 241.362 370.958 255.832 399.438 253.7C427.399 251.588 460.518 229.293 460.518 229.293C460.518 229.293 460.746 215.32 455.071 213.167C455.071 213.167 426.529 234.468 399.811 229.045C379.326 224.884 377.586 194.867 377.669 189.692C377.752 184.516 351.137 154.189 351.137 154.189V154.148Z" fill="#3C4371"/>
<path d="M453.414 214.305C453.414 214.305 462.88 200.995 466.711 198.986C470.543 196.978 496.04 201.512 496.04 201.512C496.04 201.512 499.955 216.044 492.726 214.906C485.497 213.767 474.313 222.213 473.256 222.544C472.221 222.876 459.711 227.161 456.252 227.119C452.793 227.057 453.414 214.285 453.414 214.285V214.305Z" fill="#EFE3CB"/>
<path d="M506.811 194.991L481.894 262.291L483.53 264.382L526.984 268.232L560.269 206.315L558.343 204.886L506.811 194.991Z" fill="#8BA8BA"/>
<path d="M508.385 196.751L483.53 264.382L529.78 271.503L560.269 206.315L508.385 196.751Z" fill="#B1CEE6"/>
<path d="M532.722 224.408C532.494 227.078 529.843 229.024 526.819 228.755C523.795 228.486 521.537 226.105 521.765 223.435C521.993 220.764 524.644 218.818 527.668 219.087C530.692 219.356 532.95 221.737 532.722 224.408Z" fill="#254766"/>
<path d="M545.998 235.69C545.998 235.69 543.844 244.715 540.074 245.026C533.364 245.564 524.085 240.12 521.433 244.736C518.761 249.352 515.158 248.38 517.105 255.853C519.051 263.326 519.072 266.949 526.777 269.143C534.482 271.337 545.335 272.02 548.028 265.851C550.721 259.682 556.209 240.099 545.998 235.69Z" fill="#EFE3CB"/>
<path d="M394.985 103.45C394.985 103.45 399.148 99.8485 399.79 87.6555C400.432 75.4625 409.131 73.3302 419.487 79.8718C429.864 86.4134 442.975 92.0855 451.26 86.2892C459.545 80.4929 462.113 62.0274 446.206 59.6674C430.299 57.2868 417.913 63.1659 408.406 59.0671C398.899 54.9683 384.773 56.1068 380.879 71.9847C376.986 87.8625 377.358 107.425 387.88 119.432C387.88 119.432 387.528 113.118 387.57 110.323C381.832 99.3103 389.413 94.0314 394.964 103.45H394.985Z" fill="#E4B888"/>
<path d="M405.61 174.89C405.879 179.383 407.205 209.855 380.776 216.955C362.818 221.799 336.472 244.902 336.099 245.937C335.747 246.972 335.685 271.813 335.685 271.813L356.501 266.617C358.986 262.519 383.924 236.663 399.81 228.983C415.718 221.303 412.673 173.524 412.673 173.524L405.61 174.87V174.89Z" fill="#FE7146"/>
</g>
<defs>
<linearGradient id="paint0_linear_1496_7203" x1="-551.151" y1="-20.6042" x2="-516.441" y2="405.258" gradientUnits="userSpaceOnUse">
<stop offset="0.13" stop-color="#FE7146"/>
<stop offset="0.470431" stop-color="#FF6B00"/>
<stop offset="1" stop-color="#AE52F7"/>
</linearGradient>
<linearGradient id="paint1_linear_1496_7203" x1="516.421" y1="218.26" x2="516.421" y2="145.619" gradientUnits="userSpaceOnUse">
<stop stop-color="#9ADEFF" stop-opacity="0.1"/>
<stop offset="0.13" stop-color="#9ADEFF" stop-opacity="0.19"/>
<stop offset="0.42" stop-color="#9ADEFF" stop-opacity="0.44"/>
<stop offset="0.82" stop-color="#9ADEFF" stop-opacity="0.82"/>
<stop offset="1" stop-color="#9ADEFF"/>
</linearGradient>
<linearGradient id="paint2_linear_1496_7203" x1="484.11" y1="150.587" x2="484.11" y2="103.906" gradientUnits="userSpaceOnUse">
<stop stop-color="#9ADEFF" stop-opacity="0.1"/>
<stop offset="0.13" stop-color="#9ADEFF" stop-opacity="0.19"/>
<stop offset="0.42" stop-color="#9ADEFF" stop-opacity="0.44"/>
<stop offset="0.82" stop-color="#9ADEFF" stop-opacity="0.82"/>
<stop offset="1" stop-color="#9ADEFF"/>
</linearGradient>
<linearGradient id="paint3_linear_1496_7203" x1="149.295" y1="404.239" x2="149.295" y2="313.278" gradientUnits="userSpaceOnUse">
<stop stop-color="#9ADEFF" stop-opacity="0.1"/>
<stop offset="0.13" stop-color="#9ADEFF" stop-opacity="0.19"/>
<stop offset="0.42" stop-color="#9ADEFF" stop-opacity="0.44"/>
<stop offset="0.82" stop-color="#9ADEFF" stop-opacity="0.82"/>
<stop offset="1" stop-color="#9ADEFF"/>
</linearGradient>
<linearGradient id="paint4_linear_1496_7203" x1="192.045" y1="319.488" x2="192.045" y2="261.049" gradientUnits="userSpaceOnUse">
<stop stop-color="#9ADEFF" stop-opacity="0.1"/>
<stop offset="0.13" stop-color="#9ADEFF" stop-opacity="0.19"/>
<stop offset="0.42" stop-color="#9ADEFF" stop-opacity="0.44"/>
<stop offset="0.82" stop-color="#9ADEFF" stop-opacity="0.82"/>
<stop offset="1" stop-color="#9ADEFF"/>
</linearGradient>
<linearGradient id="paint5_linear_1496_7203" x1="17.854" y1="429.412" x2="52.2271" y2="357.233" gradientUnits="userSpaceOnUse">
<stop stop-color="#FFE189" stop-opacity="0.1"/>
<stop offset="0.13" stop-color="#FFE189" stop-opacity="0.19"/>
<stop offset="0.42" stop-color="#FFE189" stop-opacity="0.44"/>
<stop offset="0.82" stop-color="#FFE189" stop-opacity="0.82"/>
<stop offset="1" stop-color="#FFE189"/>
</linearGradient>
<linearGradient id="paint6_linear_1496_7203" x1="17.854" y1="429.412" x2="52.227" y2="357.233" gradientUnits="userSpaceOnUse">
<stop stop-color="#FFE189" stop-opacity="0.1"/>
<stop offset="0.13" stop-color="#FFE189" stop-opacity="0.19"/>
<stop offset="0.42" stop-color="#FFE189" stop-opacity="0.44"/>
<stop offset="0.82" stop-color="#FFE189" stop-opacity="0.82"/>
<stop offset="1" stop-color="#FFE189"/>
</linearGradient>
<linearGradient id="paint7_linear_1496_7203" x1="18.0819" y1="429.515" x2="52.455" y2="357.336" gradientUnits="userSpaceOnUse">
<stop stop-color="#FFE189" stop-opacity="0.1"/>
<stop offset="0.13" stop-color="#FFE189" stop-opacity="0.19"/>
<stop offset="0.42" stop-color="#FFE189" stop-opacity="0.44"/>
<stop offset="0.82" stop-color="#FFE189" stop-opacity="0.82"/>
<stop offset="1" stop-color="#FFE189"/>
</linearGradient>
<linearGradient id="paint8_linear_1496_7203" x1="81.296" y1="322.117" x2="101.493" y2="279.671" gradientUnits="userSpaceOnUse">
<stop stop-color="#FFE189" stop-opacity="0.1"/>
<stop offset="0.13" stop-color="#FFE189" stop-opacity="0.19"/>
<stop offset="0.42" stop-color="#FFE189" stop-opacity="0.44"/>
<stop offset="0.82" stop-color="#FFE189" stop-opacity="0.82"/>
<stop offset="1" stop-color="#FFE189"/>
</linearGradient>
<linearGradient id="paint9_linear_1496_7203" x1="81.2959" y1="322.117" x2="101.493" y2="279.671" gradientUnits="userSpaceOnUse">
<stop stop-color="#FFE189" stop-opacity="0.1"/>
<stop offset="0.13" stop-color="#FFE189" stop-opacity="0.19"/>
<stop offset="0.42" stop-color="#FFE189" stop-opacity="0.44"/>
<stop offset="0.82" stop-color="#FFE189" stop-opacity="0.82"/>
<stop offset="1" stop-color="#FFE189"/>
</linearGradient>
<linearGradient id="paint10_linear_1496_7203" x1="81.4202" y1="322.179" x2="101.638" y2="279.733" gradientUnits="userSpaceOnUse">
<stop stop-color="#FFE189" stop-opacity="0.1"/>
<stop offset="0.13" stop-color="#FFE189" stop-opacity="0.19"/>
<stop offset="0.42" stop-color="#FFE189" stop-opacity="0.44"/>
<stop offset="0.82" stop-color="#FFE189" stop-opacity="0.82"/>
<stop offset="1" stop-color="#FFE189"/>
</linearGradient>
<linearGradient id="paint11_linear_1496_7203" x1="544.155" y1="286.946" x2="564.373" y2="244.5" gradientUnits="userSpaceOnUse">
<stop stop-color="#FFE189" stop-opacity="0.1"/>
<stop offset="0.13" stop-color="#FFE189" stop-opacity="0.19"/>
<stop offset="0.42" stop-color="#FFE189" stop-opacity="0.44"/>
<stop offset="0.82" stop-color="#FFE189" stop-opacity="0.82"/>
<stop offset="1" stop-color="#FFE189"/>
</linearGradient>
<linearGradient id="paint12_linear_1496_7203" x1="544.155" y1="286.946" x2="564.373" y2="244.5" gradientUnits="userSpaceOnUse">
<stop stop-color="#FFE189" stop-opacity="0.1"/>
<stop offset="0.13" stop-color="#FFE189" stop-opacity="0.19"/>
<stop offset="0.42" stop-color="#FFE189" stop-opacity="0.44"/>
<stop offset="0.82" stop-color="#FFE189" stop-opacity="0.82"/>
<stop offset="1" stop-color="#FFE189"/>
</linearGradient>
<linearGradient id="paint13_linear_1496_7203" x1="544.279" y1="287.008" x2="564.498" y2="244.562" gradientUnits="userSpaceOnUse">
<stop stop-color="#FFE189" stop-opacity="0.1"/>
<stop offset="0.13" stop-color="#FFE189" stop-opacity="0.19"/>
<stop offset="0.42" stop-color="#FFE189" stop-opacity="0.44"/>
<stop offset="0.82" stop-color="#FFE189" stop-opacity="0.82"/>
<stop offset="1" stop-color="#FFE189"/>
</linearGradient>
<linearGradient id="paint14_linear_1496_7203" x1="536.802" y1="416.474" x2="566.726" y2="353.612" gradientUnits="userSpaceOnUse">
<stop stop-color="#FFE189" stop-opacity="0.1"/>
<stop offset="0.13" stop-color="#FFE189" stop-opacity="0.19"/>
<stop offset="0.42" stop-color="#FFE189" stop-opacity="0.44"/>
<stop offset="0.82" stop-color="#FFE189" stop-opacity="0.82"/>
<stop offset="1" stop-color="#FFE189"/>
</linearGradient>
<linearGradient id="paint15_linear_1496_7203" x1="536.802" y1="416.473" x2="566.726" y2="353.612" gradientUnits="userSpaceOnUse">
<stop stop-color="#FFE189" stop-opacity="0.1"/>
<stop offset="0.13" stop-color="#FFE189" stop-opacity="0.19"/>
<stop offset="0.42" stop-color="#FFE189" stop-opacity="0.44"/>
<stop offset="0.82" stop-color="#FFE189" stop-opacity="0.82"/>
<stop offset="1" stop-color="#FFE189"/>
</linearGradient>
<linearGradient id="paint16_linear_1496_7203" x1="536.988" y1="416.577" x2="566.933" y2="353.716" gradientUnits="userSpaceOnUse">
<stop stop-color="#FFE189" stop-opacity="0.1"/>
<stop offset="0.13" stop-color="#FFE189" stop-opacity="0.19"/>
<stop offset="0.42" stop-color="#FFE189" stop-opacity="0.44"/>
<stop offset="0.82" stop-color="#FFE189" stop-opacity="0.82"/>
<stop offset="1" stop-color="#FFE189"/>
</linearGradient>
<linearGradient id="paint17_linear_1496_7203" x1="39.1049" y1="268.501" x2="65.8211" y2="212.411" gradientUnits="userSpaceOnUse">
<stop stop-color="#FFE189" stop-opacity="0.1"/>
<stop offset="0.13" stop-color="#FFE189" stop-opacity="0.19"/>
<stop offset="0.42" stop-color="#FFE189" stop-opacity="0.44"/>
<stop offset="0.82" stop-color="#FFE189" stop-opacity="0.82"/>
<stop offset="1" stop-color="#FFE189"/>
</linearGradient>
<linearGradient id="paint18_linear_1496_7203" x1="39.105" y1="268.501" x2="65.8212" y2="212.411" gradientUnits="userSpaceOnUse">
<stop stop-color="#FFE189" stop-opacity="0.1"/>
<stop offset="0.13" stop-color="#FFE189" stop-opacity="0.19"/>
<stop offset="0.42" stop-color="#FFE189" stop-opacity="0.44"/>
<stop offset="0.82" stop-color="#FFE189" stop-opacity="0.82"/>
<stop offset="1" stop-color="#FFE189"/>
</linearGradient>
<linearGradient id="paint19_linear_1496_7203" x1="39.2914" y1="268.584" x2="65.9869" y2="212.493" gradientUnits="userSpaceOnUse">
<stop stop-color="#FFE189" stop-opacity="0.1"/>
<stop offset="0.13" stop-color="#FFE189" stop-opacity="0.19"/>
<stop offset="0.42" stop-color="#FFE189" stop-opacity="0.44"/>
<stop offset="0.82" stop-color="#FFE189" stop-opacity="0.82"/>
<stop offset="1" stop-color="#FFE189"/>
</linearGradient>
<linearGradient id="paint20_linear_1496_7203" x1="604.324" y1="339.796" x2="628.164" y2="289.71" gradientUnits="userSpaceOnUse">
<stop stop-color="#FFE189" stop-opacity="0.1"/>
<stop offset="0.13" stop-color="#FFE189" stop-opacity="0.19"/>
<stop offset="0.42" stop-color="#FFE189" stop-opacity="0.44"/>
<stop offset="0.82" stop-color="#FFE189" stop-opacity="0.82"/>
<stop offset="1" stop-color="#FFE189"/>
</linearGradient>
<linearGradient id="paint21_linear_1496_7203" x1="604.324" y1="339.796" x2="628.164" y2="289.71" gradientUnits="userSpaceOnUse">
<stop stop-color="#FFE189" stop-opacity="0.1"/>
<stop offset="0.13" stop-color="#FFE189" stop-opacity="0.19"/>
<stop offset="0.42" stop-color="#FFE189" stop-opacity="0.44"/>
<stop offset="0.82" stop-color="#FFE189" stop-opacity="0.82"/>
<stop offset="1" stop-color="#FFE189"/>
</linearGradient>
<linearGradient id="paint22_linear_1496_7203" x1="604.469" y1="339.858" x2="628.329" y2="289.793" gradientUnits="userSpaceOnUse">
<stop stop-color="#FFE189" stop-opacity="0.1"/>
<stop offset="0.13" stop-color="#FFE189" stop-opacity="0.19"/>
<stop offset="0.42" stop-color="#FFE189" stop-opacity="0.44"/>
<stop offset="0.82" stop-color="#FFE189" stop-opacity="0.82"/>
<stop offset="1" stop-color="#FFE189"/>
</linearGradient>
<linearGradient id="paint23_linear_1496_7203" x1="204.617" y1="118.376" x2="224.028" y2="77.5866" gradientUnits="userSpaceOnUse">
<stop stop-color="#FFE189" stop-opacity="0.1"/>
<stop offset="0.13" stop-color="#FFE189" stop-opacity="0.19"/>
<stop offset="0.42" stop-color="#FFE189" stop-opacity="0.44"/>
<stop offset="0.82" stop-color="#FFE189" stop-opacity="0.82"/>
<stop offset="1" stop-color="#FFE189"/>
</linearGradient>
<linearGradient id="paint24_linear_1496_7203" x1="204.617" y1="118.376" x2="224.028" y2="77.5867" gradientUnits="userSpaceOnUse">
<stop stop-color="#FFE189" stop-opacity="0.1"/>
<stop offset="0.13" stop-color="#FFE189" stop-opacity="0.19"/>
<stop offset="0.42" stop-color="#FFE189" stop-opacity="0.44"/>
<stop offset="0.82" stop-color="#FFE189" stop-opacity="0.82"/>
<stop offset="1" stop-color="#FFE189"/>
</linearGradient>
<linearGradient id="paint25_linear_1496_7203" x1="204.742" y1="118.438" x2="224.153" y2="77.6487" gradientUnits="userSpaceOnUse">
<stop stop-color="#FFE189" stop-opacity="0.1"/>
<stop offset="0.13" stop-color="#FFE189" stop-opacity="0.19"/>
<stop offset="0.42" stop-color="#FFE189" stop-opacity="0.44"/>
<stop offset="0.82" stop-color="#FFE189" stop-opacity="0.82"/>
<stop offset="1" stop-color="#FFE189"/>
</linearGradient>
<clipPath id="clip0_1496_7203">
<rect width="642" height="519" fill="white" transform="translate(0 50)"/>
</clipPath>
</defs>
</svg>
