<svg xmlns="http://www.w3.org/2000/svg" width="841" height="548" viewBox="0 0 841 548" fill="none"><path d="M261.154 370.22C245.521 360.16 240.681 369.38 234.218 361.65C227.754 353.92 232.414 346.15 219.297 339.27C206.751 332.69 195.477 334.03 195.477 334.03C195.477 334.03 194.475 346.47 200.077 359.45C205.939 373.03 213.204 367.37 220.429 374.4C227.644 381.43 218.064 385.53 226.913 401.87C235.761 418.2 274.241 418.42 274.241 418.42C274.241 418.42 276.787 380.27 261.154 370.21V370.22Z" fill="#B0AFFF"></path><path d="M195.477 334.04L274.241 418.43" stroke="white" stroke-miterlimit="10"></path><path d="M232.514 408.08L259.952 403.05L266.124 375.08" stroke="white" stroke-miterlimit="10"></path><path d="M223.095 391.111L243.146 384.961L249.099 365.311" stroke="white" stroke-miterlimit="10"></path><path d="M219.187 373.33L229.869 370.65L232.865 359.79" stroke="white" stroke-miterlimit="10"></path><path d="M203.414 365.15L220.339 360.4L224.508 342.79" stroke="white" stroke-miterlimit="10"></path><path d="M197.812 353.121L209.837 349.091L213.074 336.571" stroke="white" stroke-miterlimit="10"></path><path d="M774.254 377.04C789.886 366.98 794.726 376.2 801.19 368.47C807.663 360.74 802.993 352.97 816.111 346.09C828.657 339.51 839.931 340.85 839.931 340.85C839.931 340.85 840.933 353.29 835.331 366.27C829.469 379.85 822.204 374.19 814.978 381.22C807.763 388.25 817.343 392.35 808.495 408.69C799.647 425.02 761.166 425.24 761.166 425.24C761.166 425.24 758.621 387.09 774.254 377.03V377.04Z" fill="#B0AFFF"></path><path d="M839.931 340.85L761.156 425.25" stroke="white" stroke-miterlimit="10"></path><path d="M802.893 414.89L775.446 409.86L769.273 381.89" stroke="white" stroke-miterlimit="10"></path><path d="M812.303 397.919L792.251 391.769L786.309 372.119" stroke="white" stroke-miterlimit="10"></path><path d="M816.221 380.14L805.539 377.47L802.543 366.6" stroke="white" stroke-miterlimit="10"></path><path d="M831.994 371.96L815.069 367.21L810.9 349.6" stroke="white" stroke-miterlimit="10"></path><path d="M837.596 359.93L825.561 355.91L822.334 343.38" stroke="white" stroke-miterlimit="10"></path><path d="M737.547 102.281H306.999C301.537 102.281 297.109 106.699 297.109 112.151V410.561C297.109 416.012 301.537 420.431 306.999 420.431H737.547C743.009 420.431 747.438 416.012 747.438 410.561V112.151C747.438 106.699 743.009 102.281 737.547 102.281Z" fill="#E3DDFF"></path><path d="M315.788 91.9104H728.759C739.07 91.9104 747.438 100.26 747.438 110.55V120.64H297.109V110.55C297.109 100.26 305.476 91.9104 315.788 91.9104Z" fill="#B5C0FF"></path><path d="M455.278 146.17H331.721C327.216 146.17 323.564 149.815 323.564 154.31V221.62C323.564 226.116 327.216 229.76 331.721 229.76H455.278C459.783 229.76 463.435 226.116 463.435 221.62V154.31C463.435 149.815 459.783 146.17 455.278 146.17Z" fill="white"></path><path d="M458.716 248.83H331.33C328.725 248.83 326.61 246.72 326.61 244.12C326.61 241.52 328.725 239.41 331.33 239.41H458.716C461.321 239.41 463.436 241.52 463.436 244.12C463.436 246.72 461.321 248.83 458.716 248.83Z" fill="white"></path><path d="M458.716 268.62H331.33C328.725 268.62 326.61 266.51 326.61 263.91C326.61 261.31 328.725 259.2 331.33 259.2H458.716C461.321 259.2 463.436 261.31 463.436 263.91C463.436 266.51 461.321 268.62 458.716 268.62Z" fill="white"></path><path d="M717.726 147.651H613.087C609.711 147.651 606.975 150.382 606.975 153.751V352.881C606.975 356.25 609.711 358.981 613.087 358.981H717.726C721.102 358.981 723.838 356.25 723.838 352.881V153.751C723.838 150.382 721.102 147.651 717.726 147.651Z" fill="white"></path><path d="M677.512 113.62C681.314 113.62 684.396 110.544 684.396 106.75C684.396 102.956 681.314 99.8801 677.512 99.8801C673.71 99.8801 670.627 102.956 670.627 106.75C670.627 110.544 673.71 113.62 677.512 113.62Z" fill="#96A6EA"></path><path d="M698.576 113.62C702.378 113.62 705.46 110.544 705.46 106.75C705.46 102.956 702.378 99.8801 698.576 99.8801C694.774 99.8801 691.691 102.956 691.691 106.75C691.691 110.544 694.774 113.62 698.576 113.62Z" fill="#96A6EA"></path><path d="M719.63 113.62C723.432 113.62 726.514 110.544 726.514 106.75C726.514 102.956 723.432 99.8801 719.63 99.8801C715.828 99.8801 712.745 102.956 712.745 106.75C712.745 110.544 715.828 113.62 719.63 113.62Z" fill="#96A6EA"></path><path d="M453.916 220.93H336.03L362.896 203.14L374.841 209.56C375.151 209.73 375.532 209.7 375.823 209.5L401.246 191.48L416.287 199.72C416.588 199.89 416.969 199.87 417.259 199.68L448.144 178.92C448.575 178.63 448.685 178.05 448.394 177.63C448.104 177.2 447.522 177.09 447.101 177.38L416.688 197.82L401.637 189.57C401.326 189.4 400.935 189.42 400.645 189.63L375.222 207.65L363.297 201.24C362.996 201.08 362.625 201.1 362.335 201.28L334.978 219.39V157.67C334.978 157.16 334.557 156.74 334.046 156.74C333.535 156.74 333.114 157.16 333.114 157.67V222.79H453.926C454.437 222.79 454.858 222.37 454.858 221.86C454.858 221.35 454.437 220.93 453.926 220.93H453.916Z" fill="#E3DDFF"></path><path d="M336.281 156.761C336.281 158.001 335.279 159.001 334.036 159.001C332.793 159.001 331.791 158.001 331.791 156.761C331.791 155.521 332.793 154.521 334.036 154.521C335.279 154.521 336.281 155.521 336.281 156.761Z" fill="#B5C0FF"></path><path d="M456.511 221.86C456.511 223.1 455.509 224.1 454.267 224.1C453.024 224.1 452.022 223.1 452.022 221.86C452.022 220.62 453.024 219.62 454.267 219.62C455.509 219.62 456.511 220.62 456.511 221.86Z" fill="#B5C0FF"></path><path d="M365.491 202.331C365.491 203.601 364.459 204.631 363.186 204.631C361.914 204.631 360.882 203.601 360.882 202.331C360.882 201.061 361.914 200.031 363.186 200.031C364.459 200.031 365.491 201.061 365.491 202.331Z" fill="#B5C0FF"></path><path d="M403.571 190.861C403.571 192.131 402.539 193.161 401.266 193.161C399.993 193.161 398.961 192.131 398.961 190.861C398.961 189.591 399.993 188.561 401.266 188.561C402.539 188.561 403.571 189.591 403.571 190.861Z" fill="#B5C0FF"></path><path d="M377.587 208.72C377.587 209.99 376.554 211.02 375.282 211.02C374.009 211.02 372.977 209.99 372.977 208.72C372.977 207.45 374.009 206.42 375.282 206.42C376.554 206.42 377.587 207.45 377.587 208.72Z" fill="#B5C0FF"></path><path d="M419.063 198.54C419.063 199.81 418.031 200.84 416.758 200.84C415.486 200.84 414.454 199.81 414.454 198.54C414.454 197.27 415.486 196.24 416.758 196.24C418.031 196.24 419.063 197.27 419.063 198.54Z" fill="#B5C0FF"></path><path d="M449.907 178.151C449.907 179.421 448.875 180.451 447.602 180.451C446.33 180.451 445.298 179.421 445.298 178.151C445.298 176.881 446.33 175.851 447.602 175.851C448.875 175.851 449.907 176.881 449.907 178.151Z" fill="#B5C0FF"></path><path d="M777.781 345.11C777.089 336.29 772.019 330.67 777.49 323.76C782.942 316.87 785.076 305.92 778.182 297.62L778.202 297.57C778.202 297.57 778.172 297.57 778.152 297.58C778.152 297.58 778.142 297.56 778.132 297.55V297.59C767.58 299.95 762.559 309.92 762.659 318.7C762.76 327.5 755.304 328.87 749.362 335.42C743.419 341.98 744.732 348.11 746.255 361.76C747.778 375.42 737.687 376.88 736.184 390.22C735.112 399.69 738.249 412.77 738.94 412.35C739.231 413.09 749.712 404.66 754.663 396.51C761.637 385.03 754.552 377.72 764.112 367.84C773.682 357.96 778.472 353.91 777.781 345.09V345.11Z" fill="#C5C5FF"></path><path d="M793.674 364.411C794.115 356.041 790.046 350.121 796.049 344.301C802.031 338.501 805.388 328.471 799.937 319.811L799.957 319.761C799.957 319.761 799.927 319.761 799.917 319.761L799.897 319.731L799.877 319.761C789.675 320.681 783.723 329.431 782.731 337.701C781.729 345.991 774.554 346.351 768.151 351.781C761.747 357.211 762.228 363.141 761.958 376.161C761.697 389.181 752.037 389.311 748.961 401.671C746.776 410.441 748.109 423.121 748.81 422.821C748.991 423.551 759.893 416.921 765.555 409.881C773.542 399.951 767.78 392.201 777.991 384.101C788.212 375.991 793.223 372.781 793.664 364.401L793.674 364.411Z" fill="#C5C5FF"></path><path d="M259.811 345.11C260.502 336.29 265.573 330.67 260.102 323.76C254.65 316.87 252.516 305.92 259.41 297.62L259.39 297.57C259.39 297.57 259.42 297.57 259.44 297.58C259.44 297.58 259.45 297.56 259.46 297.55V297.59C270.012 299.95 275.033 309.92 274.933 318.7C274.832 327.5 282.288 328.87 288.23 335.42C294.173 341.98 292.86 348.11 291.337 361.76C289.814 375.42 299.905 376.88 301.408 390.22C302.48 399.69 299.343 412.77 298.652 412.35C298.361 413.09 287.88 404.66 282.929 396.51C275.955 385.03 283.039 377.72 273.48 367.84C263.91 357.96 259.12 353.91 259.811 345.09V345.11Z" fill="#C5C5FF"></path><path d="M243.918 364.411C243.477 356.041 247.546 350.121 241.543 344.301C235.561 338.501 232.204 328.471 237.655 319.811L237.635 319.761C237.635 319.761 237.665 319.761 237.675 319.761L237.695 319.731L237.715 319.761C247.916 320.681 253.869 329.431 254.861 337.701C255.863 345.991 263.038 346.351 269.441 351.781C275.845 357.211 275.364 363.141 275.634 376.161C275.895 389.181 285.555 389.311 288.631 401.671C290.816 410.441 289.483 423.121 288.782 422.821C288.601 423.551 277.698 416.921 272.037 409.881C264.05 399.951 269.812 392.201 259.601 384.101C249.379 375.991 244.369 372.781 243.928 364.401L243.918 364.411Z" fill="#C5C5FF"></path><path d="M225.78 425.01H415.355C415.355 425.01 413.351 410.25 390.163 403.06C369.65 396.71 349.778 409.84 349.778 409.84C349.778 409.84 331.861 380.31 294.203 380.31C239.428 380.31 225.78 425 225.78 425V425.01Z" fill="#8E8EED"></path><path d="M248.086 401.47L275.544 425.01" stroke="white" stroke-miterlimit="10"></path><path d="M277.808 389.23L286.737 425.01" stroke="white" stroke-miterlimit="10"></path><path d="M308.603 392.83L299.003 425.01" stroke="white" stroke-miterlimit="10"></path><path d="M329.256 407.99L314.064 425.009" stroke="white" stroke-miterlimit="10"></path><path d="M361.583 413.24L371.774 425.009" stroke="white" stroke-miterlimit="10"></path><path d="M380.573 407.119V425.009" stroke="white" stroke-miterlimit="10"></path><path d="M399.161 414.64L390.373 425.01" stroke="white" stroke-miterlimit="10"></path><path d="M589.609 425.01H779.184C779.184 425.01 777.19 410.25 753.991 403.06C733.478 396.71 713.607 409.84 713.607 409.84C713.607 409.84 695.69 380.31 658.031 380.31C603.257 380.31 589.609 425 589.609 425V425.01Z" fill="#8E8EED"></path><path d="M611.915 401.47L639.372 425.01" stroke="white" stroke-miterlimit="10"></path><path d="M641.637 389.23L650.566 425.01" stroke="white" stroke-miterlimit="10"></path><path d="M672.421 392.83L662.821 425.01" stroke="white" stroke-miterlimit="10"></path><path d="M693.084 407.99L677.883 425.009" stroke="white" stroke-miterlimit="10"></path><path d="M725.402 413.24L735.593 425.009" stroke="white" stroke-miterlimit="10"></path><path d="M744.391 407.119V425.009" stroke="white" stroke-miterlimit="10"></path><path d="M762.99 414.64L754.192 425.01" stroke="white" stroke-miterlimit="10"></path><path d="M427.12 365.56C412.008 343.1 400.214 352.65 396.015 338.59C391.816 324.53 402.559 316.81 388.98 300.05C376.003 284.02 360.12 279.33 360.12 279.33C360.12 279.33 351.592 295.4 351.592 316.01C351.592 336.62 364.589 334.17 370.181 347.73C375.783 361.3 360.581 361.27 362.986 388.22C365.391 415.17 416.768 437.61 416.768 437.61C416.768 437.61 442.221 388.02 427.11 365.56H427.12Z" fill="#B0AFFF"></path><path d="M360.14 279.34L416.778 437.62" stroke="white" stroke-miterlimit="10"></path><path d="M366.914 399.74L406.547 408.8L430.968 374.92" stroke="white" stroke-miterlimit="10"></path><path d="M364.118 371.61L394.512 374.92L413.832 352.05" stroke="white" stroke-miterlimit="10"></path><path d="M369.159 345.561L385.002 348.131L395.293 335.321" stroke="white" stroke-miterlimit="10"></path><path d="M352.775 325.54L378.178 328.92L393.931 307.76" stroke="white" stroke-miterlimit="10"></path><path d="M352.234 306.22L370.662 307.76L382.226 292.85" stroke="white" stroke-miterlimit="10"></path><path d="M489.099 370.95L493.368 384.97H548.473L552.281 372.28L489.099 370.95Z" fill="#C26346"></path><path d="M443.895 405.151H600.661C604.77 405.151 608.107 408.481 608.107 412.581V423.001H436.459V412.581C436.459 408.481 439.796 405.151 443.905 405.151H443.895Z" fill="#8E8EED"></path><path d="M418.512 423H633.199C635.173 423 636.777 424.6 636.777 426.57V440.14H414.934V426.57C414.934 424.6 416.538 423 418.512 423Z" fill="#7C7CD1"></path><path d="M588.666 148.96C588.336 142.3 587.514 136 586.291 130.04C574.086 71.05 521.947 46.37 521.787 46.55C521.687 46.59 521.587 46.62 521.486 46.66C517.538 48.37 468.386 73.68 457.062 131.1C455.95 136.74 455.208 142.69 454.898 148.96C453.364 180.48 457.743 223.78 463.435 263.91C471.652 321.75 482.615 373.04 482.615 373.04H560.939C560.939 373.04 571.881 321.85 580.099 264.06C585.81 223.9 590.19 180.53 588.666 148.97V148.96ZM561.871 133.39C561.37 129.29 560.648 125.29 559.776 121.43C564.827 122.6 569.476 123.93 573.685 125.3C578.686 153.75 566.39 170.19 561.871 133.39Z" fill="#FFF0CF"></path><path d="M586.292 130.05C582.684 128.5 578.465 126.88 573.685 125.31C569.477 123.93 564.827 122.61 559.776 121.44C548.874 118.93 536.097 117.14 521.787 117.14C506.084 117.14 492.576 119.29 481.463 122.2C471.242 124.88 463.045 128.21 457.062 131.11C468.376 73.6899 517.538 48.3899 521.486 46.6699C521.577 46.6199 521.687 46.5999 521.787 46.5599C521.947 46.3699 574.086 71.0599 586.292 130.05Z" fill="#FE7146"></path><path d="M557.612 198.53C557.612 208.07 554.345 216.84 548.854 223.79C541.348 233.3 529.714 239.4 516.656 239.4C494.039 239.4 475.701 221.1 475.701 198.53C475.701 189.77 478.457 181.65 483.167 175C490.582 164.51 502.818 157.67 516.656 157.67C539.274 157.67 557.612 175.97 557.612 198.53Z" fill="#E5CFA5"></path><path d="M580.109 264.06C571.891 321.85 560.949 373.04 560.949 373.04H499.2C497.025 358.18 490.171 310.17 484.73 260.38C494.129 259.35 506.365 258.55 521.797 258.53C536.828 258.51 549.274 259.38 559.195 260.55L551.419 337.43C551.419 337.43 559.185 335.04 562.792 321.47C565.147 312.66 568.795 284.76 571.01 262.25C574.577 262.86 577.603 263.49 580.109 264.07V264.06Z" fill="#B0AFFF"></path><path d="M560.838 195.39C560.838 204.49 557.722 212.85 552.491 219.48C545.336 228.55 534.243 234.37 521.787 234.37C500.212 234.37 482.736 216.92 482.736 195.4C482.736 187.05 485.371 179.3 489.85 172.96C496.925 162.96 508.589 156.43 521.787 156.43C543.362 156.43 560.838 173.88 560.838 195.39Z" fill="#FFBF48"></path><path d="M549.555 195.391C549.555 203.381 546.168 210.581 540.737 215.651C534.323 213.021 526.908 209.101 518.56 203.371C508.189 196.241 501.254 189.531 496.605 183.711C501.004 174.241 510.624 167.691 521.787 167.691C537.129 167.691 549.555 180.091 549.555 195.401V195.391Z" fill="white"></path><path d="M457.964 365.19C453.966 377.69 459.858 405.15 459.858 405.15H448.103C448.103 405.15 443.804 395.98 439.185 383.55C431.268 362.24 422.42 331.36 432.771 320.77C449.166 304.01 467.384 290.05 467.384 290.05L468.927 298.76L471.973 316.01L477.976 349.96C477.976 349.96 461.962 352.68 457.964 365.18V365.19Z" fill="#FE7146"></path><path d="M610.572 365.24V365.27C604.64 385.82 595.571 405.15 595.571 405.15H583.816C583.816 405.15 589.709 377.69 585.71 365.19C581.712 352.69 565.689 349.97 565.689 349.97L575.299 295.64L576.291 290.05C576.291 290.05 594.509 304.02 610.903 320.77C618.529 328.56 615.743 347.36 610.572 365.25V365.24Z" fill="#FE7146"></path><path d="M484.72 260.371C474.188 261.521 467.243 262.971 463.435 263.911C457.743 223.781 453.364 180.491 454.898 148.961C455.208 142.691 455.95 136.741 457.062 131.101C463.045 128.201 471.232 124.871 481.463 122.191C479.779 129.321 478.557 136.841 477.976 144.701C476.132 169.571 479.85 215.681 484.72 260.361V260.371Z" fill="#E5CFA5"></path><path d="M521.787 46.5598C521.787 46.5598 492.236 76.4198 481.463 122.2C471.242 124.88 463.045 128.21 457.062 131.11C468.376 73.6898 517.538 48.3898 521.486 46.6698C521.577 46.6198 521.687 46.5998 521.787 46.5598Z" fill="#C26346"></path><path d="M573.685 125.311C569.476 123.931 564.827 122.611 559.776 121.441C552.391 88.9605 533.491 65.3505 532.84 64.5305C552.25 77.8305 565.598 91.4505 572.543 119.841C573.004 121.701 573.385 123.541 573.695 125.311H573.685Z" fill="#FF9A8D"></path><path d="M457.964 365.19C453.966 377.69 459.858 405.15 459.858 405.15H452.893C449.306 396.6 441.51 374.92 445.258 354.99C449.065 334.81 465.319 320.95 471.973 316.02L477.976 349.97C477.976 349.97 461.962 352.69 457.964 365.19Z" fill="#C26346"></path><path d="M585.71 365.19C589.709 377.69 583.816 405.15 583.816 405.15H590.781C594.368 396.6 602.165 374.92 598.417 354.99C594.609 334.81 578.355 320.95 571.701 316.02L565.699 349.97C565.699 349.97 581.712 352.69 585.71 365.19Z" fill="#C26346"></path><path d="M489.7 302.83C488.017 289.35 486.303 274.94 484.71 260.37C474.178 261.52 467.233 262.97 463.426 263.91C471.643 321.75 482.606 373.04 482.606 373.04H560.929L564.256 356.71C563.905 356.78 563.554 356.84 563.204 356.9C527.71 363.23 494.14 338.55 489.69 302.84L489.7 302.83Z" fill="#8E8EED"></path><path d="M540.737 215.64C535.786 220.27 529.122 223.1 521.787 223.1C506.445 223.1 494.009 210.69 494.009 195.38C494.009 191.21 494.931 187.24 496.605 183.7C501.254 189.52 508.179 196.23 518.56 203.36C526.908 209.1 534.323 213.01 540.737 215.64Z" fill="#FFF5DF"></path><path d="M552.491 219.47C545.336 228.54 534.243 234.36 521.787 234.36C500.212 234.36 482.736 216.91 482.736 195.39C482.736 187.04 485.371 179.29 489.85 172.95C491.243 175.99 493.358 179.63 496.605 183.7C494.931 187.25 494.009 191.21 494.009 195.38C494.009 210.69 506.445 223.1 521.787 223.1C529.122 223.1 535.786 220.27 540.737 215.64C545.136 217.46 549.064 218.68 552.491 219.47Z" fill="#DD9122"></path><path d="M571.01 262.24C568.785 284.75 565.137 312.66 562.793 321.46C559.185 335.03 551.419 337.42 551.419 337.42L559.195 260.54C563.644 261.06 567.583 261.65 571.02 262.24H571.01Z" fill="#C7C7FF"></path><path d="M571.01 262.24C567.572 261.64 563.634 261.06 559.185 260.54L560.838 244.15C562.702 222.06 572.803 219.67 572.954 234.36C573.014 239.51 572.212 250.09 571 262.24H571.01Z" fill="white"></path><path d="M523.721 45.3201L523.26 41.5601C524.002 41.1401 524.513 40.3601 524.513 39.4401C524.513 38.0901 523.421 37.0001 522.068 37.0001C520.715 37.0001 519.623 38.0901 519.623 39.4401C519.623 40.3301 520.104 41.0901 520.805 41.5201L520.304 45.2501L513.921 50.8601C513.921 50.8601 515.073 53.3301 521.206 53.6601C527.339 53.9901 530.195 51.2301 530.195 51.2301L523.701 45.3201H523.721Z" fill="#C65A4B"></path><path d="M290.705 320.401L286.717 416.701" stroke="#BF7A00" stroke-linecap="round" stroke-linejoin="round"></path><path d="M313.763 320.401L325.167 409.781" stroke="#BF7A00" stroke-linecap="round" stroke-linejoin="round"></path><path d="M298.732 331.36L300.736 319.47C300.736 319.47 303.993 314.95 306.849 314.02" stroke="#BF7A00" stroke-linecap="round" stroke-linejoin="round"></path><path d="M278.52 305.511C278.52 305.511 297.399 307.311 311.148 304.111" stroke="#BF7A00" stroke-linecap="round" stroke-linejoin="round"></path><path d="M561.871 133.401C561.37 129.301 560.648 125.301 559.776 121.441C564.827 122.611 569.477 123.941 573.685 125.311C578.686 153.761 566.39 170.201 561.871 133.401Z" fill="white"></path><path opacity="0.7" d="M275.193 164.981V155.471L268.018 154.031C267.768 153.251 267.457 152.491 267.116 151.761L271.686 145.911L265.463 138.711L258.619 142.561C257.496 141.931 256.304 141.411 255.061 141.001L253.478 133.071H243.948L242.345 140.991C241.162 141.381 240.02 141.871 238.938 142.461L231.332 138.181L225.109 145.381L230.209 151.911C229.999 152.371 229.808 152.851 229.638 153.331L221.601 154.951V164.461L229.247 165.981C229.498 166.811 229.798 167.621 230.139 168.401L224.798 175.241L231.021 182.441L238.948 177.981C239.669 178.381 240.431 178.721 241.202 179.021L243.006 188.071H252.536L254.229 179.671C255.282 179.371 256.304 178.991 257.276 178.531L265.142 182.961L271.365 175.761L266.605 169.671C267.156 168.631 267.617 167.541 267.988 166.401L275.173 164.981H275.193ZM248.698 170.541C242.986 170.541 238.346 165.921 238.346 160.211C238.346 154.501 242.976 149.881 248.698 149.881C254.42 149.881 259.049 154.501 259.049 160.211C259.049 165.921 254.42 170.541 248.698 170.541Z" fill="#FE7146"></path><path d="M832.736 59.1787V41.542L819.454 38.8714C818.99 37.4249 818.415 36.0154 817.784 34.6616L826.243 23.8125L814.724 10.4598L802.054 17.5998C799.976 16.4314 797.769 15.467 795.468 14.7067L792.538 0.00012207H774.896L771.928 14.6881C769.739 15.4114 767.625 16.3201 765.621 17.4143L751.541 9.47685L740.022 22.8296L749.464 34.9398C749.074 35.7928 748.722 36.683 748.406 37.5732L733.529 40.5776V58.2143L747.683 61.0332C748.147 62.5725 748.703 64.0747 749.334 65.5212L739.447 78.2063L750.966 91.559L765.64 83.2878C766.975 84.0296 768.385 84.6601 769.813 85.2165L773.153 102H790.794L793.929 86.422C795.877 85.8656 797.769 85.1609 799.568 84.3078L814.13 92.5234L825.65 79.1707L816.838 67.8765C817.859 65.9478 818.712 63.9263 819.398 61.8121L832.699 59.1787H832.736ZM783.689 69.4899C773.115 69.4899 764.527 60.9219 764.527 50.3325C764.527 39.743 773.097 31.175 783.689 31.175C794.281 31.175 802.852 39.743 802.852 50.3325C802.852 60.9219 794.281 69.4899 783.689 69.4899Z" fill="#F5F5F5"></path><path d="M182.964 413.071L183.324 414.189L184.475 414.42L211.445 419.832V454.401L184.361 459.752L183.21 459.98L182.847 461.096C181.405 465.527 179.614 469.761 177.474 473.798L176.866 474.944L177.665 475.967L195.61 498.92L172.97 525.108L143.065 508.271L142.164 507.763L141.228 508.206C137.462 509.988 133.494 511.463 129.403 512.63L128.231 512.964L127.99 514.158L121.569 546H86.8909L80.0277 511.574L79.8132 510.498L78.7909 510.101C75.7767 508.929 72.8299 507.612 70.0558 506.074L69.079 505.533L68.1057 506.081L37.9605 523.038L15.3198 496.849L35.5805 470.909L36.3143 469.97L35.837 468.877C34.5105 465.841 33.3409 462.69 32.3669 459.464L32.0198 458.314L30.8421 458.08L2 452.348V417.76L32.4039 411.633L33.5145 411.409L33.8935 410.341C34.556 408.475 35.2927 406.619 36.1024 404.85L36.6082 403.744L35.8597 402.786L16.5572 378.081L39.1977 351.892L68.0657 368.133L69.031 368.676L70.0035 368.146C74.2033 365.857 78.642 363.953 83.2424 362.436L84.3458 362.072L84.5764 360.933L90.6375 331H125.317L131.302 360.968L131.53 362.11L132.637 362.475C137.47 364.07 142.101 366.089 146.453 368.532L147.433 369.082L148.412 368.531L174.247 354.002L196.888 380.191L179.701 402.189L178.946 403.155L179.464 404.266C180.794 407.115 181.998 410.062 182.964 413.071ZM64.6916 437.067C64.6916 460.913 84.0715 480.199 107.92 480.199C131.809 480.199 151.148 460.912 151.148 437.067C151.148 413.222 131.809 393.935 107.92 393.935C84.0304 393.935 64.6916 413.222 64.6916 437.067Z" stroke="#F5F5F5" stroke-width="4"></path><path d="M254.239 239.431V234.571L250.572 233.831C250.441 233.431 250.281 233.041 250.111 232.671L252.446 229.681L249.259 226.001L245.752 227.971C245.18 227.651 244.569 227.381 243.928 227.171L243.116 223.111H238.246L237.424 227.161C236.813 227.361 236.232 227.611 235.681 227.911L231.783 225.721L228.596 229.401L231.201 232.741C231.091 232.981 231.001 233.221 230.911 233.471L226.802 234.301V239.161L230.72 239.941C230.851 240.371 231.001 240.781 231.181 241.181L228.446 244.681L231.632 248.361L235.691 246.081C236.061 246.281 236.452 246.461 236.843 246.611L237.765 251.241H242.635L243.507 246.941C244.048 246.791 244.569 246.591 245.07 246.361L249.099 248.621L252.285 244.941L249.85 241.831C250.131 241.301 250.371 240.741 250.562 240.161L254.239 239.431ZM240.691 242.271C237.765 242.271 235.4 239.901 235.4 236.991C235.4 234.081 237.775 231.711 240.691 231.711C243.607 231.711 245.982 234.071 245.982 236.991C245.982 239.911 243.617 242.271 240.691 242.271Z" fill="#E3DDFF"></path><path d="M803.725 159.69V154.83L800.057 154.09C799.927 153.69 799.767 153.3 799.596 152.93L801.931 149.94L798.745 146.26L795.237 148.23C794.666 147.91 794.055 147.64 793.413 147.43L792.602 143.37H787.732L786.91 147.42C786.309 147.62 785.717 147.87 785.166 148.17L781.268 145.98L778.081 149.66L780.687 153C780.577 153.24 780.486 153.48 780.396 153.73L776.288 154.56V159.42L780.206 160.2C780.336 160.63 780.486 161.04 780.667 161.44L777.931 164.94L781.118 168.62L785.176 166.34C785.547 166.54 785.938 166.72 786.329 166.87L787.251 171.5H792.121L792.993 167.2C793.534 167.05 794.055 166.85 794.556 166.62L798.584 168.88L801.771 165.2L799.336 162.09C799.616 161.56 799.857 161 800.037 160.42L803.715 159.69H803.725ZM790.177 162.53C787.251 162.53 784.886 160.17 784.886 157.25C784.886 154.33 787.251 151.97 790.177 151.97C793.103 151.97 795.468 154.33 795.468 157.25C795.468 160.17 793.093 162.53 790.177 162.53Z" fill="#E3DDFF"></path><path opacity="0.7" d="M828.767 218.391V210.611L822.895 209.431C822.695 208.791 822.434 208.171 822.163 207.571L825.901 202.781L820.811 196.891L815.209 200.041C814.287 199.521 813.315 199.101 812.303 198.761L811.01 192.281H803.214L801.901 198.761C800.929 199.081 799.997 199.481 799.115 199.961L792.892 196.461L787.802 202.351L791.971 207.691C791.8 208.071 791.65 208.461 791.5 208.851L784.926 210.171V217.951L791.179 219.191C791.379 219.871 791.63 220.531 791.91 221.171L787.541 226.761L792.632 232.651L799.115 229.001C799.707 229.321 800.328 229.601 800.959 229.851L802.432 237.251H810.229L811.622 230.381C812.483 230.141 813.315 229.821 814.117 229.451L820.55 233.071L825.641 227.181L821.753 222.201C822.204 221.351 822.584 220.461 822.885 219.531L828.757 218.361L828.767 218.391ZM807.102 222.941C802.432 222.941 798.634 219.161 798.634 214.491C798.634 209.821 802.422 206.041 807.102 206.041C811.782 206.041 815.57 209.821 815.57 214.491C815.57 219.161 811.782 222.941 807.102 222.941Z" fill="#FE7146"></path><path d="M444.812 112.84C448.183 92.7345 434.584 73.7086 414.436 70.3441C394.289 66.9797 375.223 80.5507 371.852 100.656C368.48 120.761 382.08 139.787 402.227 143.152C422.374 146.516 441.44 132.945 444.812 112.84Z" fill="white"></path><path d="M444.812 112.84C448.183 92.7345 434.584 73.7086 414.436 70.3441C394.289 66.9797 375.223 80.5507 371.852 100.656C368.48 120.761 382.08 139.787 402.227 143.152C422.374 146.516 441.44 132.945 444.812 112.84Z" stroke="#FF684F" stroke-linecap="round" stroke-linejoin="round"></path><path d="M642.789 206.68C657.611 206.68 669.625 194.691 669.625 179.9C669.625 165.11 657.611 153.12 642.789 153.12C627.968 153.12 615.953 165.11 615.953 179.9C615.953 194.691 627.968 206.68 642.789 206.68Z" stroke="#FF684F" stroke-linecap="round" stroke-linejoin="round"></path><path d="M642.789 200.381C640.254 200.381 638.2 198.331 638.2 195.801V190.321H647.389V195.801C647.389 198.331 645.335 200.381 642.799 200.381H642.789Z" fill="#FE7146"></path><path d="M656.709 174.47C656.709 179.39 654.143 183.7 650.275 186.17V186.87C650.275 187.62 650.125 188.33 649.844 188.97C649.023 190.92 647.099 192.27 644.854 192.27H640.695C637.699 192.27 635.284 189.85 635.284 186.87V186.17C631.416 183.7 628.85 179.39 628.85 174.47C628.85 171.89 629.552 169.47 630.795 167.4C633.21 163.31 637.669 160.58 642.779 160.58C650.466 160.58 656.709 166.8 656.709 174.48V174.47Z" fill="#FFBF48"></path><path d="M648.151 165.061C648.151 165.061 654.534 166.581 653.883 173.601C653.231 180.621 644.894 164.631 648.151 165.061Z" fill="white"></path><path d="M639.232 190.541L642.789 179.901L646.417 190.541" stroke="#FE7146" stroke-miterlimit="10"></path><path d="M393.169 129.51V84.4102C393.169 81.9302 395.183 79.9202 397.668 79.9202H420.185C422.67 79.9202 424.685 81.9302 424.685 84.4102V129.51C424.685 131.99 422.67 134 420.185 134H397.668C395.183 134 393.169 131.99 393.169 129.51Z" fill="#FFBF48"></path><path d="M419.754 83.6204H398.109C396.991 83.6204 396.085 84.5247 396.085 85.6404V128.18C396.085 129.296 396.991 130.2 398.109 130.2H419.754C420.872 130.2 421.779 129.296 421.779 128.18V85.6404C421.779 84.5247 420.872 83.6204 419.754 83.6204Z" fill="#FFF0CF"></path><path d="M405.895 82.2805H411.196C411.928 82.2805 412.529 82.8805 412.529 83.6105C412.529 84.3505 411.928 84.9505 411.196 84.9505H405.895C405.164 84.9505 404.563 84.3505 404.563 83.6205C404.563 82.8805 405.164 82.2805 405.895 82.2805Z" fill="#FFBF48"></path><path d="M418.723 108.102C419.843 103.349 416.89 98.591 412.127 97.4736C407.365 96.3563 402.596 99.3033 401.477 104.056C400.357 108.809 403.31 113.567 408.073 114.684C412.835 115.802 417.604 112.855 418.723 108.102Z" fill="white"></path><path d="M397.729 110.9L416.307 96.47L414.594 117.03L407.288 110.74L397.729 110.9Z" fill="#FFBF48"></path><path d="M407.289 110.74L416.307 96.4698L405.034 110.78L407.289 110.74Z" fill="#DD9122"></path><path d="M405.034 110.779L407.018 115.709L409.223 112.41L407.289 110.74L405.034 110.779Z" fill="#DD9122"></path><path d="M274 423.6L274.4 431.62L270.59 442.82H283.65L282.92 431.46L282.76 423.6H274Z" fill="#A3665B"></path><path d="M309.6 422.22L311.06 429.68V439.98L328.82 441.92L330.44 437.14L319.41 430.49L318.28 422.7L309.6 422.22Z" fill="#A3665B"></path><path d="M273.02 435.7C273.02 435.7 274.49 434.38 277.49 434.38C280.49 434.38 282.66 436.29 283.2 435.7C283.2 435.7 285.12 443.79 284.47 445.81C283.82 447.84 278.39 447.84 275.55 447.92C272.71 448 270.12 446.46 269.71 445.33C269.3 444.19 272.69 436.67 273.02 435.7Z" fill="#00363F"></path><path d="M311.06 433.73C311.06 433.73 314.47 435.35 317.55 435.35C320.63 435.35 320.08 432.27 321.77 431.91C323.47 431.54 333.36 437.79 334.98 440.46C336.6 443.14 333.6 444.03 328.41 443.54C323.22 443.05 316.73 441.92 316.73 441.92C316.73 441.92 310.49 440.78 309.59 440.22C308.7 439.65 311.05 433.73 311.05 433.73H311.06Z" fill="#00363F"></path><path d="M292.63 230.83L290.81 231.29L290.57 234.02L289.99 240.49L278.15 238.99L278.74 229.64L277.72 214.03C277.46 209.98 279.79 206.19 283.54 204.64C284.48 204.24 285.54 203.88 286.71 203.57C286.93 203.51 287.16 203.46 287.38 203.42C292.66 202.37 297.68 206.2 298.39 211.54L299.6 220.6C300.23 225.28 297.24 229.7 292.65 230.84L292.63 230.83Z" fill="#A3665B"></path><path d="M331.17 278.82L324.34 283.34L320.36 285.96C320.36 285.96 315.17 281.88 310.9 275.47C310.7 275.17 310.5 274.86 310.3 274.56C308.61 283.65 306.33 291.86 304.8 296.91C303.79 300.22 303.11 302.19 303.11 302.19H268.03C268.03 302.19 262.6 290.9 258.71 277.39L254.3 287.21L239.53 285.75C241.6 272.18 250.08 252.85 254.24 243.92C255.66 240.87 258.38 238.61 261.66 237.78L278.58 233.5L290.04 239.84L290.55 234.19L306.38 239.75C309.6 240.88 312.27 243.18 313.87 246.19L331.17 278.83V278.82Z" fill="#005F78"></path><path d="M304.8 296.9C303.79 300.21 303.11 302.18 303.11 302.18H268.03C268.03 302.18 262.6 290.89 258.71 277.38L264.31 262.16C264.31 262.16 265.94 278.97 278.91 288.45C288.09 295.16 299.14 296.62 304.8 296.9Z" fill="#004E60"></path><path d="M324.34 283.33L320.36 285.95C320.36 285.95 315.17 281.87 310.9 275.46L310.65 270.03L309.51 245.86C309.54 246.18 309.82 249.11 310.69 253.4C312.34 261.43 316.1 274.21 324.33 283.33H324.34Z" fill="#004E60"></path><path d="M284.08 267.62L281.1 294.05C281.05 294.52 281.39 294.95 281.86 295.01L298.96 296.94C299.43 296.99 299.85 296.66 299.91 296.19L303.29 269.8C303.35 269.32 303.01 268.88 302.53 268.83L285.03 266.86C284.56 266.81 284.13 267.15 284.07 267.62H284.08Z" fill="#FFE2B6"></path><path d="M303.08 282.03L295.97 282.3L295.73 281.79C295.73 281.79 296.51 281.6 297.68 281.25C298.84 280.9 299.76 280.25 299.44 279.87C299.12 279.49 295.28 280.01 294.03 280.98C292.88 281.88 291.35 284.22 291.14 284.56C287.8 284.15 261.36 280.96 253.09 282.17C244.26 283.47 239.54 285.74 239.54 285.74C239.32 287.06 242.62 294.82 256.41 294.98C268.84 295.13 288.95 291.18 292.8 290.4C293.07 290.39 299.82 290.05 300.74 289.28C301.69 288.5 301.39 287.69 301.39 287.69C302.42 286.93 301.77 285.99 301.77 285.99C303.07 285.26 302.31 283.96 302.31 283.96C302.31 283.96 303.15 283.72 303.28 283.01C303.42 282.31 303.09 282.04 303.09 282.04L303.08 282.03Z" fill="#A3665B"></path><path d="M360.73 256.28C360.11 256.25 358.37 258.17 357.6 259.05L357.41 258.74C358.64 257.52 361.62 253.49 360.72 253.45C359.82 253.41 356.96 256.86 356.55 257.36L356.23 256.84C357.58 255.45 360.55 251.39 359.63 251.35C358.73 251.31 355.97 254.58 355.31 255.37L355.15 255.11C356.44 253.63 358.45 250.84 357.71 250.84C356.85 250.84 354.63 253.43 354.33 253.79V253.77C354.33 253.77 352.64 255.23 351.46 256.65C351.2 254.77 350.77 252.78 350.38 252.75C349.77 252.71 349.69 252.87 349.73 254.86C349.76 256.37 349.91 258.78 349.99 259.86C349.2 260.3 334.1 268.67 328.7 274.14C323.15 279.76 320.35 285.93 320.35 285.93C333.37 294.48 351.69 266.59 353.41 263.9C355 263 356.67 261.63 357.59 260.83C357.63 260.81 357.68 260.79 357.74 260.75C357.87 260.65 358.07 260.45 358.31 260.2C359.44 258.96 361.39 256.3 360.72 256.27L360.73 256.28Z" fill="#A3665B"></path><path d="M321 424.24H306.84L289.1 331.36L285.32 425.54H269.86C269.86 425.54 265.57 350.82 264.77 332.01C263.97 313.19 267.77 302.17 267.77 302.17L291.87 301.58L303.17 301.3C303.17 301.3 303.17 301.33 303.19 301.37C303.21 301.42 303.23 301.49 303.26 301.59C303.65 302.99 305.47 309.63 309.78 327.24C315.39 350.16 321.02 424.23 321.02 424.23L321 424.24Z" fill="#FFBF48"></path><path d="M296.75 207.33C296.75 207.33 295.98 206.04 293.65 206.74C291.33 207.44 291.38 208.2 289.7 207.82C288.02 207.44 288.46 210.2 287 211.12C285.54 212.04 284.68 212.04 284.68 212.04C284.68 212.04 286.41 215.99 285.11 217.82C283.81 219.66 283.7 216.14 281.87 215.66C280.03 215.17 279.71 218.36 280.46 221.07C281.22 223.77 284.14 223.18 284.3 223.67C284.46 224.16 281.71 227.13 280.41 227.78C279.11 228.43 278.65 228.43 278.65 228.43C278.65 228.43 276.95 224.11 276.62 220.48C276.29 216.85 275 217.83 273.97 216.8C272.94 215.77 274.13 214.96 272.78 214.2C271.43 213.44 271.59 210.9 272.78 210.58C273.97 210.26 272.73 208.15 274.24 206.96C275.75 205.77 276.89 205.39 277 204.47C277.11 203.55 277.43 201.87 279.65 201.82C281.87 201.77 279.97 200.68 283.33 199.66C286.68 198.63 285.92 201.39 288.9 200.04C291.87 198.69 294.2 200.36 294.85 201.55C295.5 202.74 296.47 201.6 298.04 202.96C299.61 204.31 298.15 205.66 299.01 206.15C299.87 206.64 300.9 206.85 300.9 208.69C300.9 210.53 299.6 210.58 299.98 211.72C300.36 212.86 298.76 214.39 298.74 214.29C298.73 214.19 297.74 208.01 296.75 207.33Z" fill="#00363F"></path><path d="M259.16 276.44C259.16 276.44 265.92 259.03 266.48 252.44C267.05 245.84 260.99 241.41 259.8 240.98" stroke="#014251" stroke-linecap="round" stroke-linejoin="round"></path><path d="M308.57 243.35C312.57 251.14 310.3 274.55 310.3 274.55" stroke="#014251" stroke-linecap="round" stroke-linejoin="round"></path><path d="M313.89 424.24H306.84L289.1 331.36C289.1 331.36 290.18 322.6 290.62 320.55C291.05 318.49 295.05 315.68 295.05 315.68C295.05 315.68 303.48 405.4 313.88 424.24H313.89Z" fill="#EA961B"></path><path d="M303.15 301.31L303.25 301.61C299.43 302.85 280.7 303.92 273.99 326.26C266.3 351.82 280.52 425.55 280.52 425.55H269.86C269.86 425.55 265.57 350.83 264.77 332.02C263.97 313.2 267.77 302.18 267.77 302.18L291.87 301.59L303.16 301.31H303.15Z" fill="#EA961B"></path><path d="M290.8 231.29L290.56 234.02C287.13 233.04 283.44 230.76 284.56 225.45C284.56 225.45 284.87 229.23 290.8 231.3V231.29Z" fill="#7F4F49"></path><path d="M419.12 285.2C419.12 285.2 422.36 293.47 429.72 296.69C437.07 299.91 440.1 293.1 441.4 282.77C442.7 272.44 442.91 258.6 442.91 258.6H436.42L431.01 284.33L419.12 285.2Z" fill="#FE7146"></path><path d="M418.37 246.15C426.96 251.44 430.8 271.68 435.34 282.76C435.34 282.76 429.64 286.9 422.15 287.35C414.66 287.8 411.55 284.54 411.55 284.54C411.55 284.54 412.02 242.24 418.37 246.15Z" fill="#DD9122"></path><path d="M383.62 294.41L385.02 294.48L411.92 295.84C411.92 295.84 412.4 296.64 413.19 298.07C415.64 302.59 421 313.4 423.15 324.98C425.99 340.23 421.3 380.78 421.3 380.78H378.48C378.48 380.78 373.6 361.85 371 339.47C369.04 322.6 377.22 305.55 381.35 298.19" fill="#005F78"></path><path d="M405.43 236.99L406.38 222.48C406.63 218.71 404.46 215.2 400.98 213.75C400.1 213.38 399.12 213.04 398.04 212.76C397.83 212.71 397.62 212.66 397.42 212.62C392.52 211.65 387.85 215.21 387.19 220.16L386.06 228.58C385.48 232.94 388.26 237.03 392.52 238.1L394.22 238.52L394.99 247.06L405.99 245.67L405.45 236.98L405.43 236.99Z" fill="#FE7146"></path><path d="M382.68 244.11C382.68 244.11 396 240.3 414.79 244.11C430.79 247.35 411.11 297.96 411.11 297.96L383.63 295.52L382.68 244.11Z" fill="#FFBF48"></path><path d="M387.91 344.08C385.11 352.78 388.73 371.85 395.16 380.78H378.47C378.47 380.78 373.59 361.85 370.99 339.47C369.03 322.6 377.21 305.55 381.34 298.19C382.62 296.2 382.7 295.29 383.61 294.41L411.9 295.84C411.9 295.84 412.38 296.64 413.17 298.07C407.07 300.87 394.73 307.77 389.23 318.47C382.27 332.04 411.51 328.65 413.37 330.24C415.23 331.84 391.17 333.96 387.9 344.08H387.91Z" fill="#004E60"></path><path d="M359.55 277.42C359.55 277.42 355.5 281.16 358.9 289.75C362.31 298.34 377.55 308.72 377.55 308.72L380.79 302.72C380.79 302.72 364.45 279 359.54 277.42H359.55Z" fill="#FE7146"></path><path d="M381.69 303.29C381.69 303.29 382.26 304.91 381.69 306.7C381.12 308.48 378.77 311.73 378.77 311.73L375.41 315.03C375.41 315.03 374.48 314.69 374.36 313.96C374.24 313.23 374.81 312.34 374.81 312.34C374.81 312.34 374.17 311.57 374.35 310.96C374.53 310.35 374.77 309.82 374.77 309.82C374.77 309.82 374.57 309.41 374.73 308.56C374.89 307.71 375.38 306.74 375.38 306.74L379.86 301.37L381.7 303.3L381.69 303.29Z" fill="#FE7146"></path><path d="M397.35 444.05H387.76L378.88 383.59L378.47 380.79H394.25C394.71 382.41 395.1 384.7 395.43 387.46C397.62 405.63 397.35 444.06 397.35 444.06V444.05Z" fill="#FE7146"></path><path d="M426.54 442.3L416.63 440.25L406.88 390.12L405.06 380.78H421.28C421.65 382.87 422.16 387.72 422.73 393.82C424.42 412.29 426.53 442.29 426.53 442.29L426.54 442.3Z" fill="#FE7146"></path><path d="M388.41 440.68L377.38 449.22L397.82 448.68L397.36 439.6L388.41 440.68Z" fill="#FE7146"></path><path d="M416.58 439.98C416.58 439.98 416.63 447.82 417.28 449.22L431.17 446.84L425.28 437.43L416.58 439.97V439.98Z" fill="#FE7146"></path><path d="M384.38 443.33C384.38 443.33 374.45 448.57 370.83 450.68C368.51 452.03 371.56 453.92 378.46 453.36C385.35 452.79 390.06 452.14 392.16 452.14C394.26 452.14 394.76 453.48 394.76 453.48L398.33 452.79C398.33 452.79 398.69 444.87 397.49 442.3C397.49 442.3 394.35 442.85 390.3 444.41C386.25 445.98 384.38 443.33 384.38 443.33Z" fill="#005F78"></path><path d="M416.82 442.3C416.82 442.3 416.17 447.12 416.82 449.55C417.47 451.98 419.01 454.01 419.01 454.01H423.43C423.43 454.01 423.88 451.17 425.58 450.93C427.28 450.69 427.36 452.39 430.36 452.63C433.36 452.87 437.74 453.12 438.79 452.71C439.84 452.3 441.3 451.33 436.03 448.49C430.76 445.65 430.03 445 430.03 445C430.03 445 428.81 446.38 425.49 445C422.17 443.62 421.43 441.69 416.81 442.29L416.82 442.3Z" fill="#005F78"></path><path d="M359.55 277.42L363.12 271.58L371.39 276.61L364.42 288.13C364.42 288.13 359.55 281.97 359.55 277.43V277.42Z" fill="#FE7146"></path><path d="M442.53 259.3L447.45 253.03L442.91 252.49C442.91 252.49 436.37 256.27 436.42 258.6C436.47 260.92 442.53 259.3 442.53 259.3Z" fill="#FE7146"></path><path d="M446.04 253.3C446.04 253.3 446.42 249.95 448.04 249.03C449.66 248.11 447.82 250.6 447.45 253.03C447.45 253.03 446.27 253.76 446.04 253.3Z" fill="#FE7146"></path><path d="M444.31 253.3C444.31 253.3 444.69 249.95 446.31 249.03C447.93 248.11 446.09 250.6 445.72 253.03C445.72 253.03 444.54 253.76 444.31 253.3Z" fill="#FE7146"></path><path d="M442.64 253.16C442.64 253.16 443.02 249.81 444.64 248.89C446.26 247.97 444.42 250.46 444.05 252.89C444.05 252.89 442.87 253.62 442.64 253.16Z" fill="#FE7146"></path><path d="M441.26 254.03C441.26 254.03 440.84 250.97 442.07 249.79C443.3 248.61 442.23 251.23 442.45 253.47C442.45 253.47 441.57 254.39 441.27 254.03H441.26Z" fill="#FE7146"></path><path d="M394.56 222.95C394.56 222.95 390.44 234.4 390.24 243.24L397.67 244.14L398.27 241.13L398.97 244.14C398.97 244.14 411.83 244.34 417.75 242.13C417.75 242.13 416.54 221.74 412.23 215.31C407.91 208.88 400.68 207.58 395.25 209.58C389.83 211.59 386.71 216.71 386.71 216.71L390.63 220.02L392.44 218.11L391.64 220.92L394.55 222.93L394.56 222.95Z" fill="#00363F"></path><path d="M411.34 332.31C411.34 332.31 402.62 333.11 392.29 337.25" stroke="#014251" stroke-linecap="round" stroke-linejoin="round"></path><path d="M395.43 387.45L378.88 383.59L378.47 380.79H394.25C394.71 382.41 395.1 384.7 395.43 387.46V387.45Z" fill="#C26346"></path><path d="M422.74 393.83L406.88 390.12L405.06 380.78H421.28C421.65 382.87 422.16 387.72 422.73 393.82L422.74 393.83Z" fill="#C26346"></path><path d="M384.88 259.89C384.88 259.89 384.04 282.75 393.62 287.91C403.2 293.08 413.77 290.82 413.77 290.82L411.9 296.18L383.61 294.75L383.23 274.4L384.88 259.89Z" fill="#DD9122"></path><path d="M382.68 244.11L357.54 273.84C357.54 273.84 363.05 281.63 373.43 282.49C373.43 282.49 379.54 285.63 384.08 270.6C388.62 255.57 382.67 244.11 382.67 244.11H382.68Z" fill="#FFBF48"></path><path d="M383.22 273.2C383.22 273.2 390.73 258.93 383.22 245.9" stroke="#BF7A00" stroke-linecap="round" stroke-linejoin="round"></path><path d="M716.07 411.37L717.76 430.3L708 440.25L714.14 443.6L727.28 440.13V411.97L716.07 411.37Z" fill="#FE7146"></path><path d="M755.17 407.22L759.67 430.86L763.43 442.81L774.69 441.18L768.31 428.05L766.05 407.22H755.17Z" fill="#FE7146"></path><path d="M714.27 247.22C714.27 247.22 708.14 263.96 706.1 272.95L684.73 273.9L685.27 283.16C685.27 283.16 709.23 285.34 714.26 283.16C719.3 280.98 719.02 273.63 719.02 273.63L714.26 247.22H714.27Z" fill="#C16252"></path><path d="M740.5 237.67L741.47 222.82C741.72 218.97 739.51 215.37 735.94 213.88C735.04 213.51 734.04 213.16 732.93 212.87C732.72 212.81 732.5 212.77 732.29 212.72C727.27 211.72 722.5 215.37 721.82 220.44L720.66 229.05C720.06 233.51 722.91 237.7 727.27 238.79L729 239.22L729.78 247.96L734.61 251.01L741.04 246.54L740.48 237.65L740.5 237.67Z" fill="#FE7146"></path><path d="M732.37 291.37C732.37 297.06 730.55 302.32 727.46 306.61C722.72 313.2 714.97 317.5 706.23 317.5V331.93C706.23 333.21 705.2 334.24 703.91 334.24H620.48C619.2 334.24 618.16 333.21 618.16 331.93V317.22C619.41 317.41 620.67 317.5 621.97 317.5C636.41 317.5 648.1 305.8 648.1 291.37C648.1 276.94 636.41 265.24 621.97 265.24C620.68 265.24 619.41 265.34 618.16 265.52V248.5C618.16 247.22 619.19 246.18 620.48 246.18H638.67C638.52 245.07 638.44 243.94 638.44 242.78C638.44 228.35 650.14 216.65 664.57 216.65C679 216.65 690.7 228.35 690.7 242.78C690.7 243.93 690.62 245.07 690.48 246.18H703.91C705.19 246.18 706.23 247.22 706.23 248.5V265.24C710.74 265.24 714.97 266.38 718.67 268.39C720.16 269.19 721.57 270.14 722.87 271.22C728.67 276.01 732.37 283.27 732.37 291.38V291.37Z" fill="#B0AFFF"></path><path d="M727.46 306.62C722.72 313.21 714.97 317.51 706.23 317.51V331.94C706.23 333.22 705.2 334.25 703.91 334.25H620.48C619.2 334.25 618.16 333.22 618.16 331.94V321.81C631.9 320.06 671.72 313.55 697.11 294.73C709.66 285.42 715.81 276.14 718.66 268.39C720.15 269.19 721.56 270.14 722.86 271.22L727.45 306.62H727.46Z" fill="#9595E5"></path><path d="M756.46 268.31C755.68 275.4 754.17 283.07 752.91 288.8C751.74 294.08 750.78 297.71 750.78 297.71H719.32C719.32 297.71 715.78 282.6 714.28 268.99C712.78 255.37 714.28 247.21 714.28 247.21L716.86 246.46L728.29 243.13L734.63 249.35L740.97 243.13L755 247.22C755 247.22 757.97 254.71 756.48 268.31H756.46Z" fill="#005F78"></path><path d="M726.08 277.49C725.05 276.65 724.14 275.77 723.31 274.85C734.67 277.8 748.47 272.54 747.11 272.09C745.91 271.69 726.82 271.65 720.83 271.65C713.59 260.5 716.86 246.47 716.86 246.47L714.28 247.22C714.28 247.22 712.78 255.39 714.28 269C715.78 282.61 719.32 297.72 719.32 297.72H750.78C750.78 297.72 751.74 294.09 752.91 288.81C747.96 288.23 736.53 286 726.08 277.49Z" fill="#004E60"></path><path d="M719.31 297.71C719.31 297.71 712.3 305.47 709.12 333.05C705.94 360.63 712.3 427.63 712.3 427.63L730.65 426.58L734.96 329.06L752.73 426L771.11 422.12C771.11 422.12 763.17 315.25 750.78 297.71H719.32H719.31Z" fill="#00363F"></path><path d="M754.98 247.22L740.26 281.66L709.57 279.05C709.07 278.37 707.14 275.78 706.55 275.49C705.97 275.21 706.47 277.23 707.39 278.46L704.14 277.5C704.14 277.5 702.67 276.97 701.01 276.61C699.35 276.25 698.46 276.33 698.48 276.84C698.5 277.33 700.28 277.39 703.02 278.79L702.99 279.08C701.72 278.67 697.68 277.45 697.38 278.13C697.09 278.8 701.14 280.05 702.83 280.51L702.78 280.98C701.56 280.59 697.44 279.33 697.13 280.02C696.83 280.69 700.95 281.96 702.62 282.41L702.56 282.95C700.92 282.45 697.86 281.61 697.59 282.2C697.33 282.79 700.5 283.85 702.39 284.4C702.39 284.4 705.09 286.17 708.14 286.32L738.57 294.54C742.77 295.38 747 293.31 748.91 289.48C753.19 280.89 760.07 265.96 760.07 258.79C760.07 248.38 754.98 247.22 754.98 247.22Z" fill="#FE7146"></path><path d="M724.41 210.67C724.41 210.67 721.8 212.17 720.59 216.18C719.38 220.2 720.87 221.08 720.87 221.08H724.41C724.41 221.08 724.68 218.7 725.84 217.88L725.43 221.35L731.96 222.1L732.57 219.38L733.32 222.65L736.45 223.26C736.45 223.26 736.72 225.57 737.4 226.53C737.4 226.53 738.08 225.24 739.44 225.44C740.8 225.64 741.35 228.3 740.12 230.82C738.89 233.34 736.51 232.86 736.51 232.86C736.51 232.86 739.14 236.95 740.54 236.81C746.28 236.23 748.32 228.78 748.73 223.06C749.14 217.34 746.08 215.51 746.08 215.51C746.08 215.51 745.77 211.22 739.65 208.91C733.89 206.73 726.05 209.22 724.41 210.68V210.67Z" fill="#00363F"></path><path d="M743.74 213.87C743.74 213.87 743.74 208.78 747.69 208.4C751.64 208.02 756.27 215.41 754.56 219.59C752.38 224.96 747.41 221.63 747.41 221.63L743.73 213.87H743.74Z" fill="#00363F"></path><path d="M708 439.53C708 439.53 699.41 445.55 700.05 446.72C700.68 447.89 706.47 449.6 710.44 448.7C714.41 447.8 723.09 443.61 723.09 443.61L724.45 445.47L728.25 443.61L727.29 433.87C727.29 433.87 720.21 437.46 715.6 438.27C710.99 439.08 710.24 437.97 710.24 437.97L708.01 439.53H708Z" fill="#00363F"></path><path d="M759.67 430.86C759.67 430.86 758.83 435.27 759.2 438.84C759.58 442.41 760.33 444.75 760.33 444.75L762.39 445.59L762.95 444.37C762.95 444.37 764.17 446.12 767.45 448.39C770.73 450.66 775.89 450 777.49 449.53C779.09 449.06 780.59 447.75 778.24 444.74C775.89 441.74 772.09 435.85 772.09 435.85C772.09 435.85 773.92 439.3 768.48 437.89C763.04 436.48 760.5 432.35 759.66 430.85L759.67 430.86Z" fill="#00363F"></path><path d="M734.62 249.35C734.62 249.35 736.25 251.85 739.44 251.71C742.64 251.57 743.81 243.97 743.81 243.97L740.73 241.58L734.61 249.36L734.62 249.35Z" fill="#00363F"></path><path d="M729.22 241.57L734.62 249.35C734.62 249.35 732.57 252.74 730.32 251.72C728.07 250.69 726.06 243.78 726.06 243.78L729.21 241.57H729.22Z" fill="#00363F"></path><path d="M711.85 422.64L730.88 421.37" stroke="#025256" stroke-miterlimit="10"></path><path d="M751.71 420.39L770.77 418.04" stroke="#025256" stroke-miterlimit="10"></path><path d="M728.59 319.63C728.59 319.63 734.07 322.36 735.24 329.7" stroke="#025256" stroke-miterlimit="10"></path><path d="M717.99 299.65H751.93" stroke="#025256" stroke-miterlimit="10"></path><path d="M755.83 310.25C755.83 310.25 746.97 309.06 744.79 299.64" stroke="#025256" stroke-miterlimit="10"></path><path d="M713.16 311.68C713.16 311.68 721.93 308.25 722.33 299.65" stroke="#025256" stroke-miterlimit="10"></path><path d="M717.15 322.36C717.15 322.36 710.97 356.99 717.64 413.61" stroke="#025256" stroke-miterlimit="10"></path><path d="M746.55 322.36L761.24 409.63" stroke="#025256" stroke-miterlimit="10"></path><path d="M606.47 438.13L617.54 440.39L616.74 448.3L606.57 447.15L606.47 438.13Z" fill="#FFCCA4"></path><path d="M614.96 439.86C614.96 439.86 618.53 437.52 620.33 437.33C622.13 437.13 627.01 444.32 627.01 444.32C627.01 444.32 634.64 448.55 634.19 451.7C633.59 455.89 616.73 448.31 616.73 448.31L614.95 439.87L614.96 439.86Z" fill="#00363F"></path><path d="M595.12 324.11L595.27 309.57C595.31 305.8 592.95 302.41 589.4 301.15C588.5 300.83 587.51 300.55 586.41 300.32C586.2 300.28 585.99 300.24 585.78 300.21C580.83 299.51 576.37 303.32 575.98 308.3L575.32 316.76C574.98 321.14 577.98 325.08 582.29 325.91L584.01 326.24L585.24 334.73L590.12 337.45L596.15 332.74L595.13 324.1L595.12 324.11Z" fill="#FFCCA4"></path><path d="M562.76 319.68C562.76 319.68 561.21 312.04 560.66 312.04C560.11 312.04 560.36 314.78 560.36 314.78C560.36 314.78 559.36 310.14 558.71 310.29C558.06 310.44 558.61 314.63 558.61 314.63C558.61 314.63 557.61 308.84 556.71 308.99C555.81 309.14 556.91 314.93 556.91 314.93C556.91 314.93 555.51 309.49 554.96 310.04C554.41 310.59 555.83 319.47 555.83 319.47C555.83 319.47 553.31 316.53 552.71 316.83C552.11 317.13 553.96 321.32 555.4 322.27C556.43 322.95 558.29 323.77 559.28 324.19C559.79 324.77 571.51 338.12 574.73 339.16C578.01 340.22 582.27 334.11 582.27 334.11L562.74 319.69L562.76 319.68Z" fill="#FFCCA4"></path><path d="M615.96 378.23C615.63 381.54 615.32 383.61 615.32 383.61L587 387.43L585.71 387.61L585.67 387.53L577.73 367.45C577.73 367.52 577.71 367.6 577.69 367.67C576.45 375.7 575.28 382.42 575.28 382.42L563.46 380.03C563.46 380.03 566.45 346.11 569.27 340.33C572.08 334.55 576.82 332.95 576.82 332.95C576.82 332.95 587.82 330.68 596.19 329.5C600.93 328.82 605.67 330.78 608.5 334.64C611.12 338.19 613.96 343.38 615.32 350.31C617.25 360.06 616.6 371.62 615.96 378.25V378.23Z" fill="#FFBF48"></path><path d="M577 304.8C577 304.8 580.91 307.45 583.85 308.65C583.85 308.65 582.8 312.99 584.3 314.68C584.3 314.68 584.8 312.59 586.44 312.83C588.09 313.08 588.48 317.52 587.64 319.41C586.79 321.31 585.3 321.55 585.3 321.55L587.54 324.14L595.12 323.54C595.12 323.54 599.46 312.32 599.56 309.33C599.66 306.34 597.91 305.39 597.91 305.39C597.91 305.39 598.76 302.28 594.47 300.12C590.18 297.96 580.85 297.51 579.21 297.71C577.56 297.91 577.96 300.12 577.96 300.12C577.96 300.12 575.82 299.95 574.92 301.3C574.02 302.65 577 304.78 577 304.78V304.8Z" fill="#00363F"></path><path d="M535.48 376.53L540.57 396.98H543.96L540.12 376.43C540.12 376.43 541.67 374.78 541.82 372.34C541.97 369.9 539.03 369 539.03 369L539.47 371.99L537.68 374.09L535.49 372.79L534.48 370.05C534.48 370.05 532.5 371 532.75 373.64C533 376.28 535.49 376.53 535.49 376.53H535.48Z" fill="#005F78"></path><path d="M595.95 387.6C595.95 387.6 575.35 411.61 572.16 425.71C568.97 439.81 579.96 442.37 584.66 443.47C590.78 444.9 610.25 447.46 610.25 447.46L611.95 435.49L592.27 428.14C592.27 428.14 609.89 413.08 613.39 407.62C620.66 396.28 614.48 383.61 614.48 383.61L595.95 387.6Z" fill="#01292D"></path><path d="M563.45 380.02L544.9 382.41V382.5L538.6 380.02C538.6 380.02 535.08 381.58 534.61 382.41C534.14 383.24 534.94 384.17 534.94 384.17C534.94 384.17 534.67 385.3 535.54 386.1C535.54 386.1 535.54 386.89 536.4 387.59C536.4 387.59 537 388.89 538.46 389.35C539.92 389.81 540.79 389.35 540.79 389.35C540.79 389.35 543.83 390.23 545.95 389.73V389.78C545.95 389.78 569.3 392.31 571.86 389.78C574.42 387.25 575.28 382.4 575.28 382.4L563.45 380.01V380.02Z" fill="#FFCCA4"></path><path d="M557.56 443.7L559.82 451.28H567.4L566.2 444.89L557.56 443.7Z" fill="#FFCCA4"></path><path d="M559.69 450.86C559.69 450.86 553.83 454.84 551.14 455.74C548.45 456.64 548.35 458.53 550.24 459.03C552.14 459.53 568.49 458.93 569.69 458.33C570.89 457.73 568.49 450.35 567.4 450.05C566.3 449.75 559.69 450.86 559.69 450.86Z" fill="#00363F"></path><path d="M585.71 387.6C585.71 387.6 560.22 395.95 550.91 403.66C541.6 411.37 555.85 444.89 555.85 444.89H569.9L566.73 422.47C566.73 422.47 597.14 410.58 605.66 406.72C617.68 401.27 615.33 383.61 615.33 383.61L585.72 387.6H585.71Z" fill="#00363F"></path><path d="M615.96 378.23C615.63 381.54 615.32 383.61 615.32 383.61L587 387.43L585.67 387.52L577.73 367.44C577.73 367.51 577.71 367.59 577.69 367.66L577.63 367.49L580.41 351.99C580.41 351.99 585.74 371.99 594.92 377.95C602.86 383.11 613.3 379.34 615.95 378.23H615.96Z" fill="#DD9122"></path><path d="M577.74 366.9C577.74 366.9 584.59 349.79 577.08 336.75" stroke="#BF7A00" stroke-linecap="round" stroke-linejoin="round"></path><path d="M554.18 443.07L555.16 447.09H571.25L570.86 442.84L554.18 443.07Z" fill="#025256"></path><path d="M609.43 434.44L607.13 448.3L611.42 449L613.32 435.74L609.43 434.44Z" fill="#00363F"></path><path d="M560.48 442.97C560.48 442.97 552.06 416.3 554.87 409.52C557.68 402.74 589.21 395.16 594.53 392.1C599.85 389.04 598.73 385.85 598.73 385.85" stroke="#025256" stroke-miterlimit="10"></path><path d="M583.29 331.67C583.29 331.67 585.7 328.81 591.04 327.36C596.38 325.91 597.92 326.86 597.92 326.86L598.87 329.38L583.29 331.67Z" fill="#BF7A00"></path></svg>