<svg xmlns="http://www.w3.org/2000/svg" xmlns:xlink="http://www.w3.org/1999/xlink" width="500" viewBox="0 0 375 374.999991" height="500" preserveAspectRatio="xMidYMid meet"><defs><clipPath id="f397912050"><path d="M 37.5 37.5 L 337.5 37.5 L 337.5 337.5 L 37.5 337.5 Z M 37.5 37.5 " clip-rule="nonzero"></path></clipPath></defs><g clip-path="url(#f397912050)"><path fill="#5acbf2" d="M 187.5 337.5 C 167.25 337.5 147.609375 333.53125 129.113281 325.710938 C 111.246094 318.15625 95.210938 307.339844 81.433594 293.566406 C 67.660156 279.792969 56.84375 263.746094 49.289062 245.886719 C 41.46875 227.390625 37.5 207.75 37.5 187.5 C 37.5 167.25 41.46875 147.609375 49.289062 129.109375 C 56.84375 111.246094 67.660156 95.207031 81.433594 81.433594 C 95.210938 67.65625 111.253906 56.839844 129.113281 49.289062 C 147.609375 41.464844 167.25 37.5 187.5 37.5 C 207.75 37.5 227.390625 41.464844 245.886719 49.289062 C 263.753906 56.839844 279.789062 67.65625 293.566406 81.433594 C 307.339844 95.207031 318.15625 111.25 325.710938 129.109375 C 333.53125 147.609375 337.5 167.25 337.5 187.5 C 337.5 207.75 333.53125 227.390625 325.710938 245.886719 C 318.15625 263.753906 307.339844 279.789062 293.566406 293.566406 C 279.792969 307.339844 263.746094 318.15625 245.890625 325.710938 C 227.390625 333.53125 207.75 337.5 187.5 337.5 Z M 187.5 45.832031 C 109.382812 45.832031 45.832031 109.382812 45.832031 187.5 C 45.832031 265.617188 109.382812 329.167969 187.5 329.167969 C 265.617188 329.167969 329.167969 265.617188 329.167969 187.5 C 329.167969 109.382812 265.617188 45.832031 187.5 45.832031 Z M 187.5 45.832031 " fill-opacity="1" fill-rule="nonzero"></path></g><path fill="#5acbf2" d="M 249.421875 241.410156 L 99.140625 241.410156 C 91.617188 241.402344 85.515625 235.3125 85.5 227.789062 L 85.5 111.753906 C 85.511719 104.226562 91.609375 98.121094 99.140625 98.113281 L 249.421875 98.113281 C 256.949219 98.125 263.054688 104.226562 263.0625 111.753906 L 263.0625 154.347656 C 263.0625 156.238281 261.527344 157.777344 259.632812 157.777344 C 257.742188 157.777344 256.207031 156.242188 256.207031 154.347656 L 256.207031 111.757812 C 256.199219 108.011719 253.164062 104.976562 249.421875 104.96875 L 99.140625 104.96875 C 95.394531 104.976562 92.359375 108.011719 92.355469 111.757812 L 92.355469 227.789062 C 92.359375 231.535156 95.394531 234.570312 99.140625 234.574219 L 249.421875 234.574219 C 253.164062 234.566406 256.199219 231.53125 256.207031 227.789062 L 256.207031 214.160156 C 256.207031 212.265625 257.742188 210.730469 259.632812 210.730469 C 261.527344 210.730469 263.0625 212.265625 263.0625 214.160156 L 263.0625 227.789062 C 263.042969 235.304688 256.945312 241.398438 249.421875 241.410156 Z M 249.421875 241.410156 " fill-opacity="1" fill-rule="nonzero"></path><path fill="#5acbf2" d="M 246.257812 228.035156 L 102.304688 228.035156 C 100.410156 228.035156 98.875 226.5 98.875 224.605469 L 98.875 114.917969 C 98.875 113.027344 100.414062 111.492188 102.304688 111.492188 L 246.257812 111.492188 C 248.148438 111.492188 249.683594 113.027344 249.683594 114.917969 L 249.683594 145.960938 C 249.683594 147.855469 248.148438 149.390625 246.257812 149.390625 C 244.363281 149.390625 242.828125 147.855469 242.828125 145.960938 L 242.828125 118.347656 L 105.730469 118.347656 L 105.730469 221.179688 L 242.828125 221.179688 L 242.828125 213.667969 C 242.828125 211.773438 244.363281 210.238281 246.257812 210.238281 C 248.148438 210.238281 249.683594 211.773438 249.683594 213.667969 L 249.683594 224.605469 C 249.683594 226.5 248.148438 228.035156 246.257812 228.035156 Z M 246.257812 228.035156 " fill-opacity="1" fill-rule="nonzero"></path><path fill="#5acbf2" d="M 167.707031 201.492188 C 167.066406 201.492188 166.449219 201.316406 165.902344 200.980469 C 160.726562 197.785156 154.371094 193.855469 150.707031 191.605469 C 144.871094 188.019531 138.15625 186.121094 131.308594 186.128906 L 124.65625 186.128906 C 122.882812 186.132812 121.128906 185.71875 119.542969 184.925781 C 115.042969 182.6875 112.128906 177.683594 112.128906 172.183594 C 112.101562 168.636719 113.335938 165.199219 115.628906 162.492188 C 117.84375 159.820312 121.117188 158.253906 124.585938 158.207031 C 135.855469 157.734375 146.8125 154.339844 156.367188 148.351562 L 156.480469 148.28125 L 166.808594 142.347656 C 168.425781 141.363281 170.535156 141.871094 171.519531 143.488281 C 172.347656 144.84375 172.136719 146.59375 171.003906 147.707031 C 170.789062 147.917969 170.546875 148.101562 170.289062 148.253906 L 159.949219 154.195312 C 149.378906 160.804688 137.265625 164.554688 124.804688 165.070312 L 124.664062 165.070312 C 123.15625 165.105469 121.75 165.796875 120.808594 166.96875 C 119.59375 168.425781 118.945312 170.277344 118.980469 172.175781 C 118.980469 175.058594 120.425781 177.707031 122.589844 178.78125 C 123.226562 179.101562 123.9375 179.273438 124.652344 179.273438 L 131.300781 179.273438 C 139.417969 179.277344 147.378906 181.527344 154.289062 185.789062 C 157.9375 188.03125 164.265625 191.941406 169.441406 195.132812 C 171.070312 196.09375 171.613281 198.199219 170.652344 199.828125 C 170.039062 200.871094 168.914062 201.515625 167.703125 201.515625 L 167.703125 201.492188 Z M 167.707031 201.492188 " fill-opacity="1" fill-rule="nonzero"></path><path fill="#5acbf2" d="M 171.996094 204.09375 C 168.953125 204.09375 164.664062 202.253906 161.5 193.484375 C 159.425781 187.734375 158.285156 180.164062 158.285156 172.167969 C 158.285156 164.160156 159.425781 156.597656 161.5 150.855469 C 164.664062 142.085938 168.953125 140.238281 171.996094 140.238281 C 175.035156 140.238281 179.324219 142.085938 182.488281 150.855469 C 184.5625 156.605469 185.707031 164.175781 185.707031 172.167969 C 185.707031 180.164062 184.566406 187.734375 182.488281 193.484375 C 179.332031 202.253906 175.042969 204.09375 171.996094 204.09375 Z M 171.996094 147.09375 C 171.398438 147.09375 169.609375 148.582031 167.953125 153.179688 C 166.140625 158.203125 165.148438 164.941406 165.148438 172.164062 C 165.148438 179.390625 166.140625 186.132812 167.953125 191.15625 C 169.609375 195.75 171.382812 197.238281 171.996094 197.238281 C 172.609375 197.238281 174.378906 195.75 176.039062 191.15625 C 177.847656 186.132812 178.84375 179.390625 178.84375 172.164062 C 178.84375 164.941406 177.847656 158.195312 176.039062 153.179688 C 174.386719 148.582031 172.605469 147.09375 171.996094 147.09375 Z M 171.996094 147.09375 " fill-opacity="1" fill-rule="nonzero"></path><path fill="#5acbf2" d="M 136.667969 213.613281 L 126.433594 213.613281 C 124.539062 213.613281 123.003906 212.078125 123.003906 210.1875 L 123.003906 182.699219 C 123.003906 180.808594 124.539062 179.273438 126.433594 179.273438 C 128.328125 179.273438 129.863281 180.808594 129.863281 182.699219 L 129.863281 206.757812 L 133.234375 206.757812 L 133.234375 183.050781 C 133.234375 181.160156 134.769531 179.625 136.664062 179.625 C 138.554688 179.625 140.09375 181.160156 140.09375 183.050781 L 140.09375 210.1875 C 140.097656 212.078125 138.5625 213.613281 136.667969 213.613281 Z M 136.667969 213.613281 " fill-opacity="1" fill-rule="nonzero"></path><path fill="#5acbf2" d="M 163.984375 183.167969 L 162.085938 183.167969 C 160.195312 183.167969 158.660156 181.632812 158.660156 179.742188 C 158.660156 177.847656 160.195312 176.3125 162.085938 176.3125 L 163.984375 176.3125 C 166.269531 176.390625 168.1875 174.589844 168.261719 172.304688 C 168.339844 170.019531 166.539062 168.105469 164.253906 168.027344 C 164.167969 168.027344 164.078125 168.027344 163.992188 168.027344 L 162.09375 168.027344 C 160.199219 168.027344 158.664062 166.492188 158.664062 164.601562 C 158.664062 162.707031 160.199219 161.171875 162.09375 161.171875 L 163.992188 161.171875 C 170.066406 161.054688 175.089844 165.878906 175.207031 171.953125 C 175.324219 178.03125 170.503906 183.050781 164.425781 183.167969 C 164.277344 183.167969 164.132812 183.167969 163.984375 183.167969 Z M 163.984375 183.167969 " fill-opacity="1" fill-rule="nonzero"></path><path fill="#5acbf2" d="M 238.433594 202.21875 C 237.71875 202.21875 237.023438 201.988281 236.441406 201.574219 L 197.191406 173.4375 C 193.011719 170.382812 192.101562 164.519531 195.152344 160.339844 C 198.164062 156.214844 203.929688 155.261719 208.113281 158.203125 L 235.878906 178.105469 C 237.421875 179.207031 237.773438 181.351562 236.664062 182.894531 C 235.558594 184.433594 233.417969 184.785156 231.878906 183.679688 L 204.109375 163.773438 C 202.984375 162.964844 201.414062 163.222656 200.605469 164.355469 C 199.796875 165.480469 200.054688 167.050781 201.1875 167.859375 L 240.4375 196 C 241.980469 197.101562 242.332031 199.25 241.222656 200.789062 C 240.578125 201.683594 239.542969 202.21875 238.433594 202.21875 Z M 238.433594 202.21875 " fill-opacity="1" fill-rule="nonzero"></path><path fill="#5acbf2" d="M 233.875 184.324219 C 233.160156 184.324219 232.464844 184.101562 231.878906 183.683594 L 221.238281 176.054688 C 217.089844 172.960938 216.234375 167.085938 219.328125 162.929688 C 222.339844 158.886719 228.011719 157.957031 232.160156 160.816406 L 242.464844 168.210938 C 243.976562 169.347656 244.28125 171.496094 243.144531 173.007812 C 242.042969 174.472656 239.988281 174.8125 238.476562 173.777344 L 228.164062 166.386719 C 227.019531 165.597656 225.457031 165.878906 224.660156 167.019531 C 223.886719 168.140625 224.136719 169.667969 225.226562 170.476562 L 235.867188 178.105469 C 237.410156 179.207031 237.761719 181.351562 236.652344 182.894531 C 236.015625 183.796875 234.976562 184.328125 233.875 184.324219 Z M 233.875 184.324219 " fill-opacity="1" fill-rule="nonzero"></path><path fill="#5acbf2" d="M 240.46875 174.421875 C 239.753906 174.421875 239.054688 174.191406 238.476562 173.777344 L 231.082031 168.480469 C 226.808594 165.554688 225.71875 159.71875 228.648438 155.449219 C 231.574219 151.175781 237.410156 150.085938 241.679688 153.015625 C 241.792969 153.09375 241.898438 153.167969 242.003906 153.25 L 249.398438 158.546875 C 250.9375 159.648438 251.289062 161.792969 250.183594 163.335938 C 249.074219 164.875 246.9375 165.226562 245.394531 164.121094 L 238.007812 158.824219 C 236.851562 158.054688 235.289062 158.367188 234.519531 159.527344 C 233.789062 160.628906 234.035156 162.105469 235.082031 162.914062 L 242.472656 168.214844 C 244.011719 169.316406 244.363281 171.460938 243.257812 173.003906 C 242.613281 173.894531 241.570312 174.425781 240.46875 174.421875 Z M 240.46875 174.421875 " fill-opacity="1" fill-rule="nonzero"></path><path fill="#5acbf2" d="M 235.820312 213.214844 C 235.371094 213.214844 234.925781 213.128906 234.507812 212.953125 C 234.222656 212.835938 233.949219 212.695312 233.691406 212.523438 C 233.625 212.488281 233.566406 212.449219 233.507812 212.40625 L 235.464844 209.589844 L 233.464844 212.359375 L 226.066406 207.074219 C 221.859375 204.058594 220.898438 198.199219 223.914062 193.996094 C 225.363281 191.980469 227.546875 190.621094 229.992188 190.21875 C 230.265625 190.171875 230.542969 190.136719 230.816406 190.117188 C 232.703125 189.9375 234.375 191.320312 234.554688 193.207031 C 234.738281 195.09375 233.355469 196.761719 231.46875 196.945312 C 231.425781 196.949219 231.386719 196.949219 231.347656 196.957031 C 231.269531 196.960938 231.191406 196.96875 231.117188 196.980469 C 229.746094 197.207031 228.820312 198.503906 229.046875 199.875 C 229.160156 200.53125 229.523438 201.117188 230.0625 201.503906 L 237.34375 206.71875 C 239.039062 207.5625 239.730469 209.617188 238.886719 211.316406 C 238.3125 212.476562 237.121094 213.214844 235.820312 213.214844 Z M 237.421875 206.78125 L 237.46875 206.8125 Z M 237.109375 206.59375 L 237.222656 206.652344 Z M 237.109375 206.59375 Z M 237.109375 206.59375 " fill-opacity="1" fill-rule="nonzero"></path><path fill="#5acbf2" d="M 254.324219 218.0625 C 243.257812 218.0625 234.226562 212.835938 233.722656 212.535156 C 232.089844 211.574219 231.550781 209.472656 232.511719 207.839844 C 233.472656 206.203125 235.574219 205.664062 237.210938 206.625 C 237.34375 206.707031 250.539062 214.277344 262.878906 209.730469 C 266.273438 205.011719 283.125 181.480469 283.289062 181.257812 C 284.425781 179.746094 286.574219 179.441406 288.085938 180.578125 C 289.550781 181.679688 289.890625 183.738281 288.855469 185.25 L 267.855469 214.539062 C 267.480469 215.054688 266.976562 215.460938 266.382812 215.707031 C 262.570312 217.292969 258.46875 218.089844 254.324219 218.0625 Z M 254.324219 218.0625 " fill-opacity="1" fill-rule="nonzero"></path><path fill="#5acbf2" d="M 286.070312 186.691406 C 284.613281 186.691406 283.3125 185.769531 282.832031 184.386719 C 278.273438 171.292969 261.402344 159.023438 253.125 154.386719 C 250.328125 152.824219 247.621094 151.105469 245.015625 149.242188 L 244.925781 149.171875 C 243.796875 148.371094 242.230469 148.628906 241.421875 149.757812 C 241.386719 149.804688 241.359375 149.855469 241.324219 149.90625 C 240.660156 151.101562 241.011719 152.601562 242.144531 153.371094 L 249.390625 158.5625 C 250.933594 159.664062 251.285156 161.804688 250.175781 163.347656 C 249.070312 164.890625 246.929688 165.238281 245.390625 164.132812 L 238.148438 158.941406 C 234.0625 156.070312 232.910156 150.527344 235.492188 146.261719 C 238.230469 141.863281 244.007812 140.511719 248.40625 143.25 C 248.582031 143.355469 248.753906 143.472656 248.917969 143.589844 L 249.003906 143.652344 C 251.414062 145.363281 253.910156 146.945312 256.492188 148.390625 C 266.226562 153.859375 284.089844 167.125 289.316406 182.132812 C 289.9375 183.917969 288.996094 185.875 287.207031 186.496094 C 286.84375 186.625 286.457031 186.691406 286.070312 186.691406 Z M 286.070312 186.691406 " fill-opacity="1" fill-rule="nonzero"></path><path fill="#5acbf2" d="M 232.890625 183.644531 C 231.21875 183.644531 229.792969 182.429688 229.515625 180.777344 C 229.207031 178.910156 230.472656 177.144531 232.335938 176.835938 C 234.203125 176.523438 235.96875 177.789062 236.277344 179.652344 C 236.589844 181.523438 235.328125 183.285156 233.460938 183.597656 C 233.273438 183.625 233.078125 183.644531 232.890625 183.644531 Z M 232.890625 183.644531 " fill-opacity="1" fill-rule="nonzero"></path><path fill="#5acbf2" d="M 218.195312 276.882812 L 183.394531 276.882812 C 182.671875 276.882812 181.976562 276.65625 181.390625 276.238281 L 174.28125 271.128906 L 167.167969 276.238281 C 166.589844 276.660156 165.886719 276.882812 165.164062 276.882812 L 130.359375 276.882812 C 128.46875 276.882812 126.933594 275.347656 126.925781 273.457031 C 126.925781 272.347656 127.460938 271.3125 128.355469 270.667969 L 146.234375 257.8125 L 146.234375 238.066406 C 146.234375 236.171875 147.765625 234.636719 149.660156 234.636719 L 198.890625 234.636719 C 200.785156 234.636719 202.320312 236.171875 202.320312 238.066406 L 202.320312 257.824219 L 220.195312 270.679688 C 221.738281 271.78125 222.089844 273.925781 220.980469 275.464844 C 220.335938 276.363281 219.300781 276.894531 218.191406 276.894531 Z M 184.5 270.027344 L 207.550781 270.027344 L 196.890625 262.371094 C 195.996094 261.726562 195.46875 260.6875 195.460938 259.585938 L 195.460938 241.5 L 153.085938 241.5 L 153.085938 259.597656 C 153.085938 260.699219 152.554688 261.738281 151.65625 262.382812 L 141.003906 270.039062 L 164.054688 270.039062 L 172.269531 264.132812 C 173.464844 263.277344 175.070312 263.277344 176.265625 264.132812 Z M 184.5 270.027344 " fill-opacity="1" fill-rule="nonzero"></path></svg>