<svg xmlns="http://www.w3.org/2000/svg" width="679" height="660" viewBox="0 0 679 660" fill="none"><path d="M517.104 82.1962H168.179C150.073 82.1962 135.396 96.8674 135.396 114.965V336.021C135.396 354.119 150.073 368.79 168.179 368.79H517.104C535.21 368.79 549.888 354.119 549.888 336.021V114.965C549.888 96.8674 535.21 82.1962 517.104 82.1962Z" fill="#005CFB"></path><path d="M504.1 91.1804H177.003C158.897 91.1804 144.22 105.852 144.22 123.95V329.904C144.22 348.002 158.897 362.674 177.003 362.674H504.1C522.206 362.674 536.884 348.002 536.884 329.904V123.95C536.884 105.852 522.206 91.1804 504.1 91.1804Z" fill="#F5F5FD"></path><path d="M521.53 121.956H158.18C158.18 115.157 158.017 108.302 157.907 101.585C217.737 101.585 277.576 101.494 337.424 101.312C395.751 101.312 454.106 101.475 512.46 101.312C519.864 101.312 523.088 103.032 521.885 111.17C521.569 114.756 521.45 118.357 521.53 121.956Z" fill="#5A96FC"></path><path d="M231.807 279.959H286.446C298.794 279.959 301.007 282.362 300.98 295.688C300.98 297.244 300.98 298.828 300.98 300.385C300.543 308.195 297.128 311.881 289.724 311.909C251.131 312.018 212.519 312.018 173.889 311.909C166.431 311.909 162.961 308.495 162.333 300.658C162.238 297.259 162.347 293.858 162.661 290.472C162.989 283.126 166.595 279.767 173.589 279.822C192.958 280.068 212.382 279.959 231.807 279.959Z" fill="#DEE5FD"></path><path d="M196.482 115.512C195.969 115.505 195.463 115.395 194.993 115.19C194.523 114.985 194.098 114.688 193.745 114.317C193.391 113.945 193.115 113.507 192.933 113.028C192.751 112.548 192.667 112.037 192.685 111.525C192.619 110.959 192.688 110.385 192.885 109.85C193.082 109.315 193.402 108.834 193.82 108.446C194.237 108.058 194.74 107.773 195.288 107.616C195.836 107.458 196.414 107.431 196.974 107.538C197.48 107.557 197.975 107.688 198.425 107.92C198.874 108.153 199.267 108.482 199.575 108.883C199.882 109.285 200.098 109.749 200.206 110.244C200.313 110.738 200.311 111.25 200.198 111.743C200.201 112.234 200.108 112.722 199.923 113.177C199.739 113.632 199.466 114.047 199.121 114.397C198.776 114.747 198.365 115.025 197.913 115.216C197.46 115.408 196.974 115.508 196.482 115.512Z" fill="#9AA9D1"></path><path d="M181.375 115.539C180.353 115.483 179.39 115.04 178.685 114.299C177.979 113.558 177.583 112.575 177.577 111.552C177.512 110.982 177.581 110.405 177.779 109.867C177.978 109.329 178.3 108.845 178.72 108.454C179.14 108.064 179.647 107.777 180.198 107.618C180.749 107.459 181.33 107.431 181.894 107.538C182.402 107.551 182.901 107.676 183.356 107.903C183.81 108.13 184.21 108.455 184.525 108.853C184.84 109.252 185.064 109.715 185.181 110.21C185.297 110.704 185.304 111.218 185.199 111.716C185.211 112.221 185.119 112.723 184.931 113.192C184.743 113.661 184.462 114.087 184.104 114.444C183.747 114.801 183.321 115.083 182.851 115.271C182.382 115.459 181.88 115.55 181.375 115.539Z" fill="#9AA9D1"></path><path d="M170.119 111.47C169.736 113.709 168.589 115.402 166.349 115.43C165.778 115.475 165.205 115.385 164.677 115.167C164.148 114.949 163.678 114.609 163.305 114.176C162.932 113.742 162.667 113.226 162.531 112.67C162.396 112.115 162.393 111.535 162.524 110.978C162.52 110.464 162.629 109.954 162.844 109.487C163.06 109.019 163.376 108.605 163.77 108.274C164.164 107.943 164.626 107.702 165.124 107.57C165.622 107.438 166.143 107.418 166.649 107.51C168.944 107.565 169.846 109.231 170.119 111.47Z" fill="#9AA9D1"></path><path d="M284.287 184.354H168.917C165.16 184.354 162.114 187.399 162.114 191.154V194.376C162.114 198.132 165.16 201.176 168.917 201.176H284.287C288.044 201.176 291.09 198.132 291.09 194.376V191.154C291.09 187.399 288.044 184.354 284.287 184.354Z" fill="#B3CEFD"></path><path d="M284.287 203.715H168.917C165.16 203.715 162.114 206.76 162.114 210.515V213.737C162.114 217.493 165.16 220.537 168.917 220.537H284.287C288.044 220.537 291.09 217.493 291.09 213.737V210.515C291.09 206.76 288.044 203.715 284.287 203.715Z" fill="#B3CEFD"></path><path d="M284.287 223.896H168.917C165.16 223.896 162.114 226.94 162.114 230.696V233.918C162.114 237.673 165.16 240.717 168.917 240.717H284.287C288.044 240.717 291.09 237.673 291.09 233.918V230.696C291.09 226.94 288.044 223.896 284.287 223.896Z" fill="#B3CEFD"></path><path d="M284.287 244.486H168.917C165.16 244.486 162.114 247.53 162.114 251.285V254.508C162.114 258.263 165.16 261.307 168.917 261.307H284.287C288.044 261.307 291.09 258.263 291.09 254.508V251.285C291.09 247.53 288.044 244.486 284.287 244.486Z" fill="#B3CEFD"></path><path d="M278.058 155.49H167.469C164.512 155.49 162.114 157.886 162.114 160.842V163.382C162.114 166.338 164.512 168.734 167.469 168.734H278.058C281.016 168.734 283.413 166.338 283.413 163.382V160.842C283.413 157.886 281.016 155.49 278.058 155.49Z" fill="#DEE5FD"></path><path d="M299.641 155.49H189.051C186.094 155.49 183.697 157.886 183.697 160.842V163.382C183.697 166.338 186.094 168.734 189.051 168.734H299.641C302.598 168.734 304.996 166.338 304.996 163.382V160.842C304.996 157.886 302.598 155.49 299.641 155.49Z" fill="#9AA9D1"></path><path d="M444.216 269.172H501.805C511.945 269.172 520.164 260.956 520.164 250.821V242.165C520.164 232.03 511.945 223.814 501.805 223.814H444.216C434.076 223.814 425.857 232.03 425.857 242.165V250.821C425.857 260.956 434.076 269.172 444.216 269.172Z" fill="#7292F7"></path><path d="M477.737 246.507C477.737 250.287 478.858 253.983 480.96 257.127C483.061 260.27 486.048 262.72 489.542 264.167C493.037 265.614 496.882 265.992 500.591 265.255C504.301 264.517 507.709 262.697 510.383 260.023C513.058 257.35 514.879 253.944 515.617 250.236C516.355 246.528 515.976 242.684 514.529 239.192C513.081 235.699 510.63 232.713 507.485 230.613C504.34 228.512 500.643 227.391 496.861 227.391C491.789 227.391 486.924 229.405 483.338 232.99C479.752 236.575 477.737 241.437 477.737 246.507Z" fill="white"></path><path d="M468.011 219.062H506.532C513.322 219.062 518.826 213.561 518.826 206.774V201.012C518.826 194.225 513.322 188.724 506.532 188.724H468.011C461.222 188.724 455.718 194.225 455.718 201.012V206.774C455.718 213.561 461.222 219.062 468.011 219.062Z" fill="#9AA9D1"></path><path d="M472.819 216.605C479.85 216.605 485.55 210.907 485.55 203.879C485.55 196.851 479.85 191.154 472.819 191.154C465.788 191.154 460.088 196.851 460.088 203.879C460.088 210.907 465.788 216.605 472.819 216.605Z" fill="white"></path><path d="M469.131 178.429H507.652C514.441 178.429 519.945 172.927 519.945 166.14V160.378C519.945 153.591 514.441 148.09 507.652 148.09H469.131C462.341 148.09 456.837 153.591 456.837 160.378V166.14C456.837 172.927 462.341 178.429 469.131 178.429Z" fill="#9AA9D1"></path><path d="M461.154 163.246C461.148 165.769 461.892 168.237 463.291 170.338C464.689 172.439 466.68 174.078 469.011 175.047C471.342 176.016 473.908 176.273 476.384 175.784C478.861 175.295 481.137 174.082 482.924 172.3C484.711 170.518 485.929 168.245 486.423 165.771C486.918 163.296 486.667 160.731 485.702 158.399C484.737 156.067 483.102 154.074 481.003 152.671C478.904 151.269 476.437 150.52 473.912 150.52C470.533 150.52 467.292 151.86 464.9 154.246C462.508 156.631 461.161 159.868 461.154 163.246Z" fill="white"></path><path d="M411.323 296.48C414.055 301.941 416.787 307.621 419.519 313.11C422.251 318.599 421.103 320.866 415.885 320.838C398.091 320.693 380.306 320.693 362.53 320.838C348.515 320.838 334.5 320.21 320.485 321.412C313.683 322.012 312.645 319.964 315.732 312.509C318.027 307.048 320.731 301.723 323.245 296.316C325.541 294.709 328.315 293.929 331.113 294.104C355.263 294.104 379.395 294.104 403.51 294.104C406.3 294.046 409.037 294.878 411.323 296.48Z" fill="#C5CFEF"></path><path d="M411.323 296.48C389.877 297.927 368.377 296.753 346.931 296.944C339.008 296.944 331.086 297.927 323.19 296.371C326.486 288.283 330.254 280.396 334.473 272.749C336.593 271.297 339.117 270.551 341.686 270.619C359.389 270.456 377.201 270.783 394.822 270.428C396.533 270.337 398.228 270.796 399.658 271.739L411.323 296.48Z" fill="#DEE5FD"></path><path d="M377.884 224.497C382.264 231.989 385.923 239.88 388.812 248.063C386.899 250.357 384.495 249.647 382.255 249.702C371.846 250.057 361.438 249.101 351.029 250.275C350.051 250.459 349.04 250.328 348.142 249.901C347.243 249.474 346.504 248.773 346.029 247.899C348.965 239.978 352.462 232.276 356.493 224.852C363.554 223.553 370.783 223.433 377.884 224.497Z" fill="#DEE5FD"></path><path d="M388.757 248.063C374.496 248.473 360.235 248.828 345.975 247.899C344.333 250.313 343.011 252.929 342.041 255.682L334.473 272.749C354.362 272.886 374.25 273.077 394.166 273.104C396.035 272.867 397.87 272.409 399.63 271.739C396.953 265.895 389.959 249.947 388.757 248.063Z" fill="#C5CFEF"></path><path d="M370.043 205.9C368.377 201.995 366.41 201.586 364.716 205.682C361.984 212.154 358.214 217.806 356.52 224.797C363.678 226.326 370.835 227.528 377.966 224.442L370.043 205.9Z" fill="#C5CFEF"></path><path d="M453.969 40.115C457.329 29.3558 468.257 32.5508 475.415 28.837C479.349 26.7616 484.212 26.1062 488.528 24.0308C500.166 18.2416 507.652 21.3 514.509 33.9435H511.367C508.02 33.4655 504.633 33.3282 501.259 33.5339C485.359 34.6808 469.896 39.5689 453.969 40.115Z" fill="#C5CFEF"></path><path d="M442.795 40.5246L483.201 54.315C483.201 54.315 493.801 58.0016 494.948 50.0823C496.369 40.2789 501.369 34.7627 511.34 34.0527C508.608 30.7485 505.166 31.6223 501.751 31.8135C487.776 31.9517 473.886 34.0099 460.471 37.9304C467.601 34.0498 475.218 31.1385 483.119 29.2739C490.167 27.6081 495.795 26.3792 502.735 28.1269C507.014 29.2239 511.016 31.2053 514.482 33.9435C524.918 33.0969 515.93 29.2192 514.919 28.4819C505.193 22.5289 502.489 14.8281 508.226 4.75154C508.649 3.20275 508.87 1.60554 508.881 0L442.795 40.5246Z" fill="#FE7146"></path><path d="M519.071 30.4208C612.887 11.3055 577.781 107.456 564.504 93.4197C558.521 87.0843 673.126 36.0735 630.071 133.562C606.494 187.085 510.356 177.664 618.569 243.912" stroke="white" stroke-width="0.75" stroke-miterlimit="10" stroke-dasharray="2 2"></path><path d="M110.316 130.34C86.9034 130.34 63.873 155.654 64.2282 180.804C64.6926 205.163 110.945 259.423 110.945 259.423C110.945 259.423 154.984 202.76 154.41 178.292C153.782 152.186 133.866 130.367 110.316 130.34ZM110.726 193.147C102.394 194.158 98.4049 188.232 97.9405 179.821C97.5307 172.394 101.574 167.615 107.994 166.768C115.589 165.758 121.189 169.499 122.637 178.319C123.156 187.495 118.13 192.274 110.726 193.147Z" fill="#FE7146"></path><path d="M110.152 248.91C113.895 258.577 105.918 269.391 94.7167 273.705C83.5157 278.02 70.1291 277.009 58.4364 273.951C53.3813 272.883 48.5952 270.802 44.3668 267.834C42.4508 266.566 40.9468 264.767 40.0393 262.657C39.1318 260.546 38.8602 258.217 39.2581 255.955C40.1508 253.625 41.8379 251.684 44.0219 250.475C46.2059 249.266 48.7468 248.867 51.1967 249.347C53.3984 249.841 55.393 251.005 56.9065 252.678C63.2173 259.532 58.2451 269.855 50.022 275.152C39.0941 282.171 32.073 280.614 21.8828 286.376C6.52924 295.142 -6.50218 323.187 6.09213 345.033C16.856 363.711 42.8916 371.794 65.3755 360.981" stroke="#C5CFEF" stroke-width="0.75" stroke-miterlimit="10" stroke-dasharray="2 2"></path><path d="M335.484 605.439C333.903 607.595 332.784 610.054 332.197 612.661C331.609 615.269 331.566 617.97 332.069 620.595C333.241 622.226 334.879 623.463 336.768 624.145C349.281 627.968 361.165 634.358 374.824 633.512C375.835 632.747 376.873 632.01 377.829 631.163C380.316 629.033 379.714 627.695 376.764 626.712C369.427 624.517 362.607 620.867 356.711 615.98C356.083 615.407 355.537 614.697 354.936 614.041C352.777 610.967 350.375 608.072 347.751 605.385C343.717 604.42 339.509 604.438 335.484 605.439Z" fill="#353264"></path><path d="M347.477 603.145H335.457C335.457 603.855 335.457 604.565 335.457 605.275C339.636 607.296 344.008 605.74 348.297 606.04C348.051 605.166 347.75 604.156 347.477 603.145Z" fill="#D7976C"></path><path d="M232.407 548.885C234.093 547.57 236.078 546.694 238.186 546.336C240.294 545.979 242.458 546.151 244.483 546.837L216.945 616.198L213.393 615.079L232.407 548.885Z" fill="#C26346"></path><path d="M249.919 550.496C253.198 546.891 256.312 546.973 259.29 550.851C253.99 572.97 248.608 595.071 243.144 617.154L239.347 616.362C242.88 594.443 246.404 572.488 249.919 550.496Z" fill="#C26346"></path><path d="M293.303 552.626C296.499 549.021 299.641 548.639 302.701 552.79C304.176 574.909 305.66 597.028 307.154 619.148L303.056 619.748L293.303 552.626Z" fill="#C26346"></path><path d="M309.503 553.445C312.699 549.568 315.732 549.786 318.628 553.8C322.871 576.102 327.124 598.421 331.386 620.759L327.452 621.605L309.503 553.445Z" fill="#C26346"></path><path d="M347.177 537.962C347.11 541.028 346.088 543.996 344.254 546.454C343.711 547.179 343.077 547.83 342.369 548.393C338.472 551.142 333.833 552.646 329.064 552.708H327.398L318.164 552.872L309.776 553.008H302.81H293.494C282.102 553.008 269.535 553.008 258.798 553.008L249.591 552.79C246.86 552.79 244.373 552.653 242.161 552.517C238.821 552.652 235.477 552.349 232.216 551.616L231.67 551.233C200.963 512.156 218.229 447.655 219.54 443.04C220.715 443.04 221.944 442.904 223.201 442.904C232.974 442.791 242.535 445.763 250.52 451.396C251.356 452.027 252.15 452.711 252.897 453.445C254.002 454.515 255.016 455.675 255.93 456.913C262.216 466.194 267.181 476.303 270.682 486.951C271.365 488.89 272.103 490.747 272.922 492.413C276.507 500.762 282.647 507.761 290.461 512.402C297.564 516.354 305.504 518.563 313.628 518.846C318.205 519.01 322.767 519.457 327.288 520.185C330.952 520.746 334.537 521.736 337.97 523.134C340.63 524.225 342.944 526.019 344.663 528.322C346.603 531.143 347.492 534.554 347.177 537.962Z" fill="#FF7E1A"></path><path d="M231.697 551.179C207.792 535.75 189.461 477.885 200.799 453.035C202.902 448.393 207.792 445.334 213.912 443.887H214.158L216.262 443.45L217.873 443.231C227.511 442.107 237.265 443.895 245.876 448.365C234.998 456.868 226.678 468.208 221.835 481.134C209.213 516.116 229.074 547.219 231.697 551.179Z" fill="#FE7146"></path><path d="M300.515 401.778C299.74 404.606 298.688 407.35 297.373 409.971V410.216L297.073 410.544C294.934 409.137 293.081 407.34 291.609 405.246C289.115 401.647 287.746 397.39 287.675 393.013V391.975C287.792 392.162 287.93 392.336 288.085 392.494L288.658 393.204C289.846 394.607 291.163 395.896 292.592 397.054C294.995 398.997 297.675 400.571 300.542 401.724L300.515 401.778Z" fill="#BE8260"></path><path d="M312.317 346.071C309.585 342.602 306.58 342.63 303.52 345.907C302.591 346.917 301.553 347.873 300.57 348.883L289.177 353.771C279.916 357.321 276.31 361.609 276.228 369.227C270.491 370.129 268.688 373.679 271.611 378.621C273.046 381.363 275.313 383.581 278.086 384.957L278.249 386.95C276.173 389.08 278.25 389.927 279.534 390.773C281.883 391.982 284.462 392.68 287.101 392.821C287.511 392.985 290.953 392.275 291.117 390.555C290.844 388.015 286.664 385.366 286.391 384.738C284.478 380.26 290.816 382.199 293.193 382.608C295.352 381.734 294.477 380.096 294.013 378.731C293.556 377.66 293.479 376.465 293.794 375.344C294.456 373.886 295.647 372.735 297.127 372.122C302.345 369.391 306.088 372.122 308.438 369.937C309.366 369.091 310.323 367.207 309.53 362.837C310.982 362.065 312.236 360.97 313.196 359.635C314.156 358.3 314.795 356.763 315.064 355.142C315.334 353.52 315.226 351.859 314.75 350.286C314.273 348.712 313.441 347.27 312.317 346.071Z" fill="#341338"></path><path d="M344.581 470.785C344.021 474.359 344.021 477.998 344.581 481.571C346.166 481.326 370.781 479.278 376.217 480.889C378.676 481.626 381.162 482.309 383.238 479.988C385.97 475.809 382.173 474.799 379.823 473.079C370.739 470.946 361.473 469.675 352.149 469.283C349.69 469.693 346.958 468.846 344.581 470.785Z" fill="#D7976C"></path><path d="M353.05 467.918C346.197 463.097 339.638 457.872 333.408 452.27C310.104 431.407 297.728 411.309 296.007 412.401C294.286 413.493 304.668 427.639 310.978 451.915C312.563 458.032 313.492 463.275 314.093 467.071C314.674 467.659 315.295 468.206 315.951 468.709C323.9 471.44 338.243 467.672 342.833 473.243C343.358 473.891 343.851 474.565 344.308 475.263C346.548 475.263 348.789 475.4 351.001 475.427L351.165 474.581C351.435 472.274 352.072 470.024 353.05 467.918Z" fill="#353264"></path><path d="M356.902 559.316C356.383 562.43 355.755 565.515 355.045 568.628C355.045 569.174 354.69 570.758 354.362 572.998C353.269 580.425 351.138 594.844 348.433 601.234C348.181 601.902 347.861 602.543 347.477 603.145C345.93 604.011 344.217 604.542 342.45 604.702C341.688 604.798 340.917 604.798 340.156 604.702L339.09 604.538C337.83 604.289 336.609 603.876 335.457 603.309C331.714 603.145 330.484 601.07 330.648 597.52C330.719 594.782 330.573 592.043 330.211 589.328C328.611 577.245 328.208 565.034 329.009 552.872C329.333 548.986 329.872 545.12 330.621 541.293C330.949 539.546 331.441 536.842 329.501 536.433C326.769 535.886 282.211 531.135 263.415 528.24C257.951 527.421 254.345 526.138 252.023 523.816C249.277 520.819 247.672 516.953 247.488 512.893C247.488 512.757 247.488 512.593 247.488 512.456C247.488 512.32 247.16 511.419 246.996 510.954C246.313 508.715 245.766 506.694 245.384 504.892C245.22 504.128 245.111 503.39 244.974 502.68C244.43 499.82 244.43 496.884 244.974 494.024C244.959 493.924 244.959 493.823 244.974 493.723C245.344 492.028 246.176 490.469 247.378 489.218C248.841 487.778 250.791 486.94 252.842 486.869C257.76 486.569 264.48 489.354 273.141 492.604C284.054 497.033 295.512 499.981 307.208 501.369L309.23 501.561H309.612C310.723 501.561 311.843 501.615 312.973 501.724H314.065C324.583 502.052 331.632 504.81 346.111 509.043C348.349 509.678 350.445 510.734 352.285 512.156C354.389 513.826 356.09 515.947 357.262 518.362C358.435 520.778 359.05 523.425 359.061 526.11C359.47 537.224 358.747 548.35 356.902 559.316Z" fill="#47447A"></path><path d="M298.111 418.299C297.875 418.333 297.636 418.333 297.401 418.299C296.78 418.313 296.161 418.221 295.57 418.026C295.575 417.422 295.394 416.831 295.051 416.333C294.904 416.155 294.717 416.015 294.505 415.924C293.685 414.777 292.92 413.575 292.183 412.401C291.445 411.227 290.871 410.298 290.134 409.315C289.083 406.582 287.164 404.27 284.67 402.734C283.604 401.806 282.402 401.041 281.337 400.003C280.097 398.998 279.279 397.567 279.042 395.989C279.51 394.368 280.209 392.823 281.118 391.401C281.543 390.836 282.081 390.365 282.697 390.018C283.312 389.67 283.994 389.453 284.697 389.381C285.728 390.411 286.704 391.496 287.62 392.63C287.699 392.71 287.764 392.802 287.812 392.903C287.856 392.887 287.904 392.887 287.948 392.903C292.031 398.012 295.261 403.748 297.51 409.889C297.495 409.961 297.495 410.035 297.51 410.107C298.029 411.527 298.548 412.838 298.985 414.313C298.997 414.458 298.997 414.604 298.985 414.75C298.996 414.913 298.996 415.077 298.985 415.241C299.286 416.907 299.067 417.944 298.111 418.299Z" fill="#353264"></path><path d="M319.365 504.455C327.561 506.34 336.003 508.196 344.308 510.272C353.05 512.456 357.121 518.109 357.367 527.093C357.722 541.539 354.635 586.488 360.235 591.894C363.563 592.714 367.062 592.495 370.262 591.266C372.529 581.982 372.256 572.424 373.458 563.03C375.753 544.898 368.814 501.233 364.251 499.922C354.826 497.191 318.491 493.778 316.524 492.14C309.967 489.928 307.727 491.375 307.427 498.202C307.263 502.025 310.295 502.462 319.365 504.455Z" fill="#353264"></path><path d="M414.957 440.664C411.187 452.134 407.407 463.603 403.619 475.072C403.788 477.657 404.851 480.103 406.625 481.991C408.399 483.879 410.775 485.092 413.345 485.422C415.421 485.422 416.077 483.892 416.733 482.336C421.295 469.665 425.967 457.022 430.201 444.105C431.185 441.101 430.338 439.162 427.469 438.835C423.207 438.452 418.563 436.049 414.957 440.664Z" fill="#9AA9D1"></path><path d="M361.957 475.536C361.683 477.53 371.846 480.998 371.163 485.231C371.097 485.626 370.938 486.001 370.699 486.323C370.946 486.714 371.296 487.03 371.71 487.237C372.124 487.444 372.587 487.534 373.048 487.497C381.408 486.214 389.768 487.934 398.155 487.497C403.619 487.197 409.301 486.296 414.847 487.743C418.508 483.701 419.054 478.267 421.103 473.516C422.387 470.512 430.037 448.256 432.25 443.204C433.944 439.272 432.823 438.179 428.999 437.743C425.562 437.357 422.103 437.202 418.645 437.278C416.35 437.278 414.656 438.016 414.956 440.774C419.901 437.661 424.737 440.419 430.092 440.774L414.246 485.012L403.81 474.608C373.294 472.751 362.257 473.516 361.957 475.536Z" fill="#DEE5FD"></path><path d="M414.847 487.716C413.317 485.75 411.159 486.569 409.383 486.541C396.543 486.541 383.676 486.378 370.808 486.323C366.819 487.033 362.612 485.449 358.733 487.443C359.887 487.948 361.113 488.27 362.366 488.398C379.742 487.825 397.335 488.945 414.847 487.716Z" fill="#9AA9D1"></path><path d="M396.789 485.367L408.646 485.039L402.39 475.673H391.762L396.789 485.367Z" fill="#9AA9D1"></path><path d="M359.279 593.123C356.294 597.583 355.158 603.026 356.11 608.306C357.173 609.895 358.685 611.131 360.454 611.857C372.038 615.652 383.02 622.042 395.669 621.196C396.598 620.431 397.554 619.694 398.401 618.875C400.696 616.745 400.149 615.407 397.445 614.396C390.571 612.172 384.248 608.514 378.895 603.664C378.313 603.058 377.766 602.42 377.256 601.753C375.267 598.686 373.038 595.782 370.59 593.069C366.877 592.122 362.983 592.141 359.279 593.123Z" fill="#353264"></path><path d="M308.711 512.402L316.579 492.14C318.464 484.548 324.966 454.51 307.454 429.55C303.838 424.392 299.484 419.792 294.532 415.896C294.969 419.091 295.434 422.259 295.898 425.454L308.711 512.402Z" fill="#FAF4F0"></path><path d="M255.247 522.205C256.039 521.086 256.831 519.966 257.651 518.901C261.585 513.685 261.585 513.685 261.393 507.486C262.486 507.486 262.65 508.251 262.732 509.043C263.044 511.017 262.882 513.037 262.259 514.936C261.637 516.835 260.573 518.559 259.153 519.966C258.08 520.981 257.217 522.196 256.613 523.543H255.902C255.683 523.33 255.423 523.163 255.137 523.052C255.051 522.921 255.015 522.764 255.035 522.608C255.055 522.453 255.13 522.31 255.247 522.205Z" fill="#353264"></path><path d="M316.524 492.14H315.65C308.137 492.85 308.574 496.809 309.421 501.479C309.421 501.479 309.421 501.615 309.421 501.697C310.002 504.054 310.177 506.491 309.94 508.906C309.783 510.133 309.333 511.303 308.629 512.32C307.127 514.505 299.668 513.822 290.434 512.511C281.2 511.2 271.037 509.343 262.705 508.906H261.421C254.4 508.661 249.182 509.589 248.335 513.03C247.949 512.912 247.601 512.695 247.324 512.402C245.849 510.955 245.056 507.459 244.811 502.626C244.811 500.386 244.811 497.82 244.811 495.007C244.811 494.57 244.811 494.133 244.811 493.669C245.76 479.478 247.649 465.365 250.466 451.424C250.466 451.424 250.466 451.178 250.466 451.069C253.935 433.182 258.197 417.235 261.038 412.51C265.601 404.891 269.753 400.495 274.097 399.102C275.327 397.573 277.294 397.163 278.851 396.098C279.903 397.087 280.897 398.136 281.829 399.239L282.43 400.003C285.483 402.037 288.37 404.311 291.063 406.803C292.894 408.534 294.635 410.356 296.281 412.265L296.718 412.756C297.51 413.657 298.275 414.613 299.013 415.487L299.832 416.525C299.573 416.961 299.416 417.451 299.373 417.957C299.331 418.463 299.404 418.973 299.586 419.446C299.586 419.774 299.832 420.129 299.941 420.484C299.862 420.558 299.805 420.653 299.778 420.757C299.655 420.965 299.554 421.184 299.477 421.413C299.391 421.873 299.391 422.345 299.477 422.805C300.215 430.26 302.947 437.633 304.722 444.897C305.569 448.365 306.471 451.861 307.454 455.356C308.438 458.851 309.476 462.429 310.623 465.924C306.535 461.799 303.007 457.153 300.133 452.106L299.614 451.233C297.611 447.793 295.876 444.205 294.423 440.501C294.423 440.2 294.177 439.9 294.068 439.6C288.768 425.4 289.56 413.439 285.489 407.54C284.604 406.204 283.352 405.152 281.883 404.509L280.954 404.209C277.929 403.606 274.788 404.079 272.075 405.547C256.367 412.783 265.519 437.961 269.644 448.12C269.835 448.584 270.054 449.075 270.245 449.567C273.874 457.622 278.731 465.065 284.643 471.631C288.221 475.591 296.8 478.895 304.176 482.254C310.869 485.313 316.524 488.426 316.524 492.14Z" fill="#515182"></path><path d="M329.829 534.002C329.805 532.991 330.178 532.012 330.867 531.271C331.877 530.33 332.525 529.064 332.697 527.694C332.697 526.957 333.107 526.329 334.009 526.629C334.91 526.929 334.719 527.694 334.61 528.349C334.61 529.414 333.489 530.288 333.599 531.408C334.773 531.927 335.156 530.862 335.894 530.671C336.631 530.479 337.287 530.343 337.806 530.944C338.325 531.544 337.997 532.227 337.533 532.773C337.068 533.319 336.331 534.111 335.757 534.712C335.84 534.965 335.94 535.211 336.057 535.449C336.495 536.159 338.079 536.05 337.587 537.306C337.096 538.563 336.003 538.016 335.129 538.016C333.052 538.016 331.987 536.433 330.594 535.286C330.361 535.161 330.167 534.976 330.033 534.75C329.898 534.524 329.827 534.265 329.829 534.002Z" fill="#353264"></path><path d="M264.809 517.126C265.461 516.588 266.236 516.219 267.065 516.052C267.895 515.885 268.752 515.926 269.562 516.17C271.584 516.443 273.551 517.044 275.545 517.345C280.364 518.121 285.228 518.586 290.107 518.737C292.401 518.737 294.614 519.311 296.854 519.556C304.75 520.458 312.672 521.058 320.568 521.714C327.452 522.26 334.228 522.806 341.221 523.543C341.849 523.558 342.455 523.777 342.948 524.166C343.441 524.555 343.794 525.094 343.953 525.701C344.456 526.844 344.77 528.061 344.882 529.305C345.055 534.195 344.955 539.091 344.582 543.97C343.926 549.813 342.533 555.575 342.205 561.474C341.963 564.297 341.516 567.099 340.866 569.857C340.093 574.696 339.892 579.608 340.265 584.494C340.265 588.29 339.5 591.949 339.473 595.718C339.488 596.111 339.4 596.502 339.218 596.852C339.036 597.202 338.766 597.498 338.435 597.711C337.697 597.52 337.643 597.001 337.724 596.373C338.413 592.238 338.787 588.057 338.845 583.866C338.899 582.614 338.761 581.362 338.435 580.152C338.163 579.401 338.079 578.595 338.189 577.804C338.981 572.342 339.937 567.072 340.593 561.665C341.085 557.514 341.495 553.473 342.205 549.213C343.184 543.503 343.659 537.719 343.625 531.927C343.659 530.903 343.53 529.88 343.243 528.896C342.096 525.182 341.932 525.346 338.052 524.882C332.057 524.582 326.084 523.953 320.158 522.997C319.704 522.942 319.246 522.942 318.792 522.997C310.849 522.798 302.924 522.16 295.051 521.086C291.145 520.649 287.156 520.266 283.167 520.157C276.965 519.738 270.817 518.723 264.809 517.126Z" fill="#353264"></path><path opacity="0.29" d="M307.673 346.644C307.563 348.001 307.089 349.304 306.3 350.414C305.512 351.524 304.438 352.401 303.192 352.952C299.802 355.114 296.123 356.787 292.264 357.922C289.959 358.557 287.772 359.562 285.79 360.899C284.445 361.657 283.268 362.679 282.329 363.904C281.39 365.129 280.709 366.531 280.326 368.026C280.052 369.131 279.658 370.202 279.151 371.221C278.167 373.269 277.266 373.761 274.671 373.952C274.425 373.133 275.08 373.105 275.572 372.914C276.46 372.501 277.228 371.868 277.802 371.074C278.376 370.281 278.737 369.353 278.85 368.381C279.377 365.828 280.611 363.475 282.414 361.592C284.216 359.708 286.513 358.37 289.041 357.731C291.581 356.775 294.204 355.956 296.717 355C301.079 353.293 304.874 350.398 307.673 346.644Z" fill="#471C45"></path><path opacity="0.29" d="M311.443 357.731C310.547 358.222 309.688 358.779 308.875 359.397C305.514 362.346 301.498 362.128 297.537 361.609C292.073 360.844 287.811 363.138 286.609 367.07C286.368 367.694 286.076 368.297 285.735 368.873C285.617 368.887 285.498 368.887 285.38 368.873C285.185 368.763 285.038 368.585 284.968 368.373C284.897 368.161 284.908 367.93 284.997 367.726C285.808 364.959 287.655 362.612 290.153 361.172C292.652 359.733 295.61 359.312 298.411 359.998C300.319 360.443 302.305 360.428 304.206 359.953C306.106 359.479 307.866 358.557 309.339 357.267C310.139 356.609 310.68 355.69 310.869 354.673C311.033 354.017 311.088 353.253 310.268 352.925C309.448 352.597 309.23 352.925 308.875 353.58C308.519 354.236 308.383 354.864 307.399 355.164C306.525 353.962 306.962 352.979 307.891 352.051C308.82 351.122 309.339 350.385 310.623 350.849C311.203 351.102 311.694 351.524 312.03 352.06C312.367 352.596 312.533 353.221 312.508 353.853C312.268 355.175 311.911 356.472 311.443 357.731Z" fill="#471C45"></path><path opacity="0.29" d="M283.85 387.906C282.56 386.571 281.667 384.904 281.271 383.09C280.875 381.277 280.993 379.389 281.61 377.638C282.095 376.414 282.879 375.33 283.891 374.485C284.903 373.641 286.11 373.063 287.402 372.805C290.535 371.983 293.374 370.299 295.598 367.944C296.936 366.442 296.581 365.541 294.723 365.213C293.467 364.968 293.357 365.568 293.494 366.524C293.631 367.48 293.276 367.371 292.702 367.343C292.473 367.345 292.252 367.262 292.081 367.111C291.909 366.96 291.8 366.751 291.773 366.524C291.609 365.486 291.609 364.503 292.756 363.793C293.483 363.467 294.299 363.395 295.072 363.588C295.845 363.781 296.53 364.229 297.018 364.858C297.275 365.086 297.48 365.366 297.621 365.679C297.761 365.992 297.834 366.331 297.834 366.674C297.834 367.017 297.761 367.357 297.621 367.67C297.48 367.983 297.275 368.262 297.018 368.49C295.102 370.426 292.804 371.941 290.27 372.941C288.579 373.579 286.936 374.337 285.353 375.208C283.965 375.904 282.889 377.096 282.338 378.547C281.786 379.998 281.8 381.604 282.375 383.045C282.758 384.711 283.331 386.295 283.85 387.906Z" fill="#471B44"></path><path opacity="0.29" d="M311.443 357.731C312.461 356.914 313.152 355.76 313.393 354.478C313.634 353.196 313.407 351.87 312.754 350.74C312.18 349.566 311.552 348.446 310.787 346.999C312.265 347.644 313.463 348.799 314.16 350.253C314.857 351.706 315.008 353.362 314.585 354.918C313.246 360.216 309.366 363.111 304.913 365.841C303.777 366.354 302.598 366.765 301.389 367.07C301.635 365.35 302.946 365.213 303.903 364.749C305.874 363.671 307.709 362.36 309.366 360.844C309.942 360.536 310.433 360.091 310.796 359.548C311.158 359.005 311.38 358.381 311.443 357.731Z" fill="#471B44"></path><path d="M370.18 590.83H359.58C359.58 591.567 359.58 592.277 359.58 592.987C363.268 594.98 367.12 593.451 370.918 593.752C370.672 592.878 370.426 591.867 370.18 590.83Z" fill="#D7976C"></path><path d="M354.689 493.942C360.372 486.432 365.617 486.514 370.835 494.515L341.986 632.064L335.429 630.508L354.689 493.942Z" fill="#2563AF"></path><path d="M426.185 494.269C420.502 486.76 415.257 486.842 410.039 494.843L438.888 632.392L445.473 630.835C439.116 585.304 432.687 539.782 426.185 494.269Z" fill="#2563AF"></path><path d="M442.385 486.268H340.839C338.591 486.268 336.768 488.09 336.768 490.337V492.276C336.768 494.523 338.591 496.345 340.839 496.345H442.385C444.634 496.345 446.456 494.523 446.456 492.276V490.337C446.456 488.09 444.634 486.268 442.385 486.268Z" fill="#2563AF"></path><path d="M342.396 477.885C341.822 481.448 341.822 485.081 342.396 488.644C343.981 488.426 368.595 486.35 374.059 487.989C376.518 488.726 378.977 489.409 381.053 487.06C383.785 482.882 379.988 481.872 377.638 480.179C368.565 478.035 359.307 476.764 349.991 476.383C347.45 476.547 344.664 475.81 342.396 477.885Z" fill="#D7976C"></path><path d="M345.647 480.998C343.407 486.869 325.349 485.531 315.596 483.319C294.177 478.486 279.124 462.101 269.781 448.12C271.72 453.253 284.014 484.521 312.099 491.484C325.239 494.734 342.341 492.795 346.439 486.323C348.454 482.895 350.024 479.224 351.111 475.4C348.898 475.4 346.658 475.4 344.418 475.236C345.058 476.034 345.503 476.971 345.717 477.971C345.93 478.972 345.906 480.008 345.647 480.998Z" fill="#353264"></path><path d="M342.396 470.867C338.025 470.266 314.257 468 314.12 467.208C312.946 460.217 301.881 449.731 298.657 442.467C294.942 434.138 294.723 424.69 290.462 415.159C285.298 403.663 278.632 397.791 267.978 407.704C256.886 417.999 263.169 437.333 269.453 448.174C277.701 462.403 289.971 473.88 304.722 481.162C312.071 484.739 332.643 490.829 340.839 486.623C344.664 484.411 355.318 472.669 342.396 470.867Z" fill="#47447A"></path><path d="M299.75 453.745C299.477 454.264 299.204 454.81 298.548 454.837C297.892 454.865 297.756 454.236 297.674 453.663C297.662 452.874 297.58 452.088 297.428 451.315C296.909 449.512 296.39 449.266 294.532 449.84C294.237 449.994 293.925 450.113 293.603 450.195C293.274 450.231 292.943 450.143 292.674 449.949C292.265 449.594 292.483 449.157 292.674 448.775C292.866 448.393 293.166 448.283 293.357 448.01C293.881 447.35 294.238 446.574 294.4 445.747C294.561 444.921 294.522 444.067 294.286 443.259C293.958 442.057 293.139 440.692 294.15 439.354C295.016 439.469 295.807 439.908 296.364 440.581C296.921 441.254 297.204 442.113 297.155 442.986C297.346 446.099 299.45 448.283 300.324 451.014C300.324 451.233 300.324 451.478 300.324 451.697C299.777 452.243 300.351 453.308 299.75 453.745Z" fill="#353264"></path><path d="M255.274 507.923C253.067 508.378 250.959 509.22 249.045 510.408C248.089 510.982 247.351 511.064 246.805 510.627C246.361 510.234 246.039 509.722 245.876 509.152C245.607 508.413 245.432 507.642 245.357 506.858L245.193 504.565C245.002 501.288 244.838 498.011 244.783 494.734C244.756 494.388 244.756 494.041 244.783 493.696C244.77 493.596 244.77 493.495 244.783 493.396C245.734 479.205 247.623 465.092 250.438 451.151L250.602 450.878C251.258 449.976 251.914 450.168 252.433 451.041C252.56 451.193 252.653 451.37 252.706 451.56C252.706 452.134 252.706 452.707 252.87 453.308C253.362 457.104 254.727 460.736 254.864 464.531C254.824 465.745 254.555 466.94 254.072 468.054C253.381 470.632 253.315 473.338 253.881 475.946C254.244 477.764 254.131 479.646 253.553 481.408C253.103 483.046 252.783 484.716 252.597 486.405C252.05 491.368 252.591 496.39 254.181 501.124C254.769 502.473 255.502 503.755 256.367 504.947C257.323 506.585 257.022 507.459 255.274 507.923Z" fill="#353264"></path><path d="M143.756 626.493C144.035 626.84 144.291 627.205 144.521 627.586C146.378 630.835 152.252 633.894 149.301 637.143C146.761 639.874 142.362 635.123 139.084 633.238C132.008 629.142 125.861 623.653 118.294 620.267C111.191 617.072 116.026 611.611 116.491 607.05C118.294 605.439 119.988 606.559 121.135 607.733C128.142 614.603 135.708 620.878 143.756 626.493Z" fill="#353264"></path><path d="M139.548 620.813C134.576 613.113 127.637 606.204 129.468 595.745C128.607 595.402 127.776 594.991 126.981 594.516C125.116 593.356 123.478 591.866 122.146 590.12L116.491 607.05C118.922 606.859 119.769 608.962 121.053 610.327C127.555 617.209 134.522 623.435 143.756 626.493C143.4 623.845 140.832 622.807 139.548 620.813Z" fill="#D7976C"></path><path d="M55.9779 593.724L57.8902 591.894C53.9562 589.737 52.8361 583.347 46.7165 584.494C46.7165 584.494 35.7887 591.458 34.2861 594.926C35.2524 595.655 36.0451 596.589 36.6072 597.661C37.1694 598.732 37.4869 599.915 37.5372 601.124C38.7392 608.58 48.465 618.711 55.9779 620.24C54.1748 613.413 49.5578 607.542 49.2572 600.196C50.35 599.459 55.2949 594.434 55.9779 593.724Z" fill="#D7976C"></path><path d="M56.3878 615.543C56.579 615.953 56.8249 616.335 56.9888 616.745C58.3548 620.213 63.7094 624.118 60.2945 626.903C57.3713 629.306 53.7378 623.872 50.7599 621.442C44.3945 616.362 39.1218 610.027 32.128 605.548C25.5713 601.343 31.1718 596.646 32.2919 592.195C34.3136 590.884 35.8162 592.195 36.7723 593.56C42.6909 601.418 49.2519 608.771 56.3878 615.543Z" fill="#353264"></path><path d="M37.0454 581.272C42.7667 573.085 49.5981 565.733 57.3438 559.426C72.2057 547.574 83.434 533.429 87.1768 514.341C88.5974 506.94 89.5809 499.431 90.7283 491.976C92.586 479.824 94.3072 467.617 101.957 457.35C102.913 454.946 105.071 454.619 107.229 454.619C113.813 454.619 120.37 453.8 126.927 453.417C133.483 453.035 140.914 451.724 147.853 453.608C152.307 453.008 154.82 454.209 155.093 459.425C155.585 468.628 157.169 477.748 157.47 486.951C158.781 526.766 150.285 565.078 139.903 603.145C131.489 600.415 122.747 598.667 114.141 596.482C114.178 594.399 114.407 592.324 114.824 590.283C120.066 566.454 122.233 542.052 121.272 517.672C121.406 513.915 121.817 510.173 122.501 506.476C120.301 523.967 113.123 540.459 101.82 553.991C88.1143 570.654 72.1839 585.355 54.4753 597.684C48.7109 592.359 43.7114 585.668 37.0454 581.272Z" fill="#C26346"></path><path d="M155.093 453.854L156.678 464.504L96.4106 462.729L99.7983 455.165C99.7983 455.165 121.818 436.459 155.093 453.854Z" fill="#353264"></path><path d="M160.065 329.495C163.48 324.497 168.835 328.075 173.042 326.573C172.529 315.268 173.17 303.941 174.955 292.766C175.686 290.003 175.639 287.092 174.818 284.355C173.834 281.761 171.54 278.648 169.354 278.894C167.77 279.085 166.622 281.051 166.021 282.744C161.787 292.93 164.956 304.126 163.098 317.37C162.528 321.509 161.511 325.574 160.065 329.495Z" fill="#D7976C"></path><path d="M75.1835 468.109C73.4016 467.804 71.6781 467.223 70.0748 466.388C68.2202 465.407 66.5624 464.093 65.1846 462.511C58.7645 467.208 53.8469 473.761 46.6892 477.639C44.9954 478.568 43.0011 480.179 45.4598 482.664C45.6961 482.937 45.872 483.257 45.976 483.603C46.0801 483.949 46.1098 484.313 46.0634 484.672C46.017 485.03 45.8954 485.374 45.7067 485.682C45.5179 485.99 45.2663 486.255 44.9681 486.459C44.3807 486.961 43.9155 487.59 43.6077 488.298C43.2999 489.006 43.1578 489.775 43.192 490.547C43.2262 491.318 43.436 492.072 43.8053 492.75C44.1746 493.428 44.6937 494.013 45.3232 494.461C48.4104 495.416 52.7815 497.819 55.6774 492.713C59.1469 486.623 63.4634 480.998 67.0423 474.963C67.9334 473.577 69.0191 472.326 70.266 471.249C71.7348 469.957 73.3933 468.898 75.1835 468.109Z" fill="#D7976C"></path><path d="M67.5888 455.301C75.5661 441.402 84.1717 427.803 89.8269 412.701C90.8923 409.971 91.6846 406.967 92.5588 404.099C91.8353 396.531 94.111 388.981 98.897 383.073C103.255 378.167 109.068 374.782 115.486 373.412C121.905 372.041 128.593 372.757 134.576 375.454C134.673 374.851 134.848 374.264 135.095 373.706C135.652 372.522 136.521 371.512 137.609 370.784C150.613 361.936 154.711 348.255 157.689 333.973C158.028 331.144 158.959 328.418 160.421 325.972L160.83 324.552H175.118C174.644 334.58 173.466 344.563 171.594 354.427C170.035 362.526 168.02 370.531 165.557 378.403C164.028 380.787 162.729 383.31 161.677 385.94C161.677 385.94 159.355 390.937 157.634 395.935C152.88 409.588 165.83 450.96 155.093 459.425C149.629 463.767 143.892 454.728 125.042 456.093C110.262 457.131 100.809 463.576 96.4109 459.07C94.0068 456.64 94.3892 452.352 95.0722 449.157C91.7666 451.888 88.297 454.81 84.7454 458.196C81.1939 461.582 78.0521 464.941 75.2656 468.109C74.5359 468.515 73.7228 468.748 72.8888 468.791C69.9382 468.928 66.9604 466.416 65.2666 462.511C65.3734 459.942 66.176 457.45 67.5888 455.301Z" fill="#515182"></path><path d="M135.232 348.528C131.407 337.605 125.397 332.744 116.108 333.127C107.912 333.454 101.793 338.998 98.7877 349.32C95.4445 360.496 95.8183 372.455 99.8531 383.4C101.738 388.589 103.978 393.586 100.891 399.048C99.7439 403.253 98.897 407.376 104.006 409.807C104.443 410.025 104.388 410.162 104.006 411.664C102.121 418.463 102.749 424.608 108.595 429.414C119.113 437.606 138.893 431.216 147.334 420.757C155.776 410.298 154.793 393.449 145.231 383.1C143.783 381.543 142.198 380.151 140.696 378.649C138.407 377.38 136.636 375.348 135.692 372.908C134.749 370.467 134.692 367.773 135.532 365.295C136.991 359.787 136.887 353.981 135.232 348.528Z" fill="#FE7146"></path><path d="M128.402 593.833C129.331 593.833 129.577 593.123 129.85 592.523C131.586 588.957 132.757 585.143 133.319 581.217C134.166 574.172 135.696 567.263 136.98 560.3C137.409 558.08 137.701 555.837 137.855 553.582C138.262 549.264 138.946 544.977 139.903 540.747C141.297 532.855 142.635 524.991 144.083 517.099C144.138 516.344 144.138 515.587 144.083 514.832C144.275 510.381 144.083 505.903 144.766 501.533C145.53 496.39 145.886 491.195 145.832 485.995C145.845 485.137 146.188 484.316 146.788 483.701C148.12 482.145 149.007 480.258 149.356 478.24C149.991 475.769 150.303 473.227 150.285 470.676C150.332 470.341 150.273 470.001 150.116 469.702C149.959 469.403 149.713 469.161 149.411 469.01C149.028 473.325 149.056 477.612 146.679 481.353C145.941 477.339 146.679 473.161 145.914 469.146C144.739 469.693 145.149 470.512 145.149 471.14C145.34 478.731 144.657 486.268 144.493 493.833C144.493 497.847 143.428 501.861 143.209 505.903C143.209 507.514 142.963 509.125 142.936 510.709C142.691 517.883 141.702 525.012 139.985 531.981C139.275 535.204 139.193 538.508 138.374 541.703C137.01 547.78 136.024 553.936 135.423 560.136C135.123 562.866 134.303 565.597 133.839 568.192C133.046 572.643 132.281 577.094 131.598 581.572C131.091 584.552 130.248 587.466 129.085 590.256C128.757 591.294 127.91 592.577 128.402 593.833Z" fill="#C6ADAB"></path><path d="M141.898 482.664C141.898 476.52 142.144 476.52 137.445 476.52C134.996 476.383 132.541 476.521 130.123 476.929C128.976 477.202 128.293 477.694 128.183 478.95C127.746 484.411 126.462 489.873 127.664 495.335C127.801 495.881 127.937 496.427 128.129 496.973C128.271 497.721 128.592 498.423 129.064 499.02C129.536 499.617 130.145 500.091 130.84 500.402C131.535 500.713 132.294 500.852 133.054 500.806C133.814 500.761 134.552 500.532 135.204 500.141C136.463 499.677 137.577 498.89 138.436 497.859C139.294 496.829 139.866 495.591 140.095 494.27C140.991 490.453 141.594 486.573 141.898 482.664Z" fill="#C6ADAA"></path><path d="M102.066 486.678C102.066 488.835 102.066 491.129 102.066 493.368C102.019 493.673 102.038 493.985 102.122 494.282C102.205 494.579 102.352 494.854 102.551 495.09C102.751 495.325 102.998 495.515 103.277 495.647C103.557 495.779 103.861 495.849 104.169 495.853C106.309 496.335 108.552 496.018 110.474 494.962C112.396 493.905 113.866 492.183 114.605 490.119C115.582 487.486 116.18 484.727 116.381 481.926C116.381 480.807 116.791 479.715 116.873 478.595C117.037 476.137 116.108 475.018 113.677 474.908C111.245 474.799 108.404 474.908 105.754 474.908C103.678 474.908 103.213 475.427 102.639 477.448C102.117 480.495 101.925 483.59 102.066 486.678Z" fill="#C5ACA8"></path><path d="M120.889 514.095C120.889 514.095 120.889 505.575 120.889 502.162C121.026 496.318 119.523 490.474 120.151 484.63C120.698 479.66 122.637 468.846 122.637 468.846C121.552 470.266 120.704 471.852 120.124 473.543C118.938 480.055 118.416 486.67 118.567 493.287C119.148 496.75 119.376 500.263 119.25 503.773C119.367 507.268 119.918 510.735 120.889 514.095Z" fill="#C5ADAA"></path><path d="M122.173 356.775C122.878 361.117 122.776 365.551 121.872 369.856C121.279 372.073 121.427 374.424 122.295 376.549C123.163 378.674 124.704 380.457 126.681 381.625C128.702 382.963 130.724 384.356 132.773 385.721C134.908 386.958 136.719 388.686 138.054 390.761C139.388 392.836 140.21 395.199 140.45 397.655C140.468 398.031 140.514 398.405 140.586 398.774C140.586 398.774 140.586 398.774 140.996 399.184C141.279 397.45 141.181 395.675 140.709 393.982C140.237 392.289 139.403 390.719 138.264 389.381C136.368 387.156 134.138 385.24 131.653 383.701C129.524 382.407 127.52 380.917 125.67 379.249C124.352 378.013 123.414 376.425 122.969 374.674C122.524 372.922 122.589 371.08 123.157 369.364C124.265 365.178 123.918 360.739 122.173 356.775Z" fill="#C8AFAD"></path><path d="M111.3 410.571C110.768 414.386 110.953 418.267 111.846 422.013C112.107 423.39 112.682 424.687 113.527 425.805C114.371 426.923 115.463 427.83 116.717 428.457C117.97 429.083 119.351 429.412 120.753 429.417C122.154 429.422 123.538 429.103 124.796 428.485C126.162 427.857 127.528 427.256 128.894 426.574C129.467 426.301 129.44 426.219 129.686 424.717C127.706 426.455 125.287 427.617 122.692 428.076C121.507 428.334 120.279 428.327 119.097 428.054C117.915 427.781 116.808 427.249 115.857 426.497C114.906 425.744 114.133 424.79 113.596 423.703C113.058 422.616 112.768 421.423 112.748 420.211C112.566 416.96 112.081 413.733 111.3 410.571Z" fill="#CAB1AD"></path><path d="M118.266 346.426C120.56 347.144 122.597 348.511 124.129 350.363C125.661 352.214 126.623 354.47 126.899 356.857C127.471 361.158 127.184 365.53 126.052 369.719C125.452 371.384 125.531 373.218 126.271 374.826C127.227 368.135 129.167 361.499 127.473 354.618C126.664 351.582 124.866 348.901 122.364 346.999C121.82 346.498 121.137 346.175 120.405 346.072C119.672 345.97 118.926 346.093 118.266 346.426Z" fill="#CAB3AF"></path><path d="M112.174 387.906C112.029 388.38 112.016 388.885 112.136 389.366C112.257 389.847 112.506 390.286 112.857 390.637C116.685 396.845 119.101 403.818 119.933 411.063C120.074 412.974 120.921 414.765 122.309 416.088C122.883 416.579 123.43 417.18 124.468 416.443C123.466 415.91 122.62 415.127 122.012 414.17C121.404 413.212 121.054 412.114 120.998 410.981C120.698 408.933 120.233 406.912 119.851 404.864C118.658 398.688 116.028 392.878 112.174 387.906Z" fill="#CAB3B0"></path><path d="M135.259 478.295C133.948 478.295 132.527 478.295 131.325 478.295C130.123 478.295 129.495 479.032 129.44 480.261C129.385 481.489 129.74 481.653 130.724 481.599C133.543 481.676 136.365 481.548 139.166 481.216C140.095 481.025 140.778 480.943 140.778 479.769C140.778 478.595 139.985 478.267 138.947 478.267L135.259 478.295Z" fill="#FAF9F9"></path><path d="M108.869 479.988C110.623 479.98 112.372 479.788 114.087 479.414C114.77 479.414 115.48 479.168 115.48 478.349C115.48 477.53 115.179 476.656 114.087 476.547C113.54 476.547 112.967 476.547 112.42 476.547C110.591 476.642 108.757 476.523 106.956 476.192C106.543 476.06 106.102 476.04 105.678 476.134C105.254 476.228 104.863 476.432 104.544 476.726C104.225 477.02 103.989 477.394 103.861 477.808C103.733 478.223 103.717 478.664 103.814 479.086C103.978 480.151 104.907 479.933 105.59 479.988C106.273 480.042 107.339 479.988 108.869 479.988Z" fill="#FCFCFC"></path><path d="M138.701 378.785C138.758 379.24 138.915 379.677 139.161 380.064C139.407 380.451 139.735 380.779 140.122 381.024C145.606 386.07 150.376 391.839 154.301 398.174C155.245 400.007 155.626 402.078 155.393 404.127C155.393 404.919 155.749 405.738 156.677 405.711C155.803 403.198 156.541 400.249 155.066 397.846C153.59 395.443 152.88 394.269 151.623 392.166C148.256 386.886 143.862 382.335 138.701 378.785Z" fill="#F0E7E3"></path><path d="M120.643 344.214C121.348 344.78 122.202 345.131 123.102 345.224C131.789 346.808 136.106 349.675 136.324 358.878C136.018 361.076 136.205 363.315 136.871 365.432C137.253 366.196 137.69 366.196 138.237 365.677C136.215 364.039 137.007 360.789 136.898 358.468C137.055 356.028 136.663 353.583 135.751 351.314C132.636 345.634 126.626 345.006 120.643 344.214Z" fill="#F0E7E3"></path><path d="M107.748 413.93C107.011 414.531 106.929 415.596 106.683 416.442C104.525 424.334 106.109 431.544 113.813 435.339C115.753 436.135 117.895 436.298 119.933 435.804C120.315 435.769 120.668 435.587 120.918 435.296C121.167 435.006 121.294 434.63 121.272 434.247C119.123 435.212 116.682 435.3 114.469 434.493C112.311 433.592 111.218 433.51 109.797 431.243C105.973 425.236 107.202 420.812 107.748 413.93Z" fill="#F0E7E3"></path><path d="M105.836 347.846C106.031 347.502 106.204 347.146 106.355 346.781C108.107 347.942 109.463 349.61 110.244 351.561C111.025 353.512 111.193 355.655 110.726 357.704C110.289 360.107 109.934 362.537 109.497 364.94C108.936 367.316 108.943 369.79 109.518 372.162C110.092 374.534 111.217 376.738 112.802 378.594C113.054 378.873 113.291 379.165 113.513 379.468C113.513 379.468 113.513 379.632 113.513 380.041C112.099 379.042 110.915 377.753 110.038 376.261C109.162 374.768 108.614 373.106 108.431 371.385C108.135 368.475 108.292 365.536 108.896 362.674C109.401 360.275 109.675 357.833 109.715 355.382C109.759 353.901 109.426 352.432 108.748 351.114C108.069 349.796 107.067 348.671 105.836 347.846Z" fill="#C8AFAD"></path><path d="M175.118 324.552C174.736 322.094 174.326 319.637 173.916 317.206L163.125 317.397L160.803 324.552C162.36 325.58 164.122 326.26 165.966 326.546C169.157 326.98 172.398 326.274 175.118 324.552Z" fill="#353264"></path><path d="M66.6868 456.94L63.1079 463.794L70.8667 471.276L77.7512 466.771C77.1199 465.34 76.3023 464 75.3197 462.784C73.0655 460.045 70.0676 458.016 66.6868 456.94Z" fill="#353264"></path><path d="M101.246 415.459C102.479 421.211 102.56 427.15 101.486 432.933C100.413 438.716 98.2049 444.23 94.9902 449.157" fill="#353264"></path><path d="M169.627 363.52C169.627 363.52 160.175 360.789 162.77 359.124C163.509 358.627 164.379 358.362 165.27 358.362C166.16 358.362 167.031 358.627 167.769 359.124C167.769 359.124 159.574 353.662 162.306 353.334C165.038 353.007 170.775 358.441 170.775 358.441L169.627 363.52Z" fill="#353264"></path><path d="M491.26 260.106C493.992 258.018 497.304 256.825 500.74 256.692C501.801 256.648 502.864 256.721 503.909 256.911C504.492 253.122 504.222 249.25 503.117 245.578C500.986 238.779 495.495 231.706 492.38 232.634C489.867 233.344 489.484 239.024 489.184 243.339C488.811 249.009 489.515 254.698 491.26 260.106Z" fill="#684832"></path><path d="M578.764 314.339L517.022 291.291L505.739 253.224L489.184 258.495C488.036 262.973 482.08 287.823 496.86 310.079C511.64 332.335 540.572 342.63 569.367 335.776C572.508 328.621 575.65 321.494 578.764 314.339Z" fill="#C26346"></path><path d="M610.264 312.837C601.959 309.261 592.652 308.758 584.01 311.417C581.729 311.431 579.461 311.743 577.262 312.346C574.627 313.006 572.043 313.855 569.53 314.885C564.34 317.397 565.159 327.146 562.4 336.977C558.766 349.894 553.357 347.354 550.789 357.949C546.937 373.815 556.554 390.2 561.526 398.665C562.427 400.167 563.903 402.079 565.569 404.564C568.738 409.261 576.196 416.606 583.518 417.863C587.862 418.627 599.5 416.115 600.401 415.733C603.746 414.497 606.922 412.845 609.854 410.817C615.195 407.137 619.701 402.373 623.077 396.836C627.947 386.448 630.581 375.154 630.808 363.684C631.081 344.869 624.77 319.282 610.264 312.837Z" fill="#FE7146"></path><path d="M589.064 327.256C581.474 342.927 575.312 359.25 570.651 376.027C572.973 378.949 575.295 381.871 577.727 384.738C581.906 382.554 585.922 380.178 590.075 377.829C590.075 360.571 590.567 343.313 590.43 325.945L589.064 327.256Z" fill="#353264"></path><path d="M584.01 311.308C584.01 312.127 584.42 318.817 588.081 320.237C590.621 321.221 593.545 319.2 598.735 315.65C601.176 314.021 603.478 312.194 605.62 310.188C605.837 308.921 606.176 307.677 606.631 306.474C607.363 304.594 608.346 302.821 609.554 301.204C610.152 300.068 610.646 298.88 611.029 297.654C611.137 297.241 611.219 296.821 611.275 296.398C611.275 294.268 613.051 292.384 612.067 290.144C611.275 289.161 609.882 289.052 609.035 288.124C609.035 287.96 608.871 287.796 608.898 287.687C610.701 276.764 609.117 274.388 598.162 271.794C596.06 270.898 593.828 270.344 591.55 270.155C590.751 273.077 589.643 275.906 588.245 278.593C584.475 285.884 581.224 287.004 581.005 291.646C580.901 293.418 581.184 295.19 581.835 296.841C582.486 298.492 583.489 299.981 584.775 301.204C585.795 302.183 586.923 303.044 588.135 303.771C588.433 303.854 588.71 303.998 588.95 304.192C589.19 304.387 589.388 304.628 589.531 304.902C589.674 305.176 589.76 305.476 589.783 305.784C589.806 306.092 589.766 306.401 589.665 306.693C599.555 306.884 602.451 305.874 605.675 301.832C604.65 303.858 603.103 305.574 601.194 306.802C597.315 309.232 593.545 306.966 587.89 309.232C586.514 309.758 585.211 310.455 584.01 311.308Z" fill="#684832"></path><path d="M591.55 270.182C594.036 272.531 597.342 272.722 600.374 273.678C608.898 276.409 610.073 278.566 607.313 286.977C606.63 289.052 606.63 289.052 608.652 288.779C610.182 288.779 611.958 286.922 613.215 288.779C614.471 290.636 613.214 292.029 612.368 293.476C611.87 294.9 611.121 296.223 610.155 297.381C609.554 298.582 608.516 299.702 609.554 301.149C611.111 300.33 612.668 299.429 614.253 298.637C621.738 294.978 624.552 288.533 624.634 280.696C624.716 272.859 620.509 268.517 613.706 265.868C609.995 264.474 606.528 262.502 603.434 260.024C599.883 257.129 594.555 258.085 590.758 262.236C588.463 264.885 589.61 267.616 591.55 270.182Z" fill="#2D0E2D"></path><path d="M584.01 311.308C587.305 311.344 590.597 311.079 593.845 310.516C595.864 310.331 597.84 309.814 599.691 308.987C603.271 306.847 605.921 303.448 607.122 299.456C605.393 301.876 602.901 303.646 600.046 304.481C596.598 305.13 593.074 305.277 589.583 304.918C589.277 305.821 588.845 306.676 588.299 307.457C587.198 309.065 585.727 310.386 584.01 311.308Z" fill="#60422D"></path><path d="M610.155 297.463C612.887 296.644 613.679 294.241 614.499 292.001C615.127 290.254 615.537 288.233 613.57 287.086C611.603 285.939 609.772 286.813 608.652 288.861C609.39 289.516 609.745 290.964 611.22 290.144C613.051 289.789 612.559 290.909 612.422 291.919C612.149 293.667 610.319 294.65 610.483 296.644L610.155 297.463Z" fill="#684832"></path><path d="M610.483 296.562C611.712 294.705 613.515 293.121 613.624 290.69C613.624 289.544 613.187 288.506 611.903 288.479C610.619 288.451 610.92 289.298 611.22 290.062C612.559 292.411 609.035 294.213 610.483 296.562Z" fill="#60422D"></path><path d="M584.01 554.893H570.213C570.951 554.019 571.743 553.172 572.536 552.353C576.115 551.937 579.738 552.085 583.272 552.79C583.545 553.555 583.819 554.346 584.01 554.893Z" fill="#353264"></path><path d="M585.349 567.427C584.183 568.87 582.695 570.02 581.005 570.786C570.106 574.822 558.655 577.17 547.047 577.749C546.391 576.957 545.162 576.193 544.67 575.373C543.304 573.271 543.276 572.151 545.845 571.168C552.235 568.95 558.307 565.902 563.903 562.102C564.528 561.581 565.096 560.995 565.597 560.354C567.154 558.579 568.629 556.722 570.186 554.893H583.983C585.345 558.922 585.811 563.199 585.349 567.427Z" fill="#353264"></path><path d="M585.922 571.905L585.512 572.779C585.253 573.376 584.837 573.892 584.308 574.272C583.779 574.652 583.156 574.882 582.507 574.936C579.994 575.291 577.535 575.728 575.076 576.193C571.388 576.93 567.755 577.722 564.149 578.295C559.143 579.024 554.054 578.96 549.068 578.104C548.412 578.104 547.811 577.913 547.183 577.776C547.658 577.449 548.172 577.183 548.713 576.984C550.047 576.477 551.467 576.236 552.893 576.274C558.798 576.216 564.638 575.039 570.104 572.806L571.334 572.342C575.923 570.485 580.841 569.611 585.376 567.454C585.376 567.809 585.376 568.191 585.376 568.601C585.413 569.722 585.597 570.832 585.922 571.905Z" fill="#353264"></path><path d="M615.373 554.838C611.193 555.166 606.931 554.838 602.751 554.838C603.543 554.019 604.308 553.2 605.128 552.462C608.337 552.096 611.582 552.17 614.772 552.681L615.373 554.838Z" fill="#353264"></path><path d="M618.76 567.645C618.76 568.574 616.301 569.666 614.526 570.212L606.33 572.779C597.113 575.864 587.585 577.925 577.917 578.924C577.152 578.132 575.814 577.422 575.185 576.575L575.022 576.302C574.011 574.609 573.874 573.708 575.295 572.888L575.978 572.561L576.551 572.342H576.77C578.846 571.578 580.895 570.758 582.89 569.857C583.71 569.547 584.513 569.191 585.294 568.792C589.05 567.007 592.626 564.867 595.976 562.402C596.635 561.861 597.231 561.248 597.751 560.573C599.363 558.743 600.948 556.804 602.642 555.111C606.822 555.111 611.083 555.466 615.263 555.111L618.569 567.727C618.625 567.684 618.691 567.656 618.76 567.645Z" fill="#353264"></path><path d="M619.225 572.779C618.912 573.294 618.47 573.718 617.943 574.01C617.416 574.302 616.822 574.452 616.22 574.445C609.547 575.294 602.939 576.59 596.44 578.323C590.348 579.619 584.07 579.785 577.917 578.814C579.84 577.718 582.015 577.143 584.228 577.148C590.235 576.685 596.119 575.208 601.631 572.779L604.172 571.741C608.898 569.721 613.897 569.011 618.678 567.454C619.233 568.408 619.525 569.491 619.525 570.594C619.609 571.336 619.505 572.087 619.225 572.779Z" fill="#353264"></path><path d="M593.872 535.914C593.872 538.918 593.763 541.921 593.545 544.925C593.381 548.23 593.107 551.534 592.752 554.838H584.065C583.873 554.183 583.6 553.5 583.327 552.817C579.793 552.112 576.17 551.965 572.59 552.38C571.798 553.2 571.006 554.046 570.268 554.92H569.394C569.088 554.921 568.785 554.967 568.492 555.056C568.492 551.643 568.301 548.257 568.247 544.871C568.192 541.485 568.247 538.863 568.247 535.859C568.11 529.879 568.001 523.898 567.837 517.945C567.837 514.586 567.837 511.282 567.618 507.951C567.618 506.258 567.618 504.537 567.345 502.817C567.072 501.096 567.345 500.25 567.099 498.939C567.099 498.202 567.099 497.464 566.908 496.673C565.651 488.071 564.176 479.523 563.001 471.031C562.564 468.027 562.182 465.023 561.799 462.019C560.515 452.783 559.721 443.485 559.422 434.165C559.422 431.161 559.422 428.158 559.422 425.099C559.422 421.276 559.723 417.371 560.133 413.493C560.433 410.435 560.843 407.322 561.062 404.181C561.244 402.111 561.317 400.033 561.28 397.955V397.655H561.881H580.841L581.852 397.846C583.682 398.228 585.513 398.529 587.316 398.747C588.245 398.884 589.201 398.966 590.048 399.048C590.048 400.468 590.048 401.778 589.911 403.28C589.911 405.11 589.911 406.912 589.911 408.742C589.911 411.718 589.911 414.667 589.911 417.617C589.911 420.566 590.102 424.116 590.239 427.338C590.239 427.338 590.239 427.584 590.239 427.693C590.239 428.758 590.239 429.796 590.376 430.888L591.031 442.631C591.031 444.214 591.222 445.798 591.332 447.382V447.846C591.332 449.13 591.496 450.577 591.55 451.751C591.564 451.824 591.564 451.898 591.55 451.97C591.332 454.701 590.949 457.049 590.676 460.162C590.662 460.426 590.662 460.69 590.676 460.954C590.676 461.282 590.676 461.691 590.676 462.101C590.676 463.466 590.676 465.05 590.676 466.197C590.676 467.836 590.813 469.419 590.922 471.031C591.332 480.343 591.987 489.627 592.643 498.939C592.807 501.943 592.998 504.947 593.189 507.951C593.736 517.317 594.091 526.602 593.872 535.914Z" fill="#47447A"></path><path d="M600.702 499.13C600.319 499.031 599.924 498.985 599.528 498.994H596.304C596.304 496.946 596.304 494.843 596.113 492.795C595.867 487.333 595.402 481.872 594.801 476.629L600.702 499.13Z" fill="#47447A"></path><path d="M610.428 536.05C610.035 535.951 609.631 535.905 609.226 535.914H597.342C597.096 526.602 596.877 517.317 596.604 508.005H601.877C602.255 508.017 602.633 507.971 602.997 507.869L610.428 536.05Z" fill="#47447A"></path><path d="M614.69 552.653C611.5 552.143 608.256 552.069 605.046 552.435C604.227 553.172 603.462 553.992 602.669 554.811C601.822 554.811 600.976 554.811 600.156 554.811C599.883 554.811 599.664 554.811 599.528 554.674C598.327 553.038 597.702 551.05 597.752 549.022C597.752 547.656 597.752 546.291 597.615 544.98H611.521C611.897 544.965 612.272 544.919 612.641 544.844L614.69 552.653Z" fill="#47447A"></path><path d="M627.339 483.783C628.268 499.403 628.213 534.658 621.875 550.796L614.362 522.151C614.362 523.38 614.362 524.663 614.362 525.919C614.362 526.329 614.062 526.547 613.461 526.629C613.461 524.308 613.461 521.96 613.461 519.666C613.461 519.365 613.461 519.038 613.461 518.737L591.605 435.613C591.824 438.343 592.233 441.074 592.507 444.051C591.948 443.865 591.474 443.488 591.168 442.986C591.168 439.19 590.84 435.339 590.54 431.407C590.54 430.206 590.54 429.004 590.294 427.803C590.294 427.803 590.294 427.557 590.294 427.448C590.294 426.819 590.294 426.164 590.157 425.536C589.966 422.805 589.72 420.32 589.474 417.781C588.855 411.227 588.117 404.928 587.261 398.884C587.276 398.702 587.276 398.519 587.261 398.338C590.141 398.886 593.078 399.07 596.003 398.884C598.208 398.714 600.393 398.349 602.533 397.791H618.05C618.928 398.734 619.749 399.728 620.509 400.768C621.511 401.945 622.425 403.196 623.241 404.509C624.542 406.623 625.622 408.865 626.465 411.199C629.825 420.293 627.967 426.082 626.929 440.036C626.031 453.928 626.186 467.867 627.394 481.735C627.377 481.826 627.377 481.918 627.394 482.008C627.394 482.172 627.394 482.363 627.394 482.555C627.394 482.746 627.394 482.828 627.394 482.937C627.394 483.046 627.394 483.128 627.394 483.237C627.394 483.346 627.394 483.237 627.394 483.237C627.405 483.383 627.405 483.529 627.394 483.674V483.346C627.394 483.483 627.394 483.647 627.394 483.811L627.339 483.783Z" fill="#47447A"></path><path d="M624.661 422.723C623.842 423.679 622.94 422.587 622.23 422.013C620.175 420.529 618.45 418.633 617.166 416.447C615.883 414.261 615.067 411.833 614.772 409.315C614.772 408.605 614.635 407.813 614.58 407.076C614.531 406.156 614.249 405.264 613.761 404.482C612.75 403.089 610.564 403.826 608.925 403.663C602.696 403.089 596.386 403.444 589.938 403.389H589.364C589.501 405.246 589.692 407.076 589.829 408.851C590.158 411.625 590.34 414.414 590.375 417.207C590.362 417.362 590.362 417.517 590.375 417.671C590.375 421.986 591.523 426.164 591.386 430.533C591.359 432.239 591.441 433.945 591.632 435.64C591.851 438.371 592.26 441.101 592.534 444.078C591.975 443.892 591.501 443.515 591.195 443.013V442.794C590.963 442.145 590.834 441.463 590.812 440.774C590.379 438.182 590.124 435.563 590.047 432.936C590.047 430.806 590.321 428.567 587.917 427.12C586.96 426.546 587.07 424.99 586.96 423.87C586.769 421.904 586.496 419.993 586.223 418.026C585.95 416.06 585.622 413.657 585.376 411.445C585.13 409.233 585.021 407.431 584.939 405.383C584.857 403.335 584.939 403.226 583.245 403.389H582.753C580.431 403.635 578.082 403.772 575.759 403.908L572.891 404.072C570.76 404.072 570.787 404.345 570.733 406.53C570.733 407.786 570.733 408.96 570.487 410.189C570.167 413.987 569.138 417.692 567.454 421.112C566.006 424.089 565.023 424.553 561.389 424.526C561.389 423.843 561.581 423.597 561.854 423.597C564.832 423.324 565.924 421.167 566.771 418.818C568.023 415.521 568.742 412.046 568.902 408.523C568.97 407.842 568.97 407.156 568.902 406.475C568.902 405.055 568.41 404.427 566.853 404.509C566.462 404.536 566.07 404.536 565.678 404.509C564.113 404.583 562.544 404.463 561.007 404.154C560.689 404.195 560.368 404.195 560.051 404.154C559.802 404.097 559.563 404.005 559.34 403.881V396.945H622.995C622.995 397.273 622.995 397.6 622.995 397.955V404.809C622.786 404.835 622.575 404.835 622.366 404.809C620.682 404.593 618.983 404.502 617.285 404.536C616.711 404.536 616.165 404.536 615.591 404.728C615.591 405.164 615.591 405.601 615.782 406.038C616.766 411.773 618.514 416.961 623.487 420.703C624.115 421.003 625.618 421.713 624.661 422.723Z" fill="#353264"></path><path d="M614.444 522.151C614.444 523.38 614.444 524.663 614.444 525.919C614.444 526.329 614.143 526.547 613.542 526.629C613.542 524.308 613.542 521.96 613.542 519.666C613.542 519.365 613.542 519.038 613.542 518.737C613.761 514.177 613.542 509.644 613.542 505.083C613.346 499.566 613.438 494.043 613.815 488.535C614.239 481.163 614.13 473.771 613.488 466.416C613.205 462.31 613.305 458.187 613.788 454.1C613.952 452.707 613.788 451.369 613.788 449.867C613.788 449.157 613.542 448.338 614.307 447.601C615.1 472.423 614.69 497.328 614.444 522.151Z" fill="#353264"></path><path d="M588.081 319.5C590.102 319.746 593.545 320.374 595.757 320.647C593.299 324.443 590.676 328.157 588.081 331.898C586.633 327.72 585.349 323.706 583.737 319.446C585.485 319.5 586.059 319.227 588.081 319.5Z" fill="#353264"></path><path d="M605.62 310.216C601.44 313.875 594.555 315.677 590.375 319.364C592.261 322.313 594.228 326.955 596.113 329.904C601.303 324.443 606.521 319.309 611.657 313.957C609.226 310.816 609.472 310.052 605.62 310.216Z" fill="#FAF4F0"></path><path d="M590.376 319.5C587.999 321.767 583.874 324.634 581.469 326.901C580.65 322.559 579.803 318.217 578.956 313.902C580.213 311.335 581.497 310.161 584.147 310.27C585.622 313.411 588.873 316.087 590.376 319.5Z" fill="#FAF4F0"></path><path d="M517.05 291.482C517.05 291.482 511.968 298.828 513.252 299.675C514.536 300.521 515.984 297.545 515.984 297.545C515.984 297.545 514.318 309.587 516.148 307.321C517.979 305.054 517.651 299.484 517.651 299.484C517.651 299.484 517.487 303.88 518.99 304.071C520.492 304.262 518.99 292.602 518.99 292.602L517.05 291.482Z" fill="#D6CFCC"></path><path d="M613.515 518.846C613.515 519.147 613.515 519.474 613.515 519.775C613.378 522.069 613.515 524.417 613.515 526.738C614.116 526.738 614.417 526.438 614.417 526.028C614.417 524.772 614.417 523.489 614.417 522.26L613.515 518.846ZM619.525 570.731L619.826 571.823C619.744 571.414 619.635 571.031 619.525 570.731ZM619.525 570.731C619.361 569.636 619.251 568.533 619.197 567.427C619.03 567.498 618.856 567.552 618.678 567.591V567.782L619.525 570.731ZM556.417 572.916C556.041 572.929 555.666 572.975 555.297 573.052L553.931 567.918L547.866 544.925C548.255 544.995 548.647 545.04 549.041 545.062H597.697C597.56 542.058 597.451 539.054 597.342 536.05H546.691C546.313 536.04 545.936 536.086 545.571 536.187L538.195 507.923C538.587 508.024 538.992 508.07 539.397 508.06H596.631C596.631 505.056 596.468 502.052 596.331 499.048H536.966C536.588 499.04 536.21 499.086 535.846 499.185L528.797 472.287L529.098 471.113H592.178C592.55 471.167 592.927 471.167 593.299 471.113L594.801 476.793C594.145 471.331 593.38 466.061 592.424 460.736C591.96 458.005 591.823 455.083 591.577 452.298C591.591 452.225 591.591 452.151 591.577 452.079C591.577 450.796 591.441 449.348 591.359 448.174V447.737C591.359 446.263 591.359 444.788 591.195 443.231C591.501 443.733 591.975 444.111 592.534 444.296C592.26 441.429 591.851 438.644 591.632 435.858L590.512 431.626V431.243L587.07 418.217L585.349 411.664L583.218 403.471L581.797 398.01L581.551 396.918L578.273 384.52L573.574 366.606L565.515 336.731C565.53 336.678 565.53 336.621 565.515 336.567C565.317 335.975 565.002 335.428 564.589 334.958C564.176 334.489 563.674 334.108 563.11 333.837C562.412 333.438 561.62 333.23 560.816 333.236C560.246 333.189 559.676 333.322 559.186 333.616C558.696 333.91 558.31 334.35 558.084 334.874C557.4 335.42 556.904 336.164 556.663 337.004L556.499 337.632L552.346 353.334L550.106 361.909L543.222 388.097H507.706C507.328 388.085 506.95 388.131 506.586 388.234L492.926 336.54C492.596 335.538 491.959 334.665 491.107 334.043C490.254 333.421 489.228 333.082 488.173 333.072C487.603 333.025 487.033 333.158 486.543 333.452C486.053 333.746 485.668 334.186 485.441 334.711C484.757 335.256 484.261 336 484.02 336.841L407.061 629.907C406.937 630.338 406.922 630.792 407.015 631.23C407.109 631.669 407.309 632.077 407.598 632.42C407.887 632.763 408.255 633.029 408.672 633.196C409.088 633.362 409.539 633.424 409.984 633.375C411.036 633.364 412.058 633.023 412.906 632.401C413.754 631.779 414.385 630.906 414.711 629.907L427.332 581.955C427.703 582.011 428.081 582.011 428.452 581.955H491.014C491.404 582.006 491.799 582.006 492.189 581.955L479.567 629.907C479.444 630.338 479.428 630.792 479.521 631.23C479.615 631.669 479.815 632.077 480.104 632.42C480.393 632.763 480.762 633.029 481.178 633.196C481.594 633.362 482.045 633.424 482.49 633.375C483.542 633.364 484.564 633.023 485.412 632.401C486.26 631.779 486.891 630.906 487.217 629.907L524.89 486.814L547.019 570.731L548.686 576.984L548.85 577.667V578.131C553.835 578.987 558.924 579.052 563.93 578.323C567.618 577.749 571.252 576.957 574.858 576.22L575.022 576.493C575.568 577.34 576.907 578.05 577.754 578.841C583.906 579.812 590.184 579.646 596.276 578.35C602.775 576.617 609.383 575.322 616.056 574.472C616.658 574.479 617.252 574.329 617.779 574.037C618.306 573.745 618.748 573.321 619.061 572.806L556.417 572.916ZM590.594 462.292C590.33 462.265 590.065 462.265 589.802 462.292H531.474L538.796 434.438H582.507C582.871 434.468 583.236 434.468 583.6 434.438L590.703 461.364L591.004 462.565L590.594 462.292ZM571.47 388.561C571.087 388.461 570.692 388.415 570.295 388.425H550.789L552.756 381.052L561.116 349.238L571.47 388.561ZM548.44 397.436H572.672C573.049 397.421 573.423 397.376 573.792 397.3L573.956 397.901L575.568 404.017L578.846 416.47L581.196 425.427C580.808 425.354 580.415 425.309 580.021 425.29H541.173L548.44 397.436ZM539.561 397.737C539.952 397.76 540.344 397.76 540.736 397.737L533.414 425.427H517.487C517.11 425.44 516.735 425.486 516.367 425.563L509.072 397.873L539.561 397.737ZM488.61 349.211L499.019 388.725H479.349C478.959 388.673 478.564 388.673 478.174 388.725L488.61 349.211ZM475.879 397.6C476.252 397.63 476.626 397.63 476.999 397.6H501.396L508.717 425.454H469.65C469.25 425.429 468.848 425.429 468.448 425.454L475.879 397.6ZM466.153 434.52C466.522 434.596 466.897 434.642 467.273 434.657H510.985L518.334 462.511H460.034C459.639 462.526 459.247 462.572 458.859 462.647L466.153 434.52ZM494.484 573.216C494.111 573.186 493.736 573.186 493.364 573.216H430.802C430.411 573.192 430.018 573.192 429.627 573.216L437.058 545.089C437.431 545.121 437.805 545.121 438.178 545.089H500.767C501.167 545.114 501.569 545.114 501.969 545.089L494.484 573.216ZM504.209 536.323C503.843 536.234 503.467 536.188 503.089 536.187H440.528C440.132 536.192 439.739 536.237 439.353 536.323L446.784 508.169C447.156 508.201 447.531 508.201 447.904 508.169H510.411C510.802 508.199 511.195 508.199 511.586 508.169L504.209 536.323ZM513.935 499.431C513.564 499.379 513.187 499.379 512.815 499.431H450.253C449.864 499.374 449.468 499.374 449.079 499.431L456.482 471.249C456.838 471.348 457.206 471.394 457.575 471.386H520.137H520.82L521.066 472.287L513.935 499.431ZM518.825 434.52H529.753C530.147 434.502 530.54 434.456 530.928 434.384L524.781 457.65L518.825 434.52Z" fill="#005CFB"></path><path d="M624.88 387.606C617.916 397.975 607.64 405.676 595.73 409.452L588.518 393.422C592.851 388.053 596.648 382.272 599.855 376.164C606.248 364.148 604.39 356.639 610.127 336.704C613.788 323.924 615.591 317.589 617.831 317.589C624.579 317.124 643.785 358.113 624.88 387.606Z" fill="#C26346"></path><path d="M591.277 399.484C591.277 399.484 573.137 401.423 575.678 404.482C578.218 407.54 576.688 416.388 579.666 416.115C582.644 415.842 595.73 409.397 595.73 409.397L591.277 399.484Z" fill="#684832"></path><ellipse style="mix-blend-mode:multiply" opacity="0.1" cx="337" cy="607" rx="334" ry="52" fill="url(#paint0_linear_1066_15269)"></ellipse><defs><linearGradient id="paint0_linear_1066_15269" x1="85.8524" y1="640.581" x2="123.282" y2="458.237" gradientUnits="userSpaceOnUse"><stop stop-color="#F31E61"></stop><stop offset="1" stop-color="#7094FB"></stop></linearGradient></defs></svg>