<svg xmlns="http://www.w3.org/2000/svg" xmlns:xlink="http://www.w3.org/1999/xlink" width="500" viewBox="0 0 375 374.999991" height="500" preserveAspectRatio="xMidYMid meet"><defs><clipPath id="162a2f366b"><path d="M 39.511719 39.511719 L 335.761719 39.511719 L 335.761719 335.761719 L 39.511719 335.761719 Z M 39.511719 39.511719 " clip-rule="nonzero"></path></clipPath></defs><g clip-path="url(#162a2f366b)"><path fill="#5acbf2" d="M 323.992188 39.511719 L 271.246094 39.511719 C 264.917969 39.511719 259.757812 44.664062 259.757812 51 L 259.757812 259.765625 L 51 259.765625 C 44.664062 259.765625 39.511719 264.917969 39.511719 271.253906 L 39.511719 324 C 39.511719 330.328125 44.664062 335.480469 51 335.480469 L 324 335.480469 C 330.335938 335.480469 335.488281 330.328125 335.488281 323.992188 L 335.488281 51 C 335.480469 44.664062 330.328125 39.511719 323.992188 39.511719 Z M 328.113281 323.992188 C 328.113281 326.265625 326.265625 328.113281 323.992188 328.113281 L 51 328.113281 C 48.730469 328.113281 46.882812 326.265625 46.882812 323.992188 L 46.882812 271.246094 C 46.882812 268.976562 48.730469 267.125 51 267.125 L 75.789062 267.125 L 75.789062 290.335938 C 75.789062 292.371094 77.441406 294.023438 79.476562 294.023438 C 81.507812 294.023438 83.160156 292.371094 83.160156 290.335938 L 83.160156 267.125 L 112.570312 267.125 L 112.570312 306.328125 C 112.570312 308.359375 114.222656 310.011719 116.257812 310.011719 C 118.289062 310.011719 119.941406 308.359375 119.941406 306.328125 L 119.941406 267.125 L 149.46875 267.125 L 149.46875 290.335938 C 149.46875 292.371094 151.121094 294.023438 153.152344 294.023438 C 155.1875 294.023438 156.839844 292.371094 156.839844 290.335938 L 156.839844 267.125 L 186.398438 267.125 L 186.398438 306.328125 C 186.398438 308.359375 188.050781 310.011719 190.082031 310.011719 C 192.113281 310.011719 193.765625 308.359375 193.765625 306.328125 L 193.765625 267.125 L 223.15625 267.125 L 223.15625 290.335938 C 223.15625 292.371094 224.808594 294.023438 226.839844 294.023438 C 228.871094 294.023438 230.523438 292.371094 230.523438 290.335938 L 230.523438 267.125 L 259.765625 267.125 L 259.765625 306.328125 C 259.765625 308.359375 261.414062 310.011719 263.449219 310.011719 C 265.480469 310.011719 267.132812 308.359375 267.132812 306.328125 L 267.132812 267.125 L 306.332031 267.125 C 308.367188 267.125 310.015625 265.476562 310.015625 263.441406 C 310.015625 261.410156 308.367188 259.757812 306.332031 259.757812 L 267.132812 259.757812 L 267.132812 230.515625 L 290.183594 230.515625 C 292.214844 230.515625 293.867188 228.867188 293.867188 226.832031 C 293.867188 224.800781 292.214844 223.148438 290.183594 223.148438 L 267.132812 223.148438 L 267.132812 193.761719 L 306.332031 193.761719 C 308.367188 193.761719 310.015625 192.109375 310.015625 190.078125 C 310.015625 188.042969 308.367188 186.390625 306.332031 186.390625 L 267.132812 186.390625 L 267.132812 156.832031 L 290.183594 156.832031 C 292.214844 156.832031 293.867188 155.179688 293.867188 153.148438 C 293.867188 151.117188 292.214844 149.464844 290.183594 149.464844 L 267.132812 149.464844 L 267.132812 119.933594 L 306.332031 119.933594 C 308.367188 119.933594 310.015625 118.28125 310.015625 116.25 C 310.015625 114.21875 308.367188 112.566406 306.332031 112.566406 L 267.132812 112.566406 L 267.132812 83.152344 L 290.183594 83.152344 C 292.214844 83.152344 293.867188 81.5 293.867188 79.46875 C 293.867188 77.4375 292.214844 75.785156 290.183594 75.785156 L 267.132812 75.785156 L 267.132812 51 C 267.132812 48.730469 268.980469 46.882812 271.253906 46.882812 L 324 46.882812 C 326.269531 46.882812 328.121094 48.730469 328.121094 51 L 328.121094 323.992188 Z M 153.320312 249.375 C 206.289062 249.375 249.375 206.289062 249.375 153.320312 C 249.375 100.351562 206.289062 57.265625 153.320312 57.265625 C 100.359375 57.265625 57.265625 100.351562 57.265625 153.320312 C 57.265625 206.289062 100.359375 249.375 153.320312 249.375 Z M 153.320312 64.632812 C 202.222656 64.632812 242.007812 104.417969 242.007812 153.320312 C 242.007812 202.222656 202.222656 242.007812 153.320312 242.007812 C 104.417969 242.007812 64.632812 202.222656 64.632812 153.320312 C 64.632812 104.417969 104.417969 64.632812 153.320312 64.632812 Z M 153.320312 236.585938 C 199.230469 236.585938 236.578125 199.230469 236.578125 153.324219 C 236.578125 107.421875 199.230469 70.0625 153.320312 70.0625 C 107.40625 70.0625 70.0625 107.40625 70.0625 153.320312 C 70.0625 199.230469 107.40625 236.585938 153.320312 236.585938 Z M 153.320312 229.214844 C 112.707031 229.214844 79.445312 197.148438 77.515625 157.011719 L 112.75 157.011719 C 114.78125 157.011719 116.433594 155.359375 116.433594 153.324219 C 116.433594 132.988281 132.984375 116.441406 153.320312 116.441406 C 159.71875 116.441406 165.847656 118.050781 171.304688 121.121094 C 160.011719 128.039062 148.726562 135.21875 143.539062 139.601562 C 139.75 142.800781 137.582031 147.472656 137.582031 152.429688 C 137.582031 161.683594 145.109375 169.21875 154.371094 169.21875 C 159.765625 169.21875 164.863281 166.59375 168.015625 162.203125 C 173.0625 155.167969 179.367188 145.300781 185.542969 135.363281 C 188.601562 140.824219 190.207031 146.941406 190.207031 153.324219 C 190.207031 155.359375 191.855469 157.011719 193.890625 157.011719 L 229.125 157.011719 C 227.195312 197.148438 193.933594 229.214844 153.320312 229.214844 Z M 77.570312 148.726562 C 77.597656 148.359375 77.613281 147.988281 77.640625 147.621094 C 77.65625 147.339844 77.6875 147.0625 77.710938 146.78125 C 77.742188 146.429688 77.773438 146.082031 77.804688 145.738281 C 77.835938 145.441406 77.867188 145.152344 77.902344 144.859375 C 77.941406 144.527344 77.976562 144.195312 78.019531 143.863281 C 78.054688 143.5625 78.097656 143.269531 78.144531 142.972656 C 78.1875 142.648438 78.230469 142.328125 78.277344 142.003906 C 78.320312 141.703125 78.375 141.402344 78.425781 141.101562 C 78.472656 140.789062 78.53125 140.472656 78.578125 140.160156 C 78.632812 139.855469 78.6875 139.554688 78.75 139.246094 C 78.804688 138.9375 78.867188 138.632812 78.929688 138.332031 C 78.988281 138.023438 79.058594 137.71875 79.117188 137.417969 C 79.179688 137.117188 79.246094 136.820312 79.316406 136.519531 C 79.382812 136.210938 79.457031 135.90625 79.53125 135.597656 C 79.597656 135.304688 79.671875 135.015625 79.746094 134.726562 C 79.824219 134.417969 79.90625 134.105469 79.984375 133.800781 C 80.058594 133.515625 80.136719 133.226562 80.21875 132.945312 C 80.304688 132.632812 80.394531 132.324219 80.488281 132.011719 C 80.566406 131.734375 80.652344 131.460938 80.734375 131.183594 C 80.824219 130.871094 80.925781 130.5625 81.027344 130.25 C 81.113281 129.980469 81.207031 129.703125 81.292969 129.433594 C 81.398438 129.121094 81.5 128.8125 81.613281 128.507812 C 81.703125 128.242188 81.796875 127.976562 81.894531 127.714844 C 82.003906 127.402344 82.121094 127.09375 82.238281 126.78125 C 82.335938 126.523438 82.433594 126.265625 82.53125 126.007812 C 82.65625 125.699219 82.773438 125.386719 82.902344 125.078125 C 83.003906 124.828125 83.109375 124.570312 83.214844 124.320312 C 83.34375 124.011719 83.472656 123.703125 83.609375 123.398438 C 83.710938 123.152344 83.824219 122.898438 83.933594 122.65625 C 84.066406 122.347656 84.210938 122.039062 84.351562 121.734375 C 84.460938 121.492188 84.570312 121.253906 84.6875 121.015625 C 84.835938 120.707031 84.984375 120.394531 85.128906 120.085938 C 85.246094 119.855469 85.363281 119.621094 85.472656 119.394531 C 85.628906 119.085938 85.78125 118.78125 85.941406 118.472656 C 86.058594 118.246094 86.179688 118.019531 86.304688 117.792969 C 86.46875 117.484375 86.628906 117.175781 86.792969 116.875 C 86.917969 116.65625 87.039062 116.433594 87.164062 116.214844 C 87.335938 115.90625 87.507812 115.605469 87.683594 115.296875 C 87.808594 115.082031 87.9375 114.875 88.058594 114.660156 C 88.242188 114.351562 88.421875 114.046875 88.613281 113.746094 C 88.734375 113.542969 88.863281 113.339844 88.992188 113.136719 C 89.183594 112.828125 89.378906 112.523438 89.574219 112.222656 C 89.703125 112.027344 89.832031 111.835938 89.964844 111.636719 C 90.164062 111.332031 90.367188 111.023438 90.578125 110.722656 C 90.707031 110.539062 90.835938 110.355469 90.964844 110.171875 C 91.179688 109.863281 91.394531 109.558594 91.609375 109.25 C 91.730469 109.078125 91.859375 108.90625 91.984375 108.734375 C 92.210938 108.421875 92.4375 108.109375 92.671875 107.800781 C 92.792969 107.640625 92.917969 107.488281 93.03125 107.328125 C 93.273438 107.007812 93.519531 106.695312 93.765625 106.382812 C 93.875 106.242188 93.984375 106.105469 94.09375 105.972656 C 94.359375 105.640625 94.625 105.3125 94.894531 104.988281 C 94.980469 104.882812 95.066406 104.785156 95.152344 104.679688 C 95.453125 104.324219 95.746094 103.96875 96.054688 103.621094 C 96.085938 103.582031 96.117188 103.546875 96.144531 103.515625 C 96.484375 103.128906 96.820312 102.746094 97.164062 102.371094 L 119.578125 124.785156 C 113.789062 131.621094 110.042969 140.222656 109.257812 149.660156 L 77.523438 149.660156 C 77.523438 149.625 77.523438 149.582031 77.527344 149.542969 C 77.535156 149.253906 77.554688 148.992188 77.570312 148.726562 Z M 103.570312 96.058594 C 103.863281 95.800781 104.164062 95.550781 104.464844 95.292969 C 104.621094 95.15625 104.78125 95.027344 104.933594 94.894531 C 105.222656 94.652344 105.515625 94.414062 105.8125 94.179688 C 105.984375 94.039062 106.15625 93.898438 106.328125 93.765625 C 106.609375 93.535156 106.90625 93.316406 107.191406 93.09375 C 107.382812 92.953125 107.566406 92.804688 107.757812 92.664062 C 108.039062 92.449219 108.324219 92.242188 108.613281 92.039062 C 108.808594 91.890625 109.011719 91.742188 109.207031 91.601562 C 109.488281 91.398438 109.777344 91.203125 110.058594 91 C 110.269531 90.859375 110.472656 90.710938 110.679688 90.570312 C 110.964844 90.378906 111.25 90.191406 111.535156 90 C 111.75 89.859375 111.964844 89.71875 112.179688 89.574219 C 112.460938 89.390625 112.75 89.214844 113.039062 89.03125 C 113.257812 88.886719 113.488281 88.746094 113.707031 88.613281 C 113.992188 88.441406 114.277344 88.269531 114.566406 88.097656 C 114.800781 87.960938 115.027344 87.820312 115.261719 87.683594 C 115.542969 87.519531 115.832031 87.351562 116.121094 87.195312 C 116.359375 87.058594 116.59375 86.921875 116.832031 86.792969 C 117.121094 86.632812 117.410156 86.480469 117.699219 86.328125 C 117.945312 86.199219 118.183594 86.070312 118.429688 85.941406 C 118.71875 85.792969 119.007812 85.644531 119.296875 85.5 C 119.546875 85.375 119.792969 85.246094 120.042969 85.125 C 120.332031 84.984375 120.628906 84.839844 120.917969 84.707031 C 121.175781 84.582031 121.425781 84.46875 121.683594 84.34375 C 121.972656 84.210938 122.269531 84.082031 122.5625 83.945312 C 122.828125 83.828125 123.085938 83.710938 123.347656 83.601562 C 123.644531 83.480469 123.933594 83.351562 124.226562 83.226562 C 124.496094 83.117188 124.761719 83.003906 125.03125 82.894531 C 125.324219 82.777344 125.621094 82.660156 125.914062 82.546875 C 126.183594 82.441406 126.460938 82.335938 126.738281 82.230469 C 127.03125 82.121094 127.328125 82.011719 127.621094 81.90625 C 127.898438 81.808594 128.179688 81.710938 128.464844 81.613281 C 128.757812 81.507812 129.054688 81.410156 129.347656 81.3125 C 129.636719 81.210938 129.917969 81.121094 130.207031 81.027344 C 130.503906 80.9375 130.796875 80.839844 131.089844 80.753906 C 131.386719 80.660156 131.675781 80.574219 131.96875 80.488281 C 132.265625 80.402344 132.558594 80.316406 132.855469 80.230469 C 133.148438 80.144531 133.449219 80.070312 133.75 79.992188 C 134.046875 79.910156 134.339844 79.832031 134.640625 79.757812 C 134.941406 79.683594 135.25 79.609375 135.550781 79.535156 C 135.84375 79.460938 136.140625 79.394531 136.441406 79.328125 C 136.746094 79.261719 137.058594 79.191406 137.375 79.125 C 137.667969 79.0625 137.960938 78.996094 138.257812 78.941406 C 138.578125 78.878906 138.890625 78.816406 139.210938 78.757812 C 139.503906 78.703125 139.796875 78.644531 140.09375 78.589844 C 140.414062 78.535156 140.738281 78.480469 141.0625 78.429688 C 141.359375 78.382812 141.648438 78.332031 141.941406 78.289062 C 142.273438 78.242188 142.605469 78.199219 142.929688 78.148438 C 143.21875 78.113281 143.507812 78.070312 143.800781 78.03125 C 144.140625 77.988281 144.484375 77.953125 144.828125 77.914062 C 145.109375 77.882812 145.390625 77.847656 145.679688 77.824219 C 146.039062 77.785156 146.394531 77.753906 146.75 77.726562 C 147.027344 77.699219 147.296875 77.675781 147.574219 77.652344 C 147.945312 77.621094 148.328125 77.601562 148.707031 77.578125 C 148.964844 77.558594 149.21875 77.539062 149.476562 77.527344 C 149.53125 77.527344 149.582031 77.523438 149.636719 77.523438 L 149.636719 109.238281 C 140.199219 110.015625 131.59375 113.769531 124.761719 119.558594 L 102.347656 97.148438 C 102.617188 96.902344 102.886719 96.660156 103.164062 96.421875 C 103.300781 96.300781 103.433594 96.175781 103.570312 96.058594 Z M 157.929688 77.570312 C 158.3125 77.597656 158.6875 77.613281 159.066406 77.644531 C 159.34375 77.664062 159.613281 77.695312 159.890625 77.71875 C 160.246094 77.75 160.601562 77.78125 160.957031 77.816406 C 161.242188 77.847656 161.523438 77.878906 161.8125 77.910156 C 162.15625 77.945312 162.492188 77.984375 162.835938 78.027344 C 163.125 78.0625 163.421875 78.105469 163.710938 78.140625 C 164.042969 78.183594 164.371094 78.234375 164.699219 78.285156 C 164.992188 78.328125 165.28125 78.375 165.574219 78.425781 C 165.902344 78.480469 166.222656 78.53125 166.546875 78.585938 C 166.839844 78.632812 167.136719 78.695312 167.429688 78.75 C 167.75 78.8125 168.070312 78.867188 168.382812 78.933594 C 168.675781 78.996094 168.972656 79.058594 169.265625 79.117188 C 169.578125 79.1875 169.886719 79.253906 170.199219 79.320312 C 170.496094 79.390625 170.796875 79.460938 171.089844 79.53125 C 171.390625 79.605469 171.699219 79.675781 172 79.75 C 172.292969 79.824219 172.59375 79.90625 172.890625 79.984375 C 173.191406 80.066406 173.484375 80.144531 173.785156 80.222656 C 174.082031 80.308594 174.375 80.394531 174.671875 80.480469 C 174.964844 80.566406 175.253906 80.652344 175.546875 80.746094 C 175.84375 80.839844 176.136719 80.929688 176.433594 81.023438 C 176.722656 81.113281 177.007812 81.207031 177.292969 81.304688 C 177.585938 81.402344 177.882812 81.507812 178.175781 81.605469 C 178.457031 81.703125 178.734375 81.800781 179.015625 81.902344 C 179.3125 82.003906 179.605469 82.117188 179.902344 82.226562 C 180.179688 82.332031 180.449219 82.433594 180.722656 82.539062 C 181.019531 82.65625 181.3125 82.773438 181.609375 82.890625 C 181.878906 83 182.148438 83.109375 182.414062 83.21875 C 182.707031 83.34375 182.996094 83.464844 183.292969 83.59375 C 183.554688 83.710938 183.820312 83.824219 184.078125 83.9375 C 184.371094 84.066406 184.660156 84.203125 184.957031 84.339844 C 185.214844 84.453125 185.472656 84.578125 185.722656 84.699219 C 186.019531 84.839844 186.304688 84.976562 186.59375 85.117188 C 186.847656 85.242188 187.097656 85.363281 187.34375 85.492188 C 187.632812 85.640625 187.925781 85.789062 188.210938 85.933594 C 188.457031 86.0625 188.699219 86.191406 188.941406 86.320312 C 189.230469 86.476562 189.519531 86.628906 189.804688 86.789062 C 190.046875 86.917969 190.285156 87.050781 190.519531 87.1875 C 190.808594 87.347656 191.097656 87.511719 191.378906 87.679688 C 191.613281 87.8125 191.839844 87.949219 192.070312 88.089844 C 192.359375 88.261719 192.644531 88.433594 192.933594 88.605469 C 193.160156 88.742188 193.378906 88.882812 193.601562 89.023438 C 193.890625 89.203125 194.171875 89.386719 194.460938 89.570312 C 194.675781 89.710938 194.890625 89.851562 195.105469 89.992188 C 195.394531 90.183594 195.675781 90.375 195.960938 90.566406 C 196.167969 90.707031 196.375 90.851562 196.578125 90.996094 C 196.863281 91.191406 197.148438 91.394531 197.433594 91.597656 C 197.636719 91.738281 197.832031 91.886719 198.027344 92.03125 C 198.3125 92.242188 198.597656 92.449219 198.882812 92.660156 C 199.070312 92.800781 199.257812 92.945312 199.445312 93.089844 C 199.734375 93.308594 200.023438 93.53125 200.3125 93.757812 C 200.484375 93.894531 200.65625 94.035156 200.828125 94.175781 C 201.125 94.414062 201.417969 94.648438 201.707031 94.886719 C 201.867188 95.015625 202.019531 95.152344 202.171875 95.285156 C 202.472656 95.539062 202.773438 95.796875 203.070312 96.054688 C 203.203125 96.171875 203.339844 96.292969 203.46875 96.410156 C 203.738281 96.648438 204.015625 96.890625 204.285156 97.136719 L 191.167969 110.25 C 190.050781 110.183594 188.914062 110.449219 187.898438 111.054688 L 185.433594 112.535156 C 183.175781 113.898438 180.785156 115.335938 178.335938 116.820312 C 171.96875 112.4375 164.691406 109.832031 156.992188 109.207031 L 156.992188 77.523438 C 157.046875 77.523438 157.097656 77.527344 157.152344 77.527344 C 157.421875 77.539062 157.671875 77.558594 157.929688 77.570312 Z M 210.617188 103.601562 C 210.921875 103.949219 211.21875 104.308594 211.519531 104.664062 C 211.605469 104.765625 211.691406 104.867188 211.777344 104.96875 C 212.046875 105.296875 212.3125 105.628906 212.574219 105.953125 C 212.683594 106.09375 212.796875 106.230469 212.90625 106.363281 C 213.152344 106.675781 213.398438 106.996094 213.636719 107.308594 C 213.761719 107.46875 213.882812 107.621094 214 107.78125 C 214.234375 108.089844 214.460938 108.402344 214.6875 108.714844 C 214.808594 108.886719 214.9375 109.058594 215.0625 109.230469 C 215.277344 109.539062 215.492188 109.84375 215.707031 110.152344 C 215.835938 110.335938 215.964844 110.519531 216.09375 110.707031 C 216.300781 111.007812 216.503906 111.3125 216.707031 111.621094 C 216.835938 111.816406 216.964844 112.007812 217.09375 112.203125 C 217.289062 112.503906 217.480469 112.8125 217.675781 113.117188 C 217.808594 113.320312 217.9375 113.523438 218.058594 113.726562 C 218.242188 114.027344 218.425781 114.335938 218.609375 114.640625 C 218.738281 114.855469 218.863281 115.066406 218.984375 115.28125 C 219.164062 115.582031 219.335938 115.886719 219.507812 116.195312 C 219.628906 116.414062 219.753906 116.636719 219.875 116.859375 C 220.042969 117.160156 220.207031 117.464844 220.367188 117.773438 C 220.488281 118 220.605469 118.226562 220.730469 118.453125 C 220.890625 118.761719 221.042969 119.070312 221.195312 119.375 C 221.3125 119.609375 221.429688 119.84375 221.539062 120.074219 C 221.6875 120.382812 221.835938 120.691406 221.980469 120.996094 C 222.09375 121.234375 222.210938 121.476562 222.320312 121.714844 C 222.460938 122.023438 222.597656 122.328125 222.738281 122.636719 C 222.847656 122.882812 222.957031 123.132812 223.0625 123.378906 C 223.199219 123.6875 223.328125 123.992188 223.457031 124.300781 C 223.558594 124.550781 223.664062 124.804688 223.769531 125.0625 C 223.890625 125.367188 224.015625 125.675781 224.136719 125.988281 C 224.234375 126.246094 224.332031 126.503906 224.433594 126.761719 C 224.550781 127.074219 224.664062 127.382812 224.777344 127.695312 C 224.867188 127.960938 224.964844 128.222656 225.058594 128.488281 C 225.164062 128.796875 225.273438 129.109375 225.378906 129.414062 C 225.46875 129.683594 225.554688 129.957031 225.640625 130.230469 C 225.738281 130.539062 225.839844 130.851562 225.9375 131.164062 C 226.023438 131.441406 226.101562 131.71875 226.183594 131.992188 C 226.273438 132.300781 226.359375 132.613281 226.453125 132.925781 C 226.53125 133.210938 226.605469 133.492188 226.6875 133.78125 C 226.765625 134.089844 226.851562 134.394531 226.925781 134.707031 C 227 134.996094 227.066406 135.292969 227.140625 135.582031 C 227.214844 135.886719 227.289062 136.195312 227.355469 136.5 C 227.421875 136.800781 227.484375 137.097656 227.550781 137.398438 C 227.617188 137.703125 227.679688 138.003906 227.742188 138.3125 C 227.804688 138.621094 227.859375 138.925781 227.921875 139.226562 C 227.976562 139.535156 228.035156 139.835938 228.09375 140.140625 C 228.148438 140.457031 228.195312 140.769531 228.246094 141.082031 C 228.292969 141.382812 228.34375 141.683594 228.394531 141.984375 C 228.441406 142.304688 228.484375 142.628906 228.527344 142.953125 C 228.570312 143.25 228.613281 143.550781 228.652344 143.84375 C 228.695312 144.175781 228.730469 144.507812 228.765625 144.839844 C 228.796875 145.132812 228.835938 145.421875 228.867188 145.71875 C 228.902344 146.066406 228.925781 146.410156 228.957031 146.761719 C 228.980469 147.042969 229.007812 147.320312 229.03125 147.601562 C 229.054688 147.972656 229.082031 148.339844 229.097656 148.707031 C 229.117188 148.972656 229.136719 149.238281 229.148438 149.5 C 229.148438 149.539062 229.148438 149.582031 229.152344 149.617188 L 197.457031 149.617188 C 196.832031 141.953125 194.253906 134.703125 189.898438 128.351562 C 191.800781 125.257812 193.664062 122.21875 195.4375 119.328125 L 195.71875 118.867188 C 196.390625 117.773438 196.648438 116.539062 196.523438 115.339844 L 209.535156 102.328125 C 209.878906 102.710938 210.21875 103.089844 210.554688 103.472656 C 210.546875 103.535156 210.578125 103.5625 210.617188 103.601562 Z M 162.027344 157.90625 C 160.257812 160.367188 157.398438 161.84375 154.371094 161.84375 C 149.175781 161.84375 144.949219 157.617188 144.949219 152.421875 C 144.949219 149.648438 146.171875 147.019531 148.296875 145.226562 C 154.703125 139.816406 172.449219 128.996094 185.777344 120.949219 C 177.820312 133.921875 168.738281 148.546875 162.027344 157.90625 Z M 145.074219 210.703125 C 144.34375 211.539062 143.324219 211.96875 142.292969 211.96875 C 141.433594 211.96875 140.574219 211.667969 139.871094 211.058594 L 131.257812 203.546875 L 131.257812 208.277344 C 131.257812 210.308594 129.605469 211.960938 127.574219 211.960938 C 125.539062 211.960938 123.890625 210.308594 123.890625 208.277344 L 123.890625 182.621094 C 123.890625 180.589844 125.539062 178.9375 127.574219 178.9375 C 129.605469 178.9375 131.257812 180.589844 131.257812 182.621094 L 131.257812 186.648438 L 138.011719 180 C 139.460938 178.574219 141.792969 178.585938 143.226562 180.035156 C 144.65625 181.484375 144.636719 183.820312 143.1875 185.25 L 133 195.289062 L 144.722656 205.507812 C 146.253906 206.839844 146.410156 209.167969 145.074219 210.703125 Z M 160.03125 178.945312 L 153.320312 178.945312 C 151.289062 178.945312 149.636719 180.59375 149.636719 182.628906 L 149.636719 208.28125 C 149.636719 210.316406 151.289062 211.96875 153.320312 211.96875 C 155.351562 211.96875 157.003906 210.316406 157.003906 208.28125 L 157.003906 200.527344 L 160.03125 200.527344 C 165.761719 200.527344 170.425781 195.867188 170.425781 190.132812 L 170.425781 189.339844 C 170.425781 183.605469 165.765625 178.945312 160.03125 178.945312 Z M 163.058594 190.132812 C 163.058594 191.800781 161.703125 193.160156 160.03125 193.160156 L 157.003906 193.160156 L 157.003906 186.3125 L 160.03125 186.3125 C 161.703125 186.3125 163.058594 187.667969 163.058594 189.339844 Z M 182.75 182.628906 L 182.75 208.28125 C 182.75 210.316406 181.097656 211.96875 179.066406 211.96875 C 177.035156 211.96875 175.382812 210.316406 175.382812 208.28125 L 175.382812 182.628906 C 175.382812 180.59375 177.035156 178.945312 179.066406 178.945312 C 181.097656 178.945312 182.75 180.589844 182.75 182.628906 Z M 182.75 182.628906 " fill-opacity="1" fill-rule="nonzero"></path></g></svg>