<svg xmlns="http://www.w3.org/2000/svg" xmlns:xlink="http://www.w3.org/1999/xlink" width="500" viewBox="0 0 375 374.999991" height="500" preserveAspectRatio="xMidYMid meet"><defs><clipPath id="611b83fcf3"><path d="M 33 32 L 344.292969 32 L 344.292969 343.023438 L 33 343.023438 Z M 33 32 " clip-rule="nonzero"></path></clipPath></defs><g clip-path="url(#611b83fcf3)"><path fill="#5acbf2" d="M 168.027344 32.34375 C 165.4375 32.34375 162.847656 34.070312 162.847656 37.527344 L 162.847656 47.890625 C 162.847656 54.804688 173.210938 54.804688 173.210938 47.890625 L 173.210938 37.527344 C 173.210938 34.070312 170.621094 32.34375 168.027344 32.34375 Z M 103.367188 61.113281 C 99.472656 61.339844 96.269531 66.382812 99.9375 70.050781 L 107.265625 77.378906 C 112.152344 82.265625 119.480469 74.9375 114.59375 70.050781 L 107.265625 62.722656 C 106.042969 61.5 104.667969 61.035156 103.367188 61.113281 Z M 232.699219 61.113281 C 231.402344 61.03125 230.023438 61.5 228.800781 62.722656 L 221.472656 70.050781 C 216.585938 74.9375 223.914062 82.265625 228.800781 77.378906 L 236.132812 70.050781 C 239.796875 66.382812 236.59375 61.339844 232.699219 61.113281 Z M 168.027344 73.816406 C 139.8125 73.816406 121.394531 97.320312 121.394531 120.226562 C 121.394531 135.996094 127.871094 144.148438 135.433594 151.746094 C 139.21875 155.542969 143.320312 159.285156 146.679688 164.144531 C 149.234375 167.839844 151.269531 172.253906 152.085938 177.457031 L 162.847656 177.457031 L 162.847656 158.558594 L 148.929688 144.945312 C 145.53125 141.738281 147.769531 136.027344 152.441406 135.996094 C 153.847656 135.976562 155.207031 136.527344 156.195312 137.523438 L 168.007812 149.074219 L 179.832031 137.523438 C 180.820312 136.527344 182.179688 135.976562 183.585938 135.996094 C 188.257812 136.035156 190.507812 141.738281 187.109375 144.945312 L 173.210938 158.515625 L 173.210938 177.457031 L 183.980469 177.457031 C 184.800781 172.253906 186.742188 167.96875 189.386719 164.144531 C 192.746094 159.285156 196.851562 155.542969 200.632812 151.746094 C 208.199219 144.148438 214.671875 136.441406 214.671875 120.226562 C 214.671875 97.320312 196.246094 73.816406 168.027344 73.816406 Z M 168.027344 84.167969 C 175.09375 84.011719 175.09375 94.691406 168.027344 94.535156 C 160.609375 94.535156 153.554688 97.707031 148.632812 103.261719 C 144.101562 108.894531 135.84375 101.605469 140.871094 96.40625 C 147.753906 88.640625 157.648438 84.167969 168.027344 84.167969 Z M 136.921875 115.101562 C 139.785156 115.101562 142.105469 117.421875 142.105469 120.285156 C 142.105469 123.148438 139.785156 125.46875 136.921875 125.46875 C 134.0625 125.46875 131.742188 123.148438 131.742188 120.285156 C 131.742188 117.421875 134.0625 115.101562 136.921875 115.101562 Z M 85.109375 125.628906 C 78.195312 125.628906 78.195312 135.996094 85.109375 135.996094 L 95.472656 135.996094 C 102.386719 135.996094 102.386719 125.628906 95.472656 125.628906 Z M 240.59375 125.628906 C 233.683594 125.628906 233.683594 135.996094 240.59375 135.996094 L 250.960938 135.996094 C 257.871094 135.996094 257.871094 125.628906 250.960938 125.628906 Z M 297.652344 130.753906 C 294.789062 130.742188 292.457031 133.066406 292.449219 135.945312 L 292.449219 338.105469 C 292.457031 340.984375 294.789062 343.308594 297.652344 343.296875 L 339.074219 343.296875 C 341.941406 343.308594 344.269531 340.984375 344.277344 338.105469 L 344.277344 135.945312 C 344.269531 133.066406 341.941406 130.742188 339.074219 130.753906 Z M 117.519531 146.027344 C 117.222656 146.308594 116.988281 146.554688 116.699219 146.847656 C 88.308594 175.238281 88.46875 221.234375 116.679688 249.503906 C 144.890625 277.777344 190.984375 277.898438 219.378906 249.503906 C 247.769531 221.113281 247.640625 175.175781 219.347656 146.847656 C 219.0625 146.558594 218.800781 146.335938 218.507812 146.058594 C 216.628906 149.238281 214.503906 152.035156 212.3125 154.507812 C 236.390625 178.90625 236.203125 218.015625 212.039062 242.175781 C 187.785156 266.433594 148.433594 266.488281 124.007812 242.175781 C 99.785156 218.070312 99.757812 178.734375 123.746094 154.457031 C 121.554688 151.984375 119.398438 149.210938 117.519531 146.027344 Z M 130.960938 161.957031 C 111.097656 182.285156 111.34375 214.777344 131.335938 234.847656 C 151.46875 255.0625 184.40625 255.140625 204.703125 234.847656 C 224.851562 214.699219 224.886719 182.234375 205.085938 161.96875 C 202.308594 164.75 199.742188 167.386719 197.910156 170.035156 C 196.304688 172.359375 195.160156 174.65625 194.527344 177.496094 C 200.761719 178.144531 200.621094 187.820312 193.941406 187.820312 L 193.941406 203.367188 C 193.941406 210.105469 189.628906 215.839844 183.554688 217.976562 L 183.554688 224.109375 C 183.554688 232.632812 176.695312 239.648438 168.039062 239.648438 C 159.410156 239.648438 152.527344 232.628906 152.523438 224.109375 C 152.519531 220.675781 152.523438 219.347656 152.523438 217.976562 C 146.449219 215.84375 142.121094 210.105469 142.117188 203.367188 C 142.117188 198.6875 142.117188 193.132812 142.117188 187.820312 C 135.433594 187.820312 135.15625 178.183594 141.570312 177.515625 C 140.9375 174.679688 139.753906 172.359375 138.148438 170.035156 C 136.3125 167.382812 133.742188 164.746094 130.960938 161.957031 Z M 152.480469 187.820312 C 152.480469 193.050781 152.480469 198.160156 152.480469 203.367188 C 152.484375 206.171875 154.683594 208.53125 157.644531 208.53125 L 178.414062 208.53125 C 181.253906 208.53125 183.578125 206.328125 183.578125 203.367188 L 183.578125 187.820312 Z M 250.796875 193.003906 C 250.917969 194.730469 250.980469 196.457031 250.992188 198.1875 C 250.980469 223.355469 239.542969 247.15625 219.894531 262.886719 L 219.894531 338.105469 C 219.902344 340.984375 222.230469 343.308594 225.097656 343.296875 L 266.519531 343.296875 C 269.382812 343.308594 271.714844 340.984375 271.71875 338.105469 L 271.71875 198.195312 C 271.714844 195.316406 269.382812 192.992188 266.519531 193.003906 Z M 162.886719 218.90625 C 162.886719 219.867188 162.886719 220.871094 162.886719 224.109375 C 162.890625 226.914062 165.089844 229.269531 168.039062 229.269531 C 170.867188 229.269531 173.191406 227.070312 173.191406 224.109375 L 173.191406 218.90625 Z M 103.265625 249.902344 L 38.574219 301.625 C 31.167969 307.621094 31.828125 319.910156 39.070312 327.152344 C 46.304688 334.382812 58.542969 335.003906 64.550781 327.640625 L 116.355469 262.90625 C 111.523438 259.074219 107.132812 254.710938 103.265625 249.902344 Z M 199.164062 275.003906 C 189.289062 279.019531 178.730469 281.089844 168.070312 281.105469 C 161.070312 281.070312 154.105469 280.148438 147.339844 278.363281 L 147.339844 338.105469 C 147.34375 340.984375 149.675781 343.308594 152.542969 343.296875 L 193.960938 343.296875 C 196.828125 343.308594 199.160156 340.984375 199.164062 338.105469 Z M 199.164062 275.003906 " fill-opacity="1" fill-rule="nonzero"></path></g></svg>