<svg xmlns="http://www.w3.org/2000/svg" xmlns:xlink="http://www.w3.org/1999/xlink" width="500" viewBox="0 0 375 374.999991" height="500" preserveAspectRatio="xMidYMid meet"><defs><clipPath id="1b23cd4bba"><path d="M 225 225 L 341.355469 225 L 341.355469 341.355469 L 225 341.355469 Z M 225 225 " clip-rule="nonzero"></path></clipPath><clipPath id="ffdfc6975d"><path d="M 33.855469 33.855469 L 140 33.855469 L 140 121 L 33.855469 121 Z M 33.855469 33.855469 " clip-rule="nonzero"></path></clipPath><clipPath id="ad971d9f74"><path d="M 33.855469 245 L 140 245 L 140 341.355469 L 33.855469 341.355469 Z M 33.855469 245 " clip-rule="nonzero"></path></clipPath><clipPath id="e4e4414612"><path d="M 264 33.855469 L 341.355469 33.855469 L 341.355469 150 L 264 150 Z M 264 33.855469 " clip-rule="nonzero"></path></clipPath></defs><path fill="#5acbf2" d="M 212.230469 257.257812 C 213.121094 258.6875 214.675781 259.511719 216.300781 259.511719 C 216.742188 259.511719 217.1875 259.453125 217.625 259.324219 C 219.683594 258.734375 221.101562 256.855469 221.101562 254.710938 L 221.101562 230.707031 L 230.707031 230.707031 C 238.648438 230.707031 245.109375 224.246094 245.109375 216.300781 L 245.109375 158.6875 C 245.109375 150.746094 238.648438 144.285156 230.707031 144.285156 L 144.285156 144.285156 C 136.339844 144.285156 129.878906 150.746094 129.878906 158.6875 L 129.878906 216.300781 C 129.878906 224.246094 136.339844 230.707031 144.285156 230.707031 L 195.632812 230.707031 Z M 139.480469 216.300781 L 139.480469 158.6875 C 139.480469 156.039062 141.632812 153.886719 144.285156 153.886719 L 230.707031 153.886719 C 233.355469 153.886719 235.507812 156.039062 235.507812 158.6875 L 235.507812 216.300781 C 235.507812 218.949219 233.355469 221.101562 230.707031 221.101562 L 216.300781 221.101562 C 213.648438 221.101562 211.5 223.25 211.5 225.902344 L 211.5 237.972656 L 202.367188 223.359375 C 201.488281 221.957031 199.953125 221.101562 198.296875 221.101562 L 144.285156 221.101562 C 141.632812 221.101562 139.480469 218.949219 139.480469 216.300781 Z M 139.480469 216.300781 " fill-opacity="1" fill-rule="nonzero"></path><g clip-path="url(#1b23cd4bba)"><path fill="#5acbf2" d="M 283.519531 225.902344 C 251.75 225.902344 225.902344 251.75 225.902344 283.519531 C 225.902344 315.289062 251.75 341.132812 283.519531 341.132812 C 315.289062 341.132812 341.132812 315.289062 341.132812 283.519531 C 341.132812 251.75 315.289062 225.902344 283.519531 225.902344 Z M 264.3125 327.492188 L 264.3125 312.324219 C 264.3125 301.734375 272.925781 293.121094 283.519531 293.121094 C 294.109375 293.121094 302.722656 301.734375 302.722656 312.324219 L 302.722656 327.492188 C 296.835938 330.074219 290.347656 331.53125 283.519531 331.53125 C 276.691406 331.53125 270.203125 330.074219 264.3125 327.492188 Z M 273.917969 273.917969 C 273.917969 268.621094 278.226562 264.3125 283.519531 264.3125 C 288.8125 264.3125 293.121094 268.621094 293.121094 273.917969 C 293.121094 279.210938 288.8125 283.519531 283.519531 283.519531 C 278.226562 283.519531 273.917969 279.210938 273.917969 273.917969 Z M 312.324219 321.835938 L 312.324219 312.324219 C 312.324219 301.476562 306.292969 292.015625 297.410156 287.105469 C 300.683594 283.660156 302.722656 279.03125 302.722656 273.917969 C 302.722656 263.324219 294.109375 254.710938 283.519531 254.710938 C 272.925781 254.710938 264.3125 263.324219 264.3125 273.917969 C 264.3125 279.03125 266.355469 283.660156 269.625 287.105469 C 260.742188 292.015625 254.710938 301.476562 254.710938 312.324219 L 254.710938 321.835938 C 243.078125 313.066406 235.507812 299.175781 235.507812 283.519531 C 235.507812 257.046875 257.046875 235.507812 283.519531 235.507812 C 309.992188 235.507812 331.53125 257.046875 331.53125 283.519531 C 331.53125 299.175781 323.960938 313.066406 312.324219 321.835938 Z M 312.324219 321.835938 " fill-opacity="1" fill-rule="nonzero"></path></g><g clip-path="url(#ffdfc6975d)"><path fill="#5acbf2" d="M 38.65625 120.277344 L 134.679688 120.277344 C 137.335938 120.277344 139.480469 118.128906 139.480469 115.476562 L 139.480469 38.65625 C 139.480469 36.003906 137.335938 33.855469 134.679688 33.855469 L 38.65625 33.855469 C 36.003906 33.855469 33.855469 36.003906 33.855469 38.65625 L 33.855469 115.476562 C 33.855469 118.128906 36.003906 120.277344 38.65625 120.277344 Z M 43.457031 43.457031 L 129.878906 43.457031 L 129.878906 110.675781 L 43.457031 110.675781 Z M 43.457031 43.457031 " fill-opacity="1" fill-rule="nonzero"></path></g><path fill="#5acbf2" d="M 103.734375 73.070312 L 74.929688 53.867188 C 73.457031 52.886719 71.5625 52.789062 70 53.628906 C 68.441406 54.460938 67.464844 56.089844 67.464844 57.863281 L 67.464844 96.273438 C 67.464844 98.042969 68.441406 99.671875 70 100.503906 C 70.707031 100.886719 71.488281 101.074219 72.265625 101.074219 C 73.199219 101.074219 74.125 100.800781 74.929688 100.265625 L 103.734375 81.0625 C 105.070312 80.171875 105.875 78.671875 105.875 77.066406 C 105.875 75.464844 105.070312 73.960938 103.734375 73.070312 Z M 77.066406 87.300781 L 77.066406 66.832031 L 92.417969 77.066406 Z M 77.066406 87.300781 " fill-opacity="1" fill-rule="nonzero"></path><g clip-path="url(#ad971d9f74)"><path fill="#5acbf2" d="M 134.679688 245.109375 L 38.65625 245.109375 C 36.003906 245.109375 33.855469 247.257812 33.855469 249.910156 L 33.855469 317.128906 C 33.855469 319.78125 36.003906 321.929688 38.65625 321.929688 L 72.265625 321.929688 L 72.265625 331.53125 L 62.664062 331.53125 C 60.007812 331.53125 57.863281 333.679688 57.863281 336.332031 C 57.863281 338.984375 60.007812 341.132812 62.664062 341.132812 L 110.675781 341.132812 C 113.328125 341.132812 115.476562 338.984375 115.476562 336.332031 C 115.476562 333.679688 113.328125 331.53125 110.675781 331.53125 L 101.074219 331.53125 L 101.074219 321.929688 L 134.679688 321.929688 C 137.335938 321.929688 139.480469 319.78125 139.480469 317.128906 L 139.480469 249.910156 C 139.480469 247.257812 137.335938 245.109375 134.679688 245.109375 Z M 91.46875 331.53125 L 81.867188 331.53125 L 81.867188 321.929688 L 91.46875 321.929688 Z M 129.878906 312.324219 L 43.457031 312.324219 L 43.457031 254.710938 L 129.878906 254.710938 Z M 129.878906 312.324219 " fill-opacity="1" fill-rule="nonzero"></path></g><g clip-path="url(#e4e4414612)"><path fill="#5acbf2" d="M 326.730469 33.855469 L 278.71875 33.855469 C 270.773438 33.855469 264.3125 40.316406 264.3125 48.257812 L 264.3125 134.679688 C 264.3125 142.625 270.773438 149.085938 278.71875 149.085938 L 326.730469 149.085938 C 334.671875 149.085938 341.132812 142.625 341.132812 134.679688 L 341.132812 48.257812 C 341.132812 40.316406 334.671875 33.855469 326.730469 33.855469 Z M 312.332031 43.457031 L 312.335938 48.257812 L 293.121094 48.257812 L 293.121094 43.457031 Z M 331.53125 134.679688 C 331.53125 137.332031 329.378906 139.480469 326.730469 139.480469 L 278.71875 139.480469 C 276.066406 139.480469 273.917969 137.332031 273.917969 134.679688 L 273.917969 48.257812 C 273.917969 45.609375 276.066406 43.457031 278.71875 43.457031 L 283.519531 43.457031 L 283.519531 48.257812 C 283.519531 53.554688 287.828125 57.863281 293.121094 57.863281 L 312.324219 57.863281 C 317.621094 57.863281 321.929688 53.554688 321.929688 48.257812 L 321.929688 43.457031 L 326.730469 43.457031 C 329.378906 43.457031 331.53125 45.609375 331.53125 48.257812 Z M 331.53125 134.679688 " fill-opacity="1" fill-rule="nonzero"></path></g><path fill="#5acbf2" d="M 308.726562 217.351562 C 309.523438 214.113281 310.195312 210.796875 310.726562 207.503906 L 301.246094 205.976562 C 300.757812 209.015625 300.136719 212.074219 299.402344 215.0625 Z M 308.726562 217.351562 " fill-opacity="1" fill-rule="nonzero"></path><path fill="#5acbf2" d="M 173.25 73.132812 L 172.070312 63.605469 C 168.75 64.011719 165.414062 64.566406 162.15625 65.238281 L 164.097656 74.644531 C 167.109375 74.019531 170.183594 73.511719 173.25 73.132812 Z M 173.25 73.132812 " fill-opacity="1" fill-rule="nonzero"></path><path fill="#5acbf2" d="M 152.90625 307.46875 C 156.089844 308.382812 159.371094 309.183594 162.667969 309.855469 L 164.570312 300.441406 C 161.527344 299.824219 158.496094 299.085938 155.558594 298.242188 Z M 152.90625 307.46875 " fill-opacity="1" fill-rule="nonzero"></path><path fill="#5acbf2" d="M 301.175781 168.527344 C 301.671875 171.5625 302.058594 174.65625 302.320312 177.738281 L 311.886719 176.929688 C 311.609375 173.601562 311.191406 170.25 310.648438 166.960938 Z M 301.175781 168.527344 " fill-opacity="1" fill-rule="nonzero"></path><path fill="#5acbf2" d="M 311.925781 197.527344 C 312.191406 194.195312 312.324219 190.820312 312.324219 187.363281 L 312.320312 186.980469 L 302.71875 186.980469 L 302.722656 187.496094 C 302.722656 190.566406 302.597656 193.6875 302.351562 196.769531 Z M 311.925781 197.527344 " fill-opacity="1" fill-rule="nonzero"></path><path fill="#5acbf2" d="M 191.773438 72.339844 L 192.113281 62.746094 C 188.800781 62.628906 185.40625 62.636719 182.074219 62.785156 L 182.488281 72.378906 C 185.59375 72.246094 188.703125 72.242188 191.773438 72.339844 Z M 191.773438 72.339844 " fill-opacity="1" fill-rule="nonzero"></path><path fill="#5acbf2" d="M 231.371094 70.589844 C 228.21875 69.410156 225.007812 68.351562 221.820312 67.445312 L 219.195312 76.683594 C 222.128906 77.515625 225.089844 78.492188 227.996094 79.585938 Z M 231.371094 70.589844 " fill-opacity="1" fill-rule="nonzero"></path><path fill="#5acbf2" d="M 63.039062 177.734375 L 72.613281 178.464844 C 72.847656 175.410156 73.210938 172.3125 73.695312 169.261719 L 64.214844 167.75 C 63.691406 171.066406 63.292969 174.421875 63.039062 177.734375 Z M 63.039062 177.734375 " fill-opacity="1" fill-rule="nonzero"></path><path fill="#5acbf2" d="M 249.550781 79.152344 C 246.65625 77.492188 243.65625 75.925781 240.632812 74.507812 L 236.542969 83.191406 C 239.332031 84.507812 242.101562 85.953125 244.777344 87.480469 Z M 249.550781 79.152344 " fill-opacity="1" fill-rule="nonzero"></path><path fill="#5acbf2" d="M 212.074219 65.085938 C 208.84375 64.433594 205.5 63.90625 202.132812 63.515625 L 201.027344 73.054688 C 204.125 73.414062 207.199219 73.902344 210.167969 74.503906 Z M 212.074219 65.085938 " fill-opacity="1" fill-rule="nonzero"></path><path fill="#5acbf2" d="M 81.539062 232.863281 C 80.328125 230.039062 79.21875 227.125 78.230469 224.199219 L 69.132812 227.265625 C 70.199219 230.429688 71.402344 233.585938 72.707031 236.640625 Z M 81.539062 232.863281 " fill-opacity="1" fill-rule="nonzero"></path><path fill="#5acbf2" d="M 76.808594 129.726562 C 75.257812 132.6875 73.8125 135.75 72.507812 138.824219 L 81.351562 142.566406 C 82.550781 139.730469 83.890625 136.910156 85.3125 134.179688 Z M 76.808594 129.726562 " fill-opacity="1" fill-rule="nonzero"></path><path fill="#5acbf2" d="M 210.65625 300.394531 L 212.570312 309.796875 C 215.824219 309.136719 219.109375 308.332031 222.332031 307.398438 L 219.660156 298.171875 C 216.6875 299.035156 213.65625 299.777344 210.65625 300.394531 Z M 210.65625 300.394531 " fill-opacity="1" fill-rule="nonzero"></path><path fill="#5acbf2" d="M 172.597656 311.449219 C 175.898438 311.839844 179.265625 312.101562 182.605469 312.230469 L 182.980469 302.640625 C 179.894531 302.515625 176.777344 302.273438 173.722656 301.914062 Z M 172.597656 311.449219 " fill-opacity="1" fill-rule="nonzero"></path><path fill="#5acbf2" d="M 192.261719 302.625 L 192.648438 312.21875 C 195.96875 312.082031 199.332031 311.808594 202.65625 311.410156 L 201.503906 301.875 C 198.433594 302.25 195.324219 302.5 192.261719 302.625 Z M 192.261719 302.625 " fill-opacity="1" fill-rule="nonzero"></path><path fill="#5acbf2" d="M 78.074219 151.25 L 68.960938 148.242188 C 67.90625 151.4375 66.972656 154.6875 66.195312 157.898438 L 75.523438 160.167969 C 76.246094 157.199219 77.105469 154.199219 78.074219 151.25 Z M 78.074219 151.25 " fill-opacity="1" fill-rule="nonzero"></path><path fill="#5acbf2" d="M 63.082031 197.800781 L 72.65625 197.011719 C 72.402344 193.949219 72.269531 190.832031 72.265625 187.746094 L 62.664062 187.757812 C 62.667969 191.105469 62.808594 194.484375 63.082031 197.800781 Z M 63.082031 197.800781 " fill-opacity="1" fill-rule="nonzero"></path><path fill="#5acbf2" d="M 75.644531 215.304688 C 74.910156 212.335938 74.285156 209.273438 73.785156 206.210938 L 64.304688 207.769531 C 64.847656 211.078125 65.527344 214.394531 66.324219 217.609375 Z M 75.644531 215.304688 " fill-opacity="1" fill-rule="nonzero"></path><path fill="#5acbf2" d="M 192.296875 187.496094 C 192.296875 187.808594 192.265625 188.121094 192.203125 188.429688 C 192.140625 188.742188 192.050781 189.039062 191.929688 189.332031 C 191.808594 189.621094 191.660156 189.898438 191.488281 190.160156 C 191.3125 190.425781 191.113281 190.667969 190.890625 190.890625 C 190.667969 191.113281 190.425781 191.3125 190.160156 191.488281 C 189.898438 191.660156 189.625 191.808594 189.332031 191.929688 C 189.039062 192.050781 188.742188 192.140625 188.429688 192.203125 C 188.121094 192.265625 187.808594 192.296875 187.496094 192.296875 C 187.179688 192.296875 186.867188 192.265625 186.558594 192.203125 C 186.25 192.140625 185.949219 192.050781 185.65625 191.929688 C 185.367188 191.808594 185.089844 191.660156 184.828125 191.488281 C 184.566406 191.3125 184.324219 191.113281 184.097656 190.890625 C 183.875 190.667969 183.675781 190.425781 183.503906 190.160156 C 183.328125 189.898438 183.179688 189.621094 183.058594 189.332031 C 182.9375 189.039062 182.847656 188.742188 182.785156 188.429688 C 182.722656 188.121094 182.691406 187.808594 182.691406 187.496094 C 182.691406 187.179688 182.722656 186.867188 182.785156 186.558594 C 182.847656 186.25 182.9375 185.949219 183.058594 185.65625 C 183.179688 185.367188 183.328125 185.089844 183.503906 184.828125 C 183.675781 184.566406 183.875 184.324219 184.097656 184.097656 C 184.324219 183.875 184.566406 183.675781 184.828125 183.503906 C 185.089844 183.328125 185.367188 183.179688 185.65625 183.058594 C 185.949219 182.9375 186.25 182.847656 186.558594 182.785156 C 186.867188 182.722656 187.179688 182.691406 187.496094 182.691406 C 187.808594 182.691406 188.121094 182.722656 188.429688 182.785156 C 188.742188 182.847656 189.039062 182.9375 189.332031 183.058594 C 189.625 183.179688 189.898438 183.328125 190.160156 183.503906 C 190.425781 183.675781 190.667969 183.875 190.890625 184.097656 C 191.113281 184.324219 191.3125 184.566406 191.488281 184.828125 C 191.660156 185.089844 191.808594 185.367188 191.929688 185.65625 C 192.050781 185.949219 192.140625 186.25 192.203125 186.558594 C 192.265625 186.867188 192.296875 187.179688 192.296875 187.496094 Z M 192.296875 187.496094 " fill-opacity="1" fill-rule="nonzero"></path><path fill="#5acbf2" d="M 216.300781 187.496094 C 216.300781 187.808594 216.269531 188.121094 216.210938 188.429688 C 216.148438 188.742188 216.058594 189.039062 215.9375 189.332031 C 215.816406 189.621094 215.667969 189.898438 215.492188 190.160156 C 215.316406 190.425781 215.117188 190.667969 214.894531 190.890625 C 214.671875 191.113281 214.429688 191.3125 214.167969 191.488281 C 213.90625 191.660156 213.628906 191.808594 213.335938 191.929688 C 213.046875 192.050781 212.746094 192.140625 212.4375 192.203125 C 212.128906 192.265625 211.816406 192.296875 211.5 192.296875 C 211.183594 192.296875 210.871094 192.265625 210.5625 192.203125 C 210.253906 192.140625 209.953125 192.050781 209.664062 191.929688 C 209.371094 191.808594 209.09375 191.660156 208.832031 191.488281 C 208.570312 191.3125 208.328125 191.113281 208.105469 190.890625 C 207.882812 190.667969 207.683594 190.425781 207.507812 190.160156 C 207.332031 189.898438 207.183594 189.621094 207.066406 189.332031 C 206.945312 189.039062 206.851562 188.742188 206.792969 188.429688 C 206.730469 188.121094 206.699219 187.808594 206.699219 187.496094 C 206.699219 187.179688 206.730469 186.867188 206.792969 186.558594 C 206.851562 186.25 206.945312 185.949219 207.066406 185.65625 C 207.183594 185.367188 207.332031 185.089844 207.507812 184.828125 C 207.683594 184.566406 207.882812 184.324219 208.105469 184.097656 C 208.328125 183.875 208.570312 183.675781 208.832031 183.503906 C 209.09375 183.328125 209.371094 183.179688 209.664062 183.058594 C 209.953125 182.9375 210.253906 182.847656 210.5625 182.785156 C 210.871094 182.722656 211.183594 182.691406 211.5 182.691406 C 211.816406 182.691406 212.128906 182.722656 212.4375 182.785156 C 212.746094 182.847656 213.046875 182.9375 213.335938 183.058594 C 213.628906 183.179688 213.90625 183.328125 214.167969 183.503906 C 214.429688 183.675781 214.671875 183.875 214.894531 184.097656 C 215.117188 184.324219 215.316406 184.566406 215.492188 184.828125 C 215.667969 185.089844 215.816406 185.367188 215.9375 185.65625 C 216.058594 185.949219 216.148438 186.25 216.210938 186.558594 C 216.269531 186.867188 216.300781 187.179688 216.300781 187.496094 Z M 216.300781 187.496094 " fill-opacity="1" fill-rule="nonzero"></path><path fill="#5acbf2" d="M 168.289062 187.496094 C 168.289062 187.808594 168.257812 188.121094 168.199219 188.429688 C 168.136719 188.742188 168.042969 189.039062 167.925781 189.332031 C 167.804688 189.621094 167.65625 189.898438 167.480469 190.160156 C 167.304688 190.425781 167.105469 190.667969 166.882812 190.890625 C 166.660156 191.113281 166.417969 191.3125 166.15625 191.488281 C 165.894531 191.660156 165.617188 191.808594 165.324219 191.929688 C 165.035156 192.050781 164.734375 192.140625 164.425781 192.203125 C 164.117188 192.265625 163.804688 192.296875 163.488281 192.296875 C 163.171875 192.296875 162.859375 192.265625 162.550781 192.203125 C 162.242188 192.140625 161.941406 192.050781 161.652344 191.929688 C 161.359375 191.808594 161.082031 191.660156 160.820312 191.488281 C 160.558594 191.3125 160.316406 191.113281 160.09375 190.890625 C 159.871094 190.667969 159.671875 190.425781 159.496094 190.160156 C 159.320312 189.898438 159.171875 189.621094 159.050781 189.332031 C 158.933594 189.039062 158.839844 188.742188 158.78125 188.429688 C 158.71875 188.121094 158.6875 187.808594 158.6875 187.496094 C 158.6875 187.179688 158.71875 186.867188 158.78125 186.558594 C 158.839844 186.25 158.933594 185.949219 159.050781 185.65625 C 159.171875 185.367188 159.320312 185.089844 159.496094 184.828125 C 159.671875 184.566406 159.871094 184.324219 160.09375 184.097656 C 160.316406 183.875 160.558594 183.675781 160.820312 183.503906 C 161.082031 183.328125 161.359375 183.179688 161.652344 183.058594 C 161.941406 182.9375 162.242188 182.847656 162.550781 182.785156 C 162.859375 182.722656 163.171875 182.691406 163.488281 182.691406 C 163.804688 182.691406 164.117188 182.722656 164.425781 182.785156 C 164.734375 182.847656 165.035156 182.9375 165.324219 183.058594 C 165.617188 183.179688 165.894531 183.328125 166.15625 183.503906 C 166.417969 183.675781 166.660156 183.875 166.882812 184.097656 C 167.105469 184.324219 167.304688 184.566406 167.480469 184.828125 C 167.65625 185.089844 167.804688 185.367188 167.925781 185.65625 C 168.042969 185.949219 168.136719 186.25 168.199219 186.558594 C 168.257812 186.867188 168.289062 187.179688 168.289062 187.496094 Z M 168.289062 187.496094 " fill-opacity="1" fill-rule="nonzero"></path></svg>