<svg xmlns="http://www.w3.org/2000/svg" width="668" height="659" viewBox="0 0 668 659" fill="none"><path d="M601.899 369.284C632.322 566.797 467.788 659 302.354 659C136.919 659 2.80804 529.29 2.80804 369.284C2.80804 209.278 301.201 11.2334 466.635 11.2334C632.07 11.2334 736.226 248.998 601.899 369.284Z" fill="#FAEEED"></path><path d="M448.99 636.536C469.749 630.683 481.835 609.101 475.984 588.332C470.133 567.563 448.561 555.471 427.802 561.325C407.043 567.179 394.957 588.76 400.808 609.529C406.659 630.298 428.231 642.39 448.99 636.536Z" stroke="#FE7146" stroke-opacity="0.2" stroke-width="5.24" stroke-miterlimit="10"></path><path d="M437.465 617.158L436.581 616.617C436.383 616.498 431.594 613.581 426.778 609.291C420.05 603.299 416.738 597.729 416.936 592.739C417.213 585.823 423.058 580.424 429.971 580.688H430.05C433.428 580.82 436.528 582.298 438.758 584.74C441.172 582.483 444.405 581.256 447.795 581.401H447.822C451.16 581.546 454.247 582.985 456.516 585.44C458.785 587.895 459.973 591.089 459.854 594.429C459.656 599.497 455.909 604.804 448.732 610.229C443.6 614.109 438.587 616.591 438.389 616.696L437.452 617.158H437.465Z" fill="#FE7146" fill-opacity="0.2"></path><path d="M94.0328 103.176C115.305 99.6143 129.664 79.4745 126.104 58.1923C122.544 36.9101 102.414 22.5446 81.142 26.1061C59.8698 29.6676 45.511 49.8073 49.0707 71.0895C52.6304 92.3717 72.7607 106.737 94.0328 103.176Z" stroke="#FE7146" stroke-opacity="0.2" stroke-width="5.24" stroke-miterlimit="10"></path><path d="M86.6542 82.881L85.7702 82.3398C85.5723 82.221 80.7831 79.3039 75.9676 75.014C69.2389 69.0214 65.9274 63.4512 66.1253 58.4618C66.4024 51.5453 72.247 46.1467 79.1603 46.4107H79.2395C82.617 46.5426 85.7174 48.021 87.9471 50.4629C90.3615 48.2058 93.6071 46.9782 96.9846 47.1234H97.0109C100.349 47.2686 103.449 48.7074 105.705 51.1625C107.975 53.6176 109.162 56.8119 109.043 60.1514C108.845 65.22 105.098 70.5262 97.9213 75.9512C92.7891 79.8319 87.7756 82.3134 87.5777 82.419L86.641 82.881H86.6542Z" fill="#FE7146" fill-opacity="0.2"></path><path d="M493.972 474.234C473.997 474.234 457.809 490.43 457.809 510.414C457.809 530.398 473.997 546.594 493.972 546.594C513.947 546.594 530.135 530.398 530.135 510.414C530.135 490.43 513.947 474.234 493.972 474.234ZM513.855 506.27C513.67 510.955 510.2 515.866 503.564 520.895C498.814 524.485 494.17 526.795 493.972 526.887L493.115 527.31L492.297 526.808C492.112 526.689 487.679 523.997 483.22 520.024C476.992 514.467 473.931 509.319 474.103 504.686C474.354 498.284 479.776 493.268 486.175 493.532H486.254C489.381 493.664 492.257 495.024 494.315 497.281C496.558 495.195 499.553 494.06 502.68 494.179H502.706C505.807 494.311 508.67 495.644 510.767 497.914C512.865 500.185 513.96 503.141 513.855 506.243V506.27Z" fill="#FE7146" fill-opacity="0.2"></path><path d="M36.163 195.724C16.1882 195.724 0 211.919 0 231.904C0 251.888 16.1882 268.083 36.163 268.083C56.1377 268.083 72.3259 251.888 72.3259 231.904C72.3259 211.919 56.1377 195.724 36.163 195.724ZM56.0453 227.759C55.8606 232.445 52.3908 237.355 45.7545 242.384C41.0049 245.974 36.3609 248.284 36.163 248.377L35.3054 248.799L34.4874 248.297C34.3027 248.179 29.8697 245.486 25.4104 241.513C19.1831 235.956 16.1223 230.808 16.2938 226.175C16.5445 219.773 21.9669 214.757 28.3657 215.021H28.4448C31.5717 215.153 34.4478 216.513 36.506 218.77C38.7488 216.684 41.7437 215.549 44.8706 215.668H44.8969C47.9974 215.813 50.8603 217.133 52.9581 219.404C55.0558 221.674 56.1509 224.631 56.0453 227.732V227.759Z" fill="#FE7146" fill-opacity="0.2"></path><path d="M452.782 433.316L456.556 440.946L464.973 442.173L458.878 448.113L460.316 456.508L452.782 452.548L445.249 456.508L446.687 448.113L440.605 442.173L449.022 440.946L452.782 433.316Z" fill="#FE7146" fill-opacity="0.2"></path><path d="M583.343 243.242L588.726 254.158L600.759 255.901L592.051 264.388L594.109 276.373L583.343 270.724L572.591 276.373L574.649 264.388L565.941 255.901L577.974 254.158L583.343 243.242Z" fill="#FE7146" fill-opacity="0.2"></path><path d="M220.527 30.7285L225.91 41.6445L237.942 43.3869L229.234 51.8742L231.293 63.8593L220.527 58.2099L209.774 63.8593L211.832 51.8742L203.125 43.3869L215.157 41.6445L220.527 30.7285Z" fill="#FE7146" fill-opacity="0.2"></path><path d="M69.4368 516.803L74.8197 527.706L86.852 529.448L78.1444 537.948L80.2026 549.934L69.4368 544.271L58.6842 549.934L60.7424 537.948L52.0348 529.448L64.0671 527.706L69.4368 516.803Z" fill="#FE7146" fill-opacity="0.2"></path><path d="M530.781 573.23L536.164 584.146L548.183 585.889L539.489 594.376L541.534 606.361L530.781 600.712L520.016 606.361L522.074 594.376L513.366 585.889L525.398 584.146L530.781 573.23Z" fill="#FE7146" fill-opacity="0.2"></path><path d="M75.5059 138.24L80.8888 149.143L92.9211 150.899L84.2135 159.386L86.2717 171.371L75.5059 165.722L64.7533 171.371L66.7983 159.386L58.1039 150.899L70.123 149.143L75.5059 138.24Z" fill="#FE7146" fill-opacity="0.2"></path><path d="M446.964 344.76C426.99 344.76 410.802 360.956 410.802 380.94C410.802 400.924 426.99 417.12 446.964 417.12C466.939 417.12 483.127 400.924 483.127 380.94C483.127 360.956 466.939 344.76 446.964 344.76ZM427.003 380.636C423.348 380.636 420.393 377.679 420.393 374.023C420.393 370.367 423.348 367.41 427.003 367.41C430.657 367.41 433.613 370.367 433.613 374.023C433.613 377.679 430.657 380.636 427.003 380.636ZM456.82 397.637C456.134 384.926 437.782 384.926 437.096 397.637C436.924 400.752 432.082 400.765 432.241 397.637C432.65 389.981 438.639 382.471 446.951 382.92C455.276 383.368 461.213 389.308 461.662 397.637C461.833 400.765 456.978 400.752 456.807 397.637H456.82ZM466.926 380.636C463.271 380.636 460.316 377.679 460.316 374.023C460.316 370.367 463.271 367.41 466.926 367.41C470.581 367.41 473.536 370.367 473.536 374.023C473.536 377.679 470.581 380.636 466.926 380.636Z" fill="#FE7146" fill-opacity="0.2"></path><path d="M349.122 492.316C326.245 492.316 307.695 510.875 307.695 533.763C307.695 556.651 326.245 575.209 349.122 575.209C371.999 575.209 390.549 556.651 390.549 533.763C390.549 510.875 371.999 492.316 349.122 492.316ZM326.258 533.42C322.076 533.42 318.685 530.027 318.685 525.843C318.685 521.659 322.076 518.267 326.258 518.267C330.44 518.267 333.831 521.659 333.831 525.843C333.831 530.027 330.44 533.42 326.258 533.42ZM349.122 555.674C339.583 555.159 332.789 548.348 332.274 538.818C332.076 535.241 337.631 535.254 337.828 538.818C338.607 553.391 359.637 553.391 360.415 538.818C360.613 535.254 366.168 535.241 365.97 538.818C365.495 547.583 358.634 556.189 349.122 555.674ZM371.986 533.42C367.804 533.42 364.413 530.027 364.413 525.843C364.413 521.659 367.804 518.267 371.986 518.267C376.168 518.267 379.559 521.659 379.559 525.843C379.559 530.027 376.168 533.42 371.986 533.42Z" fill="#FE7146" fill-opacity="0.2"></path><path d="M517.102 310.719C534.452 306.836 545.371 289.616 541.489 272.258C537.608 254.9 520.396 243.976 503.046 247.859C485.696 251.743 474.777 268.962 478.659 286.321C482.54 303.679 499.752 314.603 517.102 310.719Z" stroke="#FE7146" stroke-opacity="0.2" stroke-width="4.32" stroke-miterlimit="10"></path><path d="M493.602 266.843C490.594 266.843 488.153 269.285 488.153 272.294C488.153 275.304 490.594 277.746 493.602 277.746C496.61 277.746 499.051 275.304 499.051 272.294C499.051 269.285 496.61 266.843 493.602 266.843Z" fill="#FE7146" fill-opacity="0.2"></path><path d="M526.533 266.843C523.525 266.843 521.084 269.285 521.084 272.294C521.084 275.304 523.525 277.746 526.533 277.746C529.541 277.746 531.982 275.304 531.982 272.294C531.982 269.285 529.541 266.843 526.533 266.843Z" fill="#FE7146" fill-opacity="0.2"></path><path d="M522.576 291.763C522.51 286.497 519.251 281.877 514.33 280.016C509.409 278.155 503.854 279.712 500.609 283.606C498.669 285.929 497.614 288.741 497.574 291.777C497.535 294.812 502.284 294.839 502.324 291.777C502.377 287.539 505.781 284.015 510.082 284.015C514.383 284.015 517.773 287.539 517.839 291.777C517.879 294.826 522.629 294.839 522.589 291.777L522.576 291.763Z" fill="#FE7146" fill-opacity="0.2"></path><path d="M575.75 489.588C595.093 486.419 608.206 468.162 605.038 448.81C601.871 429.458 583.622 416.339 564.279 419.508C544.936 422.677 531.823 440.934 534.991 460.286C538.158 479.638 556.407 492.757 575.75 489.588Z" stroke="#FE7146" stroke-opacity="0.2" stroke-width="4.76" stroke-miterlimit="10"></path><path d="M551.838 440.851C548.527 440.851 545.835 443.543 545.835 446.856C545.835 450.169 548.527 452.862 551.838 452.862C555.15 452.862 557.841 450.169 557.841 446.856C557.841 443.543 555.15 440.851 551.838 440.851Z" fill="#FE7146" fill-opacity="0.2"></path><path d="M588.133 440.851C584.822 440.851 582.13 443.543 582.13 446.856C582.13 450.169 584.822 452.862 588.133 452.862C591.445 452.862 594.136 450.169 594.136 446.856C594.136 443.543 591.445 440.851 588.133 440.851Z" fill="#FE7146" fill-opacity="0.2"></path><path d="M556.205 457.151C556.284 462.959 559.86 468.054 565.295 470.113C570.507 472.093 576.853 470.443 580.428 466.154C582.566 463.593 583.74 460.491 583.779 457.151C583.819 453.812 578.594 453.772 578.542 457.151C578.476 461.824 574.729 465.718 569.992 465.705C565.256 465.692 561.509 461.824 561.443 457.151C561.39 453.786 556.166 453.772 556.205 457.151Z" fill="#FE7146" fill-opacity="0.2"></path><path d="M88.672 488.154C108.364 484.865 121.662 466.226 118.374 446.525C115.086 426.823 96.4565 413.519 76.7642 416.809C57.0719 420.099 43.7738 438.737 47.062 458.438C50.3503 478.14 68.9797 491.444 88.672 488.154Z" stroke="#FE7146" stroke-opacity="0.2" stroke-width="4.85" stroke-miterlimit="10"></path><path d="M106.233 457.245C106.233 455.093 104.755 453.312 102.763 452.797C104.755 452.295 106.233 450.5 106.233 448.348C106.233 445.801 104.175 443.742 101.628 443.742H85.6776V432.298C85.6776 429.605 83.4875 427.414 80.796 427.414C78.1046 427.414 75.9145 429.605 75.9145 432.298V465.996C75.9145 468.689 78.1046 470.88 80.796 470.88C80.8884 470.88 80.9807 470.854 81.0731 470.854C81.3633 470.907 81.6536 470.946 81.957 470.946H101.628C104.175 470.946 106.233 468.887 106.233 466.339C106.233 464.003 104.491 462.089 102.235 461.799C104.491 461.495 106.233 459.594 106.233 457.258V457.245Z" fill="#FE7146" fill-opacity="0.2"></path><path d="M74.1996 442.436H64.9378V471.818H74.1996V442.436Z" fill="#FE7146" fill-opacity="0.2"></path><path d="M605.271 303.365C583.713 303.365 566.219 320.855 566.219 342.436C566.219 364.017 583.7 381.506 605.271 381.506C626.842 381.506 644.323 364.017 644.323 342.436C644.323 320.855 626.842 303.365 605.271 303.365ZM596.049 363.331H586.035V331.599H596.049V363.331ZM630.642 347.597C630.642 350.118 628.755 352.177 626.327 352.507C628.755 352.837 630.642 354.896 630.642 357.417C630.642 360.163 628.412 362.394 625.668 362.394H604.426C604.097 362.394 603.78 362.354 603.476 362.301C603.371 362.301 603.279 362.328 603.173 362.328C600.257 362.328 597.909 359.965 597.909 357.061V320.67C597.909 317.753 600.27 315.403 603.173 315.403C606.076 315.403 608.437 317.766 608.437 320.67V333.038H625.668C628.412 333.038 630.642 335.269 630.642 338.014C630.642 340.337 629.045 342.264 626.895 342.819C629.045 343.373 630.642 345.3 630.642 347.623V347.597Z" fill="#FE7146" fill-opacity="0.2"></path><path d="M613.187 596.646C634.758 596.646 652.24 579.157 652.24 557.576C652.24 535.994 634.758 518.505 613.187 518.505C591.616 518.505 574.135 535.994 574.135 557.576C574.135 579.157 591.616 596.646 613.187 596.646ZM622.409 536.681H632.423V568.412H622.409V536.681ZM587.817 552.415C587.817 549.893 589.703 547.834 592.131 547.504C589.703 547.174 587.817 545.115 587.817 542.594C587.817 539.849 590.046 537.618 592.79 537.618H614.032C614.362 537.618 614.678 537.657 614.982 537.71C615.087 537.71 615.18 537.684 615.285 537.684C618.201 537.684 620.549 540.047 620.549 542.95V579.355C620.549 582.272 618.188 584.621 615.285 584.621C612.383 584.621 610.021 582.259 610.021 579.355V566.987H592.79C590.046 566.987 587.817 564.756 587.817 562.011C587.817 559.687 589.413 557.76 591.563 557.206C589.413 556.652 587.817 554.724 587.817 552.401V552.415Z" fill="#FE7146" fill-opacity="0.2"></path><mask id="mask0_1411_11066" style="mask-type:alpha" maskUnits="userSpaceOnUse" x="2" y="0" width="600" height="659"><path d="M601.899 369.283C601.899 529.289 467.788 659 302.354 659C136.92 659 2.80847 529.289 2.80847 369.283C2.80847 209.277 31.1425 0 196.577 0C362.011 0 601.899 209.277 601.899 369.283Z" fill="#FAEEED"></path></mask><g mask="url(#mask0_1411_11066)"><path d="M158.819 428.903C158.819 428.903 88.261 491.583 85.2313 557.989C82.2016 624.395 96.3216 691.761 96.3216 691.761H325.16C325.16 691.761 341.295 572.032 317.099 513.093C292.903 454.167 260.647 396.159 260.647 396.159L158.833 428.903H158.819Z" fill="#22689E"></path><path opacity="0.5" d="M324.436 537.967C306.814 563.676 267.22 593.528 233.56 606.041C233.323 639.689 230.196 658.682 223.456 691.76H325.145C325.145 691.76 337.458 600.355 324.422 537.967H324.436Z" fill="#003154"></path><path opacity="0.5" d="M170.798 448.689C198.121 458.964 229.154 462.677 258.311 464.79C270.944 465.708 283.591 466.111 296.21 466.027C277.643 426.72 260.632 396.159 260.632 396.159L158.818 428.903C158.818 428.903 154.871 432.421 148.798 438.65C155.928 442.39 163.196 445.839 170.784 448.689H170.798Z" fill="#003154"></path><path d="M156.359 445.438C156.359 445.438 154.719 448.357 152.05 453.446" stroke="#3387C1" stroke-width="1.09" stroke-miterlimit="10"></path><path d="M143.809 469.7C130.829 496.285 111.97 539.527 108.635 572.535C105.118 607.309 109.719 649.355 113.04 672.784" stroke="#3387C1" stroke-width="1.09" stroke-miterlimit="10"></path><path d="M156.359 584.367C162.877 585.854 169.353 587.523 175.857 589.108L185.571 591.583L195.272 594.113C201.734 595.796 208.197 597.548 214.645 599.286C221.108 601.01 227.528 602.845 233.977 604.611H233.157C234.824 604.097 236.562 603.429 238.257 602.776C239.953 602.108 241.662 601.427 243.33 600.662C245.011 599.925 246.679 599.161 248.333 598.354C250.001 597.576 251.627 596.727 253.253 595.879C254.893 595.059 256.505 594.155 258.117 593.279C259.743 592.417 261.327 591.485 262.912 590.54C264.496 589.608 266.094 588.691 267.637 587.676L272.32 584.728L276.906 581.641C278.449 580.64 279.936 579.528 281.437 578.457C282.938 577.373 284.453 576.33 285.926 575.218L290.318 571.839L292.527 570.157L294.681 568.405L298.99 564.901C300.435 563.733 301.783 562.468 303.187 561.258L307.398 557.629L303.506 561.606C302.186 562.899 300.908 564.261 299.546 565.513L295.46 569.308L293.417 571.199L291.304 573.021L287.052 576.622C285.62 577.818 284.133 578.93 282.674 580.098C281.201 581.238 279.742 582.406 278.227 583.477L273.696 586.744L269.054 589.859C267.512 590.915 265.913 591.861 264.329 592.848C262.745 593.835 261.147 594.809 259.521 595.712C257.894 596.63 256.296 597.589 254.629 598.438C252.975 599.3 251.321 600.189 249.639 600.982C247.972 601.816 246.276 602.609 244.567 603.374C242.871 604.152 241.134 604.861 239.383 605.57C237.632 606.266 235.895 606.905 234.018 607.475L233.615 607.6L233.198 607.475C226.778 605.64 220.329 603.846 213.922 601.955C207.502 600.078 201.095 598.229 194.688 596.296L185.085 593.404L175.496 590.457C169.13 588.427 162.738 586.48 156.386 584.353L156.359 584.367Z" fill="#003154"></path><path d="M246.623 470.061C247.957 480.809 248.555 491.64 248.972 502.486C249.069 505.197 249.111 507.908 249.139 510.619C249.167 513.331 249.18 516.042 249.139 518.753C249.111 524.176 248.972 529.599 248.736 535.021C248.638 537.733 248.472 540.444 248.319 543.155C248.138 545.866 247.971 548.578 247.707 551.275C247.221 556.684 246.623 562.079 245.887 567.473C245.539 570.171 245.122 572.854 244.692 575.538C244.247 578.221 243.788 580.905 243.288 583.574C242.774 586.244 242.246 588.914 241.648 591.569C241.092 594.239 240.397 596.867 239.772 599.522L237.701 597.798C244.692 594.461 251.738 591.222 258.77 587.954L257.992 588.872C258.659 586.508 259.284 584.047 259.854 581.614C260.424 579.167 260.966 576.72 261.466 574.259C262.48 569.337 263.356 564.387 264.134 559.423C264.523 556.934 264.885 554.445 265.218 551.956L266.149 544.476C266.427 541.973 266.719 539.484 266.942 536.968C267.192 534.465 267.386 531.962 267.581 529.446C267.762 526.929 267.928 524.426 268.04 521.91C268.179 519.393 268.248 516.876 268.331 514.36C268.456 509.326 268.443 504.293 268.387 499.26C268.29 494.227 268.109 489.179 267.748 484.16C267.595 481.643 267.359 479.127 267.136 476.624C266.942 474.107 266.622 471.605 266.372 469.088C266.761 471.577 267.206 474.066 267.553 476.568C267.901 479.071 268.22 481.574 268.484 484.09C269.054 489.11 269.429 494.157 269.735 499.218C269.86 501.749 269.999 504.279 270.027 506.81C270.11 509.34 270.096 511.871 270.124 514.401C270.096 516.932 270.096 519.463 270.013 521.993C269.957 524.524 269.86 527.054 269.735 529.585C269.596 532.115 269.471 534.646 269.276 537.162C269.11 539.693 268.887 542.21 268.665 544.74C268.165 549.787 267.525 554.807 266.789 559.826C266.052 564.846 265.204 569.837 264.218 574.815C263.717 577.304 263.203 579.793 262.647 582.267C262.077 584.756 261.494 587.203 260.813 589.692L260.646 590.318L260.035 590.61C253.03 593.919 246.04 597.256 238.994 600.496L236.186 601.789L236.923 598.772C237.562 596.158 238.271 593.558 238.827 590.93C239.438 588.316 239.98 585.674 240.508 583.032C241.036 580.39 241.509 577.735 241.968 575.079C242.412 572.423 242.843 569.768 243.218 567.084C243.997 561.745 244.636 556.392 245.164 551.025C245.706 545.658 246.193 540.277 246.54 534.896C246.915 529.515 247.165 524.107 247.332 518.712C247.513 513.317 247.554 507.908 247.596 502.499C247.624 497.091 247.568 491.682 247.415 486.273C247.249 480.865 247.04 475.456 246.665 470.061H246.623Z" fill="#003154"></path><path d="M234.686 606.043C234.686 606.043 234.686 606.377 234.713 607.017C234.727 607.642 234.769 608.574 234.755 609.77C234.755 612.147 234.783 615.54 234.63 619.614C234.574 621.644 234.477 623.855 234.338 626.177C234.213 628.499 234.088 630.96 233.907 633.49C233.671 636.021 233.435 638.635 233.185 641.29C232.893 643.946 232.698 646.644 232.295 649.341C231.92 652.024 231.531 654.708 231.156 657.364C230.961 658.685 230.766 659.991 230.586 661.285C230.349 662.578 230.099 663.843 229.863 665.094C229.404 667.597 228.904 670.002 228.432 672.283C227.959 674.563 227.57 676.732 227.014 678.693C226.013 682.641 225.068 685.895 224.471 688.189C223.818 690.469 223.456 691.762 223.456 691.762C223.456 691.762 223.665 690.428 224.012 688.078C224.401 685.742 224.888 682.391 225.61 678.415C226.013 676.44 226.236 674.243 226.542 671.949C226.833 669.655 227.125 667.222 227.487 664.719C227.653 663.468 227.834 662.202 228.001 660.909C228.14 659.616 228.265 658.309 228.404 656.988C228.682 654.346 228.974 651.677 229.265 648.993C229.613 646.324 229.766 643.626 230.002 640.985C230.238 638.343 230.461 635.743 230.683 633.226C230.836 630.709 231.03 628.276 231.211 625.968C231.406 623.66 231.559 621.477 231.642 619.461C231.739 617.445 231.878 615.596 231.989 613.955C232.073 612.314 232.156 610.896 232.212 609.714C232.337 607.35 232.42 606.016 232.42 606.016H234.644L234.686 606.043Z" fill="#003154"></path><path d="M162.793 70.9128C162.793 70.9128 188.795 44.3698 234.574 64.6699C280.353 84.9699 251.737 171.871 274.113 200.499C291.387 222.607 325.603 255.142 284.522 299.371C243.44 343.6 181.527 278.029 183.611 205.171C185.696 132.313 162.807 70.8989 162.807 70.8989L162.793 70.9128Z" fill="#001433"></path><path d="M162.793 72.8738C162.793 72.8738 191.672 42.1874 236.7 66.6865C292.318 96.9279 249.416 170.439 274.112 198.929C294.403 222.343 330.815 246.801 288.121 299.483C249.736 346.841 182.083 278.321 184.223 206.048C186.363 133.774 162.807 72.8738 162.807 72.8738H162.793Z" stroke="#001433" stroke-width="1.12" stroke-miterlimit="10"></path><path d="M147.699 175.765C147.699 175.765 171.881 251.487 138.332 249.137C104.784 246.801 71.2348 249.915 90.7332 307.687C110.245 365.459 290.483 314.709 290.483 278.808C290.483 242.908 266.302 237.429 229.626 251.487C192.95 265.544 206.222 194.507 206.222 194.507L147.699 175.779V175.765Z" fill="#FFB199"></path><path d="M156.093 225.903C165.71 234.301 175.911 241.726 189.017 245.341C196.257 247.329 203.512 248.427 210.725 248.761C198.675 234.954 206.222 194.507 206.222 194.507L147.699 175.778C147.699 175.778 156.844 204.407 156.079 225.917L156.093 225.903Z" fill="#F2957C"></path><path d="M109.469 129.714L107.134 196.843C107.134 196.843 154.734 221.829 154.734 219.479C154.734 217.129 164.879 157.035 164.879 157.035L109.483 129.714H109.469Z" fill="#003154"></path><path d="M134.165 157.064C134.165 157.064 106.745 158.9 120.115 182.829C134.207 208.051 148.994 191.435 148.994 191.435L134.152 157.064H134.165Z" fill="#F2957C"></path><path d="M125.34 160.943C125.34 160.943 124.297 180.2 144.06 188.529C163.822 196.857 134.693 153.143 134.693 153.143L125.326 160.943H125.34Z" fill="#003154"></path><path d="M159.152 96.9291C159.152 96.9291 238.076 66.2149 240.564 164.058C242.899 256.173 150.049 231.187 132.885 165.616C117.112 105.383 159.152 96.9152 159.152 96.9152V96.9291Z" fill="#FFB199"></path><path d="M138.346 260.858C138.346 260.858 157.067 291.043 194.521 290.001C231.975 288.958 241.342 246.286 241.342 246.286C241.342 246.286 278.796 232.229 289.719 259.3C300.643 286.372 288.163 433.644 288.163 433.644C288.163 433.644 235.102 456.016 168.518 439.373C168.518 439.373 80.0877 325.929 85.2854 277.529C90.4831 229.128 138.346 260.871 138.346 260.871V260.858Z" fill="#FFA94D"></path><path d="M290.901 344.172C260.91 342.615 231.363 341.099 202.165 333.466C173.327 325.93 146.505 314.097 121.225 298.344C109.134 290.808 97.3905 282.785 85.647 274.721C85.508 275.624 85.383 276.556 85.2718 277.515C80.0741 325.916 168.505 439.359 168.505 439.359C235.088 456.017 288.149 433.631 288.149 433.631C288.149 433.631 291.929 388.957 293.513 344.297C292.652 344.255 291.776 344.214 290.915 344.172H290.901Z" fill="#EF8E35"></path><path d="M182.04 188L228.861 181.229C228.861 181.229 217.938 207.243 182.04 188Z" fill="white"></path><path d="M205.958 144.801C206.403 145.913 206.875 146.984 207.334 148.054C207.82 149.111 208.279 150.168 208.793 151.197C209.28 152.226 209.808 153.241 210.364 154.228C210.892 155.229 211.489 156.188 212.101 157.106C212.698 158.051 213.352 158.941 214.047 159.803C214.408 160.22 214.741 160.652 215.103 161.069C215.464 161.486 215.839 161.875 216.228 162.25C217.007 163.001 217.827 163.724 218.702 164.378C219.147 164.698 219.592 165.003 220.05 165.295C220.495 165.615 220.995 165.852 221.468 166.13L223.038 167.061L221.76 168.035C221.12 168.521 220.467 168.98 219.814 169.439C219.161 169.898 218.508 170.37 217.841 170.815C216.506 171.719 215.158 172.595 213.755 173.415C214.769 172.15 215.853 170.954 216.951 169.773C217.493 169.175 218.063 168.605 218.619 168.021C219.175 167.437 219.731 166.867 220.314 166.31L220.62 168.215C220.036 167.993 219.439 167.812 218.869 167.534C218.285 167.298 217.743 166.978 217.201 166.672C216.673 166.338 216.131 166.018 215.631 165.643C215.117 165.282 214.644 164.878 214.172 164.461C213.254 163.613 212.365 162.723 211.614 161.736C210.864 160.749 210.169 159.72 209.558 158.663C208.96 157.593 208.446 156.48 207.973 155.368C207.529 154.242 207.153 153.088 206.834 151.92C206.542 150.752 206.278 149.57 206.139 148.388C205.972 147.206 205.902 145.997 205.958 144.801Z" fill="#E5826C"></path><path d="M207.528 135.957C207.528 135.957 207.626 135.29 207.945 134.178C208.279 133.065 208.807 131.48 209.724 129.701C210.628 127.907 211.864 125.877 213.671 123.972C214.561 123.013 215.603 122.095 216.826 121.302C218.021 120.496 219.466 119.856 221.023 119.523C222.566 119.189 224.275 119.203 225.776 119.648C227.319 120.023 228.625 120.802 229.737 121.622C230.835 122.47 231.724 123.416 232.475 124.348C232.822 124.834 233.156 125.307 233.475 125.752C233.781 126.211 234.017 126.697 234.267 127.128C234.795 127.99 235.143 128.852 235.449 129.603C235.782 130.34 235.991 131.021 236.157 131.578C236.491 132.69 236.63 133.343 236.63 133.343C236.63 133.343 236.144 132.871 235.379 132.023C235.004 131.592 234.531 131.091 234.003 130.521C233.461 129.951 232.878 129.311 232.211 128.672C231.571 127.99 230.793 127.365 230.042 126.683C229.25 126.044 228.403 125.432 227.513 124.918C227.068 124.681 226.61 124.473 226.151 124.264C225.679 124.139 225.22 123.916 224.748 123.875C223.816 123.666 222.871 123.68 221.926 123.903C220.967 124.083 220.008 124.473 219.063 125.001C218.132 125.529 217.215 126.155 216.353 126.85C215.492 127.532 214.686 128.282 213.921 129.005C213.171 129.742 212.448 130.451 211.809 131.147C210.53 132.523 209.46 133.733 208.696 134.581C207.931 135.443 207.501 135.93 207.501 135.93L207.528 135.957Z" fill="#001433"></path><path d="M193.992 139.601C193.992 139.601 193.297 139.184 192.074 138.516C190.851 137.863 189.114 136.959 187.03 136.027C184.917 135.137 182.457 134.192 179.789 133.622C178.455 133.33 177.093 133.121 175.703 133.066C174.313 132.982 172.923 133.066 171.562 133.274C170.186 133.455 168.865 133.858 167.573 134.331C166.92 134.554 166.322 134.887 165.683 135.137C165.085 135.471 164.488 135.791 163.89 136.111C163.32 136.486 162.75 136.848 162.208 137.209C161.68 137.612 161.152 138.002 160.652 138.377C160.138 138.766 159.693 139.197 159.207 139.587C158.72 139.962 158.289 140.365 157.872 140.769C157.039 141.547 156.26 142.284 155.621 142.979C154.954 143.661 154.356 144.245 153.898 144.773C152.967 145.802 152.369 146.372 152.369 146.372C152.369 146.372 152.605 145.607 153.105 144.286C153.342 143.619 153.689 142.826 154.148 141.951L154.857 140.532C155.135 140.06 155.468 139.559 155.802 139.045C156.427 137.988 157.275 136.931 158.192 135.833C158.692 135.304 159.207 134.776 159.735 134.22C160.304 133.705 160.916 133.205 161.527 132.69C162.167 132.218 162.862 131.759 163.557 131.3C164.293 130.911 165.016 130.452 165.822 130.132C167.392 129.437 169.102 128.922 170.853 128.644C172.604 128.408 174.369 128.324 176.078 128.547C177.788 128.714 179.414 129.117 180.929 129.645C182.443 130.146 183.819 130.827 185.07 131.509C186.321 132.218 187.419 132.982 188.405 133.733C190.365 135.235 191.755 136.723 192.672 137.807C193.575 138.905 193.992 139.601 193.992 139.601Z" fill="#001433"></path><path d="M188.628 157.356C189.226 161.193 188.406 164.503 186.808 164.753C185.209 165.003 183.431 162.097 182.833 158.26C182.235 154.422 183.055 151.113 184.654 150.863C186.252 150.612 188.031 153.518 188.628 157.356Z" fill="#001433"></path><path d="M232.558 149.487C233.155 153.324 232.335 156.633 230.737 156.884C229.139 157.134 227.36 154.228 226.762 150.391C226.165 146.553 226.985 143.244 228.583 142.994C230.181 142.743 231.96 145.649 232.558 149.487Z" fill="#001433"></path><path d="M186.196 194.771C186.196 194.771 188.795 195.898 192.672 197.302C194.618 197.997 196.883 198.748 199.329 199.374C200.552 199.721 201.831 199.93 203.109 200.194C204.402 200.403 205.722 200.611 207.028 200.653C208.335 200.778 209.641 200.736 210.92 200.653C212.184 200.486 213.435 200.375 214.603 200.027C215.2 199.888 215.756 199.68 216.298 199.499C216.868 199.332 217.368 199.082 217.882 198.845C218.41 198.637 218.855 198.331 219.328 198.081C219.814 197.844 220.231 197.538 220.634 197.26C221.482 196.732 222.149 196.092 222.816 195.578C223.4 194.994 223.97 194.521 224.386 194.076C225.206 193.186 225.707 192.672 225.707 192.672C225.707 192.672 225.429 193.311 224.887 194.438C224.595 194.994 224.192 195.62 223.705 196.37C223.163 197.052 222.594 197.9 221.788 198.623C221.023 199.415 220.092 200.18 219.022 200.861C218.48 201.195 217.924 201.557 217.313 201.835C216.715 202.155 216.076 202.405 215.409 202.627C214.088 203.114 212.671 203.434 211.225 203.628C209.78 203.767 208.293 203.851 206.82 203.74C203.887 203.531 201.038 202.878 198.509 201.974C197.231 201.557 196.049 201.014 194.937 200.5C193.826 199.985 192.811 199.429 191.894 198.887C188.197 196.746 186.182 194.73 186.182 194.73L186.196 194.771Z" fill="#E5826C"></path><path d="M99.3231 74.294C99.3231 74.294 117.265 50.1008 164.086 62.5868C210.907 75.0727 183.598 158.609 134.442 169.537C85.2865 180.466 122.226 206.494 147.2 194.009C147.2 194.009 184.543 231.619 155.511 260.874C131.024 285.553 124.047 246.038 102.978 253.073C81.9094 260.095 82.9517 286.638 95.4317 319.424C95.4317 319.424 38.4793 315.517 43.1489 264.781C47.8324 214.044 100.101 211.695 89.1778 149.251C78.2543 86.8078 99.3231 74.3079 99.3231 74.3079V74.294Z" fill="#003154"></path><path d="M95.432 319.409C95.432 319.409 28.5012 311.957 36.1866 261.582C43.8719 211.207 96.1825 211.972 88.9836 148.987C81.7846 86.0008 103.548 74.7802 103.548 74.7802C103.548 74.7802 122.894 51.6854 168.895 66.9244" stroke="#003154" stroke-width="1.12" stroke-miterlimit="10"></path><path d="M131.065 174.988C131.065 174.988 187.239 165.102 187.239 93.2871" stroke="#003154" stroke-width="1.12" stroke-miterlimit="10"></path><path d="M387.239 197.624C384.112 196.067 378.65 203.867 378.65 203.867C378.65 203.867 385.669 189.81 381.777 188.253C377.872 186.695 373.981 197.624 373.981 197.624C373.981 197.624 377.886 184.359 373.202 183.567C368.519 182.788 362.279 200.738 362.279 200.738C362.279 200.738 375.537 160.152 370.075 160.152C368.408 160.152 362.265 171.734 354.524 187.822C352.3 184.721 347.686 181.759 341.21 195.274C336.554 204.979 338.069 212.362 340.779 217.326C325.798 250.209 310.788 285.039 310.788 285.039C310.788 285.039 340.432 321.732 353.704 296.746C366.962 271.761 390.38 199.167 387.253 197.61L387.239 197.624Z" fill="#FFB199"></path><path d="M325.951 250.376C317.251 270.023 310.775 285.053 310.775 285.053C310.775 285.053 340.418 321.746 353.69 296.76C358.374 287.945 364.322 273.179 369.923 257.703C355.177 255.673 340.404 253.477 325.951 250.376Z" fill="#F2957C"></path><path d="M345.018 188.975C345.977 187.543 347.311 186.319 348.993 185.638C349.84 185.36 350.758 185.165 351.675 185.318C351.897 185.346 352.133 185.374 352.356 185.416L352.995 185.652C353.44 185.791 353.829 186.014 354.204 186.278C354.593 186.514 354.969 186.764 355.288 187.084C355.608 187.39 355.983 187.668 356.275 188.002C356.831 188.697 357.47 189.337 357.915 190.101C358.929 191.575 359.763 193.063 360.625 194.565C361.473 196.08 362.293 197.61 363.043 199.195C363.418 199.987 363.78 200.794 364.085 201.628C364.377 202.476 364.683 203.324 364.752 204.353C364.752 204.854 364.78 205.507 364.238 206.119C363.668 206.717 362.918 206.745 362.404 206.703C361.361 206.578 360.514 206.23 359.694 205.855C358.068 205.09 356.581 204.172 355.107 203.227L355.816 201.892C356.456 202.198 356.984 202.518 357.526 202.907C358.068 203.269 358.554 203.7 359.054 204.117C359.499 204.576 359.999 205.007 360.389 205.521C360.792 206.022 361.209 206.522 361.542 207.092L362.056 207.913L362.459 208.802L362.848 209.692L363.113 210.624L363.377 211.555C363.432 211.875 363.46 212.195 363.502 212.515C363.571 213.154 363.696 213.78 363.641 214.42C363.613 215.059 363.613 215.699 363.571 216.325L363.238 218.188C363.154 218.813 362.946 219.411 362.765 220.009L362.167 221.789L361.375 223.485C361.097 224.041 360.875 224.625 360.555 225.154C359.916 226.224 359.263 227.267 358.61 228.31C359.152 227.198 359.68 226.085 360.236 225.001C360.5 224.445 360.68 223.861 360.903 223.291L361.542 221.58L361.987 219.814C362.14 219.231 362.32 218.647 362.362 218.049L362.584 216.255C362.584 215.657 362.57 215.059 362.557 214.461C362.584 213.864 362.432 213.28 362.348 212.696C362.293 212.404 362.251 212.112 362.195 211.82L361.917 210.985L361.639 210.151L361.25 209.359L360.861 208.566L360.375 207.829C360.083 207.329 359.68 206.884 359.305 206.439C358.943 205.98 358.471 205.618 358.068 205.201C357.609 204.84 357.164 204.464 356.664 204.145C356.191 203.811 355.663 203.519 355.191 203.282L355.9 201.948C357.345 202.865 358.804 203.741 360.319 204.437C361.07 204.77 361.848 205.076 362.515 205.16C362.848 205.187 363.057 205.118 363.085 205.076C363.154 205.048 363.224 204.756 363.196 204.409C363.168 203.714 362.918 202.893 362.64 202.128C362.348 201.35 362.029 200.571 361.681 199.793C360.986 198.235 360.208 196.706 359.416 195.19L358.221 192.91C357.831 192.131 357.387 191.422 356.956 190.699C356.567 189.948 355.997 189.337 355.511 188.655C355.246 188.322 354.927 188.071 354.649 187.765C354.371 187.446 354.037 187.209 353.704 186.987C353.37 186.737 353.037 186.514 352.648 186.375L352.092 186.125L351.508 186C350.716 185.791 349.896 185.902 349.09 186.097C347.506 186.598 346.088 187.682 344.976 188.989L345.018 188.975Z" fill="#E5826C"></path><path d="M362.042 209.415C362.473 209.929 362.973 210.374 363.515 210.736C363.807 210.889 364.071 211.083 364.377 211.181C364.669 211.32 364.975 211.389 365.294 211.431C365.6 211.5 365.92 211.431 366.225 211.431C366.517 211.32 366.823 211.278 367.101 211.125C367.365 210.944 367.657 210.833 367.879 210.624L368.574 209.985L369.158 209.22C369.366 208.984 369.547 208.706 369.7 208.428L370.186 207.593C370.367 207.329 370.464 207.009 370.617 206.717C370.881 206.119 371.187 205.549 371.381 204.91L372.049 203.061L373.105 203.505C372.243 205.48 371.437 207.524 370.784 209.568C370.464 210.597 370.186 211.625 370.02 212.654C369.936 213.169 369.881 213.669 369.894 214.142C369.894 214.615 370.006 215.046 370.158 215.241C370.186 215.268 370.27 215.352 370.242 215.324L370.409 215.421C370.409 215.421 370.409 215.393 370.381 215.393C370.409 215.393 370.548 215.393 370.714 215.31C371.048 215.157 371.423 214.823 371.771 214.476C372.465 213.739 373.091 212.877 373.675 211.987C374.856 210.207 375.898 208.275 376.843 206.356L378.219 206.898C377.566 208.886 376.996 210.944 376.579 213.002C376.371 214.031 376.19 215.06 376.107 216.089C376.065 216.603 376.065 217.118 376.107 217.59C376.148 218.077 376.26 218.55 376.482 218.856C376.593 218.995 376.704 219.12 376.871 219.161C376.871 219.161 377.024 219.203 376.913 219.189H377.51C377.691 219.12 377.844 219.12 378.052 218.995C378.247 218.856 378.469 218.786 378.65 218.605C379.414 217.98 380.095 217.173 380.679 216.297C381.86 214.545 382.819 212.627 383.681 210.68C383.055 212.738 382.236 214.726 381.179 216.617C380.915 217.09 380.61 217.549 380.304 218.007C379.97 218.452 379.609 218.883 379.178 219.259C378.984 219.467 378.706 219.606 378.455 219.773C378.205 219.94 377.816 220.024 377.496 220.121H376.899C376.663 220.121 376.676 220.093 376.565 220.065C376.204 219.968 375.898 219.718 375.676 219.453C375.259 218.897 375.12 218.286 375.037 217.715C374.953 217.145 374.939 216.575 374.953 216.019C374.981 214.907 375.106 213.822 375.273 212.752C375.648 210.61 376.162 208.511 376.788 206.425L378.164 206.968C377.205 208.984 376.162 210.93 374.939 212.821C374.328 213.767 373.675 214.684 372.841 215.533C372.424 215.95 371.979 216.381 371.312 216.687C370.992 216.84 370.562 216.951 370.061 216.881C369.922 216.853 369.769 216.798 369.644 216.756L369.45 216.645C369.172 216.478 369.074 216.353 368.922 216.186C368.421 215.491 368.366 214.782 368.338 214.17C368.338 213.544 368.407 212.96 368.505 212.39C368.713 211.25 369.047 210.179 369.408 209.123C370.131 207.009 371.02 204.993 372.021 203.005L373.077 203.45L372.299 205.327C372.062 205.953 371.715 206.55 371.409 207.162C371.243 207.454 371.117 207.774 370.923 208.052L370.353 208.914C370.02 209.512 369.491 209.999 369.047 210.513L368.227 211.167C367.949 211.389 367.601 211.5 367.296 211.667C366.976 211.82 366.601 211.848 366.267 211.931C365.92 211.917 365.544 211.959 365.211 211.862C364.863 211.778 364.53 211.681 364.238 211.514C363.918 211.389 363.654 211.153 363.376 210.958C362.862 210.527 362.404 210.026 362.028 209.47L362.042 209.415Z" fill="#E5826C"></path><path d="M75.919 301.446C75.919 301.446 127.938 450.289 174.231 467.975L197.12 425.304C197.12 425.304 141.46 295.717 121.17 280.631C100.879 265.545 75.919 301.446 75.919 301.446Z" fill="#FFB199"></path><path d="M127.173 362.707C139.07 356.937 148.881 348.664 157.011 338.764C143.295 311.443 129.355 286.721 121.17 280.645C100.879 265.559 75.919 301.459 75.919 301.459C75.919 301.459 87.1343 333.55 103.784 369.687C111.775 368.408 119.627 366.364 127.173 362.707Z" fill="#F2957C"></path><path d="M123.254 260.86C123.254 260.86 96.7237 231.717 76.4332 262.945C56.1427 294.174 92.0402 358.703 92.0402 358.703C92.0402 358.703 126.367 354.546 157.067 324.874C157.067 324.874 136.777 275.431 123.254 260.86Z" fill="#FFA94D"></path><path d="M350.415 266.142L240.501 283.874C236.25 284.559 233.36 288.563 234.045 292.816L260.711 458.265C261.397 462.518 265.399 465.41 269.65 464.724L379.563 446.993C383.815 446.307 386.705 442.303 386.019 438.05L359.353 272.601C358.668 268.348 354.666 265.456 350.415 266.142Z" fill="#DDD3D3"></path><path d="M385.115 439.277L275.212 456.991C270.96 457.672 266.957 454.78 266.262 450.525L239.607 285.08C239.551 284.76 239.565 284.441 239.551 284.135C235.813 285.219 233.367 288.904 234.006 292.839L260.661 458.284C261.342 462.539 265.345 465.431 269.612 464.749L379.514 447.036C383.447 446.396 386.185 442.92 386.032 439.041C385.726 439.124 385.434 439.235 385.115 439.291V439.277Z" fill="#A39D9C"></path><path d="M313.125 341.588C313.528 333.732 316.252 330.659 316.294 330.617L315.432 329.797L314.584 328.977C314.404 329.171 311.124 332.717 310.735 341.754C310.679 341.754 310.624 341.754 310.568 341.768C301.757 343.187 295.767 351.487 297.185 360.303C298.602 369.118 306.899 375.11 315.71 373.692C324.521 372.274 330.511 363.973 329.093 355.158C327.815 347.205 320.922 341.56 313.111 341.574L313.125 341.588Z" fill="white"></path><path d="M310.901 335.302C310.901 335.302 309.72 324.207 294.988 331.159C294.988 331.159 301.215 341.448 310.901 335.302Z" fill="white"></path><path d="M261.106 324.345C261.106 324.345 326.133 335.274 264.747 315.502C264.747 315.502 248.097 308.216 226.25 325.388C206.585 340.849 156.304 403.279 145.839 443.74C158.194 459.702 171.105 470.839 182.556 469.546C207.892 466.696 250.182 352.974 250.182 352.974C250.182 352.974 312.082 378.988 254.338 343.602C254.338 343.602 342.768 372.745 260.063 333.716C260.063 333.716 339.655 352.445 261.106 324.345Z" fill="#FFB199"></path></g><path d="M649.725 58.0371H357.961C347.929 58.0371 339.797 66.1734 339.797 76.2099V135.555C339.797 145.592 347.929 153.728 357.961 153.728H649.725C659.757 153.728 667.889 145.592 667.889 135.555V76.2099C667.889 66.1734 659.757 58.0371 649.725 58.0371Z" fill="#FE7146"></path><path d="M455.372 147.666L440.836 260.308L491.688 145.246L455.372 147.666Z" fill="#FE7146"></path><path d="M403.076 98.5304C402.841 97.8267 402.187 97.3453 401.447 97.3329L385.059 97.1971L379.864 81.6539C379.63 80.9502 378.963 80.4688 378.223 80.4688C377.483 80.4688 376.816 80.9502 376.582 81.6539L371.387 97.1971L354.999 97.3329C354.259 97.3329 353.605 97.8267 353.371 98.5304C353.136 99.2341 353.395 100.012 353.988 100.456L367.154 110.209L362.231 125.839C362.008 126.543 362.268 127.321 362.86 127.753C363.452 128.185 364.279 128.197 364.884 127.753L378.223 118.234L391.562 127.753C391.859 127.962 392.216 128.074 392.562 128.074C392.907 128.074 393.278 127.962 393.574 127.74C394.178 127.308 394.425 126.53 394.203 125.827L389.28 110.197L402.446 100.444C403.039 99.9996 403.298 99.2218 403.063 98.5181L403.076 98.5304Z" fill="#D63A3A"></path><path d="M406.53 96.8019C406.296 96.0982 405.642 95.6167 404.902 95.6044L388.514 95.4686L383.319 79.9254C383.085 79.2217 382.418 78.7402 381.678 78.7402C380.938 78.7402 380.271 79.2217 380.037 79.9254L374.842 95.4686L358.454 95.6044C357.714 95.6044 357.06 96.0982 356.825 96.8019C356.591 97.5056 356.85 98.2834 357.442 98.7278L370.609 108.481L365.686 124.11C365.463 124.814 365.723 125.592 366.315 126.024C366.907 126.456 367.734 126.469 368.339 126.024L381.678 116.506L395.017 126.024C395.313 126.234 395.671 126.345 396.017 126.345C396.362 126.345 396.733 126.234 397.029 126.012C397.633 125.58 397.88 124.802 397.658 124.098L392.734 108.469L405.901 98.7155C406.493 98.2711 406.753 97.4933 406.518 96.7896L406.53 96.8019Z" fill="#FFA94D"></path><path d="M465.243 98.5304C465.009 97.8267 464.355 97.3453 463.615 97.3329L447.227 97.1971L442.032 81.6539C441.798 80.9502 441.131 80.4688 440.391 80.4688C439.651 80.4688 438.984 80.9502 438.75 81.6539L433.555 97.1971L417.167 97.3329C416.427 97.3329 415.773 97.8267 415.539 98.5304C415.304 99.2341 415.563 100.012 416.155 100.456L429.322 110.209L424.399 125.839C424.176 126.543 424.436 127.321 425.028 127.753C425.62 128.185 426.447 128.197 427.052 127.753L440.391 118.234L453.73 127.753C454.027 127.962 454.384 128.074 454.73 128.074C455.075 128.074 455.446 127.962 455.742 127.74C456.346 127.308 456.593 126.53 456.371 125.827L451.447 110.197L464.614 100.444C465.206 99.9996 465.466 99.2218 465.231 98.5181L465.243 98.5304Z" fill="#D63A3A"></path><path d="M468.698 96.8019C468.464 96.0982 467.81 95.6167 467.07 95.6044L450.682 95.4686L445.487 79.9254C445.253 79.2217 444.586 78.7402 443.846 78.7402C443.105 78.7402 442.439 79.2217 442.205 79.9254L437.01 95.4686L420.622 95.6044C419.882 95.6044 419.228 96.0982 418.993 96.8019C418.759 97.5056 419.018 98.2834 419.61 98.7278L432.777 108.481L427.853 124.11C427.631 124.814 427.89 125.592 428.483 126.024C429.075 126.456 429.902 126.469 430.506 126.024L443.846 116.506L457.185 126.024C457.481 126.234 457.839 126.345 458.185 126.345C458.53 126.345 458.901 126.234 459.197 126.012C459.801 125.58 460.048 124.802 459.826 124.098L454.902 108.469L468.069 98.7155C468.661 98.2711 468.921 97.4933 468.686 96.7896L468.698 96.8019Z" fill="#FFA94D"></path><path d="M527.4 98.5304C527.165 97.8267 526.511 97.3453 525.771 97.3329L509.383 97.1971L504.188 81.6539C503.954 80.9502 503.288 80.4688 502.547 80.4688C501.807 80.4688 501.14 80.9502 500.906 81.6539L495.711 97.1971L479.324 97.3329C478.583 97.3329 477.929 97.8267 477.695 98.5304C477.46 99.2341 477.719 100.012 478.312 100.456L491.478 110.209L486.555 125.839C486.333 126.543 486.592 127.321 487.184 127.753C487.776 128.185 488.603 128.197 489.208 127.753L502.547 118.234L515.887 127.753C516.183 127.962 516.541 128.074 516.886 128.074C517.232 128.074 517.602 127.962 517.898 127.74C518.503 127.308 518.749 126.53 518.527 125.827L513.604 110.197L526.77 100.444C527.363 99.9996 527.622 99.2218 527.387 98.5181L527.4 98.5304Z" fill="#D63A3A"></path><path d="M530.854 96.8019C530.62 96.0982 529.966 95.6167 529.226 95.6044L512.838 95.4686L507.643 79.9254C507.409 79.2217 506.742 78.7402 506.002 78.7402C505.262 78.7402 504.595 79.2217 504.361 79.9254L499.166 95.4686L482.778 95.6044C482.038 95.6044 481.384 96.0982 481.15 96.8019C480.915 97.5056 481.174 98.2834 481.767 98.7278L494.933 108.481L490.01 124.11C489.787 124.814 490.047 125.592 490.639 126.024C491.231 126.456 492.058 126.469 492.663 126.024L506.002 116.506L519.341 126.024C519.638 126.234 519.995 126.345 520.341 126.345C520.686 126.345 521.057 126.234 521.353 126.012C521.957 125.58 522.204 124.802 521.982 124.098L517.058 108.469L530.225 98.7155C530.817 98.2711 531.077 97.4933 530.842 96.7896L530.854 96.8019Z" fill="#FFA94D"></path><path d="M589.568 98.5304C589.333 97.8267 588.679 97.3453 587.939 97.3329L571.552 97.1971L566.357 81.6539C566.122 80.9502 565.456 80.4688 564.716 80.4688C563.975 80.4688 563.309 80.9502 563.074 81.6539L557.879 97.1971L541.492 97.3329C540.752 97.3329 540.097 97.8267 539.863 98.5304C539.629 99.2341 539.888 100.012 540.48 100.456L553.647 110.209L548.723 125.839C548.501 126.543 548.76 127.321 549.352 127.753C549.945 128.185 550.771 128.197 551.376 127.753L564.716 118.234L578.055 127.753C578.351 127.962 578.709 128.074 579.054 128.074C579.4 128.074 579.77 127.962 580.066 127.74C580.671 127.308 580.918 126.53 580.696 125.827L575.772 110.197L588.939 100.444C589.531 99.9996 589.79 99.2218 589.556 98.5181L589.568 98.5304Z" fill="#D63A3A"></path><path d="M593.023 96.8019C592.788 96.0982 592.134 95.6167 591.394 95.6044L575.007 95.4686L569.812 79.9254C569.577 79.2217 568.911 78.7402 568.17 78.7402C567.43 78.7402 566.764 79.2217 566.529 79.9254L561.334 95.4686L544.947 95.6044C544.206 95.6044 543.552 96.0982 543.318 96.8019C543.083 97.5056 543.343 98.2834 543.935 98.7278L557.102 108.481L552.178 124.11C551.956 124.814 552.215 125.592 552.807 126.024C553.4 126.456 554.226 126.469 554.831 126.024L568.17 116.506L581.51 126.024C581.806 126.234 582.164 126.345 582.509 126.345C582.855 126.345 583.225 126.234 583.521 126.012C584.126 125.58 584.373 124.802 584.15 124.098L579.227 108.469L592.393 98.7155C592.986 98.2711 593.245 97.4933 593.01 96.7896L593.023 96.8019Z" fill="#FFA94D"></path><path d="M651.724 98.5304C651.49 97.8267 650.836 97.3453 650.095 97.3329L633.708 97.1971L628.513 81.6539C628.278 80.9502 627.612 80.4688 626.872 80.4688C626.131 80.4688 625.465 80.9502 625.23 81.6539L620.035 97.1971L603.648 97.3329C602.908 97.3329 602.254 97.8267 602.019 98.5304C601.785 99.2341 602.044 100.012 602.636 100.456L615.803 110.209L610.879 125.839C610.657 126.543 610.916 127.321 611.508 127.753C612.101 128.185 612.928 128.197 613.532 127.753L626.872 118.234L640.211 127.753C640.507 127.962 640.865 128.074 641.211 128.074C641.556 128.074 641.926 127.962 642.222 127.74C642.827 127.308 643.074 126.53 642.852 125.827L637.928 110.197L651.095 100.444C651.687 99.9996 651.946 99.2218 651.712 98.5181L651.724 98.5304Z" fill="#D63A3A"></path><path d="M655.179 96.8019C654.945 96.0982 654.29 95.6167 653.55 95.6044L637.163 95.4686L631.968 79.9254C631.733 79.2217 631.067 78.7402 630.326 78.7402C629.586 78.7402 628.92 79.2217 628.685 79.9254L623.49 95.4686L607.103 95.6044C606.362 95.6044 605.708 96.0982 605.474 96.8019C605.24 97.5056 605.499 98.2834 606.091 98.7278L619.258 108.481L614.334 124.11C614.112 124.814 614.371 125.592 614.963 126.024C615.556 126.456 616.382 126.469 616.987 126.024L630.326 116.506L643.666 126.024C643.962 126.234 644.32 126.345 644.665 126.345C645.011 126.345 645.381 126.234 645.677 126.012C646.282 125.58 646.529 124.802 646.307 124.098L641.383 108.469L654.55 98.7155C655.142 98.2711 655.401 97.4933 655.167 96.7896L655.179 96.8019Z" fill="#FFA94D"></path></svg>