<svg xmlns="http://www.w3.org/2000/svg" xmlns:xlink="http://www.w3.org/1999/xlink" width="500" viewBox="0 0 375 374.999991" height="500" preserveAspectRatio="xMidYMid meet"><defs><clipPath id="dee394fbe0"><path d="M 41.683594 47 L 333 47 L 333 345 L 41.683594 345 Z M 41.683594 47 " clip-rule="nonzero"></path></clipPath></defs><g clip-path="url(#dee394fbe0)"><path fill="#5acbf2" d="M 317.980469 99.035156 L 229.289062 99.035156 C 211.175781 30.773438 113.195312 30.308594 95.085938 99.035156 L 57.007812 99.035156 C 48.648438 99.035156 41.683594 106 41.683594 114.359375 L 41.683594 288.960938 C 41.683594 296.390625 46.792969 302.429688 53.757812 303.820312 C 54.6875 303.820312 55.613281 304.285156 57.007812 304.285156 L 146.167969 304.285156 L 141.988281 335.398438 L 128.519531 335.398438 C 125.734375 335.398438 123.875 337.253906 123.875 340.042969 C 123.875 342.828125 125.734375 344.683594 128.519531 344.683594 L 246.003906 344.683594 C 248.789062 344.683594 250.648438 342.828125 250.648438 340.042969 C 250.648438 337.253906 248.789062 335.398438 246.003906 335.398438 L 232.539062 335.398438 L 228.359375 304.285156 L 317.515625 304.285156 C 325.875 304.285156 332.839844 297.320312 332.839844 288.960938 L 332.839844 114.359375 C 333.304688 106 326.339844 99.035156 317.980469 99.035156 Z M 50.972656 288.496094 L 50.972656 270.851562 L 324.019531 270.851562 L 324.019531 288.496094 C 324.019531 291.746094 321.230469 294.535156 317.980469 294.535156 L 224.179688 294.535156 C 223.714844 294.535156 223.714844 294.535156 223.25 294.535156 L 151.738281 294.535156 C 151.273438 294.535156 151.273438 294.535156 150.808594 294.535156 L 57.007812 294.535156 C 56.078125 294.535156 55.613281 294.535156 54.6875 294.070312 C 52.363281 293.140625 50.972656 291.285156 50.972656 288.496094 Z M 161.953125 56.777344 C 210.25 56.777344 238.574219 109.714844 212.570312 150.117188 C 212.105469 150.582031 212.105469 150.582031 211.640625 151.046875 C 204.675781 162.191406 196.78125 165.90625 194.925781 167.761719 C 171.707031 183.085938 139.664062 180.300781 119.234375 159.867188 C 81.621094 121.789062 108.550781 56.777344 161.953125 56.777344 Z M 215.820312 181.230469 L 205.605469 171.011719 C 209.785156 167.761719 213.035156 164.511719 216.285156 160.332031 L 226.5 170.546875 C 228.359375 172.40625 231.144531 172.40625 233.003906 170.546875 L 236.71875 166.832031 L 268.757812 198.875 C 275.722656 205.839844 275.722656 216.984375 268.757812 223.949219 C 262.257812 230.453125 250.183594 230.453125 243.683594 223.949219 L 211.640625 191.910156 L 215.355469 188.195312 C 216.285156 187.265625 216.75 186.335938 216.75 184.945312 C 217.214844 183.550781 216.75 182.15625 215.820312 181.230469 Z M 57.007812 108.324219 L 93.230469 108.324219 C 90.441406 128.753906 97.40625 150.582031 113.195312 166.371094 C 126.664062 179.835938 144.773438 186.800781 162.417969 186.800781 C 174.957031 186.800781 187.03125 183.550781 198.175781 177.050781 L 206.070312 184.945312 L 203.746094 186.800781 C 200.960938 189.585938 200.960938 194.230469 203.746094 197.015625 L 237.183594 230.453125 C 247.863281 241.132812 265.042969 241.132812 275.257812 230.453125 C 285.941406 219.769531 285.941406 202.589844 275.257812 192.375 L 241.824219 158.9375 C 239.039062 156.152344 234.394531 156.152344 231.609375 158.9375 L 229.289062 161.261719 L 221.394531 153.367188 C 229.75 139.898438 232.539062 124.113281 230.679688 108.789062 L 317.515625 108.789062 C 320.765625 108.789062 323.554688 111.574219 323.554688 114.824219 L 323.554688 262.492188 L 50.972656 262.492188 L 50.972656 114.359375 C 50.972656 111.109375 53.757812 108.324219 57.007812 108.324219 Z M 223.714844 335.398438 L 151.273438 335.398438 L 155.453125 304.285156 L 219.070312 304.285156 Z M 223.714844 335.398438 " fill-opacity="1" fill-rule="nonzero"></path></g><path fill="#5acbf2" d="M 111.804688 119.933594 C 125.269531 134.328125 142.914062 142.6875 161.953125 142.6875 C 180.992188 142.6875 198.640625 134.792969 212.105469 119.933594 C 213.964844 118.074219 213.964844 115.289062 212.105469 113.429688 C 198.640625 99.035156 180.992188 90.675781 161.953125 90.675781 C 142.914062 90.675781 125.269531 98.570312 111.804688 113.429688 C 110.410156 115.753906 110.410156 118.539062 111.804688 119.933594 Z M 161.953125 100.429688 C 176.8125 100.429688 191.210938 106.464844 202.355469 116.683594 C 191.210938 127.363281 177.277344 132.933594 161.953125 132.933594 C 147.09375 132.933594 132.699219 127.363281 121.554688 116.683594 C 133.164062 106.464844 147.09375 100.429688 161.953125 100.429688 Z M 161.953125 100.429688 " fill-opacity="1" fill-rule="nonzero"></path><path fill="#5acbf2" d="M 129.449219 91.140625 C 130.378906 93.464844 133.164062 94.855469 135.484375 93.464844 C 137.808594 92.535156 139.199219 89.75 137.808594 87.425781 L 134.09375 78.605469 C 133.164062 76.28125 130.378906 74.890625 128.054688 76.28125 C 125.734375 77.210938 124.339844 79.996094 125.734375 82.320312 Z M 129.449219 91.140625 " fill-opacity="1" fill-rule="nonzero"></path><path fill="#5acbf2" d="M 161.953125 88.355469 C 164.742188 88.355469 166.597656 86.5 166.597656 83.710938 L 166.597656 73.960938 C 166.597656 71.175781 164.742188 69.316406 161.953125 69.316406 C 159.167969 69.316406 157.3125 71.175781 157.3125 73.960938 L 157.3125 83.710938 C 157.3125 86.035156 159.632812 88.355469 161.953125 88.355469 Z M 161.953125 88.355469 " fill-opacity="1" fill-rule="nonzero"></path><path fill="#5acbf2" d="M 188.421875 93.464844 C 190.746094 94.394531 193.53125 93.464844 194.460938 91.140625 C 195.390625 86.960938 202.355469 79.070312 195.851562 76.28125 C 193.53125 75.355469 190.746094 76.28125 189.816406 78.605469 L 186.101562 87.425781 C 185.171875 89.75 186.101562 92.535156 188.421875 93.464844 Z M 188.421875 93.464844 " fill-opacity="1" fill-rule="nonzero"></path><path fill="#5acbf2" d="M 194.460938 143.152344 C 193.53125 140.828125 190.746094 139.4375 188.421875 140.828125 C 186.101562 141.757812 184.707031 144.542969 186.101562 146.867188 L 189.816406 155.6875 C 190.746094 158.011719 193.53125 159.402344 195.851562 158.011719 C 198.175781 157.082031 199.566406 154.296875 198.175781 151.972656 Z M 194.460938 143.152344 " fill-opacity="1" fill-rule="nonzero"></path><path fill="#5acbf2" d="M 161.953125 145.9375 C 159.167969 145.9375 157.3125 147.792969 157.3125 150.582031 L 157.3125 160.332031 C 157.3125 163.117188 159.167969 164.976562 161.953125 164.976562 C 164.742188 164.976562 166.597656 163.117188 166.597656 160.332031 L 166.597656 150.582031 C 166.597656 147.792969 164.742188 145.9375 161.953125 145.9375 Z M 161.953125 145.9375 " fill-opacity="1" fill-rule="nonzero"></path><path fill="#5acbf2" d="M 135.484375 140.363281 C 133.164062 139.4375 130.378906 140.363281 129.449219 142.6875 L 125.734375 151.507812 C 124.804688 153.832031 125.734375 156.617188 128.054688 157.546875 C 130.378906 158.476562 133.164062 157.546875 134.09375 155.222656 L 137.808594 146.402344 C 139.199219 144.078125 137.808594 141.292969 135.484375 140.363281 Z M 135.484375 140.363281 " fill-opacity="1" fill-rule="nonzero"></path><path fill="#5acbf2" d="M 176.8125 117.148438 C 176.8125 108.789062 170.3125 102.285156 161.953125 102.285156 C 153.597656 102.285156 147.09375 108.789062 147.09375 117.148438 C 147.09375 125.503906 153.597656 132.007812 161.953125 132.007812 C 170.3125 132.007812 176.8125 125.039062 176.8125 117.148438 Z M 156.382812 117.148438 C 156.382812 113.894531 158.703125 111.574219 161.953125 111.574219 C 165.207031 111.574219 167.527344 113.894531 167.527344 117.148438 C 167.527344 120.398438 165.207031 122.71875 161.953125 122.71875 C 159.167969 122.71875 156.382812 119.933594 156.382812 117.148438 Z M 156.382812 117.148438 " fill-opacity="1" fill-rule="nonzero"></path><path fill="#5acbf2" d="M 72.796875 253.667969 L 174.027344 253.667969 C 176.8125 253.667969 178.671875 251.8125 178.671875 249.027344 C 178.671875 246.238281 176.8125 244.382812 174.027344 244.382812 L 169.382812 244.382812 L 169.382812 214.664062 C 169.382812 211.875 167.527344 210.019531 164.742188 210.019531 C 161.953125 210.019531 160.097656 211.875 160.097656 214.664062 L 160.097656 244.382812 L 141.988281 244.382812 L 141.988281 208.160156 C 141.988281 205.375 140.128906 203.519531 137.34375 203.519531 C 134.558594 203.519531 132.699219 205.375 132.699219 208.160156 L 132.699219 244.382812 L 114.589844 244.382812 L 114.589844 200.269531 C 114.589844 197.480469 112.730469 195.625 109.945312 195.625 C 107.160156 195.625 105.300781 197.480469 105.300781 200.269531 L 105.300781 244.382812 L 87.191406 244.382812 L 87.191406 190.980469 C 87.191406 188.195312 85.335938 186.335938 82.546875 186.335938 C 79.761719 186.335938 77.90625 188.195312 77.90625 190.980469 L 77.90625 244.382812 L 73.261719 244.382812 C 70.476562 244.382812 68.617188 246.238281 68.617188 249.027344 C 68.152344 251.347656 70.476562 253.667969 72.796875 253.667969 Z M 72.796875 253.667969 " fill-opacity="1" fill-rule="nonzero"></path><path fill="#5acbf2" d="M 264.113281 212.339844 C 264.113281 212.828125 264.066406 213.3125 263.972656 213.789062 C 263.875 214.269531 263.734375 214.734375 263.550781 215.183594 C 263.363281 215.636719 263.132812 216.0625 262.863281 216.46875 C 262.589844 216.875 262.285156 217.25 261.9375 217.59375 C 261.59375 217.941406 261.21875 218.246094 260.8125 218.519531 C 260.40625 218.789062 259.980469 219.019531 259.527344 219.207031 C 259.078125 219.390625 258.613281 219.53125 258.132812 219.628906 C 257.65625 219.722656 257.171875 219.769531 256.683594 219.769531 C 256.195312 219.769531 255.714844 219.722656 255.234375 219.628906 C 254.757812 219.53125 254.292969 219.390625 253.839844 219.207031 C 253.390625 219.019531 252.960938 218.789062 252.558594 218.519531 C 252.152344 218.246094 251.777344 217.941406 251.429688 217.59375 C 251.085938 217.25 250.777344 216.875 250.507812 216.46875 C 250.234375 216.0625 250.007812 215.636719 249.820312 215.183594 C 249.632812 214.734375 249.492188 214.269531 249.398438 213.789062 C 249.304688 213.3125 249.253906 212.828125 249.253906 212.339844 C 249.253906 211.851562 249.304688 211.371094 249.398438 210.890625 C 249.492188 210.414062 249.632812 209.949219 249.820312 209.496094 C 250.007812 209.046875 250.234375 208.617188 250.507812 208.214844 C 250.777344 207.808594 251.085938 207.433594 251.429688 207.085938 C 251.777344 206.742188 252.152344 206.433594 252.558594 206.164062 C 252.960938 205.890625 253.390625 205.664062 253.839844 205.476562 C 254.292969 205.289062 254.757812 205.148438 255.234375 205.054688 C 255.714844 204.960938 256.195312 204.910156 256.683594 204.910156 C 257.171875 204.910156 257.65625 204.960938 258.132812 205.054688 C 258.613281 205.148438 259.078125 205.289062 259.527344 205.476562 C 259.980469 205.664062 260.40625 205.890625 260.8125 206.164062 C 261.21875 206.433594 261.59375 206.742188 261.9375 207.085938 C 262.285156 207.433594 262.589844 207.808594 262.863281 208.214844 C 263.132812 208.617188 263.363281 209.046875 263.550781 209.496094 C 263.734375 209.949219 263.875 210.414062 263.972656 210.890625 C 264.066406 211.371094 264.113281 211.851562 264.113281 212.339844 Z M 264.113281 212.339844 " fill-opacity="1" fill-rule="nonzero"></path><path fill="#5acbf2" d="M 237.644531 200.730469 C 241.824219 200.730469 245.074219 197.480469 245.074219 193.300781 C 245.074219 189.125 241.824219 185.871094 237.644531 185.871094 C 233.464844 185.871094 230.214844 189.125 230.214844 193.300781 C 230.679688 197.480469 233.929688 200.730469 237.644531 200.730469 Z M 237.644531 200.730469 " fill-opacity="1" fill-rule="nonzero"></path></svg>