<svg xmlns="http://www.w3.org/2000/svg" xmlns:xlink="http://www.w3.org/1999/xlink" width="500" viewBox="0 0 375 374.999991" height="500" preserveAspectRatio="xMidYMid meet"><defs><clipPath id="e36a9c8861"><path d="M 26.15625 26.15625 L 348.65625 26.15625 L 348.65625 348.65625 L 26.15625 348.65625 Z M 26.15625 26.15625 " clip-rule="nonzero"></path></clipPath></defs><g clip-path="url(#e36a9c8861)"><path fill="#5acbf2" d="M 321.5625 26.15625 L 53.429688 26.15625 C 38.46875 26.15625 26.289062 38.332031 26.289062 53.304688 L 26.289062 266.398438 C 26.289062 275.019531 33.304688 282.042969 41.933594 282.042969 L 115.660156 282.042969 L 107.777344 320.90625 L 93.199219 320.90625 C 85.492188 320.90625 79.226562 327.171875 79.226562 334.878906 C 79.226562 342.582031 85.492188 348.84375 93.199219 348.84375 L 281.800781 348.84375 C 289.507812 348.84375 295.773438 342.578125 295.773438 334.871094 C 295.773438 327.164062 289.507812 320.898438 281.800781 320.898438 L 266.980469 320.898438 L 256.066406 282.035156 L 333.0625 282.035156 C 341.6875 282.035156 348.710938 275.019531 348.710938 266.390625 L 348.710938 53.304688 C 348.710938 38.332031 336.53125 26.15625 321.5625 26.15625 Z M 53.429688 34.191406 L 321.5625 34.191406 C 332.105469 34.191406 340.675781 42.765625 340.675781 53.304688 L 340.675781 235.769531 L 34.324219 235.769531 L 34.324219 53.304688 C 34.324219 42.765625 42.894531 34.191406 53.429688 34.191406 Z M 287.742188 334.871094 C 287.742188 338.144531 285.074219 340.808594 281.800781 340.808594 L 93.199219 340.808594 C 89.921875 340.808594 87.257812 338.144531 87.257812 334.871094 C 87.257812 331.597656 89.921875 328.933594 93.199219 328.933594 L 281.800781 328.933594 C 285.074219 328.933594 287.742188 331.597656 287.742188 334.871094 Z M 258.636719 320.898438 L 115.972656 320.898438 L 123.851562 282.035156 L 247.726562 282.035156 Z M 340.675781 266.390625 C 340.675781 270.589844 337.261719 274.003906 333.0625 274.003906 L 41.933594 274.003906 C 37.738281 274.003906 34.324219 270.589844 34.324219 266.390625 L 34.324219 243.796875 L 340.675781 243.796875 Z M 57.480469 120.511719 C 55.265625 120.511719 53.464844 122.3125 53.464844 124.527344 L 53.464844 176.246094 C 53.464844 178.460938 55.265625 180.261719 57.480469 180.261719 L 78.582031 180.261719 C 80.796875 180.261719 82.597656 178.460938 82.597656 176.246094 L 82.597656 124.527344 C 82.597656 122.3125 80.796875 120.511719 78.582031 120.511719 Z M 74.566406 172.230469 L 61.496094 172.230469 L 61.496094 128.546875 L 74.566406 128.546875 Z M 95.210938 103.527344 C 92.996094 103.527344 91.195312 105.328125 91.195312 107.542969 L 91.195312 176.246094 C 91.195312 178.460938 92.996094 180.261719 95.210938 180.261719 L 116.3125 180.261719 C 118.53125 180.261719 120.332031 178.460938 120.332031 176.246094 L 120.332031 107.542969 C 120.332031 105.328125 118.53125 103.527344 116.3125 103.527344 Z M 112.296875 172.230469 L 99.230469 172.230469 L 99.230469 111.5625 L 112.296875 111.5625 Z M 132.242188 134.980469 C 130.023438 134.980469 128.222656 136.78125 128.222656 138.996094 L 128.222656 176.238281 C 128.222656 178.457031 130.023438 180.257812 132.242188 180.257812 L 153.34375 180.257812 C 155.558594 180.257812 157.359375 178.457031 157.359375 176.238281 L 157.359375 138.996094 C 157.359375 136.78125 155.558594 134.980469 153.34375 134.980469 Z M 149.328125 172.230469 L 136.257812 172.230469 L 136.257812 143.019531 L 149.328125 143.019531 Z M 188.960938 107.515625 L 167.855469 107.515625 C 165.640625 107.515625 163.839844 109.316406 163.839844 111.535156 L 163.839844 176.238281 C 163.839844 178.453125 165.640625 180.257812 167.855469 180.257812 L 188.960938 180.257812 C 191.175781 180.257812 192.976562 178.453125 192.976562 176.238281 L 192.976562 111.535156 C 192.976562 109.316406 191.175781 107.515625 188.960938 107.515625 Z M 184.941406 172.230469 L 171.875 172.230469 L 171.875 115.558594 L 184.941406 115.558594 Z M 51.527344 109.765625 C 50.210938 107.984375 50.585938 105.46875 52.367188 104.148438 L 103.070312 66.613281 C 104.644531 65.449219 106.835938 65.589844 108.246094 66.945312 L 143.871094 101.277344 L 188.496094 68.867188 L 179.566406 67.722656 C 177.363281 67.441406 175.8125 65.425781 176.09375 63.226562 C 176.371094 61.023438 178.386719 59.476562 180.589844 59.75 L 199.765625 62.214844 C 201.96875 62.496094 203.519531 64.511719 203.238281 66.710938 L 200.777344 85.886719 C 200.515625 87.914062 198.785156 89.394531 196.796875 89.394531 C 196.632812 89.394531 196.457031 89.382812 196.285156 89.359375 C 194.082031 89.078125 192.527344 87.066406 192.808594 84.863281 L 194.113281 74.714844 L 145.863281 109.746094 C 144.292969 110.890625 142.121094 110.738281 140.714844 109.386719 L 105.121094 75.074219 L 57.144531 110.589844 C 56.429688 111.121094 55.59375 111.378906 54.761719 111.378906 C 53.53125 111.394531 52.3125 110.832031 51.527344 109.765625 Z M 47.820312 197.375 C 47.820312 195.160156 49.621094 193.359375 51.835938 193.359375 L 194.601562 193.359375 C 196.820312 193.359375 198.621094 195.160156 198.621094 197.375 C 198.621094 199.589844 196.820312 201.390625 194.601562 201.390625 L 51.835938 201.390625 C 49.621094 201.390625 47.820312 199.589844 47.820312 197.375 Z M 270.535156 151.996094 C 259.722656 151.996094 250.925781 160.792969 250.925781 171.605469 C 250.925781 182.417969 259.722656 191.214844 270.535156 191.214844 C 281.347656 191.214844 290.144531 182.417969 290.144531 171.605469 C 290.144531 160.792969 281.347656 151.996094 270.535156 151.996094 Z M 270.535156 183.179688 C 264.148438 183.179688 258.960938 177.988281 258.960938 171.605469 C 258.960938 165.21875 264.15625 160.03125 270.535156 160.03125 C 276.921875 160.03125 282.109375 165.226562 282.109375 171.605469 C 282.109375 177.992188 276.914062 183.179688 270.535156 183.179688 Z M 312.9375 159.246094 L 306.042969 159.246094 C 305.570312 157.882812 305.011719 156.542969 304.382812 155.238281 L 309.265625 150.355469 C 312.042969 147.578125 312.042969 143.058594 309.265625 140.28125 L 301.867188 132.882812 C 300.519531 131.539062 298.734375 130.800781 296.824219 130.800781 C 294.917969 130.800781 293.128906 131.542969 291.785156 132.882812 L 286.902344 137.765625 C 285.605469 137.136719 284.257812 136.578125 282.894531 136.105469 L 282.894531 129.207031 C 282.894531 125.277344 279.699219 122.085938 275.769531 122.085938 L 265.304688 122.085938 C 261.375 122.085938 258.183594 125.277344 258.183594 129.207031 L 258.183594 136.105469 C 256.816406 136.578125 255.476562 137.136719 254.171875 137.765625 L 249.292969 132.882812 C 247.945312 131.539062 246.160156 130.800781 244.25 130.800781 C 242.34375 130.800781 240.554688 131.542969 239.210938 132.882812 L 231.8125 140.28125 C 229.035156 143.058594 229.035156 147.578125 231.8125 150.355469 L 236.691406 155.238281 C 236.0625 156.535156 235.507812 157.882812 235.03125 159.246094 L 228.136719 159.246094 C 224.207031 159.246094 221.007812 162.449219 221.007812 166.378906 L 221.007812 176.839844 C 221.007812 180.769531 224.207031 183.964844 228.136719 183.964844 L 235.03125 183.964844 C 235.507812 185.332031 236.0625 186.667969 236.691406 187.976562 L 231.8125 192.855469 C 229.035156 195.632812 229.035156 200.152344 231.8125 202.929688 L 239.210938 210.328125 C 240.554688 211.675781 242.34375 212.417969 244.25 212.417969 C 246.160156 212.417969 247.945312 211.675781 249.292969 210.328125 L 254.171875 205.449219 C 255.476562 206.078125 256.816406 206.640625 258.183594 207.109375 L 258.183594 214.003906 C 258.183594 217.933594 261.375 221.128906 265.304688 221.128906 L 275.769531 221.128906 C 279.699219 221.128906 282.894531 217.925781 282.894531 214.003906 L 282.894531 207.109375 C 284.257812 206.632812 285.597656 206.078125 286.902344 205.449219 L 291.785156 210.328125 C 293.128906 211.675781 294.917969 212.417969 296.824219 212.417969 C 298.734375 212.417969 300.519531 211.675781 301.867188 210.328125 L 309.265625 202.929688 C 312.042969 200.152344 312.042969 195.632812 309.265625 192.855469 L 304.382812 187.976562 C 305.011719 186.667969 305.570312 185.332031 306.042969 183.964844 L 312.9375 183.964844 C 316.871094 183.964844 320.0625 180.769531 320.0625 176.839844 L 320.0625 166.378906 C 320.0625 162.449219 316.871094 159.246094 312.9375 159.246094 Z M 312.027344 175.929688 L 305.386719 175.929688 C 302.300781 175.929688 299.582031 177.898438 298.621094 180.832031 C 298.15625 182.230469 297.589844 183.609375 296.917969 184.929688 C 295.519531 187.6875 296.054688 191.007812 298.238281 193.191406 L 302.9375 197.890625 L 296.820312 204.007812 L 292.117188 199.308594 C 289.9375 197.125 286.617188 196.597656 283.855469 197.992188 C 282.539062 198.660156 281.160156 199.230469 279.761719 199.691406 C 276.828125 200.65625 274.859375 203.371094 274.859375 206.460938 L 274.859375 213.101562 L 266.210938 213.101562 L 266.210938 206.460938 C 266.210938 203.371094 264.242188 200.65625 261.308594 199.691406 C 259.910156 199.230469 258.53125 198.660156 257.210938 197.992188 C 254.453125 196.589844 251.140625 197.125 248.949219 199.308594 L 244.25 204.007812 L 238.132812 197.890625 L 242.832031 193.191406 C 245.015625 191.007812 245.542969 187.6875 244.152344 184.929688 C 243.480469 183.609375 242.914062 182.230469 242.449219 180.832031 C 241.484375 177.898438 238.769531 175.929688 235.683594 175.929688 L 229.039062 175.929688 L 229.039062 167.28125 L 235.683594 167.28125 C 238.769531 167.28125 241.484375 165.3125 242.449219 162.382812 C 242.914062 160.976562 243.480469 159.597656 244.152344 158.277344 C 245.542969 155.519531 245.015625 152.203125 242.832031 150.015625 L 238.132812 145.316406 L 244.25 139.195312 L 248.949219 143.898438 C 251.132812 146.078125 254.453125 146.609375 257.210938 145.214844 C 258.53125 144.546875 259.910156 143.976562 261.316406 143.515625 C 264.25 142.550781 266.214844 139.832031 266.214844 136.746094 L 266.214844 130.105469 L 274.867188 130.105469 L 274.867188 136.746094 C 274.867188 139.832031 276.835938 142.550781 279.765625 143.515625 C 281.167969 143.976562 282.546875 144.546875 283.863281 145.214844 C 286.621094 146.613281 289.941406 146.085938 292.125 143.898438 L 296.824219 139.195312 L 302.945312 145.316406 L 298.246094 150.015625 C 296.0625 152.199219 295.527344 155.519531 296.925781 158.277344 C 297.59375 159.597656 298.164062 160.976562 298.625 162.382812 C 299.589844 165.3125 302.308594 167.28125 305.394531 167.28125 L 312.035156 167.28125 L 312.035156 175.929688 Z M 240.09375 118.871094 C 254.546875 118.871094 266.304688 107.117188 266.304688 92.660156 C 266.304688 78.207031 254.546875 66.453125 240.09375 66.453125 C 225.640625 66.453125 213.882812 78.207031 213.882812 92.660156 C 213.882812 107.109375 225.640625 118.871094 240.09375 118.871094 Z M 240.09375 74.480469 C 250.117188 74.480469 258.269531 82.632812 258.269531 92.65625 C 258.269531 102.675781 250.117188 110.832031 240.09375 110.832031 C 230.070312 110.832031 221.917969 102.675781 221.917969 92.65625 C 221.917969 82.632812 230.070312 74.480469 240.09375 74.480469 Z M 300.96875 118.871094 C 315.421875 118.871094 327.179688 107.117188 327.179688 92.660156 C 327.179688 78.207031 315.421875 66.453125 300.96875 66.453125 C 286.515625 66.453125 274.757812 78.207031 274.757812 92.660156 C 274.757812 107.109375 286.515625 118.871094 300.96875 118.871094 Z M 300.96875 74.480469 C 310.992188 74.480469 319.144531 82.632812 319.144531 92.65625 C 319.144531 102.675781 310.992188 110.832031 300.96875 110.832031 C 290.945312 110.832031 282.792969 102.675781 282.792969 92.65625 C 282.792969 82.632812 290.945312 74.480469 300.96875 74.480469 Z M 289.019531 94.683594 C 287.453125 93.117188 287.453125 90.574219 289.019531 89 C 290.585938 87.433594 293.128906 87.433594 294.703125 89 L 298.480469 92.777344 L 307.242188 84.011719 C 308.808594 82.445312 311.351562 82.445312 312.925781 84.011719 C 314.492188 85.578125 314.492188 88.121094 312.925781 89.695312 L 301.316406 101.304688 C 300.5625 102.054688 299.542969 102.484375 298.480469 102.484375 C 297.414062 102.484375 296.390625 102.0625 295.640625 101.304688 Z M 230.40625 96.671875 L 234.417969 92.660156 L 230.40625 88.652344 C 228.839844 87.085938 228.839844 84.539062 230.40625 82.96875 C 231.972656 81.402344 234.515625 81.402344 236.089844 82.96875 L 240.101562 86.976562 L 244.109375 82.96875 C 245.675781 81.402344 248.222656 81.402344 249.792969 82.96875 C 251.359375 84.535156 251.359375 87.078125 249.792969 88.652344 L 245.785156 92.660156 L 249.792969 96.671875 C 251.359375 98.238281 251.359375 100.78125 249.792969 102.355469 C 249.011719 103.140625 247.980469 103.535156 246.957031 103.535156 C 245.925781 103.535156 244.902344 103.140625 244.117188 102.355469 L 240.105469 98.34375 L 236.097656 102.355469 C 235.3125 103.140625 234.28125 103.535156 233.257812 103.535156 C 232.234375 103.535156 231.203125 103.140625 230.417969 102.355469 C 228.832031 100.78125 228.832031 98.238281 230.40625 96.671875 Z M 230.40625 96.671875 " fill-opacity="1" fill-rule="nonzero"></path></g></svg>