<svg xmlns="http://www.w3.org/2000/svg" xmlns:xlink="http://www.w3.org/1999/xlink" width="500" viewBox="0 0 375 374.999991" height="500" preserveAspectRatio="xMidYMid meet"><defs><clipPath id="80e54e4cf6"><path d="M 70.429688 297.527344 L 101.464844 297.527344 L 101.464844 327.21875 L 70.429688 327.21875 Z M 70.429688 297.527344 " clip-rule="nonzero"></path></clipPath><clipPath id="884591317d"><path d="M 195.203125 147.496094 L 375 147.496094 L 375 327.21875 L 195.203125 327.21875 Z M 195.203125 147.496094 " clip-rule="nonzero"></path></clipPath></defs><g clip-path="url(#80e54e4cf6)"><path fill="#5acbf2" d="M 85.988281 298.175781 C 78.277344 298.175781 73.542969 297.910156 70.519531 297.539062 L 70.519531 317.144531 C 70.519531 317.402344 70.632812 317.648438 70.832031 317.816406 L 76.027344 322.183594 C 76.1875 322.3125 76.386719 322.386719 76.59375 322.386719 C 76.929688 322.386719 77.234375 322.578125 77.382812 322.882812 L 79.226562 326.722656 C 79.371094 327.027344 79.679688 327.21875 80.015625 327.21875 L 91.964844 327.21875 C 92.300781 327.21875 92.609375 327.027344 92.753906 326.722656 L 94.597656 322.882812 C 94.746094 322.578125 95.050781 322.386719 95.390625 322.386719 C 95.59375 322.386719 95.792969 322.3125 95.953125 322.183594 L 101.148438 317.816406 C 101.347656 317.648438 101.460938 317.402344 101.460938 317.144531 L 101.460938 297.539062 C 98.4375 297.910156 93.703125 298.175781 85.988281 298.175781 " fill-opacity="1" fill-rule="nonzero"></path></g><path fill="#5acbf2" d="M 85.992188 214.328125 C 83.515625 214.328125 70.878906 215.011719 65.371094 228.496094 C 64.664062 230.21875 63 231.261719 61.246094 231.261719 C 60.6875 231.261719 60.117188 231.15625 59.566406 230.933594 C 57.289062 230.003906 56.195312 227.40625 57.128906 225.128906 C 64.785156 206.375 82.515625 205.425781 85.992188 205.425781 C 88.449219 205.425781 90.441406 207.417969 90.441406 209.875 C 90.441406 212.335938 88.449219 214.328125 85.992188 214.328125 Z M 121.859375 219.851562 C 112.382812 196.652344 90.53125 195.300781 85.992188 195.300781 C 81.449219 195.300781 59.597656 196.652344 50.121094 219.851562 C 40.644531 243.050781 60.707031 264.847656 64.625 271.226562 C 68.539062 277.605469 66.507812 286.738281 69.121094 288.191406 C 71.730469 289.640625 100.25 289.640625 102.859375 288.191406 C 105.472656 286.738281 103.441406 277.605469 107.355469 271.226562 C 111.273438 264.847656 131.335938 243.050781 121.859375 219.851562 " fill-opacity="1" fill-rule="nonzero"></path><path fill="#5acbf2" d="M 85.988281 186.398438 C 83.53125 186.398438 81.539062 184.40625 81.539062 181.949219 L 81.539062 152.085938 C 81.539062 149.628906 83.53125 147.636719 85.988281 147.636719 C 88.449219 147.636719 90.441406 149.628906 90.441406 152.085938 L 90.441406 181.949219 C 90.441406 184.40625 88.449219 186.398438 85.988281 186.398438 " fill-opacity="1" fill-rule="nonzero"></path><path fill="#5acbf2" d="M 120.054688 200.839844 C 118.316406 199.101562 118.316406 196.28125 120.054688 194.542969 L 141.179688 173.429688 C 142.917969 171.691406 145.738281 171.691406 147.476562 173.429688 C 149.214844 175.167969 149.214844 177.984375 147.476562 179.722656 L 126.351562 200.839844 C 124.613281 202.574219 121.792969 202.574219 120.054688 200.839844 " fill-opacity="1" fill-rule="nonzero"></path><path fill="#5acbf2" d="M 119.8125 269.21875 C 118.074219 270.957031 118.074219 273.777344 119.8125 275.511719 L 140.933594 296.628906 C 142.671875 298.367188 145.492188 298.367188 147.230469 296.628906 C 148.96875 294.890625 148.96875 292.074219 147.230469 290.335938 L 126.105469 269.21875 C 124.367188 267.480469 121.550781 267.480469 119.8125 269.21875 " fill-opacity="1" fill-rule="nonzero"></path><path fill="#5acbf2" d="M 133.289062 229.632812 C 133.289062 227.175781 135.285156 225.183594 137.742188 225.183594 L 167.613281 225.183594 C 170.074219 225.183594 172.066406 227.175781 172.066406 229.632812 C 172.066406 232.09375 170.074219 234.085938 167.613281 234.085938 L 137.742188 234.085938 C 135.285156 234.085938 133.289062 232.09375 133.289062 229.632812 " fill-opacity="1" fill-rule="nonzero"></path><path fill="#5acbf2" d="M 52.011719 200.839844 C 53.75 199.101562 53.75 196.28125 52.011719 194.542969 L 30.886719 173.429688 C 29.148438 171.691406 26.332031 171.691406 24.589844 173.429688 C 22.851562 175.167969 22.851562 177.984375 24.589844 179.722656 L 45.714844 200.839844 C 47.453125 202.574219 50.273438 202.574219 52.011719 200.839844 " fill-opacity="1" fill-rule="nonzero"></path><path fill="#5acbf2" d="M 52.253906 269.21875 C 53.992188 270.957031 53.992188 273.777344 52.253906 275.511719 L 31.132812 296.628906 C 29.394531 298.367188 26.574219 298.367188 24.835938 296.628906 C 23.097656 294.890625 23.097656 292.074219 24.835938 290.335938 L 45.960938 269.21875 C 47.699219 267.480469 50.515625 267.480469 52.253906 269.21875 " fill-opacity="1" fill-rule="nonzero"></path><path fill="#5acbf2" d="M 38.777344 229.632812 C 38.777344 227.175781 36.78125 225.183594 34.324219 225.183594 L 4.453125 225.183594 C 1.992188 225.183594 0 227.175781 0 229.632812 C 0 232.09375 1.992188 234.085938 4.453125 234.085938 L 34.324219 234.085938 C 36.78125 234.085938 38.777344 232.09375 38.777344 229.632812 " fill-opacity="1" fill-rule="nonzero"></path><g clip-path="url(#884591317d)"><path fill="#5acbf2" d="M 285.121094 268.828125 C 267.765625 268.804688 253.714844 254.71875 253.738281 237.367188 C 253.761719 220.015625 267.851562 205.96875 285.210938 205.992188 C 302.566406 206.015625 316.621094 220.101562 316.59375 237.457031 C 316.570312 254.808594 302.480469 268.851562 285.121094 268.828125 Z M 368.265625 225.324219 L 352.996094 222.074219 C 350.082031 221.457031 347.683594 219.367188 346.730469 216.550781 C 345.828125 213.886719 344.757812 211.304688 343.53125 208.808594 C 342.214844 206.128906 342.433594 202.949219 344.070312 200.449219 L 352.609375 187.410156 C 354.8125 184.042969 354.355469 179.589844 351.511719 176.742188 L 346.042969 171.257812 C 343.199219 168.40625 338.746094 167.9375 335.375 170.132812 L 322.304688 178.628906 C 319.800781 180.257812 316.621094 180.472656 313.941406 179.144531 C 311.449219 177.914062 308.867188 176.835938 306.207031 175.925781 C 303.390625 174.964844 301.308594 172.558594 300.699219 169.648438 L 297.492188 154.375 C 296.664062 150.4375 293.195312 147.617188 289.171875 147.613281 L 281.414062 147.601562 C 277.390625 147.597656 273.910156 150.40625 273.074219 154.339844 L 269.824219 169.605469 C 269.207031 172.515625 267.117188 174.914062 264.296875 175.867188 C 261.636719 176.769531 259.050781 177.839844 256.554688 179.066406 C 253.875 180.382812 250.691406 180.160156 248.191406 178.527344 L 235.148438 169.992188 C 231.78125 167.789062 227.328125 168.246094 224.476562 171.085938 L 218.992188 176.554688 C 216.140625 179.398438 215.671875 183.847656 217.867188 187.222656 L 226.367188 200.285156 C 227.992188 202.789062 228.207031 205.96875 226.882812 208.644531 C 225.648438 211.136719 224.570312 213.71875 223.660156 216.378906 C 222.699219 219.191406 220.292969 221.273438 217.378906 221.882812 L 202.101562 225.089844 C 198.164062 225.914062 195.34375 229.382812 195.335938 233.40625 L 195.328125 241.164062 C 195.320312 245.1875 198.132812 248.664062 202.066406 249.5 L 217.335938 252.75 C 220.25 253.367188 222.648438 255.453125 223.601562 258.269531 C 224.503906 260.933594 225.574219 263.519531 226.800781 266.011719 C 228.117188 268.691406 227.898438 271.875 226.261719 274.375 L 217.726562 287.410156 C 215.519531 290.777344 215.976562 295.230469 218.820312 298.082031 L 224.289062 303.5625 C 227.132812 306.414062 231.582031 306.882812 234.960938 304.6875 L 248.027344 296.191406 C 250.53125 294.5625 253.714844 294.351562 256.390625 295.675781 C 258.882812 296.90625 261.464844 297.984375 264.125 298.894531 C 266.941406 299.859375 269.023438 302.261719 269.632812 305.175781 L 272.839844 320.449219 C 273.667969 324.382812 277.136719 327.203125 281.160156 327.207031 L 288.917969 327.21875 C 292.945312 327.222656 296.421875 324.414062 297.257812 320.480469 L 300.507812 305.21875 C 301.128906 302.304688 303.214844 299.910156 306.035156 298.953125 C 308.695312 298.050781 311.28125 296.980469 313.777344 295.753906 C 316.460938 294.4375 319.640625 294.660156 322.140625 296.296875 L 335.183594 304.828125 C 338.550781 307.03125 343.007812 306.574219 345.855469 303.734375 L 351.339844 298.265625 C 354.191406 295.425781 354.660156 290.976562 352.464844 287.601562 L 343.96875 274.539062 C 342.335938 272.035156 342.125 268.851562 343.449219 266.175781 C 344.683594 263.683594 345.761719 261.105469 346.671875 258.445312 C 347.632812 255.628906 350.039062 253.550781 352.953125 252.9375 L 368.230469 249.734375 C 372.167969 248.90625 374.988281 245.4375 374.996094 241.414062 L 375.003906 233.65625 C 375.011719 229.636719 372.199219 226.160156 368.265625 225.324219 " fill-opacity="1" fill-rule="nonzero"></path></g><path fill="#5acbf2" d="M 226.746094 76.351562 C 227.90625 77.132812 229.039062 77.9375 230.148438 78.757812 L 238.050781 67.007812 C 240.300781 63.660156 245.335938 64.003906 247.109375 67.625 L 278.671875 132.054688 C 280.445312 135.675781 277.632812 139.863281 273.605469 139.585938 L 202.011719 134.699219 C 197.984375 134.421875 195.765625 129.894531 198.015625 126.546875 L 206.976562 113.21875 C 206.597656 112.957031 206.21875 112.6875 205.832031 112.429688 C 169.222656 87.828125 119.597656 97.554688 94.988281 134.152344 C 94.921875 134.25 94.855469 134.347656 94.792969 134.445312 C 91.292969 139.695312 83.171875 136.089844 84.769531 129.984375 C 87.347656 120.152344 91.589844 110.578125 97.585938 101.664062 C 126.261719 59.019531 184.085938 47.6875 226.746094 76.351562 " fill-opacity="1" fill-rule="nonzero"></path></svg>