<svg xmlns="http://www.w3.org/2000/svg" width="638" height="581" viewBox="0 0 638 581" fill="none"><path d="M319 581C495.179 581 638 573.136 638 563.435C638 553.734 495.179 545.87 319 545.87C142.821 545.87 0 553.734 0 563.435C0 573.136 142.821 581 319 581Z" fill="#FFF1E2"></path><path d="M230.829 89.7136C327.093 72.6345 404.126 104.041 434.063 146.212C463.999 188.383 515.034 161.402 557.57 216.903C600.106 272.403 601.514 409.386 400.215 419.328C198.917 429.271 96.7788 400.32 75.4499 339.451C54.121 278.581 66.626 118.84 230.829 89.7136Z" fill="#FFF1E2"></path><path d="M201.826 126.771C201.826 126.771 232.466 204.935 358.667 216.618C484.867 228.301 527.931 186.669 571.942 198.81" stroke="#FF9A8D" stroke-linecap="round" stroke-linejoin="round"></path><path d="M167.032 129.293L187.021 100.761L214.846 92.4101L133.265 61.166L167.032 129.293Z" fill="#FF9A8D"></path><path d="M133.265 61.166L184.517 104.349L190.269 118.123L192.786 99.0206L133.265 61.166Z" fill="#D66F67"></path><path d="M178.833 112.442L190.269 118.121L184.517 104.348L178.833 112.442Z" fill="#EF857D"></path><path d="M115.278 213.44C137.712 204.387 148.535 178.92 139.453 156.558C130.371 134.196 104.823 123.407 82.3896 132.46C59.9562 141.513 49.1326 166.98 58.2146 189.342C67.2965 211.704 92.8448 222.493 115.278 213.44Z" stroke="#FF9A8D" stroke-linecap="round" stroke-linejoin="round"></path><path d="M584.07 313.392C595.976 308.537 601.679 294.98 596.808 283.112C591.938 271.244 578.338 265.56 566.432 270.415C554.526 275.27 548.823 288.827 553.694 300.694C558.565 312.562 572.165 318.247 584.07 313.392Z" stroke="#FF9A8D" stroke-linecap="round" stroke-linejoin="round"></path><path d="M274.881 59.8305C287.191 59.8305 297.17 49.8827 297.17 37.6115C297.17 25.3403 287.191 15.3926 274.881 15.3926C262.57 15.3926 252.591 25.3403 252.591 37.6115C252.591 49.8827 262.57 59.8305 274.881 59.8305Z" fill="#8CD3E8"></path><path d="M282.161 46.38C281.025 47.5942 279.468 48.3901 277.479 48.7544V52.0596H272.526V48.8623C269.724 48.525 267.505 47.7021 265.894 46.3665L267.396 43.0074C267.789 43.3716 268.33 43.7494 269.047 44.1406C269.751 44.5318 270.563 44.8691 271.483 45.1389C272.404 45.4087 273.324 45.5436 274.271 45.5436C275.422 45.5436 276.396 45.2873 277.195 44.7612C277.993 44.2485 278.399 43.4256 278.399 42.3059C278.399 41.6853 278.169 41.1592 277.695 40.7275C277.235 40.2958 276.667 39.945 276.004 39.6752C275.341 39.4054 274.474 39.1221 273.405 38.8118C271.957 38.3936 270.712 37.8944 269.656 37.3144C268.601 36.7343 267.735 35.9518 267.071 34.9535C266.408 33.9687 266.07 32.7275 266.07 31.2436C266.07 30.1374 266.327 29.1256 266.828 28.1947C267.329 27.2639 268.073 26.4949 269.034 25.8608C269.995 25.2268 271.159 24.7816 272.526 24.5522V20.5186H277.479V24.5657C278.656 24.7816 279.685 25.1323 280.578 25.5775C281.458 26.0362 282.08 26.4949 282.446 26.9536L280.781 30.1508C280.619 29.935 280.253 29.6382 279.698 29.2874C279.143 28.9367 278.48 28.6264 277.722 28.3566C276.965 28.0868 276.207 27.9519 275.435 27.9519C274.258 27.9519 273.27 28.2082 272.471 28.7208C271.673 29.2335 271.267 29.9755 271.267 30.9468C271.267 31.9856 271.713 32.7815 272.62 33.3211C273.527 33.8742 274.65 34.2925 276.017 34.6027C278.331 35.1424 280.226 36.0327 281.674 37.2604C283.122 38.488 283.853 40.026 283.853 41.8742C283.853 43.7224 283.285 45.1659 282.161 46.3665V46.38Z" fill="white"></path><path d="M132.237 306.952H156.597V318.365C156.597 321.792 153.809 324.584 150.358 324.584H138.462C135.025 324.584 132.223 321.805 132.223 318.365V306.952H132.237Z" fill="#D86A7D"></path><path d="M179.022 267.829C179.022 276.908 175.49 285.165 169.738 291.33C168.29 292.881 166.707 294.284 165.002 295.552C164.988 304.078 158.045 310.999 149.492 310.999H138.76C130.193 310.999 123.237 304.065 123.237 295.525V295.107C121.748 293.96 120.368 292.706 119.082 291.33C113.33 285.178 109.798 276.908 109.798 267.829C109.798 248.767 125.294 233.32 144.417 233.32C163.54 233.32 179.022 248.767 179.022 267.829Z" fill="#8CD3E8"></path><path d="M169.738 291.33C168.29 292.882 166.707 294.285 165.001 295.553C164.988 304.079 158.045 311 149.492 311H138.76C130.193 311 123.237 304.065 123.237 295.526V295.108C121.748 293.961 120.368 292.706 119.082 291.33C122.168 280.281 132.345 272.16 144.417 272.16C156.489 272.16 166.653 280.281 169.738 291.33Z" fill="#71BBCC"></path><path d="M158.343 266.845H156.421C156.421 273.118 151.549 278.258 145.391 278.757V266.845C145.391 266.318 144.958 265.887 144.431 265.887C143.903 265.887 143.47 266.318 143.47 266.845V278.757C137.298 278.271 132.44 273.118 132.44 266.845H130.518C130.518 274.17 136.256 280.187 143.483 280.672V309.056C143.483 309.582 143.916 310.014 144.444 310.014C144.972 310.014 145.405 309.582 145.405 309.056V280.672C152.632 280.173 158.37 274.17 158.37 266.845H158.343Z" fill="white"></path><path d="M150.182 238.852C150.182 238.852 161.808 240.457 168.304 252.153" stroke="white" stroke-width="3" stroke-linecap="round" stroke-linejoin="round"></path><path d="M170.767 257.684L171.417 259.275" stroke="white" stroke-width="3" stroke-linecap="round" stroke-linejoin="round"></path><path opacity="0.6" d="M571.956 131.695V118.865L562.266 116.923C561.928 115.87 561.508 114.859 561.048 113.86L567.219 105.968L558.815 96.2552L549.572 101.449C548.056 100.599 546.445 99.8976 544.767 99.3445L542.629 88.6465H529.758L527.593 99.331C525.996 99.8571 524.453 100.518 522.992 101.314L512.72 95.5402L504.315 105.253L511.204 114.063C510.92 114.683 510.662 115.331 510.432 115.978L499.578 118.164V130.993L509.905 133.044C510.243 134.164 510.649 135.256 511.109 136.309L503.896 145.536L512.3 155.249L523.005 149.233C523.98 149.772 525.008 150.231 526.05 150.636L528.486 162.845H541.357L543.644 151.512C545.065 151.108 546.445 150.595 547.758 149.975L558.382 155.951L566.786 146.238L560.358 138.022C561.102 136.619 561.725 135.148 562.225 133.611L571.929 131.695H571.956ZM536.173 139.196C528.459 139.196 522.193 132.963 522.193 125.26C522.193 117.557 528.446 111.324 536.173 111.324C543.901 111.324 550.153 117.557 550.153 125.26C550.153 132.963 543.901 139.196 536.173 139.196Z" fill="#FE7146"></path><path d="M550.728 140.664C558.994 132.424 558.994 119.064 550.728 110.825C542.462 102.585 529.06 102.585 520.794 110.825C512.528 119.064 512.528 132.424 520.794 140.664C529.06 148.903 542.462 148.903 550.728 140.664Z" stroke="white" stroke-linecap="round" stroke-linejoin="round"></path><path d="M354.269 30.8655H348.273V24.8894C348.273 24.5116 347.976 24.2148 347.597 24.2148C347.218 24.2148 346.92 24.5116 346.92 24.8894V30.8655H340.924C340.546 30.8655 340.248 31.1623 340.248 31.54C340.248 31.9177 340.546 32.2145 340.924 32.2145H346.92V38.1906C346.92 38.5684 347.218 38.8652 347.597 38.8652C347.976 38.8652 348.273 38.5684 348.273 38.1906V32.2145H354.269C354.648 32.2145 354.945 31.9177 354.945 31.54C354.945 31.1623 354.648 30.8655 354.269 30.8655Z" fill="#FF8968"></path><path d="M54.838 260.772H48.8426V254.796C48.8426 254.418 48.5448 254.121 48.1659 254.121C47.7869 254.121 47.4892 254.418 47.4892 254.796V260.772H41.4938C41.1149 260.772 40.8171 261.069 40.8171 261.446C40.8171 261.824 41.1149 262.121 41.4938 262.121H47.4892V268.097C47.4892 268.475 47.7869 268.772 48.1659 268.772C48.5448 268.772 48.8426 268.475 48.8426 268.097V262.121H54.838C55.2169 262.121 55.5146 261.824 55.5146 261.446C55.5146 261.069 55.2169 260.772 54.838 260.772Z" fill="#FF8968"></path><path d="M542.845 244.813H536.85V238.837C536.85 238.459 536.552 238.162 536.173 238.162C535.794 238.162 535.497 238.459 535.497 238.837V244.813H529.501C529.122 244.813 528.824 245.11 528.824 245.488C528.824 245.865 529.122 246.162 529.501 246.162H535.497V252.138C535.497 252.516 535.794 252.813 536.173 252.813C536.552 252.813 536.85 252.516 536.85 252.138V246.162H542.845C543.224 246.162 543.522 245.865 543.522 245.488C543.522 245.11 543.224 244.813 542.845 244.813Z" fill="#FF8968"></path><path d="M263.134 134.218C265.615 134.218 267.627 132.213 267.627 129.739C267.627 127.266 265.615 125.261 263.134 125.261C260.652 125.261 258.64 127.266 258.64 129.739C258.64 132.213 260.652 134.218 263.134 134.218Z" fill="#FF9A8D"></path><path d="M196.819 344.725C199.3 344.725 201.312 342.719 201.312 340.246C201.312 337.772 199.3 335.767 196.819 335.767C194.337 335.767 192.326 337.772 192.326 340.246C192.326 342.719 194.337 344.725 196.819 344.725Z" fill="#FF9A8D"></path><path d="M118.026 30.5836H198.362C198.362 30.5836 193.138 16.9986 180.091 11.508C167.045 6.01734 156.895 15.8384 156.895 15.8384C156.895 15.8384 147.895 -1.6183 130.207 0.121978C112.518 1.86225 106.726 15.3528 106.726 15.3528C106.726 15.3528 86.4254 11.508 84.3954 30.5971H118.04L118.026 30.5836Z" fill="#FFF1E2"></path><path d="M510.595 62.1245H576.436C576.436 62.1245 572.159 50.9947 561.468 46.4889C550.776 41.983 542.453 50.0369 542.453 50.0369C542.453 50.0369 535.077 35.7369 520.583 37.1534C506.088 38.5699 501.338 49.6322 501.338 49.6322C501.338 49.6322 484.705 46.4889 483.041 62.1245H510.608H510.595Z" fill="#FFF1E2"></path><path d="M227.946 368.615L182.595 399.846L162.809 505.059H178.467L203.626 421.633L230.828 413.822L227.946 368.615Z" fill="#FE7146"></path><path d="M403.111 368.615L448.462 399.846L468.248 505.059H452.576L427.431 421.633L400.215 413.822L403.111 368.615Z" fill="#D86A7D"></path><path d="M324.413 414.482H308.362H239.72L248.625 464.978H308.362H324.413H384.15L393.042 414.482H324.413Z" fill="#313280"></path><path d="M259.506 427.395H259.493C256.368 427.395 253.835 429.919 253.835 433.034V453.553C253.835 456.667 256.368 459.192 259.493 459.192H259.506C262.63 459.192 265.163 456.667 265.163 453.553V433.034C265.163 429.919 262.63 427.395 259.506 427.395Z" fill="#4343AA"></path><path d="M282.527 459.192C279.4 459.192 276.87 456.669 276.87 453.553V433.047C276.87 429.931 279.4 427.408 282.527 427.408C285.653 427.408 288.184 429.931 288.184 433.047V453.553C288.184 456.669 285.653 459.192 282.527 459.192Z" fill="#4343AA"></path><path d="M305.547 459.192C302.421 459.192 299.89 456.669 299.89 453.553V433.047C299.89 429.931 302.421 427.408 305.547 427.408C308.674 427.408 311.204 429.931 311.204 433.047V453.553C311.204 456.669 308.674 459.192 305.547 459.192Z" fill="#4343AA"></path><path d="M328.568 459.192C325.442 459.192 322.911 456.669 322.911 453.553V433.047C322.911 429.931 325.442 427.408 328.568 427.408C331.694 427.408 334.225 429.931 334.225 433.047V453.553C334.225 456.669 331.694 459.192 328.568 459.192Z" fill="#4343AA"></path><path d="M351.602 459.192C348.476 459.192 345.945 456.669 345.945 453.553V433.047C345.945 429.931 348.476 427.408 351.602 427.408C354.728 427.408 357.259 429.931 357.259 433.047V453.553C357.259 456.669 354.728 459.192 351.602 459.192Z" fill="#4343AA"></path><path d="M374.623 459.192C371.496 459.192 368.966 456.669 368.966 453.553V433.047C368.966 429.931 371.496 427.408 374.623 427.408C377.749 427.408 380.28 429.931 380.28 433.047V453.553C380.28 456.669 377.749 459.192 374.623 459.192Z" fill="#4343AA"></path><path d="M407.536 362.828H221.937C221.937 362.828 221.585 254.823 249.396 172.948C251.142 167.808 252.996 162.776 254.959 157.893C260.48 156.908 267.112 155.95 274.88 155.208C284.069 154.318 294.829 153.724 307.212 153.697C308.795 153.697 310.392 153.711 312.03 153.724C321.097 153.819 329.623 154.156 337.527 154.669C345.593 155.181 353.01 155.856 359.682 156.598C365.257 157.232 370.319 157.906 374.799 158.567C375.002 159.067 375.205 159.579 375.408 160.119C375.719 160.915 376.044 161.765 376.382 162.642C376.815 163.802 377.262 164.989 377.695 166.176C378.128 167.377 378.547 168.564 378.953 169.697C379.251 170.547 379.535 171.37 379.806 172.139C407.888 254.108 407.536 362.828 407.536 362.828Z" fill="#5454C8"></path><path d="M391.919 362.829C390.362 391.159 386.803 415.375 384.489 428.933H267.707C262.389 416.009 255.46 394.303 251.738 362.829H322.857C323.52 385.669 323.642 407.699 322.911 427.395H357.259C357.259 427.395 357.76 400.414 357.313 362.829H391.919Z" fill="#9A7BF0"></path><path d="M357.313 362.828H322.857C320.8 291.422 313.343 212.219 309.228 172.503C320.57 172.422 332.141 172.355 342.535 172.287C353.51 220.26 356.582 304.373 357.313 362.828Z" fill="#7272DB"></path><path d="M311.57 275.396C337.58 275.396 358.666 255.03 358.666 229.906C358.666 204.783 337.58 184.416 311.57 184.416C285.559 184.416 264.473 204.783 264.473 229.906C264.473 255.03 285.559 275.396 311.57 275.396Z" fill="#4343AA"></path><path d="M358.68 224.845C358.68 229.013 358.098 233.061 357.002 236.878C356.176 239.765 355.067 242.517 353.686 245.121C346.351 259.097 331.667 268.635 314.737 268.635C290.471 268.635 270.807 249.033 270.807 224.845C270.807 213.229 275.327 202.693 282.73 194.855C286.221 191.132 290.363 188.029 294.991 185.709C294.991 185.709 294.991 185.695 295.005 185.695C300.932 182.714 307.645 181.041 314.737 181.041C339.002 181.041 358.68 200.656 358.68 224.845Z" fill="#9A7BF0"></path><path d="M491.837 505.059H135.295V528.384H491.837V505.059Z" fill="#FFB5B3"></path><path d="M510.391 528.386H109.026V551.711H510.391V528.386Z" fill="#FF9A8D"></path><path d="M307.212 153.697C307.699 158.095 308.403 164.503 309.229 172.503C295.113 172.598 281.322 172.692 270.563 172.787C272.187 165.947 273.662 159.997 274.88 155.208C284.07 154.318 294.829 153.724 307.212 153.697Z" fill="#D86A7D"></path><path d="M364.594 172.165C358.477 172.192 350.885 172.233 342.534 172.287C341.019 165.676 339.354 159.74 337.527 154.668C345.593 155.181 353.009 155.855 359.681 156.597C360.683 159.619 362.415 164.934 364.594 172.165Z" fill="#D86A7D"></path><path d="M267.707 428.933H221.937V362.829H251.738C255.459 394.303 262.389 416.009 267.707 428.933Z" fill="#826ADB"></path><path d="M274.88 155.208C273.662 159.997 272.187 165.946 270.563 172.786C257.895 172.881 249.396 172.948 249.396 172.948C251.142 167.808 252.996 162.776 254.959 157.893C256.853 157.555 258.883 157.218 261.049 156.894C261.482 156.827 261.928 156.773 262.361 156.705C266.151 156.152 270.319 155.64 274.88 155.208Z" fill="#BA5B70"></path><path d="M249.396 332.381C249.816 343.403 250.628 353.534 251.738 362.829H221.937C221.937 362.829 221.585 254.823 249.396 172.949C249.396 172.949 257.895 172.882 270.563 172.787C261.333 211.923 247.434 280.509 249.396 332.381Z" fill="#4343AA"></path><path d="M407.536 362.829V428.933H384.489C386.803 415.375 390.362 391.159 391.919 362.829H407.536Z" fill="#AB97F7"></path><path d="M379.806 172.14C379.671 172.1 373.784 172.113 364.594 172.167C362.415 164.936 360.683 159.621 359.682 156.599C365.257 157.233 370.319 157.907 374.799 158.568C375.002 159.067 375.205 159.58 375.408 160.12C375.719 160.916 376.044 161.766 376.382 162.643C376.815 163.803 377.262 164.99 377.695 166.177C378.128 167.378 378.547 168.565 378.953 169.698C379.251 170.548 379.535 171.371 379.806 172.14Z" fill="#ED8EA3"></path><path d="M407.536 362.83H391.919C393.272 338.398 393.11 310.905 389.374 284.517C382.499 236.059 371.402 194.764 364.594 172.168C373.784 172.114 379.671 172.1 379.806 172.141C407.888 254.109 407.536 362.83 407.536 362.83Z" fill="#7272DB"></path><path d="M353.686 245.123C346.351 259.1 331.667 268.637 314.737 268.637C290.471 268.637 270.807 249.036 270.807 224.847C270.807 213.232 275.327 202.695 282.73 194.857C283.853 196.665 286.045 200.065 289.185 204.26C284.611 209.886 281.877 217.036 281.877 224.847C281.877 242.938 296.588 257.602 314.737 257.602C325.902 257.602 335.768 252.057 341.682 243.572C345.553 244.503 349.559 245.042 353.686 245.123Z" fill="#826ADB"></path><path d="M341.682 243.57C335.768 252.056 325.902 257.6 314.737 257.6C296.588 257.6 281.877 242.936 281.877 224.845C281.877 217.034 284.611 209.884 289.185 204.259C298.835 217.196 317.484 237.796 341.682 243.57Z" fill="#FFD00A"></path><path d="M347.596 224.849C347.596 231.823 345.417 238.272 341.682 243.574C317.484 237.8 298.835 217.2 289.185 204.262C295.194 196.842 304.41 192.094 314.737 192.094C332.885 192.094 347.596 206.758 347.596 224.849Z" fill="#FFE98A"></path><path d="M342.535 172.288C332.141 172.355 320.57 172.422 309.228 172.503C308.403 164.503 307.699 158.095 307.212 153.697C308.795 153.697 310.392 153.711 312.03 153.724C314.182 153.751 316.306 153.778 318.404 153.832C318.675 153.832 318.959 153.846 319.23 153.859C322.356 153.927 325.401 154.035 328.378 154.169C331.518 154.304 334.563 154.48 337.527 154.669C339.354 159.741 341.019 165.677 342.535 172.288Z" fill="#ED8EA3"></path><path d="M357.259 427.396H322.911C323.642 407.699 323.52 385.669 322.857 362.829H357.313C357.76 400.414 357.259 427.396 357.259 427.396Z" fill="#AB97F7"></path><path d="M357.002 236.878C358.125 216.494 344.876 195.557 324.007 188.42C312.693 184.549 302.597 184.562 295.005 185.695C300.932 182.714 307.645 181.041 314.736 181.041C339.002 181.041 358.68 200.656 358.68 224.845C358.68 229.013 358.098 233.06 357.002 236.878Z" fill="#AB97F7"></path><path d="M182.594 399.847L196.263 446.039L203.626 421.634L223.1 416.049L221.937 372.758L182.594 399.847Z" fill="#D1542E"></path><path d="M407.536 389.041L437.608 409.466L459.749 505.06H452.576L427.431 421.634L407.536 415.928V389.041Z" fill="#BA5B70"></path><path d="M33.4681 544.183H40.7356V534.523H24.2246C22.3164 534.523 20.7735 532.985 20.7735 531.083C20.7735 529.181 22.3164 527.643 24.2246 527.643H40.7356V456.238H28.9208C25.5103 456.238 22.7359 453.486 22.7359 450.072C22.7359 446.659 25.4968 443.907 28.9208 443.907H59.3172C62.7277 443.907 65.5021 446.659 65.5021 450.072C65.5021 453.486 62.7412 456.238 59.3172 456.238H47.3129V527.643H66.0299C67.9381 527.643 69.481 529.181 69.481 531.083C69.481 532.985 67.9381 534.523 66.0299 534.523H47.3129V544.183H54.4722C61.4826 544.183 67.1803 549.849 67.1803 556.85H20.76C20.76 549.862 26.4441 544.183 33.4681 544.183Z" fill="#9A7BF0"></path><path d="M48.3685 534.012L47.0017 538.032C47.0017 538.032 45.8919 539.745 42.7115 539.489C39.5312 539.233 38.8545 538.126 38.8545 538.126L39.5447 532.986L48.3821 534.012H48.3685Z" fill="#FFB696"></path><path d="M76.8974 525.537L73.6087 530.907C73.6087 530.907 70.5366 530.691 68.5065 529.706C66.4765 528.721 65.8945 527.386 65.8945 527.386L68.5336 522.286L76.9109 525.537H76.8974Z" fill="#FFB696"></path><path d="M74.1096 530.275C74.1096 530.275 76.8027 537.425 78.914 540.217C81.0252 543.01 81.7966 543.684 81.5801 544.966C81.3636 546.248 76.2749 546.477 72.3637 543.684C68.4661 540.892 67.9924 539.489 66.233 537.344C64.4737 535.199 62.6602 533.755 62.1189 532.339C61.564 530.922 66.8285 525.553 66.8285 525.553C66.8285 525.553 67.627 529.56 74.1096 530.288V530.275Z" fill="#313280"></path><path d="M47.0015 538.032C47.0015 538.032 47.5969 544.022 49.0586 548.38C50.5202 552.737 51.8871 554.882 51.2104 556.771C50.5202 558.659 47.9488 559.509 43.6181 558.308C39.2873 557.108 38.4212 553.857 37.6498 549.837C36.8783 545.816 36.7971 545.223 36.8783 544.535C36.9595 543.847 38.8542 536.67 38.8542 536.67C38.8542 536.67 42.2918 539.584 47.015 538.032H47.0015Z" fill="#313280"></path><path d="M94.5177 484.217L78.7917 528.21C78.7917 528.21 75.8414 528.507 71.9708 526.551C70.455 525.809 68.7904 524.689 67.1122 523.083C67.1122 523.083 72.4715 486.834 77.6955 480.318L57.5169 452.38C60.2372 463.347 63.0251 476.986 62.5379 485.431L50.6283 533.579C48.3005 536.129 44.863 536.088 42.0345 535.427C39.2872 534.793 37.1353 533.579 37.1353 533.579C37.1353 533.579 44.2811 485.796 44.3081 485.742C42.0345 479.307 34.0497 456.103 33.0347 445.742C33.5354 438.889 35.1865 426.329 35.1865 426.329L40.9518 426.302L70.7798 426.127L71.3888 433.466L71.4565 433.412C71.4565 433.412 86.5058 454.079 93.9087 470.727C95.8034 474.99 96.0335 479.806 94.5177 484.217Z" fill="#313280"></path><path d="M73.4189 365.608C73.4189 365.608 76.9241 367.308 77.4925 372.043L89.4426 406.283L78.2504 412.718C78.2504 412.718 71.7949 400.616 70.8475 391.726C69.9002 382.836 73.4054 365.622 73.4054 365.622L73.4189 365.608Z" fill="#D1542E"></path><path d="M59.9534 361.453L73.4193 365.609C73.4193 365.609 75.1245 373.743 75.1245 381.595C75.1245 389.446 72.3772 404.758 72.3772 404.758L70.699 427.26L35.187 426.316C35.187 426.316 31.7089 376.522 33.6036 364.988L49.722 359.079L59.9534 361.44V361.453Z" fill="#FE7146"></path><path d="M49.6406 359.754L50.8722 349.892C49.8436 344.671 48.4226 334.864 51.603 332.098C56.0149 328.267 72.6612 327.889 72.377 341.407C72.377 341.407 70.4823 352.563 67.4373 357.487C66.2193 359.47 63.4043 359.16 60.4945 358.094L58.857 365.015L49.6406 359.767V359.754Z" fill="#FFB696"></path><path d="M71.9575 339.531C71.9575 339.531 62.4298 340.813 59.0735 337.548C59.0735 337.548 59.5742 341.231 58.072 343.511C56.5833 345.777 54.7292 345.561 54.7292 345.561C54.7292 345.561 54.7292 341.946 53.1593 342.013C51.5895 342.081 51.2646 345.926 52.0361 348.152C52.8075 350.377 53.8766 350.378 53.8766 350.378L50.6015 352.01C50.6015 352.01 48.1113 341.015 48.1113 337.548C48.1113 334.081 50.0331 332.718 50.0331 332.718C50.0331 332.718 51.1699 329.036 55.9337 328.536C60.6975 328.037 66.3275 330.02 71.0236 332.503C75.7198 334.985 76.2882 337.4 75.9363 337.899C75.5844 338.398 74.5153 338.398 74.5153 338.398C74.5153 338.398 75.3002 343.133 71.9169 343.781C71.9169 343.781 72.377 340.813 71.9439 339.531H71.9575Z" fill="#313280"></path><path d="M42.0345 535.428C39.2872 534.794 37.1353 533.58 37.1353 533.58C37.1353 533.58 44.281 485.796 44.3081 485.743C42.0345 479.308 34.0497 456.104 33.0347 445.743C33.5354 438.89 35.1865 426.33 35.1865 426.33C35.1865 426.33 41.0059 426.425 41.033 426.478C41.033 426.478 37.6902 436.313 39.4225 448.023C41.1683 459.733 49.5726 486.323 50.0193 488.778C50.4388 491.152 39.5849 522.45 42.0345 535.428Z" fill="#26295E"></path><path d="M60.4945 358.081C60.4945 358.081 55.23 356.206 54.2285 352.011C54.2285 352.011 54.2285 359.255 59.8043 360.955L60.481 358.081H60.4945Z" fill="#D88C71"></path><path d="M50.1277 355.814L58.8569 365.002L53.3487 368.374L47.624 359.862L50.1277 355.814Z" fill="#FFEFCA"></path><path d="M59.9263 360.536L58.8572 365.001L63.1744 366.647L62.7549 361.156L60.4271 358.606L59.9263 360.536Z" fill="#FFEFCA"></path><path d="M33.6034 365.001C33.6034 365.001 37.4605 367.699 39.1793 375.267C40.8845 382.835 41.2634 411.017 41.2634 411.017L30.4501 412.717C30.4501 412.717 25.7134 389.837 27.2291 378.1C28.7449 366.377 33.617 365.001 33.617 365.001H33.6034Z" fill="#D1542E"></path><path d="M121.003 421.217C120.936 420.785 120.503 419.881 120.11 418.87C119.718 417.858 118.418 417.075 117.119 416.306C115.82 415.537 108.755 415.929 108.755 415.929L108.593 416.09L89.4701 406.283C83.7725 405.905 78.2778 412.718 78.2778 412.718C81.0116 415.605 97.5361 419.328 103.978 420.691L107.565 423.713L114.277 425.831C114.277 425.831 114.67 424.576 114.277 423.996C113.885 423.416 110.799 422.337 110.271 421.568C109.743 420.812 109.838 420.178 112.788 420.138C115.739 420.097 115.888 421.365 116.7 421.945C117.525 422.526 117.999 424.455 119.461 424.698L120.909 424.94L120.57 422.728C120.57 422.728 121.085 421.649 121.03 421.217H121.003Z" fill="#FFB696"></path><path d="M41.2632 411.005L64.1891 423.456L58.8704 429.541C58.8704 429.541 38.1234 423.483 34.1039 420.273C30.0845 417.062 30.4634 412.704 30.4634 412.704C30.4634 412.704 36.161 410.06 41.2767 411.005H41.2632Z" fill="#FFB696"></path><path d="M34.0364 435.018H171.944V429.54H34.0364V435.018Z" fill="#FF8B9B"></path><path d="M167.207 370.236L157.138 413.972C156.826 415.335 155.608 416.306 154.214 416.306H84.679C82.7708 416.306 81.3362 414.552 81.7422 412.677L91.0939 368.941C91.2834 368.037 91.8789 367.295 92.6638 366.917C93.0834 366.688 93.557 366.566 94.0442 366.566H164.27C166.205 366.566 167.64 368.361 167.207 370.236Z" fill="#9A7BF0"></path><path d="M152.076 416.306H84.679C82.7708 416.306 81.3362 414.553 81.7422 412.677L91.0939 368.941C91.2834 368.037 91.8789 367.295 92.6638 366.917C92.9886 367.47 112.274 401.561 152.076 416.306Z" fill="#836CD8"></path><path d="M134.401 395.314L141.046 429.54H106.942L108.078 426.801H121.815L117.241 395.314H134.401Z" fill="#5454C9"></path><path d="M62.5653 423.725L75.138 422.727L80.4973 426.693L81.2146 429.526H58.8706C58.8706 429.526 60.0751 425.195 62.5653 423.711V423.725Z" fill="#FFB696"></path><path d="M159.695 435.018L144.93 556.851H100.297L116.781 435.018H159.695Z" fill="#FE7146"></path><path d="M158.356 446.039L112.734 464.98L116.781 435.018H159.696L158.356 446.039Z" fill="#D1542E"></path><path d="M83.3666 478.957C83.3666 478.957 77.4253 496.292 74.6645 509.877C72.8374 518.875 72.2014 524.055 71.9713 526.551C70.4555 525.809 68.7909 524.69 67.1127 523.084C67.1127 523.084 72.472 486.835 77.696 480.319L57.5174 452.38L56.543 445.567L83.3666 478.957Z" fill="#26295E"></path><path d="M307.645 120.484C307.645 120.484 359.681 150.069 426.686 161.051C426.686 161.051 370.806 122.697 307.645 120.484Z" fill="#4343AA"></path><path d="M431.477 253.11L431.41 259.829C431.41 259.829 422.126 264.456 419.446 265.616C416.766 266.776 416.184 268.584 418.065 269.232C419.947 269.879 443.373 270.068 443.725 269.232C444.673 267.06 441.262 259.91 441.262 259.91L440.68 253.11H431.477Z" fill="#313280"></path><path d="M483.054 251.248L486.627 257.036C486.627 257.036 482.269 263.39 480.144 264.739C478.885 265.548 475.597 265.994 474.73 267.343C473.864 268.692 474.731 269.717 480.239 269.785C485.747 269.852 487.195 269.758 490.389 267.545C493.583 265.333 499.673 259.842 499.578 258.29C499.483 256.753 495.126 253.11 495.126 253.11L493.285 248.941L483.04 251.248H483.054Z" fill="#313280"></path><path d="M455.689 154.306C455.689 154.306 454.823 182.353 460.615 202.589C466.421 222.824 482.079 254.919 482.079 254.919L498.319 250.291C498.319 250.291 486.721 208.376 478.885 197.395C478.885 197.395 475.989 150.569 472.795 144.201C469.601 137.847 455.689 154.319 455.689 154.319V154.306Z" fill="#DD7385"></path><path d="M415.332 45.1655C421.774 38.9599 434.549 40.6867 436.525 48.0794C438.176 54.2716 437.811 60.9224 435.821 65.7115L439.042 74.0621L430.516 80.9557L427.052 74.6287C425.238 75.4651 423.384 75.9508 421.706 76.0317C417.402 76.2476 414.357 70.3387 412.584 60.032C410.825 49.7118 415.332 45.1655 415.332 45.1655Z" fill="#FF9F7F"></path><path d="M425.59 154.142C414.871 148.935 400.35 142.5 382.675 136.065C377.749 134.271 372.579 132.476 367.179 130.709C343.238 122.898 324.494 119.256 311.502 117.583C315.643 112.551 319.893 107.762 324.251 103.296C344.186 82.8179 366.286 68.9497 389.943 67.749C391.282 68.7878 392.582 69.8805 393.84 71.0137C395.979 72.9564 397.995 75.0339 399.863 77.2328C415.859 95.8092 423.316 123.397 425.59 154.142Z" fill="#FE7146"></path><path d="M383.284 137.012C400.783 119.487 396.696 84.7895 394.449 71.96C414.628 90.2532 423.655 120.702 426.199 155.089C415.481 149.882 400.959 143.447 383.284 137.012Z" fill="#D1542E"></path><path d="M455.364 82.6437C455.364 82.6437 469.249 98.9133 471.374 126.785L443.035 137.51C443.035 137.51 425.157 108.276 423.208 97.8745C421.259 87.4733 427.146 76.6269 427.146 76.6269L437.676 69.6523C437.676 69.6523 451.074 75.6017 455.364 82.6437Z" fill="#9A7BF0"></path><path d="M444.456 82.6699C447.745 85.341 448.232 90.1706 445.525 93.4219C439.922 100.154 430.679 110.946 424.304 116.68C414.601 125.421 380.699 115.169 380.699 115.169L382.31 106.305L417.037 106.13L433.521 84.0324C436.106 80.5519 441.086 79.9313 444.456 82.6699Z" fill="#5454C8"></path><path d="M411.908 51.6424C411.908 51.6424 410.798 46.2866 415.318 42.4823C419.838 38.6914 426.145 39.0152 429.163 40.1889C432.181 41.3626 432.83 41.8887 432.83 41.8887C432.83 41.8887 432.438 39.6627 434.793 38.0304C437.148 36.398 442.074 39.6628 442.466 43.656C442.859 47.6492 439.029 47.7166 439.029 47.7166C439.029 47.7166 439.787 51.2512 439.029 56.607C438.271 61.9627 435.808 65.7131 435.808 65.7131C435.808 65.7131 432.749 64.0673 431.437 61.8413C431.437 61.8413 434.522 57.5243 433.467 54.5834C432.411 51.6424 429.136 52.8161 428.743 55.6356L428.351 58.4417L426.443 57.983C426.443 57.983 425.049 54.327 425.577 50.1315C425.577 50.1315 412.801 53.9223 411.881 51.6289L411.908 51.6424Z" fill="#313280"></path><path d="M416.834 76.4911C420.312 78.1909 425.198 77.4085 427.146 74.3327C429.095 71.2569 428.446 60.3431 428.446 60.3431L426.416 59.4258L424.318 64.9164C424.318 64.9164 415.819 63.5404 413.572 64.7815C413.572 64.7815 413.356 74.7913 416.834 76.4911Z" fill="#313280"></path><path d="M437.5 67.6553L427.146 76.6265L429.014 82.0363L440.978 71.2708L437.5 67.6553Z" fill="#5454C8"></path><path d="M382.31 106.306L379.427 105.942C379.427 105.942 373.432 103.635 371.551 103.149C369.669 102.664 369.128 103.757 369.466 104.728C369.466 104.728 368.451 105.794 369.033 107.237C369.033 107.237 368.072 108.235 368.857 109.504C368.857 109.504 368.519 110.799 369.236 111.595C369.967 112.391 371.334 112.93 372.105 113.038C372.863 113.146 373.296 113.038 373.296 113.038C373.296 113.038 374.893 113.983 376.341 113.983C377.79 113.983 378.872 113.47 378.872 113.47L380.902 113.983L382.296 106.306H382.31Z" fill="#FF9F7F"></path><path d="M471.374 126.771L472.795 131.182L444.957 141.88L443.035 137.496L471.374 126.771Z" fill="#5454C8"></path><path d="M472.795 131.184L444.957 141.882L422.694 189.139C420.867 193.011 420.19 197.328 420.731 201.564L427.552 254.906H443.035C443.035 254.906 444.957 242.481 444.375 223.688C444.023 212.397 441.695 203.628 439.881 198.421C441.668 196.168 468.586 162.077 472.795 152.296C477.139 142.178 472.795 131.197 472.795 131.197V131.184Z" fill="#FF8B9B"></path><path d="M611.122 558.861H620.406L490.673 274.183H505.75V268.639H389.361V274.183H407.536L434.603 334.581V334.864H434.739L449.883 368.658V369.332H450.194L465.162 402.735V403.801H465.636L480.428 436.812V438.269H481.078L495.694 470.889V472.737H496.52L510.973 504.966V507.206H511.975L526.253 539.043V541.674H527.43L535.117 558.821H544.401L536.579 541.674H603.408L611.095 558.821L611.122 558.861ZM508.24 329.333H439.827L426.646 300.395H495.275L508.24 329.333ZM483.527 274.183L492.798 294.851H424.128L414.709 274.183H483.541H483.527ZM510.73 334.864L523.695 363.801H455.54L442.358 334.864H510.73ZM526.185 369.332L539.15 398.269H471.252L458.071 369.332H526.185ZM541.641 403.801L554.606 432.738H486.965L473.783 403.801H541.641ZM557.096 438.269L570.061 467.206H502.677L489.496 438.269H557.096ZM572.551 472.737L585.516 501.675H518.39L505.208 472.737H572.551ZM534.102 536.143L520.921 507.206H588.007L600.972 536.143H534.102Z" fill="#FE7146"></path><path d="M426.686 153.698V161.051C426.686 161.051 397.981 143.837 368.546 134.326C339.097 124.829 307.645 120.485 307.645 120.485L310.216 116.829L311.502 115.007C311.502 115.007 335.619 114.077 371.578 126.771C407.536 139.466 426.686 153.698 426.686 153.698Z" fill="#9A7BF0"></path><path d="M399.863 77.2328C394.395 74.0221 386.586 71.7962 376.368 74.3998C360.534 78.4469 336.837 94.3117 324.251 103.296C344.186 82.8178 366.286 68.9497 389.943 67.749C391.282 68.7878 392.582 69.8805 393.84 71.0137C395.979 72.9563 397.995 75.0339 399.863 77.2328Z" fill="#FF906E"></path><path d="M426.686 153.699V161.051C426.686 161.051 397.981 143.837 368.546 134.326C339.097 124.829 307.645 120.485 307.645 120.485L310.216 116.829C315.535 116.829 329.109 117.733 351.061 125.018C380.09 134.65 420.691 153.281 426.686 153.699Z" fill="#826ADB"></path><path d="M439.408 329.481H382.932V443.558H439.408V329.481Z" fill="#8CD3E8"></path><path d="M389.374 337.399H433.602" stroke="#5454C8" stroke-width="0.5" stroke-miterlimit="10"></path><path d="M439.408 443.558H382.932V329.481C382.932 329.481 399.349 415.187 439.408 443.558Z" fill="#71BBCC"></path><path d="M389.943 341.826H433.602" stroke="#5454C8" stroke-width="0.5" stroke-miterlimit="10"></path><path d="M389.374 423.47H433.602" stroke="#5454C8" stroke-width="0.5" stroke-miterlimit="10"></path><path d="M389.943 427.895H433.602" stroke="#5454C8" stroke-width="0.5" stroke-miterlimit="10"></path><path d="M389.374 432.752H433.602" stroke="#5454C8" stroke-width="0.5" stroke-miterlimit="10"></path><path d="M389.943 437.178H433.602" stroke="#5454C8" stroke-width="0.5" stroke-miterlimit="10"></path><path d="M420.542 367.323C419.189 356.342 408.362 349.205 408.362 349.205C408.362 349.205 397.535 356.342 396.182 367.323C394.828 378.304 402.272 405.69 402.272 405.69H414.452C414.452 405.69 421.896 378.304 420.542 367.323Z" stroke="white" stroke-width="0.5" stroke-linecap="round" stroke-linejoin="round"></path><path d="M399.037 392.16C399.037 392.16 392.88 396.558 391.283 398.15C389.686 399.742 389.686 408.268 389.686 408.268L393.962 401.617L401.04 400.916" stroke="white" stroke-width="0.5" stroke-linecap="round" stroke-linejoin="round"></path><path d="M417.714 392.16C417.714 392.16 423.872 396.558 425.469 398.15C427.066 399.742 427.066 408.268 427.066 408.268L422.789 401.617L415.711 400.916" stroke="white" stroke-width="0.5" stroke-linecap="round" stroke-linejoin="round"></path><path d="M415.711 373.285C415.711 377.156 412.557 380.3 408.673 380.3C404.789 380.3 401.636 377.156 401.636 373.285C401.636 369.413 404.789 366.27 408.673 366.27C412.557 366.27 415.711 369.413 415.711 373.285Z" fill="#FFE98A"></path><path d="M433.616 347.706H419.108V352.266H433.616V347.706Z" fill="#FFE98A"></path><path d="M430.95 357.177C430.95 358.729 429.677 359.997 428.121 359.997C426.565 359.997 425.292 358.729 425.292 357.177C425.292 355.626 426.565 354.357 428.121 354.357C429.677 354.357 430.95 355.626 430.95 357.177Z" fill="white"></path><path d="M467.328 401.627C467.328 401.627 470.413 404.15 469.398 417.6C468.383 431.05 464.039 432.048 458.815 431.185L467.328 401.627Z" fill="#FFB696"></path><path d="M454.295 388.125L452.536 397.905L442.169 400.185L442.656 393.103C440.261 393.224 438.068 392.941 436.931 391.767C436.593 391.416 436.349 390.985 436.214 390.472C434.78 384.873 436.295 373.649 436.295 373.649C440.058 360.658 453.469 365.461 456.542 370.425C458.761 374.014 456.839 383.443 454.295 388.125Z" fill="#FFB696"></path><path d="M442.656 393.103C440.261 393.224 438.068 392.941 436.931 391.767C438.258 391.646 441.885 391.147 443.59 389.042C445.119 387.154 442.656 393.103 442.656 393.103Z" fill="#D88E75"></path><path d="M460.723 385.885C460.561 386.223 460.385 386.56 460.196 386.884C456.785 392.887 451.277 392.955 446.852 391.295C442.426 389.636 443.008 386.951 443.008 386.951C443.008 386.951 444.239 387.612 445.471 385.805C446.202 384.725 446.554 382.769 446.337 381.312C446.188 380.327 445.769 379.572 445.038 379.518C444.849 379.504 444.659 379.518 444.497 379.572C443.116 379.896 442.643 381.892 442.643 381.892C441.709 380.449 442.209 379.073 442.209 379.073C438.298 377.926 438.082 375.538 438.082 375.538L437.716 377.265C435.686 376.833 433.155 373.798 434.455 370.047C435.605 366.715 438.231 365.569 438.826 365.353C438.907 365.312 438.948 365.299 438.948 365.299C441.56 363.585 450.411 361.157 455.77 363.977C461.129 366.796 460.629 371.275 460.629 371.275C463.444 374.149 463.593 380.165 460.723 385.885Z" fill="#313280"></path><path d="M468.099 372.353C468.072 372.461 468.059 372.569 468.032 372.663C467.328 375.631 465.027 376.67 462.726 376.211C462.726 376.211 462.717 376.211 462.699 376.211C461.969 376.076 461.238 375.766 460.561 375.334C459.966 374.943 459.451 374.471 459.018 373.972C458.314 373.135 457.827 372.205 457.502 371.422C457.435 371.287 457.394 371.152 457.354 371.031C457.042 370.208 456.934 369.628 456.934 369.628C456.934 369.628 456.88 369.183 456.893 368.508C456.88 368.454 456.88 368.4 456.893 368.346C456.893 368.225 456.893 368.103 456.907 367.968C457.042 366.147 457.787 363.462 460.913 363.044C465.704 362.397 468.898 368.171 468.099 372.366V372.353Z" fill="#313280"></path><path d="M462.564 443.436V444.448C462.564 444.448 456.555 446.714 448.232 446.269C444.97 446.094 441.817 445.662 439.192 445.217C435.104 444.502 432.276 443.733 432.276 443.733L434.211 433.548L433.399 426.29C431.423 424.738 428.757 422.256 428.216 419.76C427.661 417.17 429.488 409.292 430.868 403.949L430.341 399.295C430.95 399.106 431.599 398.917 432.289 398.742C432.411 398.715 432.547 398.675 432.668 398.648C440.328 396.705 452.13 395.383 452.13 395.383C458.666 396.098 467.328 401.629 467.328 401.629C466.868 406.135 462.266 425.858 462.266 425.858L462.429 435.45L462.564 443.436Z" fill="#9A7BF0"></path><path d="M462.564 443.436L439.192 445.217C435.104 444.502 432.276 443.733 432.276 443.733L434.211 433.548L433.399 426.29C431.423 424.738 428.757 422.256 428.216 419.76C427.661 417.17 429.488 409.292 430.868 403.949L430.341 399.295C430.95 399.106 431.599 398.917 432.289 398.742C432.411 398.715 432.547 398.674 432.668 398.647C433.386 404.907 436.485 426.573 442.697 431.416C448.327 435.814 458.355 435.706 462.429 435.45L462.564 443.436Z" fill="#7961D1"></path><path d="M430.34 399.296L410.23 412.975L391.283 395.626L391.31 395.599C391.31 395.599 390.254 391.62 389.929 390.756C389.604 389.893 387.75 387.613 387.209 387.505C386.668 387.397 386.816 388.125 386.992 388.584C387.168 389.056 387.791 390.972 387.791 390.972L384.056 389.097C384.056 389.097 383.149 386.601 382.54 386.534C381.917 386.466 382.107 388.881 382.716 389.893C382.716 389.893 381.877 390.513 382.147 391.552C382.147 391.552 381.444 392.24 381.877 393.292C381.877 393.292 380.902 394.264 382.675 396.22C384.448 398.176 386.911 399.876 386.911 399.876C389.09 403.019 401.812 421.002 409.35 423.107C417.619 425.414 429.501 416.213 429.501 416.213C429.501 416.213 438.109 409.333 430.327 399.309L430.34 399.296Z" fill="#FFB696"></path><path d="M453.158 573.175C452.089 573.364 430.733 573.661 430.34 572.595C429.962 571.529 429.569 570.571 434.211 569.128C435.172 568.831 436.201 568.319 437.229 567.725C439.949 566.106 442.643 563.759 444.009 562.491L439.828 540.596L438.853 535.496H451.602C451.886 536.548 452.089 538.801 452.238 541.607C452.617 548.96 452.59 560.076 452.576 563.057C452.576 563.057 452.766 564.204 452.969 565.728C453.375 568.683 453.862 573.054 453.158 573.175Z" fill="#FFB696"></path><path d="M485.436 572.595C484.529 573.175 470.224 572.757 466.259 572.635C465.65 572.608 465.284 571.92 465.65 571.435C466.34 570.504 467.829 569.533 469.777 568.453C470.251 568.197 470.725 567.819 471.185 567.361C472.795 565.796 474.298 563.327 475.055 561.991L470.062 540.609H470.048L468.668 534.673L480.564 536.116C480.97 537.209 481.321 539.206 481.646 541.634C482.539 548.393 483.094 558.47 483.27 561.6H483.311C483.311 561.6 483.73 562.963 484.204 564.703C485.057 567.792 486.112 572.163 485.436 572.595Z" fill="#FFB696"></path><path d="M452.238 541.607C445.769 541.958 439.828 540.595 439.828 540.595L438.853 535.496H451.602C451.886 536.548 452.089 538.801 452.238 541.607Z" fill="#D88E75"></path><path d="M481.646 541.633C475.881 541.836 470.698 540.743 470.061 540.608H470.048L468.667 534.672L480.564 536.115C480.97 537.208 481.321 539.205 481.646 541.633Z" fill="#D88E75"></path><path d="M483.974 535.104C480.916 536.453 477.735 537.033 474.934 537.249C470.035 537.599 466.286 536.79 466.286 536.79L451.426 472.953L454.633 535.495C451.791 537.289 447.799 537.734 444.28 537.68C444.24 537.694 444.212 537.694 444.172 537.68C441.925 537.653 439.868 537.424 438.434 537.208C437.134 537.019 436.336 536.844 436.336 536.844C436.336 536.844 423.871 485.094 425.902 466.882C427.932 448.67 432.276 443.732 432.276 443.732C438.65 442.046 444.294 441.209 448.922 440.845C457.435 440.144 462.523 441.021 462.523 441.021C472.322 451.719 472.01 467.462 472.01 467.462L483.974 535.104Z" fill="#313280"></path><path d="M453.158 573.174C452.089 573.363 430.733 573.66 430.34 572.594C429.962 571.528 429.569 570.57 434.211 569.127C435.172 568.83 436.201 568.317 437.229 567.724C437.229 568.075 437.405 568.466 438.271 568.493C439.868 568.547 442.913 567.683 447.447 565.741C451.805 563.893 452.887 565.592 452.969 565.727C453.375 568.682 453.862 573.052 453.158 573.174Z" fill="#313280"></path><path d="M485.436 572.596C484.529 573.176 470.224 572.757 466.259 572.636C465.65 572.609 465.284 571.921 465.65 571.435C466.34 570.504 467.829 569.533 469.777 568.454C470.251 568.198 470.725 567.82 471.185 567.361C471.537 567.51 472.159 567.59 473.215 567.388C475.813 566.916 476.747 563.638 480.699 563.638C482.675 563.638 483.676 564.164 484.204 564.703C485.057 567.793 486.112 572.164 485.436 572.596Z" fill="#313280"></path><path d="M474.934 537.248C470.034 537.599 466.286 536.79 466.286 536.79L451.426 472.952L462.063 464.979C462.063 464.979 460.94 486.375 464.215 503.333C466.922 517.377 472.944 532.473 474.934 537.248Z" fill="#26295E"></path><path d="M434.238 470.862C431.545 497.992 443.982 536.777 444.28 537.681H444.172L438.434 537.209C437.134 537.02 436.336 536.845 436.336 536.845C436.336 536.845 423.871 485.095 425.902 466.882C427.932 448.67 432.276 443.733 432.276 443.733C438.65 442.046 444.294 441.21 448.922 440.846C444.659 443.274 436.241 450.572 434.238 470.862Z" fill="#26295E"></path><path d="M410.419 413.757L408.362 418.856C408.362 418.856 406.724 414.323 410.419 413.757Z" fill="#D88E75"></path><path d="M443.604 423.47H461.035C461.035 423.47 461.292 426.438 453.74 426.438C446.188 426.438 443.604 423.47 443.604 423.47Z" fill="#7961D1"></path><path d="M442.642 381.893C441.709 380.449 442.209 379.073 442.209 379.073C438.298 377.927 438.082 375.539 438.082 375.539L437.716 377.266C435.686 376.834 433.155 373.799 434.455 370.048C435.605 366.716 438.231 365.569 438.826 365.354C439.056 367.782 440.044 374.702 444.497 379.572C443.116 379.896 442.642 381.893 442.642 381.893Z" fill="#26295E"></path><path d="M460.724 385.885C460.561 386.222 460.385 386.559 460.196 386.883C456.785 392.886 451.277 392.954 446.852 391.295C442.426 389.635 443.008 386.951 443.008 386.951C443.008 386.951 444.24 387.612 445.471 385.804C446.202 384.725 446.554 382.769 446.337 381.312C447.637 382.35 449.166 383.214 450.952 383.807C455.445 385.318 458.572 385.831 460.724 385.885Z" fill="#26295E"></path><path d="M468.032 372.665C467.328 375.632 465.027 376.671 462.726 376.213C462.726 376.213 462.717 376.213 462.699 376.213C461.048 375.74 459.857 374.917 459.018 373.973C458.287 373.164 457.814 372.273 457.503 371.423C457.435 371.288 457.394 371.154 457.354 371.032C457.029 370.007 456.921 369.076 456.893 368.509C456.88 368.455 456.88 368.401 456.893 368.348C456.866 368.064 456.88 367.902 456.88 367.902C456.894 367.916 456.894 367.943 456.907 367.956C458.924 372.435 465.393 372.745 468.032 372.678V372.665Z" fill="#26295E"></path></svg>