<svg xmlns="http://www.w3.org/2000/svg" xmlns:xlink="http://www.w3.org/1999/xlink" width="500" viewBox="0 0 375 374.999991" height="500" preserveAspectRatio="xMidYMid meet"><defs><clipPath id="3e2ac46b76"><path d="M 189 14.0625 L 294 14.0625 L 294 90 L 189 90 Z M 189 14.0625 " clip-rule="nonzero"></path></clipPath></defs><path fill="#5acbf2" d="M 66.59375 87.585938 C 67.222656 88.214844 67.820312 88.875 68.382812 89.5625 C 68.949219 90.25 69.476562 90.964844 69.972656 91.703125 C 70.464844 92.445312 70.921875 93.207031 71.34375 93.992188 C 71.761719 94.777344 72.140625 95.578125 72.480469 96.402344 C 72.824219 97.222656 73.121094 98.058594 73.378906 98.910156 C 73.640625 99.761719 73.855469 100.625 74.027344 101.5 C 74.203125 102.371094 74.332031 103.25 74.417969 104.136719 C 74.507812 105.023438 74.550781 105.910156 74.550781 106.800781 C 74.550781 107.6875 74.507812 108.578125 74.417969 109.460938 C 74.332031 110.347656 74.203125 111.226562 74.027344 112.101562 C 73.855469 112.972656 73.640625 113.835938 73.378906 114.6875 C 73.121094 115.539062 72.824219 116.375 72.480469 117.195312 C 72.140625 118.019531 71.761719 118.824219 71.34375 119.609375 C 70.921875 120.390625 70.464844 121.15625 69.972656 121.894531 C 69.476562 122.632812 68.949219 123.347656 68.382812 124.035156 C 67.820312 124.722656 67.222656 125.382812 66.59375 126.011719 C 65.964844 126.640625 65.304688 127.238281 64.617188 127.804688 C 63.929688 128.367188 63.214844 128.898438 62.476562 129.390625 C 61.734375 129.886719 60.972656 130.34375 60.1875 130.761719 C 59.402344 131.179688 58.597656 131.5625 57.777344 131.902344 C 56.957031 132.242188 56.117188 132.542969 55.265625 132.800781 C 54.414062 133.058594 53.554688 133.273438 52.679688 133.449219 C 51.808594 133.621094 50.929688 133.753906 50.042969 133.839844 C 49.15625 133.925781 48.269531 133.96875 47.378906 133.96875 C 46.488281 133.96875 45.601562 133.925781 44.714844 133.839844 C 43.832031 133.753906 42.953125 133.621094 42.078125 133.449219 C 41.207031 133.273438 40.34375 133.058594 39.492188 132.800781 C 38.640625 132.542969 37.804688 132.242188 36.980469 131.902344 C 36.160156 131.5625 35.355469 131.179688 34.570312 130.761719 C 33.785156 130.34375 33.023438 129.886719 32.285156 129.390625 C 31.542969 128.898438 30.828125 128.367188 30.140625 127.804688 C 29.453125 127.238281 28.796875 126.640625 28.167969 126.011719 C 27.539062 125.382812 26.941406 124.722656 26.375 124.035156 C 25.8125 123.347656 25.28125 122.632812 24.789062 121.894531 C 24.292969 121.15625 23.835938 120.390625 23.417969 119.609375 C 22.996094 118.824219 22.617188 118.019531 22.277344 117.195312 C 21.9375 116.375 21.636719 115.539062 21.378906 114.6875 C 21.121094 113.835938 20.902344 112.972656 20.730469 112.101562 C 20.558594 111.226562 20.425781 110.347656 20.339844 109.460938 C 20.25 108.578125 20.207031 107.6875 20.207031 106.800781 C 20.207031 105.910156 20.25 105.023438 20.339844 104.136719 C 20.425781 103.25 20.558594 102.371094 20.730469 101.5 C 20.902344 100.625 21.121094 99.761719 21.378906 98.910156 C 21.636719 98.058594 21.9375 97.222656 22.277344 96.402344 C 22.617188 95.578125 22.996094 94.777344 23.417969 93.992188 C 23.835938 93.207031 24.292969 92.445312 24.789062 91.703125 C 25.28125 90.964844 25.8125 90.25 26.375 89.5625 C 26.941406 88.875 27.539062 88.214844 28.167969 87.585938 C 28.796875 86.957031 29.453125 86.359375 30.140625 85.796875 C 30.828125 85.230469 31.542969 84.703125 32.285156 84.207031 C 33.023438 83.710938 33.785156 83.253906 34.570312 82.835938 C 35.355469 82.417969 36.160156 82.035156 36.980469 81.695312 C 37.804688 81.355469 38.640625 81.054688 39.492188 80.796875 C 40.34375 80.539062 41.207031 80.324219 42.078125 80.148438 C 42.953125 79.976562 43.832031 79.847656 44.714844 79.757812 C 45.601562 79.671875 46.488281 79.628906 47.378906 79.628906 C 48.269531 79.628906 49.15625 79.671875 50.042969 79.757812 C 50.929688 79.847656 51.808594 79.976562 52.679688 80.148438 C 53.554688 80.324219 54.414062 80.539062 55.265625 80.796875 C 56.117188 81.054688 56.957031 81.355469 57.777344 81.695312 C 58.597656 82.035156 59.402344 82.417969 60.1875 82.835938 C 60.972656 83.253906 61.734375 83.710938 62.476562 84.207031 C 63.214844 84.703125 63.929688 85.230469 64.617188 85.796875 C 65.304688 86.359375 65.964844 86.957031 66.59375 87.585938 Z M 66.59375 87.585938 " fill-opacity="1" fill-rule="nonzero"></path><path fill="#5acbf2" d="M 148.457031 335.160156 C 149.144531 334.761719 149.789062 334.300781 150.382812 333.777344 C 150.980469 333.257812 151.519531 332.679688 152.003906 332.050781 C 152.484375 331.421875 152.902344 330.75 153.253906 330.039062 C 153.605469 329.328125 153.882812 328.589844 154.085938 327.824219 C 154.292969 327.058594 154.421875 326.277344 154.472656 325.488281 C 154.527344 324.695312 154.5 323.90625 154.394531 323.121094 C 154.292969 322.335938 154.113281 321.566406 153.859375 320.8125 C 153.605469 320.0625 153.277344 319.34375 152.882812 318.65625 L 104.527344 234.910156 C 104.261719 234.445312 103.9375 234.027344 103.5625 233.648438 C 103.183594 233.269531 102.761719 232.945312 102.300781 232.679688 C 101.835938 232.410156 101.347656 232.207031 100.832031 232.070312 C 100.3125 231.933594 99.789062 231.863281 99.253906 231.863281 L 72.328125 231.863281 L 72.328125 166.617188 C 72.328125 165.800781 72.289062 164.984375 72.207031 164.171875 C 72.128906 163.359375 72.007812 162.550781 71.847656 161.75 C 71.6875 160.949219 71.492188 160.15625 71.253906 159.375 C 71.015625 158.59375 70.742188 157.824219 70.429688 157.070312 C 70.117188 156.3125 69.765625 155.578125 69.382812 154.855469 C 68.996094 154.136719 68.578125 153.433594 68.125 152.753906 C 67.667969 152.078125 67.183594 151.421875 66.664062 150.789062 C 66.148438 150.15625 65.597656 149.554688 65.019531 148.976562 C 64.441406 148.398438 63.839844 147.847656 63.207031 147.332031 C 62.574219 146.8125 61.917969 146.328125 61.242188 145.871094 C 60.5625 145.417969 59.859375 145 59.140625 144.613281 C 58.421875 144.230469 57.683594 143.878906 56.925781 143.566406 C 56.171875 143.253906 55.402344 142.980469 54.621094 142.742188 C 53.839844 142.503906 53.046875 142.308594 52.246094 142.148438 C 51.445312 141.988281 50.636719 141.867188 49.824219 141.789062 C 49.011719 141.707031 48.195312 141.667969 47.378906 141.667969 C 46.5625 141.667969 45.746094 141.707031 44.933594 141.789062 C 44.121094 141.867188 43.3125 141.988281 42.511719 142.148438 C 41.710938 142.308594 40.917969 142.503906 40.136719 142.742188 C 39.355469 142.980469 38.585938 143.253906 37.832031 143.566406 C 37.078125 143.878906 36.339844 144.230469 35.621094 144.613281 C 34.898438 145 34.199219 145.417969 33.519531 145.871094 C 32.839844 146.328125 32.183594 146.8125 31.554688 147.332031 C 30.921875 147.847656 30.316406 148.398438 29.738281 148.976562 C 29.160156 149.554688 28.613281 150.15625 28.09375 150.789062 C 27.578125 151.421875 27.089844 152.078125 26.636719 152.753906 C 26.183594 153.433594 25.761719 154.136719 25.378906 154.855469 C 24.992188 155.578125 24.644531 156.3125 24.332031 157.070312 C 24.019531 157.824219 23.742188 158.59375 23.507812 159.375 C 23.269531 160.15625 23.070312 160.949219 22.910156 161.75 C 22.75 162.550781 22.632812 163.359375 22.550781 164.171875 C 22.472656 164.984375 22.433594 165.800781 22.433594 166.617188 L 22.433594 248.761719 C 22.433594 249.238281 22.476562 249.710938 22.570312 250.175781 C 22.664062 250.644531 22.800781 251.097656 22.984375 251.539062 C 23.167969 251.980469 23.390625 252.398438 23.65625 252.796875 C 23.921875 253.191406 24.222656 253.558594 24.558594 253.894531 C 24.894531 254.230469 25.261719 254.535156 25.660156 254.796875 C 26.054688 255.0625 26.472656 255.285156 26.914062 255.46875 C 27.355469 255.652344 27.808594 255.789062 28.277344 255.882812 C 28.742188 255.976562 29.214844 256.023438 29.691406 256.023438 L 86.085938 256.023438 C 86.933594 256.023438 87.722656 256.234375 88.453125 256.65625 C 89.1875 257.078125 89.765625 257.65625 90.1875 258.390625 L 131.957031 330.738281 C 132.355469 331.425781 132.8125 332.066406 133.335938 332.664062 C 133.859375 333.257812 134.4375 333.796875 135.066406 334.28125 C 135.695312 334.765625 136.363281 335.179688 137.078125 335.53125 C 137.789062 335.882812 138.527344 336.160156 139.292969 336.367188 C 140.058594 336.570312 140.835938 336.699219 141.628906 336.75 C 142.421875 336.804688 143.210938 336.777344 143.996094 336.671875 C 144.78125 336.570312 145.550781 336.390625 146.300781 336.136719 C 147.054688 335.878906 147.773438 335.554688 148.457031 335.160156 Z M 148.457031 335.160156 " fill-opacity="1" fill-rule="nonzero"></path><path fill="#5acbf2" d="M 82.632812 267.390625 L 16.640625 267.390625 C 16.277344 267.390625 15.917969 267.355469 15.566406 267.285156 C 15.210938 267.214844 14.863281 267.109375 14.53125 266.972656 C 14.195312 266.835938 13.878906 266.664062 13.574219 266.460938 C 13.273438 266.261719 12.996094 266.03125 12.738281 265.777344 C 12.484375 265.519531 12.253906 265.242188 12.054688 264.941406 C 11.851562 264.640625 11.683594 264.320312 11.542969 263.988281 C 11.40625 263.652344 11.300781 263.308594 11.230469 262.953125 C 11.160156 262.597656 11.125 262.238281 11.125 261.875 L 11.125 183.867188 C 11.117188 183.511719 11.078125 183.160156 11.003906 182.808594 C 10.929688 182.460938 10.824219 182.125 10.683594 181.796875 C 10.542969 181.472656 10.371094 181.160156 10.171875 180.867188 C 9.96875 180.574219 9.742188 180.300781 9.488281 180.050781 C 9.234375 179.800781 8.960938 179.578125 8.664062 179.382812 C 8.367188 179.1875 8.054688 179.023438 7.722656 178.886719 C 7.394531 178.753906 7.054688 178.652344 6.707031 178.582031 C 6.355469 178.511719 6.003906 178.480469 5.648438 178.480469 C 5.292969 178.480469 4.941406 178.511719 4.589844 178.582031 C 4.242188 178.652344 3.902344 178.753906 3.574219 178.886719 C 3.242188 179.023438 2.929688 179.1875 2.632812 179.382812 C 2.335938 179.578125 2.0625 179.800781 1.808594 180.050781 C 1.554688 180.300781 1.328125 180.574219 1.125 180.867188 C 0.925781 181.160156 0.753906 181.472656 0.613281 181.796875 C 0.472656 182.125 0.367188 182.460938 0.292969 182.808594 C 0.21875 183.160156 0.179688 183.511719 0.171875 183.867188 L 0.171875 273.078125 C 0.171875 273.421875 0.207031 273.765625 0.273438 274.105469 C 0.339844 274.445312 0.441406 274.773438 0.574219 275.09375 C 0.707031 275.414062 0.867188 275.714844 1.058594 276.003906 C 1.253906 276.289062 1.46875 276.558594 1.714844 276.800781 C 1.960938 277.046875 2.226562 277.265625 2.511719 277.457031 C 2.800781 277.648438 3.105469 277.8125 3.425781 277.945312 C 3.742188 278.074219 4.074219 278.175781 4.414062 278.242188 C 4.753906 278.3125 5.09375 278.34375 5.441406 278.34375 L 38.539062 278.34375 L 38.539062 333.527344 C 38.539062 334.148438 38.476562 334.761719 38.355469 335.371094 C 38.234375 335.984375 38.054688 336.574219 37.816406 337.148438 C 37.578125 337.722656 37.285156 338.269531 36.941406 338.785156 C 36.597656 339.304688 36.203125 339.78125 35.765625 340.222656 C 35.324219 340.660156 34.847656 341.054688 34.328125 341.398438 C 33.8125 341.742188 33.265625 342.035156 32.691406 342.273438 C 32.117188 342.511719 31.527344 342.691406 30.914062 342.8125 C 30.304688 342.933594 29.691406 342.996094 29.070312 342.996094 C 28.480469 342.996094 27.894531 343.023438 27.308594 343.082031 C 26.726562 343.140625 26.144531 343.226562 25.566406 343.339844 C 24.992188 343.453125 24.421875 343.597656 23.859375 343.765625 C 23.296875 343.9375 22.746094 344.136719 22.203125 344.359375 C 21.660156 344.585938 21.128906 344.835938 20.609375 345.113281 C 20.089844 345.390625 19.589844 345.691406 19.097656 346.019531 C 18.609375 346.34375 18.140625 346.695312 17.683594 347.066406 C 17.230469 347.441406 16.796875 347.835938 16.378906 348.25 C 15.964844 348.664062 15.570312 349.101562 15.199219 349.554688 C 14.824219 350.007812 14.476562 350.480469 14.148438 350.96875 C 13.820312 351.457031 13.519531 351.960938 13.242188 352.480469 C 12.964844 353 12.714844 353.527344 12.492188 354.070312 C 12.265625 354.613281 12.066406 355.167969 11.898438 355.730469 C 11.726562 356.292969 11.582031 356.863281 11.46875 357.4375 C 11.355469 358.015625 11.269531 358.59375 11.210938 359.179688 C 11.152344 359.765625 11.125 360.351562 11.125 360.9375 L 83.636719 360.9375 C 83.636719 360.351562 83.609375 359.765625 83.550781 359.179688 C 83.496094 358.59375 83.410156 358.015625 83.292969 357.4375 C 83.179688 356.863281 83.035156 356.292969 82.867188 355.730469 C 82.695312 355.167969 82.496094 354.613281 82.273438 354.070312 C 82.046875 353.527344 81.796875 353 81.519531 352.480469 C 81.242188 351.960938 80.941406 351.457031 80.613281 350.96875 C 80.289062 350.480469 79.9375 350.011719 79.566406 349.554688 C 79.191406 349.101562 78.796875 348.667969 78.382812 348.25 C 77.96875 347.835938 77.53125 347.441406 77.078125 347.066406 C 76.625 346.695312 76.152344 346.347656 75.664062 346.019531 C 75.175781 345.691406 74.671875 345.390625 74.152344 345.113281 C 73.632812 344.835938 73.105469 344.585938 72.5625 344.359375 C 72.019531 344.136719 71.464844 343.9375 70.902344 343.769531 C 70.339844 343.597656 69.769531 343.453125 69.195312 343.339844 C 68.617188 343.226562 68.039062 343.140625 67.453125 343.082031 C 66.867188 343.023438 66.28125 342.996094 65.695312 342.996094 C 65.074219 342.996094 64.457031 342.933594 63.847656 342.8125 C 63.238281 342.691406 62.644531 342.511719 62.070312 342.273438 C 61.496094 342.035156 60.949219 341.742188 60.433594 341.398438 C 59.914062 341.054688 59.4375 340.660156 58.996094 340.222656 C 58.558594 339.78125 58.164062 339.304688 57.820312 338.785156 C 57.472656 338.269531 57.183594 337.722656 56.945312 337.148438 C 56.707031 336.574219 56.527344 335.980469 56.40625 335.371094 C 56.28125 334.761719 56.222656 334.144531 56.222656 333.523438 L 56.222656 278.34375 L 76.308594 278.34375 C 80.714844 277.414062 83.738281 274.394531 83.875 271.230469 C 83.902344 270.597656 83.847656 269.132812 82.636719 267.398438 Z M 82.632812 267.390625 " fill-opacity="1" fill-rule="nonzero"></path><path fill="#5acbf2" d="M 346.832031 87.585938 C 347.460938 88.214844 348.058594 88.871094 348.621094 89.558594 C 349.1875 90.25 349.71875 90.960938 350.210938 91.703125 C 350.707031 92.441406 351.164062 93.203125 351.582031 93.988281 C 352 94.773438 352.382812 95.578125 352.722656 96.398438 C 353.0625 97.222656 353.363281 98.058594 353.621094 98.910156 C 353.878906 99.761719 354.09375 100.625 354.269531 101.496094 C 354.441406 102.371094 354.574219 103.25 354.660156 104.132812 C 354.746094 105.019531 354.789062 105.90625 354.789062 106.796875 C 354.789062 107.6875 354.746094 108.574219 354.660156 109.460938 C 354.574219 110.347656 354.441406 111.226562 354.269531 112.097656 C 354.09375 112.972656 353.878906 113.832031 353.621094 114.683594 C 353.363281 115.535156 353.0625 116.375 352.722656 117.195312 C 352.382812 118.019531 352 118.820312 351.582031 119.605469 C 351.164062 120.390625 350.707031 121.152344 350.210938 121.894531 C 349.71875 122.632812 349.1875 123.347656 348.621094 124.035156 C 348.058594 124.722656 347.460938 125.382812 346.832031 126.011719 C 346.203125 126.640625 345.542969 127.238281 344.855469 127.800781 C 344.167969 128.367188 343.453125 128.894531 342.714844 129.390625 C 341.976562 129.882812 341.210938 130.339844 340.425781 130.761719 C 339.644531 131.179688 338.839844 131.558594 338.015625 131.902344 C 337.195312 132.242188 336.359375 132.539062 335.507812 132.800781 C 334.65625 133.058594 333.792969 133.273438 332.921875 133.445312 C 332.046875 133.621094 331.167969 133.75 330.28125 133.839844 C 329.398438 133.925781 328.507812 133.96875 327.621094 133.96875 C 326.730469 133.96875 325.839844 133.925781 324.957031 133.839844 C 324.070312 133.75 323.191406 133.621094 322.320312 133.445312 C 321.445312 133.273438 320.582031 133.058594 319.730469 132.800781 C 318.878906 132.539062 318.042969 132.242188 317.222656 131.902344 C 316.398438 131.558594 315.59375 131.179688 314.8125 130.761719 C 314.027344 130.339844 313.261719 129.882812 312.523438 129.390625 C 311.785156 128.894531 311.070312 128.367188 310.382812 127.800781 C 309.695312 127.238281 309.035156 126.640625 308.40625 126.011719 C 307.777344 125.382812 307.179688 124.722656 306.617188 124.035156 C 306.050781 123.347656 305.523438 122.632812 305.027344 121.894531 C 304.53125 121.152344 304.074219 120.390625 303.65625 119.605469 C 303.238281 118.820312 302.855469 118.019531 302.515625 117.195312 C 302.175781 116.375 301.875 115.535156 301.617188 114.683594 C 301.359375 113.832031 301.144531 112.972656 300.96875 112.097656 C 300.796875 111.226562 300.667969 110.347656 300.578125 109.460938 C 300.492188 108.574219 300.449219 107.6875 300.449219 106.796875 C 300.449219 105.90625 300.492188 105.019531 300.578125 104.132812 C 300.667969 103.25 300.796875 102.371094 300.96875 101.496094 C 301.144531 100.625 301.359375 99.761719 301.617188 98.910156 C 301.875 98.058594 302.175781 97.222656 302.515625 96.398438 C 302.855469 95.578125 303.238281 94.773438 303.65625 93.988281 C 304.074219 93.203125 304.53125 92.441406 305.027344 91.703125 C 305.523438 90.960938 306.050781 90.25 306.617188 89.558594 C 307.179688 88.871094 307.777344 88.214844 308.40625 87.585938 C 309.035156 86.957031 309.695312 86.359375 310.382812 85.792969 C 311.070312 85.230469 311.785156 84.699219 312.523438 84.207031 C 313.261719 83.710938 314.027344 83.253906 314.8125 82.835938 C 315.59375 82.414062 316.398438 82.035156 317.222656 81.695312 C 318.042969 81.355469 318.878906 81.054688 319.730469 80.796875 C 320.582031 80.539062 321.445312 80.320312 322.320312 80.148438 C 323.191406 79.976562 324.070312 79.84375 324.957031 79.757812 C 325.839844 79.671875 326.730469 79.625 327.621094 79.625 C 328.507812 79.625 329.398438 79.671875 330.28125 79.757812 C 331.167969 79.84375 332.046875 79.976562 332.921875 80.148438 C 333.792969 80.320312 334.65625 80.539062 335.507812 80.796875 C 336.359375 81.054688 337.195312 81.355469 338.015625 81.695312 C 338.839844 82.035156 339.644531 82.414062 340.425781 82.835938 C 341.210938 83.253906 341.976562 83.710938 342.714844 84.207031 C 343.453125 84.699219 344.167969 85.230469 344.855469 85.792969 C 345.542969 86.359375 346.203125 86.957031 346.832031 87.585938 Z M 346.832031 87.585938 " fill-opacity="1" fill-rule="nonzero"></path><path fill="#5acbf2" d="M 339.554688 256.023438 L 345.308594 256.023438 C 345.785156 256.023438 346.257812 255.976562 346.722656 255.882812 C 347.191406 255.789062 347.644531 255.652344 348.085938 255.46875 C 348.527344 255.285156 348.945312 255.0625 349.339844 254.796875 C 349.738281 254.535156 350.105469 254.230469 350.441406 253.894531 C 350.777344 253.558594 351.078125 253.191406 351.34375 252.796875 C 351.609375 252.398438 351.832031 251.980469 352.015625 251.539062 C 352.199219 251.097656 352.335938 250.644531 352.429688 250.175781 C 352.523438 249.710938 352.566406 249.238281 352.566406 248.761719 L 352.566406 166.617188 C 352.566406 165.800781 352.527344 164.984375 352.449219 164.171875 C 352.367188 163.359375 352.25 162.550781 352.089844 161.75 C 351.929688 160.949219 351.730469 160.15625 351.492188 159.375 C 351.257812 158.59375 350.980469 157.824219 350.667969 157.070312 C 350.355469 156.3125 350.007812 155.578125 349.621094 154.855469 C 349.238281 154.136719 348.816406 153.433594 348.363281 152.753906 C 347.910156 152.078125 347.421875 151.421875 346.90625 150.789062 C 346.386719 150.15625 345.839844 149.554688 345.261719 148.976562 C 344.683594 148.398438 344.078125 147.847656 343.445312 147.332031 C 342.816406 146.8125 342.160156 146.328125 341.480469 145.871094 C 340.800781 145.417969 340.101562 145 339.378906 144.613281 C 338.660156 144.230469 337.921875 143.878906 337.167969 143.566406 C 336.414062 143.253906 335.644531 142.980469 334.863281 142.742188 C 334.082031 142.503906 333.289062 142.308594 332.488281 142.148438 C 331.6875 141.988281 330.878906 141.867188 330.066406 141.789062 C 329.253906 141.707031 328.4375 141.667969 327.621094 141.667969 C 326.804688 141.667969 325.988281 141.707031 325.175781 141.789062 C 324.363281 141.867188 323.554688 141.988281 322.753906 142.148438 C 321.953125 142.308594 321.160156 142.503906 320.378906 142.742188 C 319.597656 142.980469 318.828125 143.253906 318.074219 143.566406 C 317.316406 143.878906 316.578125 144.230469 315.859375 144.613281 C 315.140625 145 314.4375 145.417969 313.757812 145.871094 C 313.082031 146.328125 312.425781 146.8125 311.792969 147.332031 C 311.160156 147.847656 310.558594 148.398438 309.980469 148.976562 C 309.402344 149.554688 308.851562 150.15625 308.335938 150.789062 C 307.816406 151.421875 307.332031 152.078125 306.875 152.753906 C 306.421875 153.433594 306.003906 154.136719 305.617188 154.855469 C 305.234375 155.578125 304.882812 156.3125 304.570312 157.070312 C 304.257812 157.824219 303.984375 158.59375 303.746094 159.375 C 303.507812 160.15625 303.3125 160.949219 303.152344 161.75 C 302.992188 162.550781 302.871094 163.359375 302.792969 164.171875 C 302.710938 164.984375 302.671875 165.800781 302.671875 166.617188 L 302.671875 231.863281 L 275.746094 231.863281 C 275.210938 231.863281 274.683594 231.929688 274.167969 232.070312 C 273.652344 232.207031 273.160156 232.410156 272.699219 232.679688 C 272.234375 232.945312 271.816406 233.269531 271.4375 233.648438 C 271.058594 234.023438 270.734375 234.445312 270.46875 234.910156 L 222.117188 318.65625 C 221.71875 319.34375 221.394531 320.0625 221.136719 320.8125 C 220.882812 321.566406 220.703125 322.335938 220.601562 323.121094 C 220.496094 323.90625 220.472656 324.695312 220.523438 325.488281 C 220.574219 326.277344 220.703125 327.058594 220.910156 327.824219 C 221.113281 328.589844 221.394531 329.328125 221.742188 330.039062 C 222.09375 330.75 222.511719 331.421875 222.996094 332.050781 C 223.476562 332.679688 224.015625 333.257812 224.613281 333.777344 C 225.210938 334.300781 225.851562 334.761719 226.539062 335.160156 C 227.226562 335.554688 227.945312 335.878906 228.695312 336.136719 C 229.445312 336.390625 230.214844 336.570312 231 336.671875 C 231.789062 336.777344 232.578125 336.804688 233.367188 336.75 C 234.160156 336.699219 234.9375 336.570312 235.703125 336.367188 C 236.46875 336.160156 237.210938 335.882812 237.921875 335.53125 C 238.632812 335.179688 239.300781 334.765625 239.929688 334.28125 C 240.5625 333.796875 241.136719 333.257812 241.660156 332.660156 C 242.183594 332.066406 242.640625 331.425781 243.039062 330.738281 L 284.808594 258.390625 C 285.230469 257.65625 285.808594 257.078125 286.542969 256.65625 C 287.273438 256.234375 288.066406 256.023438 288.910156 256.023438 Z M 339.554688 256.023438 " fill-opacity="1" fill-rule="nonzero"></path><path fill="#5acbf2" d="M 369.351562 178.394531 C 368.992188 178.394531 368.636719 178.429688 368.28125 178.5 C 367.929688 178.570312 367.585938 178.675781 367.253906 178.8125 C 366.921875 178.949219 366.609375 179.117188 366.308594 179.320312 C 366.007812 179.519531 365.734375 179.746094 365.480469 180 C 365.222656 180.253906 364.996094 180.53125 364.796875 180.828125 C 364.597656 181.128906 364.429688 181.445312 364.292969 181.777344 C 364.15625 182.109375 364.050781 182.449219 363.980469 182.804688 C 363.910156 183.15625 363.875 183.511719 363.875 183.871094 L 363.875 261.882812 C 363.875 262.246094 363.839844 262.601562 363.769531 262.957031 C 363.699219 263.3125 363.59375 263.660156 363.457031 263.992188 C 363.316406 264.328125 363.148438 264.644531 362.945312 264.945312 C 362.746094 265.246094 362.515625 265.527344 362.261719 265.78125 C 362.003906 266.039062 361.726562 266.265625 361.425781 266.46875 C 361.121094 266.671875 360.804688 266.839844 360.46875 266.976562 C 360.136719 267.117188 359.789062 267.222656 359.433594 267.292969 C 359.078125 267.363281 358.722656 267.398438 358.359375 267.398438 L 292.367188 267.398438 L 292.367188 267.40625 C 291.15625 269.136719 291.101562 270.605469 291.128906 271.238281 C 291.265625 274.398438 294.285156 277.417969 298.695312 278.351562 L 318.78125 278.351562 L 318.78125 333.53125 C 318.78125 334.152344 318.722656 334.769531 318.601562 335.378906 C 318.476562 335.988281 318.296875 336.582031 318.0625 337.15625 C 317.824219 337.730469 317.53125 338.277344 317.183594 338.792969 C 316.839844 339.308594 316.445312 339.789062 316.007812 340.226562 C 315.566406 340.667969 315.089844 341.058594 314.570312 341.40625 C 314.054688 341.75 313.507812 342.042969 312.933594 342.28125 C 312.359375 342.519531 311.769531 342.699219 311.15625 342.820312 C 310.546875 342.941406 309.933594 343.003906 309.308594 343.003906 C 308.722656 343.003906 308.136719 343.03125 307.550781 343.089844 C 306.964844 343.144531 306.386719 343.230469 305.808594 343.347656 C 305.234375 343.460938 304.664062 343.605469 304.101562 343.773438 C 303.539062 343.945312 302.988281 344.144531 302.445312 344.367188 C 301.902344 344.59375 301.371094 344.84375 300.851562 345.121094 C 300.332031 345.398438 299.832031 345.699219 299.339844 346.027344 C 298.851562 346.351562 298.382812 346.703125 297.925781 347.074219 C 297.472656 347.449219 297.039062 347.84375 296.621094 348.257812 C 296.207031 348.675781 295.8125 349.109375 295.441406 349.5625 C 295.066406 350.015625 294.71875 350.488281 294.390625 350.976562 C 294.066406 351.464844 293.761719 351.96875 293.484375 352.488281 C 293.207031 353.007812 292.957031 353.535156 292.734375 354.078125 C 292.507812 354.621094 292.308594 355.175781 292.140625 355.738281 C 291.96875 356.300781 291.828125 356.871094 291.710938 357.445312 C 291.597656 358.023438 291.511719 358.601562 291.453125 359.1875 C 291.394531 359.773438 291.367188 360.359375 291.367188 360.945312 L 363.882812 360.945312 C 363.882812 360.359375 363.851562 359.773438 363.796875 359.1875 C 363.738281 358.601562 363.652344 358.019531 363.539062 357.445312 C 363.421875 356.867188 363.28125 356.296875 363.109375 355.734375 C 362.941406 355.171875 362.742188 354.617188 362.515625 354.074219 C 362.292969 353.53125 362.042969 353 361.765625 352.484375 C 361.488281 351.964844 361.183594 351.460938 360.859375 350.972656 C 360.53125 350.484375 360.183594 350.011719 359.808594 349.554688 C 359.4375 349.101562 359.042969 348.667969 358.625 348.25 C 358.210938 347.835938 357.773438 347.441406 357.320312 347.066406 C 356.867188 346.695312 356.394531 346.34375 355.90625 346.019531 C 355.417969 345.691406 354.914062 345.390625 354.394531 345.113281 C 353.875 344.835938 353.34375 344.585938 352.800781 344.359375 C 352.257812 344.132812 351.707031 343.9375 351.144531 343.765625 C 350.582031 343.597656 350.011719 343.453125 349.433594 343.339844 C 348.855469 343.222656 348.277344 343.136719 347.691406 343.082031 C 347.105469 343.023438 346.519531 342.996094 345.929688 342.996094 C 345.308594 342.996094 344.695312 342.933594 344.082031 342.8125 C 343.472656 342.691406 342.882812 342.511719 342.308594 342.273438 C 341.734375 342.035156 341.1875 341.742188 340.667969 341.398438 C 340.152344 341.054688 339.675781 340.660156 339.234375 340.222656 C 338.792969 339.78125 338.402344 339.300781 338.058594 338.785156 C 337.710938 338.269531 337.417969 337.722656 337.179688 337.148438 C 336.945312 336.574219 336.765625 335.980469 336.640625 335.371094 C 336.519531 334.761719 336.460938 334.144531 336.460938 333.523438 L 336.460938 278.34375 L 369.558594 278.34375 C 369.902344 278.34375 370.246094 278.3125 370.585938 278.242188 C 370.925781 278.175781 371.253906 278.074219 371.574219 277.945312 C 371.894531 277.8125 372.199219 277.648438 372.484375 277.457031 C 372.773438 277.265625 373.039062 277.046875 373.285156 276.800781 C 373.527344 276.558594 373.746094 276.289062 373.9375 276.003906 C 374.128906 275.714844 374.292969 275.410156 374.425781 275.09375 C 374.558594 274.773438 374.65625 274.445312 374.726562 274.105469 C 374.792969 273.765625 374.828125 273.421875 374.828125 273.078125 L 374.828125 183.867188 C 374.824219 183.507812 374.789062 183.152344 374.71875 182.796875 C 374.648438 182.445312 374.546875 182.105469 374.40625 181.773438 C 374.269531 181.441406 374.101562 181.125 373.902344 180.828125 C 373.703125 180.527344 373.476562 180.25 373.21875 179.996094 C 372.964844 179.742188 372.691406 179.515625 372.390625 179.316406 C 372.09375 179.117188 371.777344 178.949219 371.445312 178.8125 C 371.113281 178.675781 370.769531 178.570312 370.417969 178.5 C 370.066406 178.429688 369.710938 178.394531 369.351562 178.394531 Z M 369.351562 178.394531 " fill-opacity="1" fill-rule="nonzero"></path><path fill="#5acbf2" d="M 227.167969 340.378906 L 205.253906 340.378906 L 205.253906 202.410156 L 271.046875 202.410156 C 271.722656 202.410156 272.390625 202.34375 273.050781 202.210938 C 273.714844 202.082031 274.355469 201.886719 274.980469 201.625 C 275.605469 201.367188 276.195312 201.050781 276.757812 200.675781 C 277.320312 200.300781 277.835938 199.875 278.316406 199.398438 C 278.792969 198.921875 279.21875 198.402344 279.59375 197.839844 C 279.96875 197.28125 280.285156 196.6875 280.542969 196.0625 C 280.800781 195.441406 280.996094 194.796875 281.128906 194.136719 C 281.257812 193.472656 281.324219 192.804688 281.324219 192.132812 C 281.324219 191.457031 281.257812 190.789062 281.128906 190.125 C 280.996094 189.464844 280.800781 188.820312 280.542969 188.199219 C 280.285156 187.574219 279.96875 186.980469 279.59375 186.421875 C 279.21875 185.859375 278.792969 185.339844 278.316406 184.863281 C 277.835938 184.386719 277.320312 183.960938 276.757812 183.585938 C 276.195312 183.210938 275.605469 182.894531 274.980469 182.636719 C 274.355469 182.375 273.714844 182.183594 273.050781 182.050781 C 272.390625 181.917969 271.722656 181.851562 271.046875 181.851562 L 118.898438 181.851562 C 118.226562 181.851562 117.558594 181.917969 116.894531 182.050781 C 116.234375 182.183594 115.589844 182.378906 114.96875 182.636719 C 114.34375 182.894531 113.75 183.210938 113.191406 183.585938 C 112.628906 183.960938 112.109375 184.386719 111.632812 184.863281 C 111.15625 185.339844 110.730469 185.859375 110.355469 186.421875 C 109.980469 186.980469 109.664062 187.574219 109.40625 188.199219 C 109.144531 188.820312 108.953125 189.464844 108.820312 190.125 C 108.6875 190.789062 108.621094 191.457031 108.621094 192.132812 C 108.621094 192.804688 108.6875 193.472656 108.820312 194.136719 C 108.953125 194.796875 109.144531 195.441406 109.40625 196.0625 C 109.664062 196.6875 109.980469 197.28125 110.355469 197.839844 C 110.730469 198.402344 111.15625 198.921875 111.632812 199.398438 C 112.109375 199.875 112.628906 200.300781 113.191406 200.675781 C 113.75 201.050781 114.34375 201.367188 114.96875 201.625 C 115.589844 201.886719 116.234375 202.082031 116.894531 202.210938 C 117.558594 202.34375 118.226562 202.410156 118.898438 202.410156 L 184.691406 202.410156 L 184.691406 340.378906 L 162.78125 340.378906 C 162.109375 340.378906 161.4375 340.410156 160.765625 340.476562 C 160.097656 340.542969 159.429688 340.640625 158.769531 340.773438 C 158.109375 340.90625 157.457031 341.066406 156.8125 341.261719 C 156.167969 341.457031 155.535156 341.683594 154.914062 341.941406 C 154.292969 342.199219 153.683594 342.488281 153.089844 342.804688 C 152.496094 343.121094 151.921875 343.46875 151.359375 343.84375 C 150.800781 344.214844 150.261719 344.617188 149.738281 345.042969 C 149.21875 345.472656 148.722656 345.921875 148.246094 346.398438 C 147.769531 346.875 147.316406 347.375 146.890625 347.894531 C 146.464844 348.414062 146.0625 348.953125 145.6875 349.515625 C 145.316406 350.074219 144.96875 350.652344 144.652344 351.246094 C 144.335938 351.839844 144.046875 352.445312 143.789062 353.066406 C 143.53125 353.691406 143.304688 354.324219 143.109375 354.96875 C 142.914062 355.613281 142.75 356.265625 142.621094 356.925781 C 142.488281 357.585938 142.390625 358.25 142.324219 358.917969 C 142.257812 359.589844 142.222656 360.261719 142.222656 360.933594 L 247.734375 360.933594 C 247.734375 360.261719 247.703125 359.589844 247.636719 358.917969 C 247.570312 358.25 247.472656 357.582031 247.339844 356.921875 C 247.207031 356.261719 247.042969 355.609375 246.847656 354.964844 C 246.652344 354.320312 246.425781 353.6875 246.167969 353.066406 C 245.910156 352.441406 245.625 351.835938 245.304688 351.242188 C 244.988281 350.648438 244.640625 350.070312 244.269531 349.511719 C 243.894531 348.949219 243.492188 348.410156 243.066406 347.890625 C 242.636719 347.371094 242.1875 346.871094 241.710938 346.394531 C 241.234375 345.917969 240.734375 345.46875 240.214844 345.039062 C 239.691406 344.613281 239.152344 344.210938 238.59375 343.839844 C 238.03125 343.464844 237.457031 343.117188 236.863281 342.800781 C 236.265625 342.484375 235.660156 342.195312 235.035156 341.941406 C 234.414062 341.683594 233.78125 341.457031 233.136719 341.261719 C 232.492188 341.066406 231.839844 340.902344 231.179688 340.769531 C 230.519531 340.640625 229.851562 340.542969 229.183594 340.476562 C 228.511719 340.410156 227.839844 340.378906 227.167969 340.378906 Z M 227.167969 340.378906 " fill-opacity="1" fill-rule="nonzero"></path><path fill="#5acbf2" d="M 194.820312 164.152344 L 190.4375 164.152344 L 190.4375 177.300781 L 275.195312 177.300781 L 275.195312 175.734375 L 208.828125 164.28125 C 208.363281 164.199219 207.890625 164.160156 207.417969 164.15625 L 201.496094 164.15625 L 181.441406 107.328125 C 181.019531 106.125 179.367188 105.683594 177.757812 106.339844 C 176.148438 107 175.1875 108.507812 175.613281 109.71875 Z M 194.820312 164.152344 " fill-opacity="1" fill-rule="nonzero"></path><g clip-path="url(#3e2ac46b76)"><path fill="#5acbf2" d="M 238.976562 84.171875 C 248.667969 84.171875 257.714844 82.191406 265.34375 78.769531 L 293.921875 89.398438 L 284.203125 63.28125 C 286.902344 58.949219 288.402344 54.160156 288.402344 49.121094 C 288.402344 29.761719 266.273438 14.066406 238.976562 14.066406 C 211.683594 14.066406 189.554688 29.753906 189.554688 49.117188 C 189.554688 68.476562 211.683594 84.171875 238.976562 84.171875 Z M 267.867188 42.246094 C 268.316406 42.246094 268.761719 42.292969 269.207031 42.378906 C 269.648438 42.46875 270.078125 42.597656 270.492188 42.769531 C 270.910156 42.941406 271.304688 43.15625 271.679688 43.40625 C 272.054688 43.65625 272.402344 43.941406 272.722656 44.257812 C 273.039062 44.578125 273.324219 44.925781 273.574219 45.300781 C 273.828125 45.675781 274.039062 46.070312 274.210938 46.488281 C 274.382812 46.90625 274.511719 47.335938 274.601562 47.777344 C 274.6875 48.21875 274.734375 48.664062 274.734375 49.117188 C 274.734375 49.566406 274.6875 50.015625 274.601562 50.457031 C 274.511719 50.898438 274.382812 51.328125 274.210938 51.746094 C 274.035156 52.160156 273.824219 52.558594 273.574219 52.933594 C 273.324219 53.308594 273.039062 53.652344 272.71875 53.972656 C 272.402344 54.292969 272.054688 54.578125 271.679688 54.828125 C 271.304688 55.078125 270.910156 55.289062 270.492188 55.460938 C 270.074219 55.632812 269.644531 55.765625 269.203125 55.851562 C 268.761719 55.941406 268.3125 55.984375 267.863281 55.984375 C 267.414062 55.984375 266.964844 55.941406 266.523438 55.851562 C 266.082031 55.765625 265.652344 55.632812 265.234375 55.460938 C 264.816406 55.289062 264.421875 55.078125 264.046875 54.828125 C 263.671875 54.574219 263.324219 54.292969 263.007812 53.972656 C 262.6875 53.652344 262.402344 53.304688 262.152344 52.929688 C 261.902344 52.554688 261.691406 52.160156 261.519531 51.742188 C 261.34375 51.328125 261.214844 50.898438 261.128906 50.457031 C 261.039062 50.011719 260.996094 49.566406 260.996094 49.117188 C 260.996094 48.664062 261.039062 48.21875 261.128906 47.777344 C 261.214844 47.332031 261.34375 46.902344 261.519531 46.488281 C 261.691406 46.070312 261.902344 45.675781 262.152344 45.300781 C 262.402344 44.925781 262.6875 44.578125 263.007812 44.257812 C 263.328125 43.9375 263.671875 43.65625 264.046875 43.402344 C 264.421875 43.152344 264.820312 42.941406 265.234375 42.769531 C 265.652344 42.597656 266.082031 42.464844 266.523438 42.378906 C 266.96875 42.289062 267.414062 42.246094 267.867188 42.246094 Z M 238.976562 42.246094 C 239.429688 42.246094 239.875 42.292969 240.316406 42.378906 C 240.761719 42.46875 241.1875 42.597656 241.605469 42.769531 C 242.023438 42.941406 242.417969 43.15625 242.792969 43.40625 C 243.167969 43.65625 243.515625 43.941406 243.835938 44.257812 C 244.152344 44.578125 244.4375 44.925781 244.6875 45.300781 C 244.9375 45.675781 245.148438 46.070312 245.324219 46.488281 C 245.496094 46.90625 245.625 47.335938 245.714844 47.777344 C 245.800781 48.21875 245.84375 48.664062 245.84375 49.117188 C 245.84375 49.566406 245.800781 50.015625 245.710938 50.457031 C 245.625 50.898438 245.496094 51.328125 245.320312 51.746094 C 245.148438 52.160156 244.9375 52.558594 244.6875 52.933594 C 244.4375 53.308594 244.152344 53.652344 243.832031 53.972656 C 243.515625 54.292969 243.167969 54.578125 242.792969 54.828125 C 242.417969 55.078125 242.019531 55.289062 241.605469 55.460938 C 241.1875 55.632812 240.757812 55.765625 240.316406 55.851562 C 239.875 55.941406 239.425781 55.984375 238.976562 55.984375 C 238.523438 55.984375 238.078125 55.941406 237.636719 55.851562 C 237.195312 55.765625 236.765625 55.632812 236.347656 55.460938 C 235.929688 55.289062 235.535156 55.078125 235.160156 54.828125 C 234.785156 54.574219 234.4375 54.292969 234.117188 53.972656 C 233.800781 53.652344 233.515625 53.304688 233.265625 52.929688 C 233.015625 52.554688 232.804688 52.160156 232.628906 51.742188 C 232.457031 51.328125 232.328125 50.898438 232.238281 50.457031 C 232.152344 50.011719 232.105469 49.566406 232.105469 49.117188 C 232.105469 48.664062 232.152344 48.21875 232.238281 47.777344 C 232.328125 47.332031 232.457031 46.902344 232.628906 46.488281 C 232.804688 46.070312 233.015625 45.675781 233.265625 45.300781 C 233.515625 44.925781 233.800781 44.578125 234.121094 44.257812 C 234.4375 43.9375 234.785156 43.65625 235.160156 43.402344 C 235.535156 43.152344 235.933594 42.941406 236.347656 42.769531 C 236.765625 42.597656 237.195312 42.464844 237.636719 42.378906 C 238.078125 42.289062 238.527344 42.246094 238.976562 42.246094 Z M 211.269531 42.246094 C 211.71875 42.246094 212.164062 42.289062 212.609375 42.378906 C 213.050781 42.464844 213.480469 42.597656 213.894531 42.769531 C 214.3125 42.941406 214.707031 43.152344 215.082031 43.40625 C 215.457031 43.65625 215.804688 43.941406 216.125 44.257812 C 216.445312 44.578125 216.726562 44.925781 216.980469 45.300781 C 217.230469 45.675781 217.441406 46.070312 217.613281 46.488281 C 217.785156 46.902344 217.917969 47.332031 218.003906 47.777344 C 218.09375 48.21875 218.136719 48.664062 218.136719 49.117188 C 218.136719 49.566406 218.09375 50.011719 218.003906 50.457031 C 217.917969 50.898438 217.785156 51.328125 217.613281 51.746094 C 217.441406 52.160156 217.230469 52.558594 216.980469 52.933594 C 216.726562 53.308594 216.445312 53.652344 216.125 53.972656 C 215.804688 54.292969 215.457031 54.578125 215.082031 54.828125 C 214.707031 55.078125 214.3125 55.289062 213.894531 55.460938 C 213.480469 55.632812 213.050781 55.765625 212.609375 55.851562 C 212.164062 55.941406 211.71875 55.984375 211.269531 55.984375 C 210.816406 55.984375 210.371094 55.941406 209.925781 55.851562 C 209.484375 55.765625 209.054688 55.632812 208.640625 55.460938 C 208.222656 55.289062 207.828125 55.078125 207.453125 54.828125 C 207.078125 54.578125 206.730469 54.292969 206.410156 53.972656 C 206.089844 53.652344 205.808594 53.308594 205.554688 52.933594 C 205.304688 52.558594 205.09375 52.160156 204.921875 51.746094 C 204.75 51.328125 204.617188 50.898438 204.53125 50.457031 C 204.441406 50.011719 204.398438 49.566406 204.398438 49.117188 C 204.398438 48.664062 204.441406 48.21875 204.53125 47.777344 C 204.617188 47.332031 204.75 46.902344 204.921875 46.488281 C 205.09375 46.070312 205.304688 45.675781 205.554688 45.300781 C 205.808594 44.925781 206.089844 44.578125 206.410156 44.257812 C 206.730469 43.941406 207.078125 43.65625 207.453125 43.40625 C 207.828125 43.152344 208.222656 42.941406 208.640625 42.769531 C 209.054688 42.597656 209.484375 42.464844 209.925781 42.378906 C 210.371094 42.289062 210.816406 42.246094 211.269531 42.246094 Z M 211.269531 42.246094 " fill-opacity="1" fill-rule="nonzero"></path></g></svg>