<svg xmlns="http://www.w3.org/2000/svg" width="564" height="435" viewBox="0 0 564 435" fill="none"><path d="M559.408 260.303C549.649 233.106 534.277 224.83 519.662 207.39C501.805 186.083 489.775 170.601 494.399 143.191C501.97 98.4056 505.212 -13.2771 386.616 1.31666C344.105 6.5487 310.514 39.1091 286.09 71.6202C265.304 99.2776 227.894 101.713 197.793 108.162C160.795 116.093 123.123 128.054 88.9065 145.593C18.4332 181.691 -2.61661 233.616 0.247088 300.037C1.11936 320.109 3.95014 351.715 37.8701 388.702C83.6399 438.62 150.147 445.316 230.199 422.381C248.516 417.132 265.847 408.906 283.868 402.703C302.597 396.27 322.084 392.042 341.784 390.133C387.768 385.691 435.43 393.72 479.521 379.998C502.842 372.742 524.254 359.465 541.124 341.794C562.19 319.731 569.678 288.98 559.376 260.27L559.408 260.303Z" fill="url(#paint0_linear_1366_5252)"></path><path d="M37.8701 362.755C37.8701 369.32 121.148 374.634 223.879 374.634C326.61 374.634 409.871 369.303 409.871 362.755C409.871 356.207 326.593 350.876 223.879 350.876C121.164 350.876 37.8701 356.19 37.8701 362.755Z" fill="#CDCCFF"></path><path d="M151.381 377.432C151.381 381.545 130.249 384.869 104.163 384.869C78.0774 384.869 56.9453 381.545 56.9453 377.432C56.9453 373.319 78.0774 369.995 104.163 369.995C130.249 369.995 151.381 373.319 151.381 377.432Z" fill="#CDCCFF"></path><path d="M56.452 281.149L53.4072 323.745H94.0421L91.2442 281.066L56.452 281.149Z" fill="#D7D7FF"></path><path d="M64.5156 284.884C64.5156 284.226 65.141 283.699 65.9146 283.699C66.6881 283.699 67.3135 284.226 67.3135 284.867C67.3135 285.509 66.6881 286.052 65.9146 286.052C65.141 286.052 64.5156 285.525 64.5156 284.884ZM65.9146 284.143C65.3879 284.143 64.9764 284.473 64.9764 284.867C64.9764 285.262 65.4044 285.591 65.9146 285.591C66.4412 285.591 66.8527 285.262 66.8527 284.867C66.8527 284.473 66.4248 284.143 65.9146 284.143Z" fill="#EAE6FF"></path><path d="M78.3564 284.851C78.3564 284.571 78.4717 284.308 78.6856 284.094C78.9489 283.831 79.3439 283.683 79.7554 283.683C80.5289 283.683 81.1543 284.209 81.1543 284.851C81.1543 285.18 81.0062 285.476 80.7264 285.706C80.4631 285.92 80.1175 286.035 79.7554 286.035C78.9818 286.035 78.3564 285.509 78.3564 284.867V284.851ZM79.7389 284.127C79.4427 284.127 79.1793 284.226 78.9983 284.407C78.916 284.489 78.8008 284.653 78.8008 284.851C78.8008 285.246 79.2287 285.575 79.7389 285.575C80.0022 285.575 80.2491 285.492 80.4302 285.344C80.5947 285.213 80.6935 285.032 80.6935 284.851C80.6935 284.456 80.2656 284.127 79.7554 284.127H79.7389Z" fill="#EAE6FF"></path><path d="M72.4159 293.456C72.5476 293.456 72.6792 293.456 72.8109 293.456C75.3619 293.374 77.3039 292.551 78.5877 291.021C80.7108 288.487 80.2335 284.95 80.217 284.802C80.1841 284.555 79.9537 284.374 79.7068 284.423C79.4599 284.456 79.2954 284.686 79.3283 284.933C79.3283 284.966 79.7727 288.224 77.8964 290.461C76.7773 291.778 75.0657 292.502 72.7944 292.567C70.5891 292.633 68.9433 292.057 67.857 290.84C65.8656 288.635 66.3594 284.999 66.3594 284.966C66.3923 284.719 66.2277 284.489 65.9808 284.456C65.7504 284.423 65.5035 284.588 65.4706 284.835C65.4542 284.999 64.9111 288.915 67.1823 291.432C68.4002 292.781 70.1612 293.472 72.4324 293.472L72.4159 293.456Z" fill="#EAE6FF"></path><path d="M75.5592 293.077L70.7041 324.749L114.828 324.651L110.368 292.995L75.5592 293.077Z" fill="#BDC6F9"></path><path d="M59.2168 346.549C54.2794 346.549 50.2637 350.563 50.2637 355.499C50.2637 360.435 54.2794 364.45 59.2168 364.45C64.1542 364.45 68.17 360.435 68.17 355.499C68.17 350.563 64.1542 346.549 59.2168 346.549ZM59.2168 359.645C56.9292 359.645 55.0694 357.803 55.0694 355.499C55.0694 353.196 56.9292 351.353 59.2168 351.353C61.5045 351.353 63.3972 353.212 63.3972 355.499C63.3972 357.786 61.5374 359.645 59.2168 359.645Z" fill="#8784EF"></path><path d="M57.752 346.549C52.8146 346.549 48.7988 350.563 48.7988 355.499C48.7988 360.435 52.8146 364.45 57.752 364.45C62.6894 364.45 66.7052 360.435 66.7052 355.499C66.7052 350.563 62.6894 346.549 57.752 346.549ZM57.752 359.645C55.4643 359.645 53.6046 357.803 53.6046 355.499C53.6046 353.196 55.4643 351.353 57.752 351.353C60.0397 351.353 61.9323 353.212 61.9323 355.499C61.9323 357.786 60.0726 359.645 57.752 359.645Z" fill="#9AA3F4"></path><path d="M109.792 346.549C104.855 346.549 100.839 350.563 100.839 355.499C100.839 360.435 104.855 364.45 109.792 364.45C114.729 364.45 118.745 360.435 118.745 355.499C118.745 350.563 114.729 346.549 109.792 346.549ZM109.792 359.645C107.504 359.645 105.645 357.803 105.645 355.499C105.645 353.196 107.504 351.353 109.792 351.353C112.08 351.353 113.972 353.212 113.972 355.499C113.972 357.786 112.113 359.645 109.792 359.645Z" fill="#8784EF"></path><path d="M108.311 346.549C103.373 346.549 99.3574 350.563 99.3574 355.499C99.3574 360.435 103.373 364.45 108.311 364.45C113.248 364.45 117.264 360.435 117.264 355.499C117.264 350.563 113.248 346.549 108.311 346.549ZM108.311 359.645C106.023 359.645 104.163 357.803 104.163 355.499C104.163 353.196 106.023 351.353 108.311 351.353C110.598 351.353 112.491 353.212 112.491 355.499C112.491 357.786 110.631 359.645 108.311 359.645Z" fill="#9AA3F4"></path><path d="M177.336 246.12H150.443C147.612 246.12 144.979 247.584 143.498 249.987L127.237 276.081" stroke="#9AA3F4" stroke-width="1.5" stroke-miterlimit="10"></path><path d="M54.9869 324.025H115.075C118.268 324.025 121 321.705 121.51 318.546L127.731 279.767C128.373 275.802 125.312 272.215 121.296 272.215H48.7658C44.75 272.215 41.7053 275.802 42.3307 279.767L48.5518 318.546C49.062 321.705 51.7776 324.025 54.9869 324.025Z" stroke="#9AA3F4" stroke-width="1.5" stroke-miterlimit="10"></path><path d="M85.0225 272.215V324.025" stroke="#9AA3F4" stroke-width="1.5" stroke-miterlimit="10"></path><path d="M124.785 298.128H45.2764" stroke="#9AA3F4" stroke-width="1.5" stroke-miterlimit="10"></path><path d="M108.755 272.215L103.62 324.025" stroke="#9AA3F4" stroke-width="1.5" stroke-miterlimit="10"></path><path d="M62.4756 272.215L67.2319 324.025" stroke="#9AA3F4" stroke-width="1.5" stroke-miterlimit="10"></path><path d="M120.095 321.672L129.838 336.15C132.487 340.083 129.657 345.381 124.917 345.381H45.2764" stroke="#9AA3F4" stroke-width="1.5" stroke-miterlimit="10"></path><path d="M329.358 328.533H246.92V350.695H329.358V328.533Z" fill="#4A41A3"></path><path d="M416.01 130.242H161.141C152.606 130.242 145.687 137.159 145.687 145.692V320.323C145.687 328.856 152.606 335.773 161.141 335.773H416.01C424.545 335.773 431.464 328.856 431.464 320.323V145.692C431.464 137.159 424.545 130.242 416.01 130.242Z" fill="#5851BC"></path><path d="M413.113 137.745H163.165C157.921 137.745 153.669 141.995 153.669 147.238V306.569C153.669 311.812 157.921 316.062 163.165 316.062H413.113C418.358 316.062 422.609 311.812 422.609 306.569V147.238C422.609 141.995 418.358 137.745 413.113 137.745Z" fill="#C4C3FC"></path><path d="M223.533 348.787H352.729C359.378 348.787 364.776 354.184 364.776 360.831V362.756H211.47V360.831C211.47 354.184 216.868 348.787 223.517 348.787H223.533Z" fill="#5851BC"></path><g opacity="0.35"><path opacity="0.35" d="M397.823 150.052H226.133C221.579 150.052 217.888 153.742 217.888 158.295V268.25C217.888 272.802 221.579 276.493 226.133 276.493H397.823C402.377 276.493 406.069 272.802 406.069 268.25V158.295C406.069 153.742 402.377 150.052 397.823 150.052Z" fill="white"></path></g><g style="mix-blend-mode:multiply" opacity="0.25"><g style="mix-blend-mode:multiply" opacity="0.25"><g style="mix-blend-mode:multiply" opacity="0.25"><path d="M243.974 242.436H235.778V263.002H243.974V242.436Z" fill="#FCA70C"></path></g><g style="mix-blend-mode:multiply" opacity="0.25"><path d="M262.44 224.37H254.244V263.002H262.44V224.37Z" fill="#B1AFFD"></path></g><g style="mix-blend-mode:multiply" opacity="0.25"><path d="M280.923 228.368H272.727V263.002H280.923V228.368Z" fill="#FCA70C"></path></g><g style="mix-blend-mode:multiply" opacity="0.25"><path d="M299.388 208.806H291.192V263.002H299.388V208.806Z" fill="#B1AFFD"></path></g><g style="mix-blend-mode:multiply" opacity="0.15"><g style="mix-blend-mode:multiply" opacity="0.26"><path d="M258.013 224.37H254.244V263.002H258.013V224.37Z" fill="black"></path></g></g><g style="mix-blend-mode:multiply" opacity="0.15"><g style="mix-blend-mode:multiply" opacity="0.26"><path d="M239.547 242.436H235.778V263.002H239.547V242.436Z" fill="black"></path></g></g><g style="mix-blend-mode:multiply" opacity="0.62"><g style="mix-blend-mode:multiply" opacity="0.26"><path d="M294.961 208.806H291.192V263.002H294.961V208.806Z" fill="black"></path></g></g><g style="mix-blend-mode:multiply" opacity="0.15"><g style="mix-blend-mode:multiply" opacity="0.26"><path d="M276.495 228.368H272.727V263.002H276.495V228.368Z" fill="black"></path></g></g><g style="mix-blend-mode:multiply" opacity="0.25"><path d="M303.733 268.661H230.363V190.575H231.482V267.542H303.733V268.661Z" fill="#D5DBDA"></path></g><g style="mix-blend-mode:multiply" opacity="0.25"><path d="M237.901 232.794L237.16 231.954L256.35 214.728L274.125 218.595L293.364 197.173L294.204 197.93L274.52 219.829L256.663 215.946L237.901 232.794Z" fill="#D5DBDA"></path></g><g style="mix-blend-mode:multiply" opacity="0.25"><path d="M295.702 201.088L290.287 195.889L297.282 194.014L295.702 201.088Z" fill="#D5DBDA"></path></g><g style="mix-blend-mode:multiply" opacity="0.25"><g style="mix-blend-mode:multiply" opacity="0.25"><path d="M316.307 240.971H310.679V246.598H316.307V240.971Z" fill="#B1AFFD"></path></g><g style="mix-blend-mode:multiply" opacity="0.25"><path d="M316.307 250.826H310.679V256.453H316.307V250.826Z" fill="#FCA70C"></path></g><g style="mix-blend-mode:multiply" opacity="0.25"><path d="M335.695 253.261H317.854V256.453H335.695V253.261Z" fill="#EFEFEF"></path></g><g style="mix-blend-mode:multiply" opacity="0.25"><path d="M335.695 243.405H317.854V246.597H335.695V243.405Z" fill="#EFEFEF"></path></g></g><g style="mix-blend-mode:multiply" opacity="0.25"><g style="mix-blend-mode:multiply" opacity="0.25"><path d="M349.404 240.971H343.775V246.598H349.404V240.971Z" fill="#B1AFFD"></path></g><g style="mix-blend-mode:multiply" opacity="0.25"><path d="M349.404 250.826H343.775V256.453H349.404V250.826Z" fill="#FCA70C"></path></g><g style="mix-blend-mode:multiply" opacity="0.25"><path d="M368.792 253.261H350.951V256.453H368.792V253.261Z" fill="#EFEFEF"></path></g><g style="mix-blend-mode:multiply" opacity="0.25"><path d="M368.792 243.405H350.951V246.597H368.792V243.405Z" fill="#EFEFEF"></path></g></g><g style="mix-blend-mode:multiply" opacity="0.25"><g style="mix-blend-mode:multiply" opacity="0.25"><path d="M379.21 240.971H373.581V246.598H379.21V240.971Z" fill="#B1AFFD"></path></g><g style="mix-blend-mode:multiply" opacity="0.25"><path d="M379.21 250.826H373.581V256.453H379.21V250.826Z" fill="#FCA70C"></path></g><g style="mix-blend-mode:multiply" opacity="0.25"><path d="M392.508 253.261H380.773V256.453H392.508V253.261Z" fill="#EFEFEF"></path></g><g style="mix-blend-mode:multiply" opacity="0.25"><path d="M392.508 243.405H380.773V246.597H392.508V243.405Z" fill="#EFEFEF"></path></g></g><g style="mix-blend-mode:multiply" opacity="0.25"><g style="mix-blend-mode:multiply" opacity="0.25"><path d="M392.507 187.202H311.731V188.666H392.507V187.202Z" fill="#EFEFEF"></path></g><g style="mix-blend-mode:multiply" opacity="0.25"><path d="M392.508 169.187H230.363V172.543H392.508V169.187Z" fill="#EFEFEF"></path></g><g style="mix-blend-mode:multiply" opacity="0.25"><path d="M392.508 191.76H311.485V193.224H392.508V191.76Z" fill="#EFEFEF"></path></g><g style="mix-blend-mode:multiply" opacity="0.25"><path d="M392.508 182.629H311.485V184.093H392.508V182.629Z" fill="#EFEFEF"></path></g><g style="mix-blend-mode:multiply" opacity="0.25"><path d="M392.508 196.334H311.485V197.798H392.508V196.334Z" fill="#EFEFEF"></path></g><g style="mix-blend-mode:multiply" opacity="0.25"><path d="M392.508 200.908H311.485V202.373H392.508V200.908Z" fill="#EFEFEF"></path></g><g style="mix-blend-mode:multiply" opacity="0.25"><path d="M392.508 205.465H311.485V206.929H392.508V205.465Z" fill="#EFEFEF"></path></g><g style="mix-blend-mode:multiply" opacity="0.25"><path d="M392.508 210.039H311.485V211.503H392.508V210.039Z" fill="#EFEFEF"></path></g><g style="mix-blend-mode:multiply" opacity="0.25"><path d="M392.508 214.597H311.485V216.061H392.508V214.597Z" fill="#EFEFEF"></path></g><g style="mix-blend-mode:multiply" opacity="0.25"><path d="M392.508 219.171H311.485V220.635H392.508V219.171Z" fill="#EFEFEF"></path></g><g style="mix-blend-mode:multiply" opacity="0.25"><path d="M392.508 223.729H321.409V225.193H392.508V223.729Z" fill="#EFEFEF"></path></g></g></g><g style="mix-blend-mode:multiply" opacity="0.25"><path d="M397.823 150.052H226.133C221.574 150.052 217.888 153.737 217.888 158.295V165.501H406.069V158.295C406.069 153.737 402.382 150.052 397.823 150.052Z" fill="#7A7AE5"></path></g><g style="mix-blend-mode:multiply" opacity="0.25"><path d="M381.876 158.065C381.876 159.381 380.806 160.434 379.506 160.434C378.206 160.434 377.136 159.364 377.136 158.065C377.136 156.765 378.206 155.695 379.506 155.695C380.806 155.695 381.876 156.765 381.876 158.065Z" fill="#CFCFFF"></path></g><g style="mix-blend-mode:multiply" opacity="0.25"><path d="M389.182 160.434C390.491 160.434 391.552 159.373 391.552 158.065C391.552 156.756 390.491 155.695 389.182 155.695C387.874 155.695 386.812 156.756 386.812 158.065C386.812 159.373 387.874 160.434 389.182 160.434Z" fill="#CFCFFF"></path></g><g style="mix-blend-mode:multiply" opacity="0.25"><path d="M398.877 160.434C400.186 160.434 401.247 159.373 401.247 158.065C401.247 156.756 400.186 155.695 398.877 155.695C397.568 155.695 396.507 156.756 396.507 158.065C396.507 159.373 397.568 160.434 398.877 160.434Z" fill="#CFCFFF"></path></g></g><g style="mix-blend-mode:multiply" opacity="0.55"><path d="M347.841 178.021H176.151C171.597 178.021 167.905 181.712 167.905 186.264V296.22C167.905 300.772 171.597 304.462 176.151 304.462H347.841C352.395 304.462 356.086 300.772 356.086 296.22V186.264C356.086 181.712 352.395 178.021 347.841 178.021Z" fill="#C4C3FC"></path></g><path d="M351.659 173.103H179.969C175.415 173.103 171.724 176.793 171.724 181.345V291.301C171.724 295.853 175.415 299.544 179.969 299.544H351.659C356.213 299.544 359.905 295.853 359.905 291.301V181.345C359.905 176.793 356.213 173.103 351.659 173.103Z" fill="white"></path><path d="M197.81 265.47H189.614V286.036H197.81V265.47Z" fill="#FCA70C"></path><path d="M216.276 247.42H208.08V286.051H216.276V247.42Z" fill="#B1AFFD"></path><path d="M234.742 251.402H226.546V286.036H234.742V251.402Z" fill="#FCA70C"></path><path d="M253.224 231.855H245.028V286.052H253.224V231.855Z" fill="#B1AFFD"></path><g style="mix-blend-mode:multiply" opacity="0.15"><g style="mix-blend-mode:multiply" opacity="0.26"><path d="M211.849 247.42H208.08V286.051H211.849V247.42Z" fill="black"></path></g></g><g style="mix-blend-mode:multiply" opacity="0.15"><g style="mix-blend-mode:multiply" opacity="0.26"><path d="M193.383 265.47H189.614V286.036H193.383V265.47Z" fill="black"></path></g></g><g style="mix-blend-mode:multiply" opacity="0.62"><g style="mix-blend-mode:multiply" opacity="0.26"><path d="M248.797 231.855H245.028V286.052H248.797V231.855Z" fill="black"></path></g></g><g style="mix-blend-mode:multiply" opacity="0.15"><g style="mix-blend-mode:multiply" opacity="0.26"><path d="M230.315 251.402H226.546V286.036H230.315V251.402Z" fill="black"></path></g></g><path d="M257.553 291.712H184.199V220.603H185.318V290.593H257.553V291.712Z" fill="#D5DBDA"></path><path d="M191.737 255.844L190.979 255.005L210.17 237.779L227.944 241.645L247.2 220.224L248.039 220.964L228.356 242.879L210.499 238.996L191.737 255.844Z" fill="#D5DBDA"></path><path d="M249.538 224.139L244.106 218.923L251.118 217.048L249.538 224.139Z" fill="#D5DBDA"></path><path d="M270.127 264.021H264.498V269.648H270.127V264.021Z" fill="#B1AFFD"></path><path d="M270.127 273.877H264.498V279.504H270.127V273.877Z" fill="#FCA70C"></path><path d="M289.531 276.312H271.69V279.503H289.531V276.312Z" fill="#EFEFEF"></path><path d="M289.531 266.44H271.69V269.632H289.531V266.44Z" fill="#EFEFEF"></path><path d="M303.24 264.021H297.611V269.648H303.24V264.021Z" fill="#B1AFFD"></path><path d="M303.24 273.877H297.611V279.504H303.24V273.877Z" fill="#FCA70C"></path><path d="M322.628 276.312H304.787V279.503H322.628V276.312Z" fill="#EFEFEF"></path><path d="M322.628 266.44H304.787V269.632H322.628V266.44Z" fill="#EFEFEF"></path><path d="M333.046 264.021H327.417V269.648H333.046V264.021Z" fill="#B1AFFD"></path><path d="M333.046 273.877H327.417V279.504H333.046V273.877Z" fill="#FCA70C"></path><path d="M346.327 276.312H334.593V279.503H346.327V276.312Z" fill="#EFEFEF"></path><path d="M346.327 266.44H334.593V269.632H346.327V266.44Z" fill="#EFEFEF"></path><path d="M346.327 210.253H265.551V211.717H346.327V210.253Z" fill="#EFEFEF"></path><path d="M346.344 192.221H184.199V195.577H346.344V192.221Z" fill="#EFEFEF"></path><path d="M346.344 214.811H265.321V216.275H346.344V214.811Z" fill="#EFEFEF"></path><path d="M346.344 205.68H265.321V207.144H346.344V205.68Z" fill="#EFEFEF"></path><path d="M346.344 219.385H265.321V220.849H346.344V219.385Z" fill="#EFEFEF"></path><path d="M346.344 223.942H265.321V225.407H346.344V223.942Z" fill="#EFEFEF"></path><path d="M346.344 228.516H265.321V229.98H346.344V228.516Z" fill="#EFEFEF"></path><path d="M346.344 233.073H265.321V234.538H346.344V233.073Z" fill="#EFEFEF"></path><path d="M346.344 237.647H265.321V239.112H346.344V237.647Z" fill="#EFEFEF"></path><path d="M346.344 242.205H265.321V243.669H346.344V242.205Z" fill="#EFEFEF"></path><path d="M346.327 246.778H275.229V248.243H346.327V246.778Z" fill="#EFEFEF"></path><path d="M351.659 173.103H179.969C175.41 173.103 171.724 176.788 171.724 181.345V188.552H359.905V181.345C359.905 176.788 356.218 173.103 351.659 173.103Z" fill="#A4A4F7"></path><path d="M335.695 181.115C335.695 182.432 334.625 183.485 333.325 183.485C332.025 183.485 330.955 182.415 330.955 181.115C330.955 179.816 332.025 178.746 333.325 178.746C334.625 178.746 335.695 179.816 335.695 181.115Z" fill="#CFCFFF"></path><path d="M345.388 181.115C345.388 182.432 344.319 183.485 343.018 183.485C341.718 183.485 340.648 182.415 340.648 181.115C340.648 179.816 341.718 178.746 343.018 178.746C344.319 178.746 345.388 179.816 345.388 181.115Z" fill="#CFCFFF"></path><path d="M355.083 181.115C355.083 182.432 354.013 183.485 352.713 183.485C351.413 183.485 350.343 182.415 350.343 181.115C350.343 179.816 351.413 178.746 352.713 178.746C354.013 178.746 355.083 179.816 355.083 181.115Z" fill="#CFCFFF"></path><g style="mix-blend-mode:multiply" opacity="0.35"><path d="M415.17 130.391H371.112C371.408 144.672 371.655 158.969 371.836 173.251C371.869 175.439 371.836 177.693 371.046 179.717H370.98C370.404 179.684 370.651 179.865 370.453 180.918C370.453 180.918 370.453 180.951 370.453 180.967C368.676 183.879 365.187 185.459 361.813 186.216C361.78 186.397 361.813 186.545 361.862 186.693C361.467 187.038 361.286 187.482 361.517 188.025C361.714 188.503 364.249 189.144 367.688 188.782C368.676 188.683 370.601 188.141 371.507 187.729C372.05 187.482 372.527 187.104 372.906 186.775C373.35 186.726 373.794 186.627 374.189 186.462L374.321 186.594L378.271 184.883C378.271 184.883 377.843 182.398 377.497 181.099C377.432 180.852 377.333 180.654 377.234 180.49C380.526 171.539 383.142 162.359 384.969 152.997C384.245 164.596 380.081 188.173 379.769 188.98C379.242 190.345 377.432 192.27 374.749 192.501C373.811 192.583 369.219 192.32 369.713 194.426C369.828 194.936 372.214 196.005 375.671 196.235C376.658 196.301 378.649 196.104 379.62 195.857C380.904 195.511 382.073 194.524 382.073 194.524L382.599 195.232L386.78 194.228C386.78 194.228 386.78 193.142 386.747 191.826C386.714 190.51 385.858 189.276 385.858 189.276L385.924 186.907L388.244 186.627C388.244 186.627 392.902 171.572 395.107 166.456C396.013 164.35 397.033 162.26 397.609 160.039C398.284 157.423 398.35 154.708 398.564 152.01C398.959 147.107 399.864 142.237 401.263 137.531C401.345 137.235 401.444 136.922 401.658 136.692C402.02 136.281 402.629 136.215 403.188 136.166C409.113 135.623 411.829 136.626 415.532 135.475C420.42 133.961 420.93 131.74 421.177 131.641C419.334 130.868 417.309 130.424 415.17 130.424V130.391Z" fill="#5851BC"></path></g><g style="mix-blend-mode:multiply" opacity="0.35"><g style="mix-blend-mode:multiply" opacity="0.35"><path d="M431.463 228.993V177.906C423.843 187.877 416.306 196.811 408.685 206.798C405.377 211.125 392.425 225.455 401.263 231.214C403.518 232.678 407.451 232.612 409.41 232.76C416.454 233.254 423.448 231.313 430.295 229.371C430.69 229.256 431.085 229.141 431.48 229.009L431.463 228.993Z" fill="#5851BC"></path></g></g><g style="mix-blend-mode:multiply" opacity="0.35"><path d="M431.463 239.983L427.217 240.312L427.135 240.066L423.827 240.329L422.839 237.515C422.28 235.919 420.404 234.735 418.675 234.866C416.947 235.015 415.993 236.413 416.569 238.025C416.733 238.519 417.227 239.868 417.556 240.806L414.084 241.069L414.15 241.316L406.99 241.875C405.855 241.875 404.192 243.34 404.554 244.36L404.62 244.508C404.62 244.59 404.62 244.672 404.653 244.771L410.841 262.228L410.677 335.772H417.853L431.447 282.942V239.967L431.463 239.983ZM420.305 239.44C419.334 239.523 418.28 238.848 417.968 237.96C417.655 237.055 418.182 236.265 419.153 236.183C420.124 236.1 421.177 236.775 421.49 237.663C421.803 238.568 421.276 239.358 420.305 239.44Z" fill="#5851BC"></path></g><g style="mix-blend-mode:multiply" opacity="0.35"><path d="M163.642 209.678C162.046 211.438 160.153 215.189 159.396 216.802C158.59 218.398 157.717 219.303 155.43 220.372C152.286 221.803 148.912 223.185 145.687 224.452V232.794C152.27 228.829 158.228 225.143 158.326 225.11C163.362 227.035 167.559 222.856 168.909 219.829C169.518 218.48 168.613 217.921 168.563 217.279C168.547 216.95 168.975 214.992 168.909 214.729C168.514 212.968 163.79 214.498 164.185 213.676C164.416 213.034 164.975 211.537 166.16 210.731C168.481 209.151 170.258 207.391 170.258 206.733C170.258 205.581 164.202 209.069 163.659 209.678H163.642Z" fill="#5851BC"></path></g><path d="M518.264 252.093H430.032C423.715 252.093 418.594 257.212 418.594 263.528V369.106C418.594 375.422 423.715 380.541 430.032 380.541H518.264C524.581 380.541 529.702 375.422 529.702 369.106V263.528C529.702 257.212 524.581 252.093 518.264 252.093Z" fill="#A2A7F4"></path><path d="M519.909 265.535H431.776C430.168 265.535 428.863 266.839 428.863 268.447V289.014C428.863 290.622 430.168 291.926 431.776 291.926H519.909C521.518 291.926 522.822 290.622 522.822 289.014V268.447C522.822 266.839 521.518 265.535 519.909 265.535Z" fill="#9090F4"></path><path d="M450.111 301.271H431.776C430.168 301.271 428.863 302.575 428.863 304.184V315.108C428.863 316.717 430.168 318.021 431.776 318.021H450.111C451.719 318.021 453.024 316.717 453.024 315.108V304.184C453.024 302.575 451.719 301.271 450.111 301.271Z" fill="#9090F4"></path><path d="M485.018 301.271H466.684C465.075 301.271 463.771 302.575 463.771 304.184V315.108C463.771 316.717 465.075 318.021 466.684 318.021H485.018C486.627 318.021 487.931 316.717 487.931 315.108V304.184C487.931 302.575 486.627 301.271 485.018 301.271Z" fill="#9090F4"></path><path d="M519.925 301.271H501.591C499.982 301.271 498.678 302.575 498.678 304.184V315.108C498.678 316.717 499.982 318.021 501.591 318.021H519.925C521.534 318.021 522.838 316.717 522.838 315.108V304.184C522.838 302.575 521.534 301.271 519.925 301.271Z" fill="#9090F4"></path><path d="M450.111 328.188H431.776C430.168 328.188 428.863 329.492 428.863 331.101V342.025C428.863 343.634 430.168 344.938 431.776 344.938H450.111C451.719 344.938 453.024 343.634 453.024 342.025V331.101C453.024 329.492 451.719 328.188 450.111 328.188Z" fill="#9090F4"></path><path d="M485.018 328.188H466.684C465.075 328.188 463.771 329.492 463.771 331.101V342.025C463.771 343.634 465.075 344.938 466.684 344.938H485.018C486.627 344.938 487.931 343.634 487.931 342.025V331.101C487.931 329.492 486.627 328.188 485.018 328.188Z" fill="#9090F4"></path><path d="M450.111 355.121H431.776C430.168 355.121 428.863 356.425 428.863 358.033V368.958C428.863 370.566 430.168 371.87 431.776 371.87H450.111C451.719 371.87 453.024 370.566 453.024 368.958V358.033C453.024 356.425 451.719 355.121 450.111 355.121Z" fill="#9090F4"></path><path d="M485.018 355.121H466.684C465.075 355.121 463.771 356.425 463.771 358.033V368.958C463.771 370.566 465.075 371.87 466.684 371.87H485.018C486.627 371.87 487.931 370.566 487.931 368.958V358.033C487.931 356.425 486.627 355.121 485.018 355.121Z" fill="#9090F4"></path><path d="M519.925 328.188H501.591C499.982 328.188 498.678 329.492 498.678 331.101V368.943C498.678 370.551 499.982 371.855 501.591 371.855H519.925C521.534 371.855 522.838 370.551 522.838 368.943V331.101C522.838 329.492 521.534 328.188 519.925 328.188Z" fill="#9090F4"></path><g opacity="0.45"><path opacity="0.45" d="M427.168 266.736C427.168 265.124 428.468 263.824 430.081 263.824H518.214C519.827 263.824 521.127 265.124 521.127 266.736V287.286C521.127 288.899 519.827 290.198 518.214 290.198H430.081" fill="#E2DEFF"></path><path opacity="0.45" d="M448.415 299.561H430.081C428.472 299.561 427.168 300.864 427.168 302.473V313.398C427.168 315.006 428.472 316.31 430.081 316.31H448.415C450.024 316.31 451.328 315.006 451.328 313.398V302.473C451.328 300.864 450.024 299.561 448.415 299.561Z" fill="#E2DEFF"></path><path opacity="0.45" d="M483.306 299.561H464.972C463.363 299.561 462.059 300.864 462.059 302.473V313.398C462.059 315.006 463.363 316.31 464.972 316.31H483.306C484.915 316.31 486.219 315.006 486.219 313.398V302.473C486.219 300.864 484.915 299.561 483.306 299.561Z" fill="#E2DEFF"></path><path opacity="0.45" d="M518.214 299.561H499.88C498.271 299.561 496.967 300.864 496.967 302.473V313.398C496.967 315.006 498.271 316.31 499.88 316.31H518.214C519.823 316.31 521.127 315.006 521.127 313.398V302.473C521.127 300.864 519.823 299.561 518.214 299.561Z" fill="#E2DEFF"></path><path opacity="0.45" d="M448.415 326.478H430.081C428.472 326.478 427.168 327.781 427.168 329.39V340.314C427.168 341.923 428.472 343.227 430.081 343.227H448.415C450.024 343.227 451.328 341.923 451.328 340.314V329.39C451.328 327.781 450.024 326.478 448.415 326.478Z" fill="#E2DEFF"></path><path opacity="0.45" d="M483.306 326.478H464.972C463.363 326.478 462.059 327.781 462.059 329.39V340.314C462.059 341.923 463.363 343.227 464.972 343.227H483.306C484.915 343.227 486.219 341.923 486.219 340.314V329.39C486.219 327.781 484.915 326.478 483.306 326.478Z" fill="#E2DEFF"></path><path opacity="0.45" d="M448.415 353.411H430.081C428.472 353.411 427.168 354.715 427.168 356.323V367.248C427.168 368.856 428.472 370.16 430.081 370.16H448.415C450.024 370.16 451.328 368.856 451.328 367.248V356.323C451.328 354.715 450.024 353.411 448.415 353.411Z" fill="#E2DEFF"></path><path opacity="0.45" d="M483.306 353.411H464.972C463.363 353.411 462.059 354.715 462.059 356.323V367.248C462.059 368.856 463.363 370.16 464.972 370.16H483.306C484.915 370.16 486.219 368.856 486.219 367.248V356.323C486.219 354.715 484.915 353.411 483.306 353.411Z" fill="#E2DEFF"></path></g><path d="M518.214 326.477H499.88C498.271 326.477 496.967 327.78 496.967 329.389V367.231C496.967 368.839 498.271 370.143 499.88 370.143H518.214C519.823 370.143 521.127 368.839 521.127 367.231V329.389C521.127 327.78 519.823 326.477 518.214 326.477Z" fill="#FCA70C"></path><path d="M498.678 368.942V331.1C498.678 329.488 499.979 328.188 501.591 328.188H519.909C520.271 328.188 520.617 328.254 520.93 328.385C520.518 327.283 519.448 326.493 518.198 326.493H499.88C498.267 326.493 496.967 327.793 496.967 329.405V367.247C496.967 368.498 497.757 369.551 498.859 369.978C498.744 369.666 498.662 369.32 498.662 368.958L498.678 368.942Z" fill="#F9C110"></path><g style="mix-blend-mode:multiply" opacity="0.35"><path d="M418.594 282.383L421.573 290.215H434.031C434.031 290.215 433.159 324.075 433.11 330.409C433.06 336.76 438.327 380.542 438.327 380.542H445.536L444.778 325.342L455.015 297.026C455.015 297.026 462.701 334.934 465.894 341.285C469.087 347.636 486.22 380.542 486.22 380.542H492.836L475.851 307.951L468.56 282.729L431.793 265.552L418.594 266.852" fill="#5851BC"></path></g><path d="M169.814 310.501L164.021 370.637H221.048L215.534 310.402L169.814 310.501Z" fill="#FCA70C"></path><path d="M179.771 316.013C179.771 315.009 180.725 314.203 181.91 314.203C183.095 314.203 184.05 315.009 184.05 316.013C184.05 317.017 183.095 317.823 181.91 317.823C180.725 317.823 179.771 317.017 179.771 316.013ZM181.91 314.894C181.104 314.894 180.462 315.404 180.462 316.013C180.462 316.622 181.12 317.132 181.91 317.132C182.716 317.132 183.358 316.622 183.358 316.013C183.358 315.404 182.7 314.894 181.91 314.894Z" fill="#5851BC"></path><path d="M201.018 315.963C201.018 315.535 201.199 315.124 201.511 314.795C201.923 314.384 202.515 314.153 203.141 314.153C204.309 314.153 205.28 314.96 205.28 315.963C205.28 316.457 205.05 316.917 204.638 317.263C204.243 317.592 203.717 317.773 203.157 317.773C201.972 317.773 201.018 316.967 201.018 315.963ZM203.157 314.844C202.713 314.844 202.285 315.009 202.022 315.289C201.89 315.42 201.725 315.651 201.725 315.963C201.725 316.572 202.384 317.082 203.174 317.082C203.569 317.082 203.947 316.95 204.227 316.72C204.49 316.506 204.622 316.243 204.622 315.947C204.622 315.338 203.964 314.828 203.174 314.828L203.157 314.844Z" fill="#5851BC"></path><path d="M191.9 329.142C192.098 329.142 192.295 329.142 192.509 329.142C196.41 329.011 199.389 327.76 201.364 325.407C204.623 321.525 203.882 316.095 203.849 315.865C203.8 315.486 203.438 315.207 203.075 315.289C202.697 315.338 202.434 315.7 202.483 316.062C202.483 316.111 203.158 321.13 200.294 324.535C198.582 326.559 195.949 327.661 192.46 327.777C189.07 327.875 186.552 327.003 184.873 325.128C181.828 321.738 182.585 316.177 182.585 316.111C182.635 315.733 182.371 315.388 181.993 315.338C181.631 315.289 181.269 315.552 181.219 315.931C181.186 316.177 180.363 322.183 183.836 326.049C185.696 328.122 188.395 329.175 191.884 329.175L191.9 329.142Z" fill="#5851BC"></path><path d="M113.741 175.011C115.946 178.828 114.037 184.027 116.276 187.828C117.164 189.341 118.679 190.542 119.106 192.253C119.469 193.685 118.909 195.314 117.74 196.235C116.572 197.156 114.86 197.304 113.56 196.613C113.28 196.465 113.017 196.284 112.704 196.186C111.602 195.857 110.614 196.844 109.66 197.485C108.491 198.275 106.977 198.637 105.644 198.193C103.932 197.617 102.879 195.889 102.303 194.178C100.706 189.391 101.842 184.159 103.307 179.338C104.047 176.936 105.134 174.254 107.487 173.382" fill="#5045AF"></path><path d="M165.008 215.55C165.041 216.077 165.847 216.538 165.32 217.656C164.119 220.141 160.383 223.596 155.923 222C155.725 222.066 131.252 236.215 129.36 236.215C127.467 236.215 114.63 224.057 110.416 209.019C109.413 205.432 109.808 201.203 113.165 199.394C113.165 199.394 115.963 200.068 117.79 203.507C120.571 208.755 128.899 226.146 130.759 226.804C133.063 225.274 144.271 221.934 153.355 218.084C155.38 217.196 156.153 216.455 156.877 215.139C157.552 213.806 159.231 210.713 160.646 209.265C161.14 208.772 166.505 205.892 166.505 206.83C166.505 207.373 164.925 208.821 162.868 210.121C161.815 210.795 161.321 212.029 161.124 212.556C160.778 213.247 164.975 211.98 165.32 213.428C165.386 213.642 164.991 215.254 165.008 215.534V215.55Z" fill="#FFB9B0"></path><path d="M112.194 198.966C115.371 199.706 117.988 201.746 119.502 204.626C119.88 205.366 120.193 206.139 120.506 206.913C121.806 210.236 123.6 213.231 124.9 216.538C123.123 217.969 120.967 218.644 119.14 219.318C117.445 219.96 115.585 220.207 113.774 220.042C113.462 220.009 113.149 219.976 112.869 219.845C112.491 219.664 112.211 219.351 111.931 219.038C111.372 218.397 110.828 217.739 110.302 217.081C109.841 216.505 109.397 215.912 109.216 215.205C108.952 214.251 109.216 213.247 109.479 212.293" fill="#7762EF"></path><g style="mix-blend-mode:multiply" opacity="0.35"><g style="mix-blend-mode:multiply" opacity="0.35"><path d="M115.403 208.015C115.288 207.867 115.156 207.719 114.992 207.653C114.663 207.521 114.284 207.735 114.12 208.048C113.955 208.36 113.938 208.722 113.938 209.068C113.938 210.417 114.169 211.75 114.564 213.033L114.152 220.025C115.848 220.141 117.576 219.91 119.172 219.302C119.929 219.022 120.752 218.726 121.575 218.397C120.736 214.448 118.053 211.124 115.436 207.998L115.403 208.015Z" fill="#7762EF"></path></g></g><path d="M104.557 192.006C104.557 192.006 104.459 196.383 105.133 196.679C106.467 197.255 107.964 197.551 107.964 197.551L108.014 206.616L95.9334 204.79L87.6221 200.167C87.6221 200.167 96.2625 197.304 96.3448 196.448C96.4271 195.593 95.8675 190.739 95.8675 190.739" fill="#FFB9B0"></path><path d="M85.9765 323.152V323.185C82.6685 338.865 84.232 360.385 83.5078 372.182C83.6724 372.232 88.0009 372.775 88.0009 372.775C88.0009 372.775 98.2213 323.037 100.081 313.511C100.213 312.853 100.295 312.228 100.311 311.668C100.756 304.495 94.3043 304.133 90.6506 310.056C90.0416 311.027 89.4821 312.096 88.9883 313.248C88.7908 313.708 88.5933 314.186 88.3958 314.696C87.7869 316.259 87.2602 317.937 86.7994 319.714L86.7665 319.895C86.6184 320.388 86.4867 320.898 86.3715 321.408V321.524C86.2234 322.05 86.1082 322.577 85.993 323.119L85.9765 323.152Z" fill="#FFB9B0"></path><path d="M105.348 266.9C105.233 268.199 104.542 274.369 103.702 281.641C102.995 287.762 102.221 294.656 101.612 300.118C101.168 304.215 100.839 307.489 100.69 309.019C100.625 309.973 100.493 310.829 100.328 311.668V311.701C98.7648 318.858 93.8274 319.269 90.8156 317.608C90.4041 317.394 90.0091 317.114 89.68 316.834C88.9888 316.209 88.5279 315.452 88.3963 314.728C88.1988 313.248 88.0177 311.24 87.8367 308.855V308.822C87.8367 308.822 87.8202 308.805 87.8202 308.789V308.739C87.4417 304.083 87.129 298.111 86.8492 292.286C86.52 285.129 86.3061 278.236 86.2567 274.336C86.2403 274.106 86.2403 273.909 86.2238 273.695C86.1744 261.766 97.1355 254.116 103.949 257.818C104.031 257.85 104.097 257.883 104.196 257.933C104.295 257.999 104.393 258.048 104.459 258.081C105.233 258.607 105.496 260.384 105.513 262.424C105.546 263.905 105.447 265.534 105.332 266.883L105.348 266.9Z" fill="#FFB9B0"></path><path d="M88.6592 311.915L87.8199 308.789C87.8199 308.789 87.8199 308.806 87.8199 308.822C87.8363 309.529 87.9186 314.564 86.783 319.73L86.7501 319.911C86.6349 320.405 86.5032 320.931 86.3551 321.425V321.54C86.0918 322.363 85.993 322.889 85.9766 323.136V323.169C85.9766 324.584 88.9719 318.299 89.6632 316.818C89.7454 316.637 89.7948 316.522 89.7948 316.522L88.9719 313.248L88.6263 311.899L88.6592 311.915Z" fill="#FFB9B0"></path><path d="M112.277 326.147V326.18C111.964 342.584 117.033 361.883 118.366 373.811C118.531 373.811 122.513 373.285 122.513 373.285C122.513 373.285 123.271 323.005 123.32 313.067C123.32 312.376 123.287 311.734 123.221 311.175C122.398 303.936 116.539 305.17 114.268 311.981C113.889 313.1 113.577 314.301 113.313 315.568C113.215 316.078 113.116 316.604 113.017 317.147C112.737 318.858 112.54 320.652 112.425 322.544V322.741C112.375 323.284 112.342 323.811 112.326 324.354V324.469C112.293 325.028 112.293 325.571 112.277 326.147Z" fill="#FFB9B0"></path><path d="M115.683 319.451C115.255 319.336 114.877 319.155 114.531 318.941C113.79 318.497 113.231 317.871 113.017 317.164C112.589 315.732 112.079 313.758 111.503 311.422C111.503 311.422 111.503 311.411 111.503 311.389V311.323C110.367 306.798 109.05 300.925 107.833 295.199C106.335 288.157 104.969 281.346 104.261 277.479C104.212 277.265 103.603 274.452 103.553 274.255C101.447 262.26 110.795 254.462 117.592 256.749C117.691 256.781 117.773 256.814 117.856 256.847C119.222 257.39 119.6 262.194 119.913 265.452C120.225 268.693 122.53 302.356 123.106 308.444C123.204 309.415 123.237 310.319 123.221 311.175C123.056 318.694 118.678 320.356 115.683 319.451Z" fill="#FFB9B0"></path><path d="M112.787 314.301L111.503 311.405C111.503 311.405 111.503 311.422 111.503 311.438C111.635 312.129 112.573 317.131 112.425 322.544V322.741C112.392 323.268 112.375 323.811 112.326 324.354V324.469C112.26 325.357 112.244 325.884 112.276 326.147V326.18C112.507 327.595 114.153 320.586 114.531 318.957C114.581 318.743 114.613 318.628 114.613 318.628L113.33 315.568L112.803 314.301H112.787Z" fill="#FFB9B0"></path><path d="M91.9349 243.865C91.9349 243.865 83.1298 255.037 84.035 266.274C84.4136 270.947 84.9896 275.077 85.5162 279.766C85.5985 280.44 86.6519 290.312 86.3556 290.329C86.3556 290.329 104.492 295.939 122.02 288.585C122.02 287.384 123.419 264.399 113.956 242.483C102.534 244.096 91.9349 243.849 91.9349 243.849V243.865Z" fill="#5146AF"></path><path d="M119.502 218.068C119.436 221.276 117.724 223.218 115.289 225.916C114.976 226.393 114.219 233.534 113.956 238.272C113.824 240.74 114.877 242.287 113.956 242.501C110.434 245.561 97.7609 248.062 91.9347 243.866C92.5437 238.7 90.2395 227.331 88.676 221.556C88.4292 220.668 88.2152 219.911 88.0177 219.335C86.5694 214.942 83.9361 200.858 85.8782 200.249C86.2567 200.134 86.8657 199.97 87.5569 199.756C90.6016 198.835 95.0947 197.271 95.0947 197.271C95.0947 197.271 97.728 205.07 104.574 206.008C108.31 204.461 107.981 199.739 107.932 197.568C109.15 197.913 109.693 198.242 113.478 199.361C114.548 200.891 113.626 204.083 115.338 208.854C115.766 210.039 119.551 214.169 119.469 218.068H119.502Z" fill="#7762EF"></path><path d="M113.297 174.122C113.297 174.122 113.989 182.595 112.54 187.021C111.47 190.312 107.076 193.372 103.406 193.339C93.3008 193.339 91.4739 179.601 91.5398 178.943C91.5891 178.285 106.451 172.51 106.451 172.51L113.297 174.122Z" fill="#FFB9B0"></path><path d="M132.553 378.55C128.949 379.192 125.114 378.188 123.534 378.452C122.234 378.665 118.876 379.521 117.626 378.402C116.375 377.283 116.572 373.302 118.021 372.775C118.021 372.775 118.35 372.907 118.959 373.006C119.864 373.137 121.345 373.203 123.221 372.66C125.953 373.779 126.069 374.273 129.179 374.914C130.529 375.194 132.109 375.638 133.146 376.115C134.495 376.724 134.594 378.205 132.57 378.567L132.553 378.55Z" fill="#5045AF"></path><path d="M93.6955 380.146C90.0912 379.537 87.8036 377.546 86.2236 377.266C84.9234 377.036 81.6483 376.394 81.3027 375.045C81.0393 374.042 82.0433 369.895 83.5739 369.879C83.5739 369.879 83.8372 370.109 84.3803 370.405C85.1867 370.833 86.5692 371.409 88.5113 371.524C90.7166 373.515 90.6343 374.009 93.3499 375.654C94.5349 376.378 95.868 377.332 96.6744 378.122C97.7278 379.158 95.7199 380.491 93.6955 380.146Z" fill="#5045AF"></path><path d="M41.1445 212.029L44.4526 208.097L64.663 226.162C64.663 226.162 74.5214 213.033 77.237 208.936C80.2159 204.428 82.915 200.578 87.2764 199.821C88.2803 200.447 86.9308 216.62 86.4041 217.015C80.3146 221.572 68.4484 236.281 64.6795 237.038C60.3181 237.926 41.1445 212.029 41.1445 212.029Z" fill="#FFB9B0"></path><path d="M88.774 199.081C88.774 199.081 84.643 199.13 82.8655 200.595C81.0881 202.059 72.6122 215.485 72.6122 215.485C72.6122 215.485 72.3982 218.018 74.834 220.157C77.4509 222.428 80.94 222.806 80.94 222.806C80.94 222.806 85.2026 218.578 87.589 216.636C89.0867 215.435 89.2348 218.413 89.2348 218.413L96.7397 211.092L88.7575 199.081H88.774Z" fill="#7762EF"></path><path d="M86.2725 199.245C86.0421 199.13 85.8281 198.998 85.6142 198.867C84.4621 198.176 83.3924 197.452 82.8986 196.136C82.1909 194.243 81.8618 191.331 82.8492 189.489C83.5076 188.238 84.7584 187.432 85.6306 186.313C86.8156 184.767 87.1612 182.743 87.26 180.785C87.3587 178.844 87.26 176.869 87.655 174.961C88.3627 171.703 89.2843 168.593 91.8024 166.487C95.8346 163.114 103.899 161.124 108.293 164.875C109.1 165.55 109.248 166.109 110.334 166.208C111.782 166.356 112.721 166.537 114.021 167.277C115.469 168.116 117.214 169.284 117 171.176C116.852 172.493 115.37 174.549 114.251 175.175C113.79 175.438 113.231 175.52 112.704 175.52C110.992 175.553 109.577 174.434 107.898 174.615C107.075 174.697 106.302 175.142 105.792 175.783C105.183 176.524 105.265 177.577 104.557 178.268C103.422 179.386 101.661 179.288 100.328 180.028C100.097 180.143 99.8833 180.291 99.7516 180.505C99.62 180.719 99.62 180.982 99.6035 181.229L99.5212 183.352C98.8629 183.055 98.7806 182.118 98.2375 181.641C97.7108 181.18 96.8386 181.311 96.3119 181.772C95.7853 182.233 95.5219 182.924 95.3903 183.615C95.2257 184.438 95.5055 185.31 95.7688 186.149C96.2132 187.596 97.4475 188.88 98.435 187.942C99.1591 189.011 98.3692 190.788 98.3362 191.989C98.3198 192.944 98.3362 194.836 99.225 195.461C100.048 196.037 101.348 195.593 101.397 197.09C101.447 198.455 100.081 199.508 98.7312 199.673C97.3817 199.837 96.0486 199.36 94.7484 198.982C93.4482 198.587 92.0164 198.291 90.7491 198.784C89.9756 199.081 89.3172 199.656 88.5108 199.788C87.7537 199.92 87.0131 199.64 86.3054 199.262L86.2725 199.245Z" fill="#5045AF"></path><path d="M49.5554 212.671C49.5554 212.671 44.7991 208.87 44.4864 207.817C44.1737 206.764 44.0914 205.662 43.6964 204.642C43.1204 203.161 41.8695 201.976 40.4048 201.368C39.2198 200.874 39.7958 200.479 38.5286 200.726C36.603 201.104 35.6978 202.98 34.9243 204.461C31.6491 210.746 40.6187 211.93 40.9479 211.947C41.6062 211.98 44.9472 215.764 44.9472 215.764" fill="#FFB9B0"></path><path d="M34.5615 209.643L37.8202 211.815C38.2481 212.095 38.8241 211.963 39.0874 211.535L46.2302 199.574L42.0005 197.188L34.3311 208.409C34.0513 208.821 34.1665 209.38 34.5779 209.66L34.5615 209.643Z" fill="#8484EF"></path><path d="M22.9424 184.24L24.0616 184.997L28.5875 178.4L27.4684 177.643C25.872 176.557 23.5679 177.149 22.317 178.975C21.0662 180.802 21.346 183.154 22.9424 184.24Z" fill="#C4C4F7"></path><path d="M18.8105 192.285L39.6299 195.444L44.3863 188.517L33.8696 170.32L18.8105 192.285Z" fill="#C4C4F7"></path><path d="M20.1279 192.565L39.6307 195.445L41.5234 192.681L25.1147 185.31L20.1279 192.565Z" fill="#BBBBF2"></path><path d="M48.1889 200.479C49.308 201.236 50.9209 200.824 51.7932 199.541L52.6325 198.307C53.5048 197.04 53.3073 195.379 52.2046 194.622C51.0855 193.865 49.4726 194.276 48.6003 195.559L47.761 196.793C46.8887 198.06 47.0862 199.722 48.1889 200.479Z" fill="#C4C4F7"></path><path d="M48.6003 195.56L47.761 196.794C46.8887 198.077 47.0862 199.723 48.1889 200.479C49.308 201.236 50.9044 200.825 51.7932 199.542L52.6325 198.308C52.6984 198.209 52.7477 198.11 52.7971 198.011C51.8919 199.064 50.4436 199.377 49.4068 198.67C48.3699 197.962 48.1395 196.498 48.7978 195.28C48.732 195.363 48.6497 195.445 48.5839 195.544L48.6003 195.56Z" fill="#BBBBF2"></path><path d="M18.1198 192.96C18.7781 193.404 19.7162 193.158 20.2264 192.417L34.512 171.604C35.0222 170.864 34.907 169.893 34.2651 169.449C33.6068 169.005 32.6687 169.251 32.1585 169.992L17.8729 190.805C17.3627 191.545 17.4779 192.516 18.1198 192.96Z" fill="#A4A4F7"></path><path d="M34.6272 169.844L22.728 187.169C22.2178 187.909 21.2633 188.156 20.6214 187.712C20.4733 187.613 20.3416 187.465 20.2593 187.317L17.8729 190.788C17.3627 191.529 17.4779 192.499 18.1198 192.944C18.7781 193.388 19.7162 193.141 20.2264 192.401L34.512 171.588C34.907 171.012 34.9234 170.321 34.6272 169.827V169.844Z" fill="#8484EF"></path><path d="M41.4569 199.081L42.8064 200.002C44.7978 201.351 47.678 200.611 49.2251 198.34L50.5582 196.382C52.1217 194.112 51.7761 191.167 49.7846 189.818L48.4351 188.896C46.4437 187.547 43.5635 188.287 42.0164 190.558L40.6833 192.516C39.1198 194.786 39.4654 197.731 41.4569 199.081Z" fill="#A4A4F7"></path><path d="M40.7662 192.4L38.7583 195.329C38.2646 196.053 38.3798 196.974 39.0052 197.402L45.2757 201.68C45.9011 202.108 46.8228 201.877 47.3165 201.153L49.3244 198.225C48.8307 198.949 47.9255 199.179 47.2836 198.751L41.0131 194.473C40.3877 194.046 40.2725 193.108 40.7662 192.4Z" fill="#8484EF"></path><path d="M35.2535 206.633C34.9901 204.807 35.4016 203.063 36.4055 201.746C36.7512 201.286 37.1626 200.891 37.5741 200.496C37.7716 200.298 37.9855 200.101 38.2817 200.035C38.7426 199.92 39.3186 200.101 39.7959 200.381C40.3225 200.677 40.8327 201.105 41.0467 201.615C41.3923 202.47 40.7998 203.178 40.125 203.605C40.0592 203.655 39.9769 203.688 39.9605 203.77C39.9276 203.885 40.0098 204.033 40.0757 204.165C40.3719 204.691 40.6188 205.267 40.553 205.794C40.4871 206.304 40.0428 206.732 39.4338 206.633C39.1869 206.6 38.8578 206.501 38.7755 206.682C38.7426 206.748 38.7755 206.814 38.7755 206.896C38.8413 207.423 38.7097 207.916 38.397 208.262C38.3147 208.344 38.2324 208.426 38.1007 208.459C38.002 208.459 37.8868 208.459 37.788 208.41C37.4095 208.295 37.0309 208.13 36.6689 207.916" fill="#FFB9B0"></path><path d="M44.4529 208.081C44.3377 207.39 44.0909 206.238 44.0579 205.531C43.9921 203.622 42.9717 201.713 41.3094 200.759C41.1778 200.677 41.0132 200.611 40.8651 200.628C40.6676 200.66 40.5359 200.858 40.503 201.055C40.4701 201.253 40.5359 201.45 40.5853 201.648C40.7828 202.256 41.6386 203.392 41.3753 204C40.9803 204.922 40.6676 205.942 40.7005 206.962C40.7334 207.867 41.1449 209.331 42.2146 209.479" fill="#FFB9B0"></path><path d="M20.3096 160.252L24.5064 170.14" stroke="#C4C4F7" stroke-width="0.75" stroke-linecap="round" stroke-linejoin="round"></path><path d="M11.5703 169.038L20.1614 175.471" stroke="#C4C4F7" stroke-width="0.75" stroke-linecap="round" stroke-linejoin="round"></path><path d="M6.04004 180.999L16.7048 182.052" stroke="#C4C4F7" stroke-width="0.75" stroke-linecap="round" stroke-linejoin="round"></path><path d="M348.071 77.0994C348.071 77.0994 344.237 74.4011 344.105 73.2658C343.973 72.1306 341.291 67.5238 340.435 66.6189C339.579 65.6975 335.086 64.1509 334.131 64.0028C333.177 63.8712 327.663 64.3319 328.355 65.0887C329.046 65.8456 332.601 65.5659 333.292 65.9772L333.983 66.3885C333.983 66.3885 333.292 67.3099 333.572 67.8857C333.852 68.4451 332.403 69.3171 332.946 70.2714C333.49 71.2257 332.733 71.1599 333.21 72.1635C334.016 73.8088 336.09 74.7302 336.633 74.2859C337.045 75.2567 338.624 77.2639 340.089 77.1158C341.57 76.9842 345.142 80.3406 345.142 80.3406" fill="#FFB9B0"></path><path d="M406.546 57.8662C406.678 60.4329 406.497 64.9245 407.238 65.5827C407.978 66.2408 410.348 66.1421 410.348 66.1421C410.348 66.1421 401.839 76.9023 401.082 76.31C400.325 75.7177 390.253 67.5241 392.524 67.0963C394.795 66.6685 397.001 66.7673 396.935 65.5991C396.869 64.4309 396.803 63.2628 396.737 62.0946" fill="#FFB9B0"></path><path d="M416.24 115.304C416.24 115.304 399.634 117.196 395.816 117.262C391.998 117.344 392.179 115.353 392.179 115.353C391.981 111.141 391.273 101.236 390.483 97.8799C389.743 94.7374 389.414 93.5857 388.772 90.6077C387.34 83.9772 387.406 82.7267 385.892 74.5496L395.816 66.5864C395.816 66.5864 396.836 69.6302 401 69.696C406.563 69.7618 408.291 65.8789 408.291 65.8789L421.819 74.8622L423.087 96.6953L421.474 114.678" fill="#FCA70C"></path><path d="M406.728 55.5296C406.432 56.8294 406.037 58.0963 405.559 59.3467C404.687 61.6172 403.387 62.4399 400.984 62.5057C399.289 62.5386 397.594 62.5879 395.899 62.6208C394.598 62.6538 392.985 62.7031 391.932 61.7817C390.895 60.8768 390.862 59.3467 390.632 58.0963C390.336 56.5003 390.089 54.8715 389.908 53.2591C389.546 50.0837 389.398 46.8918 389.463 43.6999C389.463 43.2557 389.48 42.8279 389.579 42.3837C389.612 42.2027 389.677 42.0217 389.793 41.9066C389.957 41.742 390.188 41.7091 390.402 41.6762C393.578 41.1826 396.804 40.9687 400.013 41.0675C402.284 41.1333 404.687 41.3965 406.481 42.7786C408.291 44.1771 409.147 46.4476 409.921 48.6029C410.052 48.9484 410.135 49.4091 409.838 49.623" fill="#FFB9B0"></path><path d="M369.483 174.502C369.483 174.502 370.027 177.809 370.471 178.927C370.915 180.063 374.618 179.01 374.865 178.286C375.112 177.562 373.697 172.182 373.697 172.182" fill="#ED9C80"></path><path d="M376.165 179.223C376.478 180.441 376.89 182.777 376.89 182.777L373.186 184.39L372.578 183.814C372.578 183.814 371.656 184.933 370.52 185.459C369.681 185.854 367.854 186.348 366.932 186.446C363.707 186.792 361.32 186.183 361.123 185.739C360.316 183.863 364.612 183.37 365.468 183.139C367.903 182.498 369.269 180.425 369.533 179.075C369.714 178.088 369.483 177.924 370.027 177.957C370.027 177.957 370.504 177.924 370.948 178.384C371.639 179.092 372.66 179.404 373.581 178.993C374.108 178.763 374.602 178.401 374.898 177.907C374.898 177.907 375.836 178.006 376.165 179.223Z" fill="#38287C"></path><path d="M385.859 131.362C380.066 132.497 372.808 132.579 366.965 131.806C367.788 134.142 369.796 137.153 370.553 140.46C373.071 151.352 373.943 165.995 374.585 175.061C374.585 175.061 373.367 177.381 369.499 175.62C363.706 161.306 353.585 132.3 353.683 126.014C353.799 118.002 373.812 116.077 388.459 114.103" fill="#453087"></path><path d="M411.401 115.32C416.01 118.693 385.859 131.362 385.859 131.362C382.518 132.02 379.259 132.316 375.967 132.3C375.655 131.707 375.358 131.082 375.227 130.424C375.046 129.552 375.144 128.631 374.996 127.759C374.7 126.047 373.466 124.6 371.984 123.695C370.503 122.79 368.775 122.378 367.064 122.099C362.982 121.441 355.872 121.901 355.872 121.901C364.94 115.221 383.489 114.349 392.129 113.79C393.791 116.521 410.76 114.81 411.418 115.304L411.401 115.32Z" fill="#38287C"></path><path d="M379.045 182.119C379.045 182.119 379.012 185.459 379.259 186.66C379.49 187.845 383.324 187.466 383.687 186.792C384.049 186.117 383.604 180.589 383.604 180.589" fill="#ED9C80"></path><path d="M384.806 187.927C384.904 189.178 384.904 191.547 384.904 191.547L380.987 192.485L380.494 191.81C380.494 191.81 379.391 192.748 378.19 193.061C377.284 193.291 375.408 193.472 374.487 193.423C371.244 193.209 369.006 192.189 368.891 191.728C368.43 189.754 372.742 190 373.614 189.918C376.132 189.704 377.828 187.894 378.321 186.611C378.683 185.673 378.469 185.459 378.996 185.591C378.996 185.591 379.473 185.657 379.835 186.183C380.395 186.989 381.35 187.5 382.321 187.236C382.88 187.088 383.423 186.841 383.802 186.381C383.802 186.381 384.707 186.644 384.822 187.894L384.806 187.927Z" fill="#38287C"></path><path d="M421.457 114.646C421.457 114.646 412.224 115.567 401.033 115.304C398.416 115.304 378.683 119.006 376.79 122.345C373.679 127.841 378.814 159.99 378.337 183.008C378.337 183.008 380.707 184.982 384.887 183.123C385.924 171.82 392.606 145.149 387.998 132.694C398.877 134.142 407.665 135.574 417.556 132.3C419.877 131.526 421.605 129.897 422.642 126.903C423.679 123.892 423.136 117.327 421.457 114.646Z" fill="#453087"></path><path d="M395.816 66.5692C395.816 66.5692 393.446 66.7008 392.985 66.7337C391.01 66.8982 388.986 67.145 387.126 67.8361C384.443 68.8397 382.534 71.3241 380.345 73.282C378.239 75.1576 367.31 85.5724 365.27 85.9508C363.229 86.3292 345.339 74.0717 345.339 74.0717L340.978 78.4318C340.978 78.4318 360.382 96.3655 366.175 96.3984C368.989 96.3984 384.476 88.2542 389.43 85.0952L395.799 66.5527L395.816 66.5692Z" fill="#FCA70C"></path><g style="mix-blend-mode:multiply" opacity="0.25"><path d="M366.224 92.9764C362.241 93.2068 343.957 79.2382 341.833 77.6094L340.994 78.4649C340.994 78.4649 360.398 96.3987 366.191 96.4316C368.528 96.4316 379.671 90.7882 386.204 87.0698L387.9 86.0991L386.896 80.0773C386.896 80.0773 370.503 92.7626 366.257 93.0093L366.224 92.9764Z" fill="#CE4A30"></path></g><path d="M347.611 118.232H392.048L384.082 92.2692C383.638 90.8378 382.321 89.8506 380.823 89.8506H341.916C340.435 89.8506 339.365 91.2984 339.793 92.7134L347.627 118.232H347.611Z" fill="#A4A4F7"></path><path d="M347.051 118.232H390.813L382.848 92.2692C382.403 90.8378 381.087 89.8506 379.589 89.8506H340.682C339.201 89.8506 338.131 91.2984 338.559 92.7134L346.196 117.59C346.311 117.969 346.656 118.232 347.068 118.232H347.051Z" fill="#7A74D1"></path><g style="mix-blend-mode:multiply" opacity="0.25"><g style="mix-blend-mode:multiply" opacity="0.25"><path d="M415.368 79.0903C413.163 89.0937 412.768 96.9089 412.142 104.049C404.374 107.06 401.214 111.552 393.627 114.925C393.627 114.925 387.636 113.921 386.994 116.192C386.632 117.492 394.022 118.528 394.022 118.528C401.066 118.561 419.631 113.411 420.881 113.066C422.132 112.72 425.802 89.1266 425.95 76.3262C425.967 74.5 425.901 72.5421 424.766 71.1107C424.173 70.3703 423.334 69.8602 422.478 69.416C417.524 66.8822 413.854 66.1912 408.307 65.8457" fill="#CE4A30"></path></g></g><path d="M394.664 116.471C393.825 115.418 392.311 115.27 390.961 115.303C389.973 115.319 388.97 115.402 387.999 115.533C387.554 115.599 387.027 115.698 386.995 116.191C386.945 116.685 389.167 116.191 390.336 116.52C388.048 116.718 385.76 116.784 383.473 116.701C383.209 116.701 382.929 116.685 382.683 116.784C382.436 116.882 382.222 117.113 382.238 117.392C382.238 117.606 382.403 117.771 382.551 117.919C383.193 118.495 384.065 118.725 384.921 118.873C388.426 119.482 392.113 119.383 395.355 117.952" fill="#FFB9B0"></path><path d="M414.874 78.8929C414.693 89.5709 413.936 94.4739 414.134 105.152C408.768 106.304 401.346 112.375 393.742 115.748C393.742 115.748 393.298 117.261 393.989 118.528C394.565 118.742 419.614 112.638 421.606 110.812C423.4 109.166 425.769 89.1266 425.918 76.3262C425.934 74.5 425.868 72.5421 424.733 71.1107C424.14 70.3703 423.301 69.8602 422.445 69.416C417.491 66.8822 413.821 66.1912 408.275 65.8457" fill="#FCA70C"></path><path opacity="0.45" d="M369.632 104.494C369.796 106.764 367.097 108.624 363.625 108.624C360.152 108.624 357.189 106.781 357.041 104.494C356.877 102.223 359.576 100.364 363.048 100.364C366.521 100.364 369.484 102.207 369.632 104.494Z" stroke="#A4A4F7" stroke-miterlimit="10"></path><path d="M367.328 104.494C367.427 105.761 365.715 106.781 363.51 106.781C361.304 106.781 359.428 105.761 359.329 104.494C359.231 103.227 360.942 102.207 363.148 102.207C365.353 102.207 367.229 103.227 367.328 104.494Z" fill="#A4A4F7"></path><path d="M398.894 48.7008C398.812 48.306 397.923 48.2237 397.034 48.3389C396.145 48.454 393.759 48.7502 393.282 49.1286C392.788 49.507 392.821 49.7867 392.558 49.8032C392.311 49.8361 392.278 49.5564 391.718 49.3096C391.159 49.0628 389.776 49.2273 388.887 49.3425C387.999 49.4577 387.143 49.6551 387.176 50.0664C387.192 50.4777 387.357 51.1852 387.538 51.3004C387.719 51.4156 387.719 51.3991 388.427 53.0115C388.822 53.9164 389.414 54.4265 390.566 54.1797C392.031 53.8671 392.13 52.1889 392.245 51.4978C392.36 50.8068 392.459 50.6916 392.689 50.6752C392.92 50.6423 393.068 50.7245 393.347 51.3662C393.627 52.0079 393.841 53.5051 395.339 53.5874C397.314 53.7025 398.153 53.028 398.433 51.7611C398.795 50.05 398.713 50.05 398.861 49.8854C398.927 49.8196 400.326 50.0171 400.326 50.0171L400.293 49.507C400.293 49.507 398.927 48.816 398.91 48.7173L398.894 48.7008ZM391.751 52.1395C391.702 53.0115 391.274 53.8177 390.303 53.9329C389.398 54.048 388.986 53.5709 388.492 52.4192C388.064 51.4156 388.048 50.6094 388.196 50.3297C388.344 50.05 388.838 50.0664 389.957 49.9842C391.076 49.9183 391.455 49.8854 391.636 50.379C391.702 50.56 391.784 51.251 391.751 52.123V52.1395ZM398.17 51.2017C397.989 52.4357 397.528 53.0444 396.293 53.1925C394.549 53.4064 394.203 52.7154 393.94 51.8763C393.677 51.0371 393.594 50.3461 393.611 50.1487C393.66 49.6222 394.039 49.5564 395.141 49.3425C396.244 49.1286 397.725 48.8818 397.939 49.1121C398.153 49.3425 398.334 50.1158 398.17 51.2017Z" fill="#483A99"></path><path d="M410.776 45.97C410.677 45.0651 410.513 44.1766 410.282 43.3375C409.69 41.0341 408.275 39.0926 406.184 37.9574C403.502 36.5095 399.832 36.2134 396.902 37.036C395.207 37.5132 394.565 38.4016 393.693 38.3852C393.018 38.3687 392.179 37.908 391.323 37.5954C384.674 35.2098 385.793 41.7087 386.501 43.502C386.813 44.2918 388.327 44.8676 388.525 45.1967C388.722 45.5258 388.706 47.1381 388.838 47.8456C388.969 48.5531 389.661 48.8163 389.661 48.8163C389.661 48.8163 389.693 46.7268 389.726 46.4471C389.809 45.7067 390.056 44.9335 390.714 44.4892C391.389 44.0285 392.31 43.9627 393.1 43.8146C393.923 43.6666 397.741 44.407 397.988 44.6208C399.223 45.6903 399.552 48.1089 399.897 49.5403C400.062 50.2149 400.227 50.6591 400.506 50.6426C400.72 48.6847 401.395 48.6189 402.564 49.2935C403.189 49.6554 403.551 50.8894 403.568 51.9589C403.601 53.2093 402.893 54.5913 401.593 54.8546C401.115 54.9533 402.531 57.6351 403.189 58.3097C403.403 58.5236 403.617 58.7539 403.88 58.9185C404.127 59.0665 404.407 59.1324 404.687 59.2146L405.641 59.4779C406.069 59.593 406.514 59.7082 406.941 59.593C407.649 59.3956 408.011 58.6552 408.324 57.9971C408.851 56.9277 409.443 55.8747 409.871 54.7559C410.875 52.1234 411.138 48.9315 410.809 45.9864L410.776 45.97Z" fill="#483A99"></path><path d="M530.492 144.408H446.392L456.464 136.955V100.594C456.464 97.5666 458.916 95.0986 461.961 95.0986H530.492C533.52 95.0986 535.989 97.5501 535.989 100.594V138.913C535.989 141.94 533.537 144.408 530.492 144.408Z" fill="#D5D2FF"></path><path opacity="0.45" d="M528.681 102.189H490.252V105.858H528.681V102.189Z" fill="white"></path><path opacity="0.45" d="M528.681 107.685H490.252V111.354H528.681V107.685Z" fill="white"></path><path opacity="0.45" d="M528.681 113.18H490.252V116.849H528.681V113.18Z" fill="white"></path><path opacity="0.45" d="M528.681 118.527H490.252V122.196H528.681V118.527Z" fill="white"></path><path opacity="0.45" d="M517.062 124.928H490.252V128.597H517.062V124.928Z" fill="white"></path><path d="M481.661 102.189H468.676C465.595 102.189 463.097 104.687 463.097 107.767V124.829C463.097 127.909 465.595 130.406 468.676 130.406H481.661C484.743 130.406 487.241 127.909 487.241 124.829V107.767C487.241 104.687 484.743 102.189 481.661 102.189Z" fill="#A9ADFF"></path><path opacity="0.45" d="M487.241 133.927H463.097V136.954H487.241V133.927Z" fill="white"></path><path d="M477.547 120.502H468.791C468.297 120.502 467.87 120.173 467.738 119.696L466.059 113.477C465.878 112.786 466.388 112.095 467.113 112.095H479.242C479.966 112.095 480.493 112.786 480.295 113.477L478.617 119.696C478.485 120.173 478.057 120.502 477.563 120.502H477.547Z" fill="white"></path><path d="M479.094 121.901H468.544C468.429 121.901 468.33 121.802 468.33 121.687C468.33 121.571 468.429 121.473 468.544 121.473H478.929L482.599 108.672C482.632 108.574 482.714 108.508 482.813 108.508H485.101C485.216 108.508 485.315 108.607 485.315 108.722C485.315 108.837 485.216 108.936 485.101 108.936H482.961L479.291 121.736C479.258 121.835 479.176 121.901 479.077 121.901H479.094Z" fill="white"></path><path d="M470.157 123.628C470.157 124.336 469.581 124.911 468.874 124.911C468.166 124.911 467.59 124.336 467.59 123.628C467.59 122.921 468.166 122.345 468.874 122.345C469.581 122.345 470.157 122.921 470.157 123.628Z" fill="white"></path><path d="M478.156 124.911C478.865 124.911 479.439 124.337 479.439 123.628C479.439 122.919 478.865 122.345 478.156 122.345C477.447 122.345 476.872 122.919 476.872 123.628C476.872 124.337 477.447 124.911 478.156 124.911Z" fill="white"></path><path d="M218.085 93.6179H325.227L312.39 84.1245V25.5355C312.39 21.669 309.263 18.543 305.395 18.543H218.085C214.218 18.543 211.091 21.669 211.091 25.5355V86.6254C211.091 90.4918 214.218 93.6179 218.085 93.6179Z" fill="#D5D2FF"></path><g opacity="0.45"><path opacity="0.45" d="M220.407 34.0752L269.369 34.0752V29.3861L220.407 29.3861V34.0752Z" fill="white"></path><path opacity="0.45" d="M220.407 41.084L269.369 41.084V36.3949L220.407 36.3949V41.084Z" fill="white"></path><path opacity="0.45" d="M220.407 48.0762L269.369 48.0762V43.3871L220.407 43.3871V48.0762Z" fill="white"></path><path opacity="0.45" d="M220.407 54.8877L269.369 54.8877V50.1986L220.407 50.1986V54.8877Z" fill="white"></path><path opacity="0.45" d="M220.407 61.7158L269.369 61.7158V57.0267L220.407 57.0267V61.7158Z" fill="white"></path><path opacity="0.45" d="M220.407 74.1045H269.369V69.4154H220.407V74.1045Z" fill="white"></path><path opacity="0.45" d="M220.39 81.4756L303.964 81.4756V76.7865L220.39 76.7865V81.4756Z" fill="white"></path></g><path d="M280.296 65.3525H296.869C300.787 65.3525 303.963 62.1777 303.963 58.2613V36.494C303.963 32.5777 300.787 29.4028 296.869 29.4028H280.296C276.379 29.4028 273.203 32.5777 273.203 36.494V58.2613C273.203 62.1777 276.379 65.3525 280.296 65.3525Z" fill="#C4C4F7"></path><path opacity="0.45" d="M273.203 73.6934H303.963V69.8269H273.203V73.6934Z" fill="white"></path><path d="M285.547 52.7333H296.705C297.331 52.7333 297.89 52.3056 298.055 51.7133L300.195 43.7829C300.441 42.8945 299.767 42.0225 298.845 42.0225H283.391C282.469 42.0225 281.811 42.8945 282.041 43.7829L284.181 51.7133C284.346 52.322 284.889 52.7333 285.53 52.7333H285.547Z" fill="white"></path><path d="M283.588 54.51H297.034C297.182 54.51 297.314 54.3783 297.314 54.2303C297.314 54.0822 297.182 53.9506 297.034 53.9506H283.802L279.128 37.6457C279.095 37.5305 278.98 37.4482 278.865 37.4482H275.935C275.787 37.4482 275.655 37.5799 275.655 37.7279C275.655 37.876 275.787 38.0076 275.935 38.0076H278.651L283.325 54.3125C283.358 54.4277 283.473 54.51 283.588 54.51Z" fill="white"></path><path d="M294.977 56.6982C294.977 57.6031 295.701 58.327 296.606 58.327C297.511 58.327 298.235 57.6031 298.235 56.6982C298.235 55.7933 297.511 55.0693 296.606 55.0693C295.701 55.0693 294.977 55.7933 294.977 56.6982Z" fill="white"></path><path d="M283.144 56.6982C283.144 57.6031 283.868 58.327 284.773 58.327C285.678 58.327 286.402 57.6031 286.402 56.6982C286.402 55.7933 285.678 55.0693 284.773 55.0693C283.868 55.0693 283.144 55.7933 283.144 56.6982Z" fill="white"></path><path d="M465.894 402.094C491.972 402.094 513.112 399.869 513.112 397.125C513.112 394.381 491.972 392.156 465.894 392.156C439.816 392.156 418.676 394.381 418.676 397.125C418.676 399.869 439.816 402.094 465.894 402.094Z" fill="#EAE6FF"></path><path d="M440.565 390.067C440.17 390.84 438.277 392.617 435.644 393.802C433.011 394.97 427.431 395.529 430.542 396.566C433.636 397.603 437.257 396.977 439.084 396.681C440.91 396.385 442.688 396.352 444.844 396.336C447.691 396.319 447.708 396.138 447.329 392.93C446.802 388.521 441.865 387.583 440.581 390.067H440.565Z" fill="#9AA3F4"></path><path d="M492.111 388.471C491.947 389.36 493.214 392.058 490.959 394.049C488.704 396.023 483.553 398.113 486.96 398.195C490.367 398.277 493.625 397.488 495.37 396.632C497.098 395.776 495.715 394.427 497.871 393.753C500.702 392.864 500.11 390.775 498.645 389.491C496.769 385.246 492.621 385.608 492.111 388.488V388.471Z" fill="#9AA3F4"></path><path d="M481.266 298.622C481.266 298.622 488.046 278.697 468.807 262.277C468.807 262.277 458.504 266.374 450.242 266.884C443.742 267.279 440.433 266.67 440.433 266.67C440.433 266.67 439.89 284.374 439.857 293.916L481.249 298.622H481.266Z" fill="#4A41A3"></path><path d="M438.31 331.708C437.931 322.791 447.608 323.959 451.163 330.622C458.537 344.393 448.448 376.082 447.115 391.103C445.732 391.646 443.412 392.058 442.013 391.416C441.058 390.972 440.531 389.771 440.531 389.771C440.745 371.343 438.705 341.218 438.31 331.692V331.708Z" fill="#4A41A3"></path><path d="M450.834 333.058C449.715 336.694 437.388 340.527 438.392 327.283C438.836 321.409 440.021 288.98 440.252 285.854C440.482 282.728 441.009 278.154 442.507 277.595C450.061 274.748 463.441 284.62 461.45 296.368C460.117 304.216 453.155 325.539 450.851 333.074L450.834 333.058Z" fill="#4A41A3"></path><path d="M470.255 338.126C467.276 329.718 476.97 328.237 482.45 333.42C495.32 345.546 495.814 374.125 498.974 388.867C497.18 390.084 494.349 390.528 493.345 390.479C492.292 390.43 491.815 389.689 491.815 389.689C486.581 372.019 473.431 347.125 470.255 338.126Z" fill="#4A41A3"></path><path d="M482.978 335.377C483.307 339.161 473.037 346.993 468.988 334.341C467.194 328.73 459.508 295.577 458.537 292.599C457.583 289.621 457.846 283.452 459.031 282.366C464.973 276.887 478.369 281.708 480.92 293.34C482.632 301.106 482.27 327.529 482.978 335.394V335.377Z" fill="#4A41A3"></path><path d="M430.016 190.23C430.361 189.868 430.723 189.489 431.036 189.095C433.472 185.985 433.834 183.221 436.089 179.601C436.418 179.075 436.862 177.709 437.734 176.459C438.64 175.159 440.829 173.76 441.405 173.448C442.458 172.888 441.553 175.225 441.553 175.225C441.553 175.225 442.441 173.925 443.314 174.024C443.643 174.057 443.709 176.047 443.709 176.376C443.758 179.091 443.116 181.822 441.865 184.241C441.569 184.8 441.24 185.393 441.24 186.034C442.046 186.034 442.721 185.459 443.363 184.981C444.005 184.504 444.828 184.076 445.585 184.34C445.486 184.669 445.322 184.965 445.157 185.261C444.202 187.071 443.116 188.996 441.256 189.868C440.154 190.394 438.87 190.493 437.784 191.053C435.842 192.089 434.887 194.491 432.912 195.462" fill="#F2A181"></path><path d="M447.561 176.627L441.761 174.202C441.216 173.974 440.59 174.231 440.362 174.776L435.204 187.101C434.976 187.645 435.233 188.272 435.778 188.5L441.578 190.925C442.123 191.153 442.75 190.896 442.978 190.351L448.135 178.027C448.363 177.482 448.106 176.855 447.561 176.627Z" fill="#5E5DBB"></path><path d="M447.808 177.624L441.294 174.9L435.953 187.666L442.466 190.389L447.808 177.624Z" fill="#B4B4DB"></path><path d="M447.823 202.832C447.823 202.832 442.852 203.095 438.409 204.428C431.71 206.435 429.406 209.545 427.086 210.828C431.579 205.119 436.598 193.01 436.598 193.01C436.598 193.01 430.558 188.041 429.867 189.226C429.176 190.394 403.814 220.075 404.604 224.879C404.933 226.853 407.863 228.811 410.463 228.729C417.655 228.482 425.999 225.866 434.755 223.003C438.606 221.737 439.791 224.451 439.791 224.451" fill="#7A74D1"></path><path d="M427.086 210.812C427.086 210.812 423.893 217.245 422.938 217.673C421.984 218.084 425.259 216.34 427.069 214.481C428.863 212.622 431.332 207.752 431.332 207.752C430.394 208.147 427.102 210.829 427.102 210.829L427.086 210.812Z" fill="#6960C4"></path><path d="M437.109 179.634C437.421 179.848 437.504 180.275 437.553 180.654C437.767 182.085 437.981 183.582 437.438 184.915C437.076 185.771 436.417 186.478 435.726 187.103C434.936 187.794 434.047 188.403 433.109 188.897" fill="#F2A181"></path><path d="M447.971 168.923C446.276 169.416 445.387 171.605 444.811 173.102C444.12 174.912 443.774 176.82 443.544 178.729C443.379 180.062 443.297 181.46 443.824 182.694C444.087 183.319 444.515 183.879 444.926 184.422C445.157 184.734 445.404 185.047 445.716 185.261C446.029 185.475 446.457 185.59 446.819 185.442C447.346 185.244 447.56 184.619 447.708 184.076C448.679 180.522 449.748 176.919 451.756 173.826" fill="#170D54"></path><path d="M446.095 180.177C446.062 179.042 444.877 178.302 443.84 179.486C442.984 180.457 442.754 182.3 442.705 183.665C442.639 185.294 443.906 185.623 444.943 185.837" fill="#F2A181"></path><path d="M434.771 208.673C436.861 206.271 443.494 202.322 452.365 202.602C458.471 202.799 475.126 203.803 476.986 207.883C477.941 209.973 478.961 231.362 477.562 238.749C476.509 244.294 473.843 258.032 473.843 261.356C473.843 264.679 475.62 266.094 474.797 267.065C472.937 269.22 460.199 270.125 454.225 270.125C448.909 270.125 439.84 268.71 439.38 266.999C438.705 264.465 440.416 264.564 440.647 261.915C440.877 259.266 441.552 242.04 440.581 239.226C438.82 234.142 437.964 225.85 436.565 222.082C435.495 219.219 432.681 211.075 434.788 208.673H434.771Z" fill="#7A74D1"></path><path d="M472.888 225.982C473.53 227.298 477.825 234.225 477.825 234.225L478.006 235.048C477.908 236.479 477.76 237.746 477.562 238.75C476.509 244.294 473.842 258.032 473.842 261.356C473.842 264.679 475.554 266.029 474.797 267.065C473.332 269.056 449.32 273.531 450.489 267.97C450.587 267.46 470.65 252.175 470.748 251.665C471.67 247.272 472.476 244.113 472.888 240.921C473.859 233.221 472.246 224.666 472.888 225.999V225.982Z" fill="#6960C4"></path><path d="M447.543 194.952C447.543 194.952 447.494 201.911 447.214 202.191C446.934 202.471 445.552 203.129 445.552 203.129C445.552 203.129 446.539 209.184 448.053 208.723C449.567 208.262 459.574 203.211 459.574 203.211C459.574 203.211 458.159 202.635 458.159 202.076C458.159 201.516 459.508 190.575 459.508 190.575" fill="#FFBE9D"></path><path d="M454.489 169.68C453.024 170.075 449.189 169.285 448.12 170.881C447.066 172.477 446.128 176.31 445.733 177.38C444.943 179.486 444.433 181.756 443.857 183.928C443.1 186.758 441.866 191.957 444.647 194.326C445.437 195.001 445.799 195.231 446.786 195.412C448.103 195.642 449.403 195.922 450.72 196.153C452.761 196.514 455.015 196.942 457.04 196.284C459.739 195.412 461.22 191.694 461.911 189.176L465.894 174.731L454.489 169.696V169.68Z" fill="#FFBE9D"></path><path d="M447.296 211.438C447.296 211.438 446.703 238.601 445.601 255.12L449.6 260.632L452.348 253.738C452.348 253.738 453.5 233.814 449.748 211.635L447.296 211.454V211.438Z" fill="#3B2E7A"></path><path d="M446.375 209.052L446.474 209.43C446.655 210.138 446.935 210.812 447.297 211.438L449.749 211.619C449.749 211.619 451.411 210.747 451.642 209.809C451.856 208.871 448.91 207.341 448.91 207.341L448.547 207.489C447.725 207.818 446.984 208.344 446.408 209.019L446.375 209.052Z" fill="#3B2E7A"></path><path d="M458.323 200.381C458.323 200.381 459.887 201.351 461.121 203.211C459.854 206.09 457.007 211.207 453.879 213.543C452.415 209.611 448.909 207.324 448.909 207.324C448.909 207.324 457.451 205.81 458.34 200.364L458.323 200.381Z" fill="white"></path><path d="M448.893 207.341C448.893 207.341 445.831 208.558 444.021 211.981C444.021 211.981 443.429 207.357 444.679 203.376C444.679 203.376 446.687 200.809 447.379 200.76C447.099 204.034 448.893 207.341 448.893 207.341Z" fill="white"></path><path d="M449.288 267.97C446.243 268.43 445.124 269.549 443.412 271.244C443.264 271.375 443.132 271.556 443.149 271.754C443.182 272.001 443.478 272.099 443.708 272.149C445.124 272.379 445.354 271.474 446.671 270.931C447.56 270.553 448.448 270.174 449.337 269.796" fill="#F2A181"></path><path d="M438.969 245.857L449.732 280.326C450.029 281.247 449.502 282.054 448.597 282.054L426.148 284.028C425.342 284.028 424.519 283.403 424.272 282.58L412.702 248.638C412.406 247.716 413.755 246.384 414.644 246.384L437.093 244.409C437.899 244.409 438.722 245.034 438.969 245.857Z" fill="#E9E6FF"></path><path d="M438.228 246.746L448.843 280.688C449.14 281.61 448.613 282.416 447.708 282.416L425.259 284.39C424.453 284.39 423.63 283.765 423.383 282.942L412.767 249C412.471 248.078 412.998 247.272 413.903 247.272L436.352 245.298C437.158 245.298 437.981 245.923 438.228 246.746Z" fill="#E0D9FF"></path><path d="M420.306 245.643L421.096 248.621L431.596 247.7L430.74 244.738L420.306 245.643Z" fill="white"></path><path d="M422.297 242.879C422.511 243.57 423.351 246.252 423.351 246.252L428.37 245.791L427.317 242.418C426.856 240.971 425.375 239.901 423.993 240.016C422.61 240.148 421.853 241.431 422.314 242.879H422.297ZM423.4 242.813C423.153 242.007 423.565 241.283 424.338 241.217C425.112 241.152 425.951 241.744 426.198 242.567C426.445 243.373 426.033 244.097 425.26 244.162C424.486 244.228 423.647 243.636 423.4 242.813Z" fill="white"></path><path d="M457.83 265.567C455.477 266.061 449.206 267.937 448.531 268.249C447.741 268.628 445.141 270.586 444.532 271.211C442.162 273.58 443.38 274.682 442.442 277.891C442.392 278.055 442.392 278.22 442.376 278.401C442.376 278.73 442.82 279.026 443.281 278.713C443.528 279.125 444.252 278.878 444.614 278.417C444.614 278.73 445.059 278.944 445.783 278.549C446.178 278.335 446.095 278.351 447.001 277.545C447.643 276.969 448.4 276.509 449.552 275.999C450.325 275.653 451.329 275.324 452.037 274.863C452.991 274.238 454.687 274.09 455.526 271.359C455.707 270.75 456.299 270.388 456.843 270.059C458.126 269.253 459.394 268.447 460.677 267.657" fill="#FFBE9D"></path><path d="M472.312 221.408C473.316 224.962 477.464 249.641 477.464 249.641L454.061 266.588L456.003 271.705C456.003 271.705 483.998 262.31 486.203 255.877C488.408 249.46 488.31 220.437 480.525 210.253C478.056 207.012 473.086 205.383 473.086 205.383" fill="#7A74D1"></path><path d="M448.3 274.452C448.3 274.452 448.07 274.666 447.708 274.995C447.346 275.324 446.868 275.686 446.49 276.18C446.095 276.657 445.7 277.15 445.371 277.496C445.042 277.841 444.778 278.039 444.778 278.039C444.778 278.039 445.354 276.904 446.21 275.933C446.622 275.423 447.214 275.077 447.609 274.831C448.037 274.6 448.317 274.452 448.317 274.452H448.3Z" fill="#F2A181"></path><path d="M447.017 272.889C447.017 272.889 446.704 273.136 446.358 273.63C446.177 273.86 445.98 274.156 445.782 274.452L445.47 274.93C445.354 275.111 445.272 275.226 445.206 275.423C444.581 276.92 443.544 278.171 443.544 278.171C443.544 278.171 443.676 277.792 443.922 277.233C444.169 276.674 444.515 275.966 444.844 275.259C445.223 274.485 445.782 273.909 446.194 273.465C446.638 273.037 447 272.856 447 272.856L447.017 272.889Z" fill="#F2A181"></path><path d="M445.536 271.639C445.536 271.639 445.339 271.968 444.976 272.428C444.812 272.659 444.565 272.922 444.384 273.202C444.236 273.481 444.088 273.876 443.94 274.205C443.643 274.913 443.38 275.637 443.183 276.18C442.985 276.723 442.837 277.085 442.837 277.085C442.837 277.085 442.837 276.69 442.936 276.114C443.034 275.538 443.248 274.765 443.594 274.057C443.775 273.695 443.923 273.366 444.17 273.037C444.417 272.741 444.664 272.511 444.878 272.313C445.322 271.918 445.569 271.639 445.569 271.639H445.536Z" fill="#F2A181"></path><path d="M463.409 186.659C462.487 186.116 461.796 185.557 461.187 186.429C460.874 186.89 460.676 187.531 460.133 187.696C459.59 187.86 459.031 187.367 458.899 186.824C458.767 186.281 458.932 185.705 459.097 185.178C459.459 183.994 459.837 182.809 460.199 181.625C460.561 180.456 460.923 179.19 460.463 178.071C460.232 177.495 459.804 177.034 459.343 176.639C457.829 175.34 455.838 174.698 453.879 174.303C451.921 173.908 449.913 173.694 448.004 173.102C447.197 172.855 446.407 172.526 445.766 171.983C444.729 171.111 444.202 169.729 444.186 168.363C444.186 166.998 444.63 165.682 445.338 164.513C445.486 164.974 445.683 165.435 445.93 165.846C446.161 165.221 446.539 164.645 447 164.168C447.576 167.343 460.973 166.29 464.116 167.689C466.289 168.66 468.083 169.301 468.017 172.822C468.083 173.053 468.264 173.217 468.445 173.382C470.37 175.142 471.21 177.297 471.44 180.489C471.736 184.389 469.465 188.617 467.227 191.842C466.667 192.648 466.354 193.224 465.565 193.816C464.775 194.409 463.408 194.705 462.454 194.524C461.483 194.343 459.574 194.425 459.557 193.438C459.557 192.73 461.055 191.48 461.466 190.904" fill="#3B2E7A"></path><path d="M459.903 190.344C459.903 190.344 459.738 191.002 460.149 191.512C460.512 191.957 461.236 191.891 461.729 191.743C463.161 191.282 464.132 189.9 464.412 188.469C464.725 186.774 463.82 185.096 462.273 185.524C461.367 185.787 460.808 186.807 460.808 187.745" fill="#FFBE9D"></path><path d="M447.543 195.544L451.839 196.334C451.839 196.334 450.407 197.946 447.478 197.946" fill="#F2A181"></path><g opacity="0.3"><g opacity="0.3"><path opacity="0.3" d="M109.857 121.819L115.618 124.731L112.738 117.656" fill="#3939D3"></path><path opacity="0.3" d="M91.9844 112.786C91.9844 119.137 97.432 124.27 104.163 124.27C110.895 124.27 116.342 119.12 116.342 112.786C116.342 106.452 110.895 101.302 104.163 101.302C97.432 101.302 91.9844 106.452 91.9844 112.786Z" fill="#3939D3"></path></g><path opacity="0.3" d="M101.185 109.018V117.228C101.185 117.886 101.909 118.297 102.468 117.968L109.578 113.855C110.154 113.526 110.154 112.703 109.578 112.358L102.468 108.245C101.892 107.916 101.185 108.327 101.185 108.985V109.018Z" fill="#FEFEFE"></path></g><g opacity="0.3"><g opacity="0.3"><path opacity="0.3" d="M508.47 209.201L502.71 212.096L505.59 205.021" fill="#3939D3"></path><path opacity="0.3" d="M526.344 200.151C526.344 206.502 520.897 211.635 514.165 211.635C507.434 211.635 501.986 206.486 501.986 200.151C501.986 193.817 507.434 188.667 514.165 188.667C520.897 188.667 526.344 193.817 526.344 200.151Z" fill="#3939D3"></path></g><g opacity="0.3"><path opacity="0.3" d="M511.992 205.663C514.642 205.712 517.341 205.745 519.777 205.58C520.55 205.531 521.225 204.379 520.287 204.001C520.682 203.803 521.077 203.622 521.258 203.211C521.423 202.816 521.225 202.273 520.781 202.174C521.703 202.388 522.065 201.006 521.34 200.562C521.719 200.249 522.032 199.855 522.114 199.394C522.196 198.933 521.999 198.407 521.554 198.176C521.275 198.028 520.929 198.028 520.6 198.028C519.497 198.028 518.394 198.028 517.292 198.012C517.588 196.383 517.687 194.606 516.798 193.175C516.535 192.747 515.827 192.22 515.267 192.566C514.741 192.879 514.889 193.652 514.905 194.145C515.021 196.169 513.786 198.209 511.894 199.164C511.894 199.164 512.025 203.474 511.992 205.679V205.663Z" fill="#FEFEFE"></path><path opacity="0.3" d="M511.038 199.147H507.022V205.663H511.038V199.147Z" fill="#FEFEFE"></path></g></g><g opacity="0.3"><g opacity="0.3"><path opacity="0.3" d="M324.141 109.479L328.337 104.938L322.577 106.073" fill="#3939D3"></path><path opacity="0.3" d="M308.571 110.531C308.571 115.138 312.521 118.856 317.409 118.856C322.297 118.856 326.247 115.122 326.247 110.531C326.247 105.941 322.297 102.206 317.409 102.206C312.521 102.206 308.571 105.941 308.571 110.531Z" fill="#3939D3"></path></g><g opacity="0.3"><path opacity="0.3" d="M315.697 114.53C317.442 114.562 319.203 114.579 320.799 114.464C321.309 114.431 321.737 113.592 321.128 113.329C321.391 113.197 321.655 113.049 321.77 112.753C321.885 112.473 321.754 112.078 321.457 111.996C322.066 112.144 322.297 111.157 321.836 110.828C322.083 110.614 322.297 110.318 322.346 109.972C322.395 109.643 322.264 109.248 321.984 109.084C321.803 108.985 321.572 108.969 321.359 108.969H319.186C319.384 107.767 319.433 106.484 318.873 105.448C318.692 105.135 318.232 104.757 317.869 105.003C317.524 105.234 317.623 105.793 317.639 106.139C317.705 107.603 316.915 109.084 315.664 109.775C315.664 109.775 315.746 112.901 315.73 114.497L315.697 114.53Z" fill="#FEFEFE"></path><path opacity="0.3" d="M315.072 109.791H312.438V114.513H315.072V109.791Z" fill="#FEFEFE"></path></g></g><g opacity="0.3"><path opacity="0.3" d="M365.269 48.5698C367.047 46.3486 368.116 43.5187 368.116 40.4585C368.116 33.2685 362.274 27.4277 355.082 27.4277C347.889 27.4277 342.047 33.2685 342.047 40.4585C342.047 47.6484 347.889 53.4892 355.082 53.4892C357.748 53.4892 360.233 52.683 362.307 51.301L367.359 53.9828L365.269 48.5698Z" fill="#3939D3"></path><path opacity="0.3" d="M349.585 36.8887C350.835 35.6547 352.86 35.6876 354.078 36.938L354.884 37.7607L355.724 36.938C356.974 35.7041 358.982 35.7205 360.217 36.9709C361.451 38.2214 361.434 40.2451 360.184 41.4626L357.09 44.5064H357.073C356.579 45.0164 355.97 45.2961 355.329 45.3949C354.357 45.5429 353.321 45.2303 352.564 44.4735L349.519 41.3639C348.284 40.1135 348.317 38.0897 349.568 36.8722L349.585 36.8887Z" fill="white"></path></g><defs><linearGradient id="paint0_linear_1366_5252" x1="-20.6901" y1="567.603" x2="655.655" y2="213.786" gradientUnits="userSpaceOnUse"><stop stop-color="#DAE3FE"></stop><stop offset="1" stop-color="#E9EFFD"></stop></linearGradient></defs></svg>